<svg id="e2fzugSy8Z91" xmlns="http://www.w3.org/2000/svg" xmlns:xlink="http://www.w3.org/1999/xlink" viewBox="0 0 922 278" shape-rendering="geometricPrecision" text-rendering="geometricPrecision"><defs><filter id="e2fzugSy8Z92-filter" x="-400%" width="600%" y="-400%" height="600%"><feGaussianBlur id="e2fzugSy8Z92-filter-blur-0" stdDeviation="0,0" result="result"/></filter><filter id="e2fzugSy8Z914-filter" x="-400%" width="600%" y="-400%" height="600%"><feGaussianBlur id="e2fzugSy8Z914-filter-blur-0" stdDeviation="0,0" result="result"/></filter></defs><g id="e2fzugSy8Z92" transform="matrix(1.19320913944302 -0.00555349490425 0.00555349490425 1.19320913944302 -29.58685780664337 -25.95048192162869)" filter="url(#e2fzugSy8Z92-filter)"><path id="e2fzugSy8Z93" d="M218.800000,138.600000C220.700000,140.300000,222.400000,142.300000,223.700000,144.600000C225.700000,148.100000,226.900000,152.200000,226.900000,156.600000L226.900000,192.500000C226.900000,201.400000,222.100000,209.100000,214.900000,213.200000L214.900000,156.500000C214.900000,149.900000,209.500000,144.500000,202.900000,144.500000L119.100000,144.500000L119.100000,132.500000L203,132.500000C209.600000,132.500000,215,127.100000,215,120.500000L215,84.600000C214.900000,78.100000,209.600000,72.800000,203,72.800000L83.300000,72.800000L83.300000,192.500000L71.300000,192.500000L71.300000,60.800000L203,60.800000C207.400000,60.800000,211.400000,62,215,64C218.600000,66.100000,221.700000,69.100000,223.800000,72.800000C225.800000,76.300000,227,80.400000,227,84.800000L227,120.700000C227,125.100000,225.800000,129.100000,223.800000,132.700000C222.400000,134.900000,220.800000,136.900000,218.800000,138.600000Z" fill="rgb(0,93,143)" stroke="none" stroke-width="1"/><path id="e2fzugSy8Z94" d="M203,162.600000L203,210.500000C203,213.100000,201.300000,215.300000,199,216.100000C198.400000,216.300000,197.700000,216.400000,197,216.400000L148.800000,216.400000C145.700000,216.400000,143.100000,213.900000,143.100000,210.700000L143.100000,186.100000C143.100000,183,145.600000,180.400000,148.800000,180.400000L179,180.400000L179,192.400000L156.600000,192.400000C155.700000,192.400000,155.100000,193.100000,155.100000,193.900000L155.100000,202.800000C155.100000,203.700000,155.800000,204.300000,156.600000,204.300000L189.700000,204.300000C190.400000,204.300000,191,203.700000,191,203L191,169.700000C191,169,190.400000,168.400000,189.700000,168.400000L132.700000,168.400000C131.800000,168.400000,131.200000,169.100000,131.200000,169.900000L131.200000,216.300000L119.200000,216.300000L119.200000,162.100000C119.200000,159,121.700000,156.400000,124.900000,156.400000L197,156.400000C200.300000,156.600000,203,159.300000,203,162.600000Z" fill="rgb(240,96,82)" stroke="none" stroke-width="1"/><path id="e2fzugSy8Z95" d="M203,90.700000L203,114.600000C203,117.900000,200.300000,120.600000,197,120.600000L119.200000,120.600000L119.200000,108.600000L189.500000,108.600000C190.400000,108.600000,191,107.900000,191,107.100000L191,98.200000C191,97.300000,190.300000,96.700000,189.500000,96.700000L107.200000,96.700000L107.200000,216.400000L71.300000,216.400000L71.300000,204.400000L95.200000,204.400000L95.200000,84.700000L197,84.700000C200.300000,84.700000,203,87.400000,203,90.700000Z" fill="rgb(39,135,183)" stroke="none" stroke-width="1"/></g><g id="e2fzugSy8Z96" opacity="0"><path id="e2fzugSy8Z97" d="M294.700000,181.900000C298.500000,181.900000,300.700000,184.200000,300.700000,187.900000L300.700000,193.100000C300.700000,196.700000,298.500000,199.100000,294.700000,199.100000L288.800000,199.100000L288.800000,182L294.700000,182ZM294.700000,184.400000L291.800000,184.400000L291.800000,196.700000L294.700000,196.700000C296.700000,196.700000,297.800000,195.600000,297.800000,193.100000L297.800000,188.100000C297.800000,185.500000,296.800000,184.400000,294.700000,184.400000Z" fill="rgb(240,96,82)" stroke="none" stroke-width="1"/><path id="e2fzugSy8Z98" d="M386.700000,181.900000L386.700000,199L383.700000,199L383.700000,181.900000Z" fill="rgb(240,96,82)" stroke="none" stroke-width="1"/><path id="e2fzugSy8Z99" d="M481.300000,185.300000L479.100000,186.100000C478.500000,184.600000,477.400000,183.900000,476,183.900000C473.700000,183.900000,472.600000,185.200000,472.600000,187.800000L472.600000,193.100000C472.600000,195.500000,473.800000,196.600000,475.900000,196.600000C477.200000,196.600000,478.100000,196.200000,478.800000,195.100000L478.800000,192.100000L476.600000,192.100000L476.600000,190.100000L481.400000,190.100000L481.400000,198.800000L479,198.800000L479,197.500000C478,198.500000,476.700000,199,475.200000,199C471.800000,199,469.700000,197,469.700000,193.100000L469.700000,187.800000C469.700000,184,471.700000,181.500000,475.800000,181.500000C478.500000,181.500000,480.600000,183,481.300000,185.300000Z" fill="rgb(240,96,82)" stroke="none" stroke-width="1"/><path id="e2fzugSy8Z910" d="M567.200000,181.900000L567.200000,199L564.200000,199L564.200000,181.900000Z" fill="rgb(240,96,82)" stroke="none" stroke-width="1"/><path id="e2fzugSy8Z911" d="M661.200000,181.900000L661.200000,184.500000L657.200000,184.500000L657.200000,199.100000L654.200000,199.100000L654.200000,184.500000L650.200000,184.500000L650.200000,181.900000Z" fill="rgb(240,96,82)" stroke="none" stroke-width="1"/><path id="e2fzugSy8Z912" d="M747.200000,199.100000L744.200000,199.100000L749.600000,182L752.900000,182L758.300000,199.100000L755.300000,199.100000L754.200000,195.100000L748.400000,195.100000ZM748.900000,192.900000L753.500000,192.900000L751.200000,184.600000Z" fill="rgb(240,96,82)" stroke="none" stroke-width="1"/><path id="e2fzugSy8Z913" d="M844.100000,181.900000L844.100000,196.500000L850.400000,196.500000L850.400000,199.100000L841.200000,199.100000L841.200000,182L844.100000,182Z" fill="rgb(240,96,82)" stroke="none" stroke-width="1"/></g><g id="e2fzugSy8Z914" filter="url(#e2fzugSy8Z914-filter)"><path id="e2fzugSy8Z915" d="M804.800000,152.400000L786,152.400000L786,79.200000L804.800000,79.200000L804.800000,108L814.200000,108L830.500000,79.200000L850.400000,79.200000L829.900000,115.300000L850.300000,152.500000L830.400000,152.500000L814.200000,122.700000L804.800000,122.700000Z" opacity="0" fill="rgb(39,135,183)" stroke="none" stroke-width="1"/><path id="e2fzugSy8Z916" d="M777.600000,151.400000C762,152.800000,749.100000,153.500000,738.900000,153.500000C732.100000,153.500000,727,151.900000,723.800000,148.700000C720.600000,145.500000,719,140.500000,719,133.600000L719,100.100000C719,92.800000,720.700000,87.500000,724,84.100000C727.300000,80.800000,732.600000,79.100000,740,79.100000L777.700000,79.100000L777.700000,93.700000L744.200000,93.700000C740,93.700000,737.900000,95.800000,737.900000,100L737.900000,133.500000C737.900000,135.100000,738.400000,136.400000,739.300000,137.300000C740.200000,138.200000,741.400000,138.700000,742.900000,138.700000C744.400000,138.700000,746,138.700000,747.700000,138.600000C749.400000,138.600000,751.300000,138.500000,753.100000,138.400000C755,138.300000,756.900000,138.300000,758.800000,138.200000C760.700000,138.100000,763.200000,138,766.200000,137.800000C769.200000,137.600000,773,137.300000,777.600000,137.100000Z" opacity="0" fill="rgb(39,135,183)" stroke="none" stroke-width="1"/><path id="e2fzugSy8Z917" d="M690.200000,79.200000L669.300000,79.200000L641.500000,152.400000L661.900000,152.400000L662.300000,152.400000L670.100000,129.400000L678.600000,104.300000L680.700000,110.200000L682.600000,109.600000L689.300000,129.400000L692.100000,136.700000L684.300000,129.400000L681,142.300000L677.500000,131.900000L674.300000,136.300000L671.300000,133.500000L664.900000,152.400000L697.500000,152.400000L717.900000,152.400000Z" opacity="0" fill="rgb(39,135,183)" stroke="none" stroke-width="1"/><path id="e2fzugSy8Z918" d="M580.800000,79.200000L624.800000,79.200000C632.100000,79.200000,637.400000,80.900000,640.800000,84.200000C644.100000,87.500000,645.800000,92.800000,645.800000,100.200000L645.800000,110.700000C645.800000,118,644.100000,123.300000,640.800000,126.700000C637.500000,130,632.200000,131.700000,624.800000,131.700000L599.700000,131.700000L599.700000,152.600000L580.900000,152.600000L580.900000,79.200000ZM626.900000,100.100000C626.900000,95.900000,624.800000,93.800000,620.600000,93.800000L599.700000,93.800000L599.700000,116.800000L620.600000,116.800000C624.800000,116.800000,626.900000,114.700000,626.900000,110.500000Z" opacity="0" fill="rgb(39,135,183)" stroke="none" stroke-width="1"/><path id="e2fzugSy8Z919" d="M551.500000,152.400000L532.700000,152.400000L532.700000,93.800000L510.700000,93.800000L510.700000,79.200000L573.500000,79.200000L573.500000,93.800000L551.500000,93.800000Z" opacity="0" fill="rgb(0,93,143)" stroke="none" stroke-width="1"/><path id="e2fzugSy8Z920" d="M505.500000,132.600000C505.500000,139.900000,503.800000,145.200000,500.500000,148.600000C497.200000,151.900000,491.900000,153.600000,484.500000,153.600000L458.300000,153.600000C451,153.600000,445.700000,151.900000,442.300000,148.600000C439,145.300000,437.300000,140,437.300000,132.600000L437.300000,99.100000C437.300000,91.800000,439,86.500000,442.300000,83.100000C445.600000,79.800000,450.900000,78.100000,458.300000,78.100000L484.500000,78.100000C491.800000,78.100000,497.100000,79.800000,500.500000,83.100000C503.800000,86.400000,505.500000,91.700000,505.500000,99.100000ZM486.600000,99.100000C486.600000,94.900000,484.500000,92.800000,480.300000,92.800000L462.500000,92.800000C458.300000,92.800000,456.200000,94.900000,456.200000,99.100000L456.200000,132.600000C456.200000,136.800000,458.300000,138.900000,462.500000,138.900000L480.300000,138.900000C484.500000,138.900000,486.600000,136.800000,486.600000,132.600000Z" opacity="0" fill="rgb(0,93,143)" stroke="none" stroke-width="1"/><path id="e2fzugSy8Z921" d="M429.100000,132.600000C429.100000,139.900000,427.400000,145.200000,424.100000,148.600000C420.800000,151.900000,415.500000,153.600000,408.100000,153.600000L382,153.600000C374.700000,153.600000,369.400000,151.900000,366,148.600000C362.700000,145.300000,361,140,361,132.600000L361,99.100000C361,91.800000,362.700000,86.500000,366,83.100000C369.300000,79.800000,374.600000,78.100000,382,78.100000L408.200000,78.100000C415.500000,78.100000,420.800000,79.800000,424.200000,83.100000C427.500000,86.400000,429.200000,91.700000,429.200000,99.100000L429.200000,132.600000ZM410.200000,99.100000C410.200000,94.900000,408.100000,92.800000,403.900000,92.800000L386.100000,92.800000C381.900000,92.800000,379.800000,94.900000,379.800000,99.100000L379.800000,132.600000C379.800000,136.800000,381.900000,138.900000,386.100000,138.900000L404,138.900000C408.200000,138.900000,410.300000,136.800000,410.300000,132.600000L410.300000,99.100000Z" opacity="0" fill="rgb(0,93,143)" stroke="none" stroke-width="1"/><path id="e2fzugSy8Z922" d="M288.900000,79.200000L330.800000,79.200000C337.600000,79.200000,342.700000,80.800000,345.900000,83.900000C349.100000,87,350.700000,91.700000,350.700000,98.100000C350.700000,102.300000,349.800000,105.700000,348,108.300000C346.200000,110.900000,344,112.700000,341.300000,113.800000C347,115.300000,350.800000,119.100000,352.800000,125.100000C353.500000,127.300000,353.800000,129.800000,353.800000,132.600000C353.800000,139.400000,352.200000,144.500000,349,147.700000C345.800000,150.900000,340.800000,152.500000,333.900000,152.500000L288.900000,152.500000ZM331.800000,100.100000C331.800000,95.900000,329.700000,93.800000,325.500000,93.800000L307.700000,93.800000L307.700000,108.500000L325.500000,108.500000C329.700000,108.500000,331.800000,106.400000,331.800000,102.200000ZM334.900000,129.400000C334.900000,125.200000,332.800000,123.100000,328.600000,123.100000L307.700000,123.100000L307.700000,137.700000L328.600000,137.700000C332.800000,137.700000,334.900000,135.600000,334.900000,131.400000Z" opacity="0" fill="rgb(0,93,143)" stroke="none" stroke-width="1" stroke-miterlimit="1"/></g><script><![CDATA[!function(t,n){"object"==typeof exports&&"undefined"!=typeof module?module.exports=n():"function"==typeof define&&define.amd?define(n):(t="undefined"!=typeof globalThis?globalThis:t||self).__SVGATOR_PLAYER__=n()}(this,(function(){"use strict";function t(n){return(t="function"==typeof Symbol&&"symbol"==typeof Symbol.iterator?function(t){return typeof t}:function(t){return t&&"function"==typeof Symbol&&t.constructor===Symbol&&t!==Symbol.prototype?"symbol":typeof t})(n)}function n(t,n){if(!(t instanceof n))throw new TypeError("Cannot call a class as a function")}function r(t,n){for(var r=0;r<n.length;r++){var e=n[r];e.enumerable=e.enumerable||!1,e.configurable=!0,"value"in e&&(e.writable=!0),Object.defineProperty(t,e.key,e)}}function e(t,n,e){return n&&r(t.prototype,n),e&&r(t,e),t}function i(t){return(i=Object.setPrototypeOf?Object.getPrototypeOf:function(t){return t.__proto__||Object.getPrototypeOf(t)})(t)}function o(t,n){return(o=Object.setPrototypeOf||function(t,n){return t.__proto__=n,t})(t,n)}function u(t,n){return!n||"object"!=typeof n&&"function"!=typeof n?function(t){if(void 0===t)throw new ReferenceError("this hasn't been initialised - super() hasn't been called");return t}(t):n}function a(t){var n=function(){if("undefined"==typeof Reflect||!Reflect.construct)return!1;if(Reflect.construct.sham)return!1;if("function"==typeof Proxy)return!0;try{return Boolean.prototype.valueOf.call(Reflect.construct(Boolean,[],(function(){}))),!0}catch(t){return!1}}();return function(){var r,e=i(t);if(n){var o=i(this).constructor;r=Reflect.construct(e,arguments,o)}else r=e.apply(this,arguments);return u(this,r)}}function l(t,n,r){return(l="undefined"!=typeof Reflect&&Reflect.get?Reflect.get:function(t,n,r){var e=function(t,n){for(;!Object.prototype.hasOwnProperty.call(t,n)&&null!==(t=i(t)););return t}(t,n);if(e){var o=Object.getOwnPropertyDescriptor(e,n);return o.get?o.get.call(r):o.value}})(t,n,r||t)}var f=Math.abs;function s(t){return t}function c(t,n,r){var e=1-r;return 3*r*e*(t*e+n*r)+r*r*r}function h(){var t=arguments.length>0&&void 0!==arguments[0]?arguments[0]:0,n=arguments.length>1&&void 0!==arguments[1]?arguments[1]:0,r=arguments.length>2&&void 0!==arguments[2]?arguments[2]:1,e=arguments.length>3&&void 0!==arguments[3]?arguments[3]:1;return t<0||t>1||r<0||r>1?null:f(t-n)<=1e-5&&f(r-e)<=1e-5?s:function(i){if(i<=0)return t>0?i*n/t:0===n&&r>0?i*e/r:0;if(i>=1)return r<1?1+(i-1)*(e-1)/(r-1):1===r&&t<1?1+(i-1)*(n-1)/(t-1):1;for(var o,u=0,a=1;u<a;){var l=c(t,r,o=(u+a)/2);if(f(i-l)<1e-5)break;l<i?u=o:a=o}return c(n,e,o)}}function v(){return 1}function y(t){return 1===t?1:0}function d(){var t=arguments.length>0&&void 0!==arguments[0]?arguments[0]:1,n=arguments.length>1&&void 0!==arguments[1]?arguments[1]:0;if(1===t){if(0===n)return y;if(1===n)return v}var r=1/t;return function(t){return t>=1?1:(t+=n*r)-t%r}}function g(t){var n=arguments.length>1&&void 0!==arguments[1]?arguments[1]:2;if(Number.isInteger(t))return t;var r=Math.pow(10,n);return Math.round(t*r)/r}var p=Math.PI/180;function m(t,n,r){return t>=.5?r:n}function b(t,n,r){return 0===t||n===r?n:t*(r-n)+n}function w(t,n,r){var e=b(t,n,r);return e<=0?0:e}function x(t,n,r){return 0===t?n:1===t?r:{x:b(t,n.x,r.x),y:b(t,n.y,r.y)}}function k(t,n,r){var e=function(t,n,r){return Math.round(b(t,n,r))}(t,n,r);return e<=0?0:e>=255?255:e}function A(t,n,r){return 0===t?n:1===t?r:{r:k(t,n.r,r.r),g:k(t,n.g,r.g),b:k(t,n.b,r.b),a:b(t,null==n.a?1:n.a,null==r.a?1:r.a)}}function _(t,n,r){if(0===t)return n;if(1===t)return r;var e=n.length;if(e!==r.length)return m(t,n,r);for(var i=[],o=0;o<e;o++)i.push(A(t,n[o],r[o]));return i}function S(t,n){for(var r=[],e=0;e<t;e++)r.push(n);return r}function O(t,n){if(--n<=0)return t;var r=(t=Object.assign([],t)).length;do{for(var e=0;e<r;e++)t.push(t[e])}while(--n>0);return t}var M,j=function(){function t(r){n(this,t),this.list=r,this.length=r.length}return e(t,[{key:"setAttribute",value:function(t,n){for(var r=this.list,e=0;e<this.length;e++)r[e].setAttribute(t,n)}},{key:"removeAttribute",value:function(t){for(var n=this.list,r=0;r<this.length;r++)n[r].removeAttribute(t)}},{key:"style",value:function(t,n){for(var r=this.list,e=0;e<this.length;e++)r[e].style[t]=n}}]),t}(),F=/-./g,P=function(t,n){return n.toUpperCase()};function B(t){return"function"==typeof t?t:m}function I(t){return t?"function"==typeof t?t:Array.isArray(t)?function(t){var n=arguments.length>1&&void 0!==arguments[1]?arguments[1]:s;if(!Array.isArray(t))return n;switch(t.length){case 1:return d(t[0])||n;case 2:return d(t[0],t[1])||n;case 4:return h(t[0],t[1],t[2],t[3])||n}return n}(t,null):function(t,n){var r=arguments.length>2&&void 0!==arguments[2]?arguments[2]:s;switch(t){case"linear":return s;case"steps":return d(n.steps||1,n.jump||0)||r;case"bezier":case"cubic-bezier":return h(n.x1||0,n.y1||0,n.x2||0,n.y2||0)||r}return r}(t.type,t.value,null):null}function R(t,n,r){var e=arguments.length>3&&void 0!==arguments[3]&&arguments[3],i=n.length-1;if(t<=n[0].t)return e?[0,0,n[0].v]:n[0].v;if(t>=n[i].t)return e?[i,1,n[i].v]:n[i].v;var o,u=n[0],a=null;for(o=1;o<=i;o++){if(!(t>n[o].t)){a=n[o];break}u=n[o]}return null==a?e?[i,1,n[i].v]:n[i].v:u.t===a.t?e?[o,1,a.v]:a.v:(t=(t-u.t)/(a.t-u.t),u.e&&(t=u.e(t)),e?[o,t,r(t,u.v,a.v)]:r(t,u.v,a.v))}function q(t,n){var r=arguments.length>2&&void 0!==arguments[2]?arguments[2]:null;return t&&t.length?"function"!=typeof n?null:("function"!=typeof r&&(r=null),function(e){var i=R(e,t,n);return null!=i&&r&&(i=r(i)),i}):null}function E(t,n){return t.t-n.t}function T(n,r,e,i,o){var u,a="@"===e[0],l="#"===e[0],f=M[e],s=m;switch(a?(u=e.substr(1),e=u.replace(F,P)):l&&(e=e.substr(1)),t(f)){case"function":if(s=f(i,o,R,I,e,a,r,n),l)return s;break;case"string":s=q(i,B(f));break;case"object":if((s=q(i,B(f.i),f.f))&&"function"==typeof f.u)return f.u(r,s,e,a,n)}return s?function(t,n,r){var e=arguments.length>3&&void 0!==arguments[3]&&arguments[3];if(e)return t instanceof j?function(e){return t.style(n,r(e))}:function(e){return t.style[n]=r(e)};if(Array.isArray(n)){var i=n.length;return function(e){var o=r(e);if(null==o)for(var u=0;u<i;u++)t[u].removeAttribute(n);else for(var a=0;a<i;a++)t[a].setAttribute(n,o)}}return function(e){var i=r(e);null==i?t.removeAttribute(n):t.setAttribute(n,i)}}(r,e,s,a):null}function N(n,r,e,i){if(!i||"object"!==t(i))return null;var o=null,u=null;return Array.isArray(i)?u=function(t){if(!t||!t.length)return null;for(var n=0;n<t.length;n++)t[n].e&&(t[n].e=I(t[n].e));return t.sort(E)}(i):(u=i.keys,o=i.data||null),u?T(n,r,e,u,o):null}function C(t,n,r){if(!r)return null;var e=[];for(var i in r)if(r.hasOwnProperty(i)){var o=N(t,n,i,r[i]);o&&e.push(o)}return e.length?e:null}function z(t,n){if(!n.duration||n.duration<0)return null;var r=function(t,n){if(!n)return null;var r=[];if(Array.isArray(n))for(var e=n.length,i=0;i<e;i++){var o=n[i];if(2===o.length){var u=null;if("string"==typeof o[0])u=t.getElementById(o[0]);else if(Array.isArray(o[0])){u=[];for(var a=0;a<o[0].length;a++)if("string"==typeof o[0][a]){var l=t.getElementById(o[0][a]);l&&u.push(l)}u=u.length?1===u.length?u[0]:new j(u):null}if(u){var f=C(t,u,o[1]);f&&(r=r.concat(f))}}}else for(var s in n)if(n.hasOwnProperty(s)){var c=t.getElementById(s);if(c){var h=C(t,c,n[s]);h&&(r=r.concat(h))}}return r.length?r:null}(t,n.elements);return r?function(t,n){var r=arguments.length>2&&void 0!==arguments[2]?arguments[2]:1/0,e=arguments.length>3&&void 0!==arguments[3]?arguments[3]:1,i=arguments.length>4&&void 0!==arguments[4]&&arguments[4],o=arguments.length>5&&void 0!==arguments[5]?arguments[5]:1,u=t.length,a=e>0?n:0;i&&r%2==0&&(a=n-a);var l=null;return function(f,s){var c=f%n,h=1+(f-c)/n;s*=e,i&&h%2==0&&(s=-s);var v=!1;if(h>r)c=a,v=!0,-1===o&&(c=e>0?0:n);else if(s<0&&(c=n-c),c===l)return!1;l=c;for(var y=0;y<u;y++)t[y](c);return v}}(r,n.duration,n.iterations||1/0,n.direction||1,!!n.alternate,n.fill||1):null}var L=function(){function t(r,e){var i=arguments.length>2&&void 0!==arguments[2]?arguments[2]:{};n(this,t),this._id=0,this._running=!1,this._rollingBack=!1,this._animations=r,this.duration=e.duration,this.alternate=e.alternate,this.fill=e.fill,this.iterations=e.iterations,this.direction=i.direction||1,this.speed=i.speed||1,this.fps=i.fps||100,this.offset=i.offset||0,this.rollbackStartOffset=0}return e(t,[{key:"_rollback",value:function(){var t=this,n=1/0,r=null;this.rollbackStartOffset=this.offset,this._rollingBack||(this._rollingBack=!0,this._running=!0);this._id=window.requestAnimationFrame((function e(i){if(t._rollingBack){null==r&&(r=i);var o=i-r,u=t.rollbackStartOffset-o,a=Math.round(u*t.speed);if(a>t.duration&&n!=1/0){var l=!!t.alternate&&a/t.duration%2>1,f=a%t.duration;a=(f+=l?t.duration:0)||t.duration}var s=t.fps?1e3/t.fps:0,c=Math.max(0,a);if(c<n-s){t.offset=c,n=c;for(var h=t._animations,v=h.length,y=0;y<v;y++)h[y](c,t.direction)}var d=!1;if(t.iterations>0&&-1===t.fill){var g=t.iterations*t.duration,p=g==a;a=p?0:a,t.offset=p?0:t.offset,d=a>g}a>0&&t.offset>=a&&!d?t._id=window.requestAnimationFrame(e):t.stop()}}))}},{key:"_start",value:function(){var t=this,n=arguments.length>0&&void 0!==arguments[0]?arguments[0]:0,r=-1/0,e=null,i={},o=function o(u){t._running=!0,null==e&&(e=u);var a=Math.round((u-e+n)*t.speed),l=t.fps?1e3/t.fps:0;if(a>r+l&&!t._rollingBack){t.offset=a,r=a;for(var f=t._animations,s=f.length,c=0,h=0;h<s;h++)i[h]?c++:(i[h]=f[h](a,t.direction),i[h]&&c++);if(c===s)return void t._stop()}t._id=window.requestAnimationFrame(o)};this._id=window.requestAnimationFrame(o)}},{key:"_stop",value:function(){this._id&&window.cancelAnimationFrame(this._id),this._running=!1,this._rollingBack=!1}},{key:"play",value:function(){!this._rollingBack&&this._running||(this._rollingBack=!1,this.rollbackStartOffset>this.duration&&(this.offset=this.rollbackStartOffset-(this.rollbackStartOffset-this.offset)%this.duration,this.rollbackStartOffset=0),this._start(this.offset))}},{key:"stop",value:function(){this._stop(),this.offset=0,this.rollbackStartOffset=0;var t=this.direction,n=this._animations;window.requestAnimationFrame((function(){for(var r=0;r<n.length;r++)n[r](0,t)}))}},{key:"reachedToEnd",value:function(){return this.iterations>0&&this.offset>=this.iterations*this.duration}},{key:"restart",value:function(){this._stop(),this.offset=0,this._start()}},{key:"pause",value:function(){this._stop()}},{key:"reverse",value:function(){this.direction=-this.direction}}],[{key:"build",value:function(n,r){return(n=function(t,n){if(M=n,!t||!t.root||!Array.isArray(t.animations))return null;for(var r=document.getElementsByTagName("svg"),e=!1,i=0;i<r.length;i++)if(r[i].id===t.root&&!r[i].svgatorAnimation){(e=r[i]).svgatorAnimation=!0;break}if(!e)return null;var o=t.animations.map((function(t){return z(e,t)})).filter((function(t){return!!t}));return o.length?{element:e,animations:o,animationSettings:t.animationSettings,options:t.options||void 0}:null}(n,r))?{el:n.element,options:n.options||{},player:new t(n.animations,n.animationSettings,n.options)}:null}}]),t}();!function(){for(var t=0,n=["ms","moz","webkit","o"],r=0;r<n.length&&!window.requestAnimationFrame;++r)window.requestAnimationFrame=window[n[r]+"RequestAnimationFrame"],window.cancelAnimationFrame=window[n[r]+"CancelAnimationFrame"]||window[n[r]+"CancelRequestAnimationFrame"];window.requestAnimationFrame||(window.requestAnimationFrame=function(n){var r=Date.now(),e=Math.max(0,16-(r-t)),i=window.setTimeout((function(){n(r+e)}),e);return t=r+e,i},window.cancelAnimationFrame=window.clearTimeout)}();var D=/\.0+$/g;function Q(t){return Number.isInteger(t)?t+"":t.toFixed(6).replace(D,"")}function U(t){var n=arguments.length>1&&void 0!==arguments[1]?arguments[1]:" ";return t&&t.length?t.map(Q).join(n):""}function V(t){return t?null==t.a||t.a>=1?"rgb("+t.r+","+t.g+","+t.b+")":"rgba("+t.r+","+t.g+","+t.b+","+t.a+")":"transparent"}var $={f:null,i:function(t,n,r){return 0===t?n:1===t?r:{x:w(t,n.x,r.x),y:w(t,n.y,r.y)}},u:function(t,n){return function(r){var e=n(r);t.setAttribute("rx",Q(e.x)),t.setAttribute("ry",Q(e.y))}}},G={f:null,i:function(t,n,r){return 0===t?n:1===t?r:{width:w(t,n.width,r.width),height:w(t,n.height,r.height)}},u:function(t,n){return function(r){var e=n(r);t.setAttribute("width",Q(e.width)),t.setAttribute("height",Q(e.height))}}},H=Math.sin,Y=Math.cos,Z=Math.acos,J=Math.asin,K=Math.tan,W=Math.atan2,X=Math.PI/180,tt=180/Math.PI,nt=Math.sqrt,rt=function(){function t(){var r=arguments.length>0&&void 0!==arguments[0]?arguments[0]:1,e=arguments.length>1&&void 0!==arguments[1]?arguments[1]:0,i=arguments.length>2&&void 0!==arguments[2]?arguments[2]:0,o=arguments.length>3&&void 0!==arguments[3]?arguments[3]:1,u=arguments.length>4&&void 0!==arguments[4]?arguments[4]:0,a=arguments.length>5&&void 0!==arguments[5]?arguments[5]:0;n(this,t),this.m=[r,e,i,o,u,a],this.i=null,this.w=null,this.s=null}return e(t,[{key:"determinant",get:function(){var t=this.m;return t[0]*t[3]-t[1]*t[2]}},{key:"isIdentity",get:function(){if(null===this.i){var t=this.m;this.i=1===t[0]&&0===t[1]&&0===t[2]&&1===t[3]&&0===t[4]&&0===t[5]}return this.i}},{key:"point",value:function(t,n){var r=this.m;return{x:r[0]*t+r[2]*n+r[4],y:r[1]*t+r[3]*n+r[5]}}},{key:"translateSelf",value:function(){var t=arguments.length>0&&void 0!==arguments[0]?arguments[0]:0,n=arguments.length>1&&void 0!==arguments[1]?arguments[1]:0;if(!t&&!n)return this;var r=this.m;return r[4]+=r[0]*t+r[2]*n,r[5]+=r[1]*t+r[3]*n,this.w=this.s=this.i=null,this}},{key:"rotateSelf",value:function(){var t=arguments.length>0&&void 0!==arguments[0]?arguments[0]:0;if(t%=360){var n=H(t*=X),r=Y(t),e=this.m,i=e[0],o=e[1];e[0]=i*r+e[2]*n,e[1]=o*r+e[3]*n,e[2]=e[2]*r-i*n,e[3]=e[3]*r-o*n,this.w=this.s=this.i=null}return this}},{key:"scaleSelf",value:function(){var t=arguments.length>0&&void 0!==arguments[0]?arguments[0]:1,n=arguments.length>1&&void 0!==arguments[1]?arguments[1]:1;if(1!==t||1!==n){var r=this.m;r[0]*=t,r[1]*=t,r[2]*=n,r[3]*=n,this.w=this.s=this.i=null}return this}},{key:"skewSelf",value:function(t,n){if(n%=360,(t%=360)||n){var r=this.m,e=r[0],i=r[1],o=r[2],u=r[3];t&&(t=K(t*X),r[2]+=e*t,r[3]+=i*t),n&&(n=K(n*X),r[0]+=o*n,r[1]+=u*n),this.w=this.s=this.i=null}return this}},{key:"resetSelf",value:function(){var t=arguments.length>0&&void 0!==arguments[0]?arguments[0]:1,n=arguments.length>1&&void 0!==arguments[1]?arguments[1]:0,r=arguments.length>2&&void 0!==arguments[2]?arguments[2]:0,e=arguments.length>3&&void 0!==arguments[3]?arguments[3]:1,i=arguments.length>4&&void 0!==arguments[4]?arguments[4]:0,o=arguments.length>5&&void 0!==arguments[5]?arguments[5]:0,u=this.m;return u[0]=t,u[1]=n,u[2]=r,u[3]=e,u[4]=i,u[5]=o,this.w=this.s=this.i=null,this}},{key:"recomposeSelf",value:function(){var t=arguments.length>0&&void 0!==arguments[0]?arguments[0]:null,n=arguments.length>1&&void 0!==arguments[1]?arguments[1]:null,r=arguments.length>2&&void 0!==arguments[2]?arguments[2]:null,e=arguments.length>3&&void 0!==arguments[3]?arguments[3]:null,i=arguments.length>4&&void 0!==arguments[4]?arguments[4]:null;return this.isIdentity||this.resetSelf(),t&&(t.x||t.y)&&this.translateSelf(t.x,t.y),n&&this.rotateSelf(n),r&&(r.x&&this.skewSelf(r.x,0),r.y&&this.skewSelf(0,r.y)),!e||1===e.x&&1===e.y||this.scaleSelf(e.x,e.y),i&&(i.x||i.y)&&this.translateSelf(i.x,i.y),this}},{key:"decompose",value:function(){var t=arguments.length>0&&void 0!==arguments[0]?arguments[0]:0,n=arguments.length>1&&void 0!==arguments[1]?arguments[1]:0,r=this.m,e=r[0]*r[0]+r[1]*r[1],i=[[r[0],r[1]],[r[2],r[3]]],o=nt(e);if(0===o)return{origin:{x:r[4],y:r[5]},translate:{x:t,y:n},scale:{x:0,y:0},skew:{x:0,y:0},rotate:0};i[0][0]/=o,i[0][1]/=o;var u=r[0]*r[3]-r[1]*r[2]<0;u&&(o=-o);var a=i[0][0]*i[1][0]+i[0][1]*i[1][1];i[1][0]-=i[0][0]*a,i[1][1]-=i[0][1]*a;var l=nt(i[1][0]*i[1][0]+i[1][1]*i[1][1]);if(0===l)return{origin:{x:r[4],y:r[5]},translate:{x:t,y:n},scale:{x:o,y:0},skew:{x:0,y:0},rotate:0};i[1][0]/=l,i[1][1]/=l,a/=l;var f=0;return i[1][1]<0?(f=Z(i[1][1])*tt,i[0][1]<0&&(f=360-f)):f=J(i[0][1])*tt,u&&(f=-f),a=W(a,nt(i[0][0]*i[0][0]+i[0][1]*i[0][1]))*tt,u&&(a=-a),{origin:{x:r[4],y:r[5]},translate:{x:t,y:n},scale:{x:o,y:l},skew:{x:a,y:0},rotate:f}}},{key:"toString",value:function(){return null===this.s&&(this.s="matrix("+this.m.map(it).join(" ")+")"),this.s}}]),t}(),et=/\.0+$/;function it(t){return Number.isInteger(t)?t:t.toFixed(14).replace(et,"")}function ot(t,n,r){return t+(n-t)*r}function ut(t,n,r){var e=arguments.length>3&&void 0!==arguments[3]&&arguments[3],i={x:ot(t.x,n.x,r),y:ot(t.y,n.y,r)};return e&&(i.a=at(t,n)),i}function at(t,n){return Math.atan2(n.y-t.y,n.x-t.x)}Object.freeze({M:2,L:2,Z:0,H:1,V:1,C:6,Q:4,T:2,S:4,A:7});var lt={},ft=null;function st(n){var r=function(){if(ft)return ft;if("object"!==("undefined"==typeof document?"undefined":t(document)))return{};var n=document.createElementNS("http://www.w3.org/2000/svg","svg");return n.style.position="absolute",n.style.opacity="0.01",n.style.zIndex="-9999",n.style.left="-9999px",n.style.width="1px",n.style.height="1px",ft={svg:n}}().svg;if(!r)return function(t){return null};var e=document.createElementNS(r.namespaceURI,"path");e.setAttributeNS(null,"d",n),e.setAttributeNS(null,"fill","none"),e.setAttributeNS(null,"stroke","none"),r.appendChild(e);var i=e.getTotalLength();return function(t){var n=e.getPointAtLength(i*t);return{x:n.x,y:n.y}}}function ct(t){return lt[t]?lt[t]:lt[t]=st(t)}function ht(t,n,r,e){if(!t||!e)return!1;var i=["M",t.x,t.y];if(n&&r&&(i.push("C"),i.push(n.x),i.push(n.y),i.push(r.x),i.push(r.y)),n?!r:r){var o=n||r;i.push("Q"),i.push(o.x),i.push(o.y)}return n||r||i.push("L"),i.push(e.x),i.push(e.y),i.join(" ")}function vt(t,n,r,e){var i=arguments.length>4&&void 0!==arguments[4]?arguments[4]:1,o=ht(t,n,r,e),u=ct(o);try{return u(i)}catch(t){return null}}function yt(t,n,r,e){var i=1-e;return i*i*t+2*i*e*n+e*e*r}function dt(t,n,r,e){return 2*(1-e)*(n-t)+2*e*(r-n)}function gt(t,n,r,e){var i=arguments.length>4&&void 0!==arguments[4]&&arguments[4],o=vt(t,n,null,r,e);return o||(o={x:yt(t.x,n.x,r.x,e),y:yt(t.y,n.y,r.y,e)}),i&&(o.a=pt(t,n,r,e)),o}function pt(t,n,r,e){return Math.atan2(dt(t.y,n.y,r.y,e),dt(t.x,n.x,r.x,e))}function mt(t,n,r,e,i){var o=i*i;return i*o*(e-t+3*(n-r))+3*o*(t+r-2*n)+3*i*(n-t)+t}function bt(t,n,r,e,i){var o=1-i;return 3*(o*o*(n-t)+2*o*i*(r-n)+i*i*(e-r))}function wt(t,n,r,e,i){var o=arguments.length>5&&void 0!==arguments[5]&&arguments[5],u=vt(t,n,r,e,i);return u||(u={x:mt(t.x,n.x,r.x,e.x,i),y:mt(t.y,n.y,r.y,e.y,i)}),o&&(u.a=xt(t,n,r,e,i)),u}function xt(t,n,r,e,i){return Math.atan2(bt(t.y,n.y,r.y,e.y,i),bt(t.x,n.x,r.x,e.x,i))}function kt(t,n,r){var e=arguments.length>3&&void 0!==arguments[3]&&arguments[3];if(_t(n)){if(St(r))return gt(n,r.start,r,t,e)}else if(_t(r)){if(n.end)return gt(n,n.end,r,t,e)}else{if(n.end)return r.start?wt(n,n.end,r.start,r,t,e):gt(n,n.end,r,t,e);if(r.start)return gt(n,r.start,r,t,e)}return ut(n,r,t,e)}function At(t,n,r){var e=kt(t,n,r,!0);return e.a=function(t){var n=arguments.length>1&&void 0!==arguments[1]&&arguments[1];return n?t+Math.PI:t}(e.a)/p,e}function _t(t){return!t.type||"corner"===t.type}function St(t){return null!=t.start&&!_t(t)}var Ot=new rt;var Mt={f:Q,i:b},jt={f:Q,i:function(t,n,r){var e=b(t,n,r);return e<=0?0:e>=1?1:e}};function Ft(t,n,r,e,i,o,u,a){return n=function(t,n,r){for(var e,i,o,u=t.length-1,a={},l=0;l<=u;l++)(e=t[l]).e&&(e.e=n(e.e)),e.v&&"g"===(i=e.v).t&&i.r&&(o=r.getElementById(i.r))&&(a[i.r]=o.querySelectorAll("stop"));return a}(t,e,a),function(e){var i,o=r(e,t,Pt);return o?"c"===o.t?V(o.v):"g"===o.t?(n[o.r]&&function(t,n){for(var r=0,e=t.length;r<e;r++)t[r].setAttribute("stop-color",V(n[r]))}(n[o.r],o.v),(i=o.r)?"url(#"+i+")":"none"):"none":"none"}}function Pt(t,n,r){if(0===t)return n;if(1===t)return r;if(n&&r){var e=n.t;if(e===r.t)switch(n.t){case"c":return{t:e,v:A(t,n.v,r.v)};case"g":if(n.r===r.r)return{t:e,v:_(t,n.v,r.v),r:n.r}}}return m(t,n,r)}var Bt={fill:Ft,"fill-opacity":jt,stroke:Ft,"stroke-opacity":jt,"stroke-width":Mt,"stroke-dashoffset":{f:Q,i:b},"stroke-dasharray":{f:function(t){var n=arguments.length>1&&void 0!==arguments[1]?arguments[1]:" ";return t&&t.length>0&&(t=t.map((function(t){return Math.floor(1e4*t)/1e4}))),U(t,n)},i:function(t,n,r){var e,i,o,u=n.length,a=r.length;if(u!==a)if(0===u)n=S(u=a,0);else if(0===a)a=u,r=S(u,0);else{var l=(o=(e=u)*(i=a)/function(t,n){for(var r;n;)r=n,n=t%n,t=r;return t||1}(e,i))<0?-o:o;n=O(n,Math.floor(l/u)),r=O(r,Math.floor(l/a)),u=a=l}for(var f=[],s=0;s<u;s++)f.push(g(w(t,n[s],r[s]),6));return f}},opacity:jt,transform:function(n,r,e,i){if(!(n=function(n,r){if(!n||"object"!==t(n))return null;var e=!1;for(var i in n)n.hasOwnProperty(i)&&(n[i]&&n[i].length?(n[i].forEach((function(t){t.e&&(t.e=r(t.e))})),e=!0):delete n[i]);return e?n:null}(n,i)))return null;var o=function(t,i,o){var u=arguments.length>3&&void 0!==arguments[3]?arguments[3]:null;return n[t]?e(i,n[t],o):r&&r[t]?r[t]:u};return r&&r.a&&n.o?function(t){var r=e(t,n.o,At);return Ot.recomposeSelf(r,o("r",t,b,0)+r.a,o("k",t,x),o("s",t,x),o("t",t,x)).toString()}:function(t){return Ot.recomposeSelf(o("o",t,kt,null),o("r",t,b,0),o("k",t,x),o("s",t,x),o("t",t,x)).toString()}},r:Mt,"#size":G,"#radius":$,_:function(t,n){if(Array.isArray(t))for(var r=0;r<t.length;r++)this[t[r]]=n;else this[t]=n}};return function(t){!function(t,n){if("function"!=typeof n&&null!==n)throw new TypeError("Super expression must either be null or a function");t.prototype=Object.create(n&&n.prototype,{constructor:{value:t,writable:!0,configurable:!0}}),n&&o(t,n)}(u,t);var r=a(u);function u(){return n(this,u),r.apply(this,arguments)}return e(u,null,[{key:"build",value:function(t){var n=l(i(u),"build",this).call(this,t,Bt);n.el,n.options;var r=n.player;return function(t,n,r){t.play()}(r),r}}]),u}(L)}));
__SVGATOR_PLAYER__.build({"root":"e2fzugSy8Z91","animations":[{"duration":3000,"direction":1,"iterations":1,"fill":1,"alternate":false,"speed":1,"elements":{"e2fzugSy8Z92":{"transform":{"data":{"o":{"x":149.150001525,"y":138.59999466,"type":"corner"},"r":-0.26666701713029484,"t":{"x":-149.150001525,"y":-138.59999466}},"keys":{"s":[{"t":0,"v":{"x":1.1932220630528112,"y":1.1932220630528119},"e":[0.42,0,1,1]},{"t":2000,"v":{"x":1,"y":1}}]}}},"e2fzugSy8Z96":{"opacity":[{"t":2600,"v":0},{"t":3000,"v":1}]},"e2fzugSy8Z915":{"opacity":[{"t":1530,"v":0,"e":[0,0,0.58,1]},{"t":2630,"v":1}]},"e2fzugSy8Z916":{"opacity":[{"t":1530,"v":0,"e":[0,0,0.58,1]},{"t":2630,"v":1}]},"e2fzugSy8Z917":{"opacity":[{"t":1530,"v":0,"e":[0,0,0.58,1]},{"t":2630,"v":1}]},"e2fzugSy8Z918":{"opacity":[{"t":1530,"v":0,"e":[0,0,0.58,1]},{"t":2630,"v":1}]},"e2fzugSy8Z919":{"opacity":[{"t":1230,"v":0,"e":[0,0,0.58,1]},{"t":2330,"v":1}]},"e2fzugSy8Z920":{"opacity":[{"t":1030,"v":0,"e":[0,0,0.58,1]},{"t":2130,"v":1}]},"e2fzugSy8Z921":{"opacity":[{"t":700,"v":0,"e":[0,0,0.58,1]},{"t":1800,"v":1}]},"e2fzugSy8Z922":{"opacity":[{"t":400,"v":0,"e":[0,0,0.58,1]},{"t":1500,"v":1}]}}}],"options":{"start":"load","hover":"restart","click":"freeze","scroll":25,"font":"embed","exportedIds":"unique","svgFormat":"animated","title":"bootpack-horizontal"},"animationSettings":{"duration":3000,"direction":1,"iterations":1,"fill":1,"alternate":false,"speed":1}})]]></script></svg>