<svg enable-background="new 0 0 922 190" viewBox="0 0 922 190" xmlns="http://www.w3.org/2000/svg"><path d="m178.1 94.6c2.2 2 4.2 4.3 5.7 7 2.3 4.1 3.7 8.9 3.7 14v41.9c0 10.4-5.6 19.4-14 24.2v-66.2c0-7.7-6.3-14-14-14h-97.8v-14h98c7.7 0 14-6.3 14-14v-42c-.1-7.6-6.3-13.8-14-13.8h-139.8v139.8h-14v-153.8h153.8c5.1 0 9.8 1.4 14 3.7 4.2 2.5 7.8 6 10.3 10.3 2.3 4.1 3.7 8.9 3.7 14v41.9c0 5.1-1.4 9.8-3.7 14-1.7 2.7-3.5 5-5.9 7z" fill="#005d8f"/><path d="m159.7 122.6v55.9c0 3-2 5.6-4.7 6.5-.7.2-1.5.4-2.3.4h-56.3c-3.6 0-6.7-2.9-6.7-6.7v-28.7c0-3.6 2.9-6.7 6.7-6.7h35.3v14h-26.2c-1.1 0-1.8.8-1.8 1.8v10.4c0 1.1.8 1.8 1.8 1.8h38.7c.8 0 1.5-.7 1.5-1.5v-38.9c0-.8-.7-1.5-1.5-1.5h-66.6c-1.1 0-1.8.8-1.8 1.8v54.2h-14v-63.4c0-3.6 2.9-6.7 6.7-6.7h84.2c3.8.3 7 3.5 7 7.3z" fill="#f06052"/><path d="m159.7 38.7v27.9c0 3.9-3.2 7-7 7h-90.9v-14h82.1c1.1 0 1.8-.8 1.8-1.8v-10.4c0-1.1-.8-1.8-1.8-1.8h-96.1v139.8h-41.9v-14h27.9v-139.8h118.9c3.8 0 7 3.2 7 7.1z" fill="#2787b7"/><g fill="#f06052"><path d="m266.8 145.2c4.4 0 7 2.7 7 7v6.1c0 4.2-2.6 7-7 7h-6.9v-20h6.9zm0 2.9h-3.4v14.4h3.4c2.3 0 3.6-1.3 3.6-4.2v-5.8c0-3.1-1.2-4.4-3.6-4.4z"/><path d="m374.2 145.2v20h-3.5v-20z"/><path d="m484.7 149.1-2.6.9c-.7-1.8-2-2.6-3.6-2.6-2.7 0-4 1.5-4 4.6v6.2c0 2.8 1.4 4.1 3.9 4.1 1.5 0 2.6-.5 3.4-1.8v-3.5h-2.6v-2.3h5.6v10.2h-2.8v-1.5c-1.2 1.2-2.7 1.8-4.4 1.8-4 0-6.4-2.3-6.4-6.9v-6.2c0-4.4 2.3-7.4 7.1-7.4 3.2 0 5.6 1.8 6.4 4.4z"/><path d="m585.1 145.2v20h-3.5v-20z"/><path d="m694.9 145.2v3h-4.7v17.1h-3.5v-17.1h-4.7v-3z"/><path d="m795.3 165.3h-3.5l6.3-20h3.9l6.3 20h-3.5l-1.3-4.7h-6.8zm2-7.3h5.4l-2.7-9.7z"/><path d="m908.5 145.2v17.1h7.4v3h-10.7v-20h3.4v-.1z"/></g><path d="m260 25.2h48.9c7.9 0 13.9 1.9 17.6 5.5s5.6 9.1 5.6 16.6c0 4.9-1.1 8.9-3.2 11.9s-4.7 5.1-7.8 6.4c6.7 1.8 11.1 6.2 13.4 13.2.8 2.6 1.2 5.5 1.2 8.8 0 7.9-1.9 13.9-5.6 17.6s-9.6 5.6-17.6 5.6h-52.5zm50.1 24.4c0-4.9-2.5-7.4-7.4-7.4h-20.7v17.2h20.8c4.9 0 7.4-2.5 7.4-7.4v-2.4zm3.6 34.3c0-4.9-2.5-7.4-7.4-7.4h-24.3v17.1h24.4c4.9 0 7.4-2.5 7.4-7.4v-2.3z" fill="#005d8f"/><path d="m423.8 87.6c0 8.5-2 14.7-5.8 18.7-3.9 3.9-10 5.8-18.7 5.8h-30.5c-8.5 0-14.7-2-18.7-5.8-3.9-3.9-5.8-10-5.8-18.7v-39.1c0-8.5 2-14.7 5.8-18.7 3.9-3.9 10-5.8 18.7-5.8h30.6c8.5 0 14.7 2 18.7 5.8 3.9 3.9 5.8 10 5.8 18.7v39.1zm-22.1-39.1c0-4.9-2.5-7.4-7.4-7.4h-20.8c-4.9 0-7.4 2.5-7.4 7.4v39.1c0 4.9 2.5 7.4 7.4 7.4h20.9c4.9 0 7.4-2.5 7.4-7.4v-39.1z" fill="#005d8f"/><path d="m513 87.6c0 8.5-2 14.7-5.8 18.7-3.9 3.9-10 5.8-18.7 5.8h-30.6c-8.5 0-14.7-2-18.7-5.8-3.9-3.9-5.8-10-5.8-18.7v-39.1c0-8.5 2-14.7 5.8-18.7 3.9-3.9 10-5.8 18.7-5.8h30.6c8.5 0 14.7 2 18.7 5.8 3.9 3.9 5.8 10 5.8 18.7zm-22.1-39.1c0-4.9-2.5-7.4-7.4-7.4h-20.8c-4.9 0-7.4 2.5-7.4 7.4v39.1c0 4.9 2.5 7.4 7.4 7.4h20.8c4.9 0 7.4-2.5 7.4-7.4z" fill="#005d8f"/><path d="m566.7 110.7h-22v-68.4h-25.7v-17.1h73.4v17.1h-25.7z" fill="#005d8f"/><path d="m601 25.2h51.4c8.5 0 14.7 2 18.7 5.8 3.9 3.9 5.8 10 5.8 18.7v12.3c0 8.5-2 14.7-5.8 18.7-3.9 3.9-10 5.8-18.7 5.8h-29.4v24.5h-22zm53.8 24.4c0-4.9-2.5-7.4-7.4-7.4h-24.4v26.9h24.4c4.9 0 7.4-2.5 7.4-7.4z" fill="#2787b7"/><path d="m830.8 109.6c-18.2 1.6-33.3 2.5-45.2 2.5-7.9 0-13.9-1.9-17.6-5.6s-5.6-9.6-5.6-17.6v-39.3c0-8.5 2-14.7 5.8-18.7 3.9-3.9 10-5.8 18.7-5.8h44v17.1h-39.1c-4.9 0-7.4 2.5-7.4 7.4v39.1c0 1.9.6 3.4 1.6 4.4 1.1 1.1 2.5 1.6 4.2 1.6s3.6 0 5.6-.1c2 0 4.2-.1 6.3-.2 2.2-.1 4.4-.1 6.7-.2s5.1-.2 8.6-.5c3.5-.2 7.9-.6 13.3-.8z" fill="#2787b7"/><path d="m862.6 110.7h-22v-85.5h22v33.6h11l19-33.6h23.2l-23.9 42.2 23.8 43.5h-23.2l-18.9-34.9h-11z" fill="#2787b7"/><path d="m728.7 25.2h-24.4l-32.5 85.5h23.8.5l9.1-26.9 9.9-29.3 2.5 6.9 2.2-.7 7.8 23.1 3.3 8.5-9.1-8.5-3.8 15.1-4.1-12.1-3.7 5.1-3.5-3.3-7.5 22.1h38.1 23.8z" fill="#2787b7"/></svg>