<svg xmlns="http://www.w3.org/2000/svg" id="Layer_1" viewBox="0 0 720 720"><defs><style>.st1{fill:#f4b7b5;stroke:#d3655f}.st1,.st2,.st3{stroke-miterlimit:10}.st1,.st3,.st4{stroke-width:4px}.st2{stroke-width:6px}.st2,.st4{fill:none;stroke:#363a5a}.st3{fill:#67adc9;stroke:#2887b7}.st4{stroke-linecap:round;stroke-linejoin:round}.st11{fill:#fff}</style></defs><path d="m663.4 562.6-137.7 86.8c-14.3 9-31.8 11.2-47.8 6L327 606.9c-16.1-5.2-33.8-2.9-48.1 6.2l-110.5 70.5c-12 7.6-28 4-35.6-8-1.3-2.1-2.3-4.3-3-6.7L34.5 334.6c-3.1-11 1.4-22.8 11-28.9l139.2-87.9c15.6-9.9 34.8-12.3 52.4-6.7l146.1 47c17.7 5.7 36.9 3.2 52.6-6.8l104.6-66.6c12-7.7 28-4.1 35.6 7.9 1.3 2.1 2.4 4.4 3 6.8l95.4 334.3c3.1 11-1.3 22.7-11 28.9" style="fill:#cccdcf;isolation:isolate;opacity:.4"/><path d="m668.8 527.1-117.6 74.8c-15.6 10-34.9 12.4-52.6 6.8l-146.1-47c-17.6-5.7-36.8-3.2-52.4 6.7l-126.3 79.8c-12 7.6-28 4-35.6-8-1.3-2.1-2.3-4.3-3-6.7L39.8 299.1c-3.1-11 1.3-22.8 11-28.9l139.2-88c15.6-9.9 34.8-12.3 52.4-6.7l146.1 47c17.7 5.7 36.9 3.2 52.6-6.8l104.6-66.6c12-7.7 28-4.1 35.6 7.9 1.3 2.1 2.4 4.4 3 6.8l95.4 334.3c3.1 11-1.3 22.7-11 28.9Z" class="st11"/><path d="m338.5 523.9-21.9-61.7-103.3 35.4L181 404l-84.2 16.7 59 206.8c.5 1.9 2.2 3.1 4.2 3.1.8 0 1.6-.2 2.3-.7L282.4 554c-.5-.6 56.1-30.2 56.1-30.2Z" style="fill:#d3eaf2"/><path d="m668.8 527.1-117.6 74.8c-15.6 10-34.9 12.4-52.6 6.8l-146.1-47c-17.6-5.7-36.8-3.2-52.4 6.7l-126.3 79.8c-12 7.6-28 4-35.6-8-1.3-2.1-2.3-4.3-3-6.7L39.8 299.1c-3.1-11 1.3-22.8 11-28.9l139.2-88c15.6-9.9 34.8-12.3 52.4-6.7l146.1 47c17.7 5.7 36.9 3.2 52.6-6.8l104.6-66.6c12-7.7 28-4.1 35.6 7.9 1.3 2.1 2.4 4.4 3 6.8l95.4 334.3c3.1 11-1.3 22.7-11 28.9Z" class="st2"/><path d="M230.1 485.6s1.8-.5 4.8-1.3" class="st4"/><path d="M249.4 479.6c21.2-7.4 52.4-20.9 52.8-37 .5-21.3-102.7-127.9-47.2-134.3 185.3-21.5 102.3 132.6 186.8 129.2 35.7-1.5-30.3-50.5 71.7-86 15.1-5.3 7.6-43.7 2.5-63.8" style="stroke-width:4px;fill:none;stroke:#363a5a;stroke-linecap:round;stroke-linejoin:round;stroke-dasharray:10.2 15.3"/><path d="M514 280.2c-.8-3-1.4-4.8-1.4-4.8" class="st4"/><circle cx="223.6" cy="488.2" r="48.2" style="fill:#afd3dd"/><circle cx="223.6" cy="488.2" r="27.9" class="st3"/><path d="M223.6 460.2c-8.7 0-16.9 4-22.2 10.9 12.8-8.7 30.1-5.4 38.8 7.4 6.8 10 6.4 23.2-1 32.7 12.8-8.7 16.1-26.1 7.4-38.8-5.2-7.7-13.9-12.2-23.1-12.2Z" style="fill:#64c7cf"/><circle cx="223.6" cy="488.2" r="27.9" class="st2"/><path d="m236.3 238.8 80.2 15.2-18.4-32.4-66.3-23.1c-7.7-2.7-16.3-2.2-23.6 1.4L62.4 288.4c-1.6 1-2.4 3-1.8 4.8l23.5 82.4 64.1-15.8-11.8-47.2 100-73.8Z" class="st3"/><path d="m363.4 442.9 45.7 11.5 22.1 50.7-49.3-8.1z" class="st1"/><path d="M513.4 291.1c-37.2 0-67.3-10.8-67.3-24.1s30.1-24.1 67.3-24.1 67.3 10.8 67.3 24.1-30.1 24.1-67.3 24.1" style="fill:#eaf4f7"/><path d="m534.5 427.5 84-36.5 33.1 101-135.9 77.2-24.9-70.3 53.1-29.9z" class="st1"/><path d="M612.5 149.7c0-57.8-46.9-104.3-103.8-101.6-50.9 2.4-94.3 45.8-94.3 98.1 0 75.7 99 134.1 99 134.1s99.1-58.4 99.1-130.6" style="fill:#c65047"/><path d="M549.6 251c-16.1 12.5-38.6 12.5-54.6-.2-29.3-23.2-71.7-65.3-71.7-114.9 0-21 7-41.5 19.8-58.2-17.6 17.7-28.7 41.9-28.7 68.4 0 75.7 99 134.1 99 134.1s40.4-23.8 69.6-59.8c-10.3 11-21.5 21.2-33.4 30.5Z" style="fill:#af403a"/><path d="M508.7 48c-17.8.9-35.1 6.7-49.9 16.7 11.7-5.6 24.3-8.8 37.2-9.5 56.8-2.7 103.8 43.8 103.8 101.6s-60.9 104.7-87.2 122.9c.5.3.8.5.8.5s99.1-58.4 99.1-130.6c0-57.8-46.9-104.3-103.8-101.6" style="fill:#d3655f"/><path d="M513.4 188.6c-22.5 0-40.8-18.2-40.8-40.8s18.2-40.8 40.8-40.8c22.5 0 40.8 18.2 40.8 40.8 0 22.5-18.2 40.8-40.8 40.8" class="st11"/><path d="M513.4 188.6c-22.5 0-40.8-18.2-40.8-40.8s18.2-40.8 40.8-40.8c22.5 0 40.8 18.2 40.8 40.8 0 22.5-18.2 40.8-40.8 40.8Z" class="st2"/><path d="M612.5 149.7c0-57.8-46.9-104.3-103.8-101.6-50.9 2.4-94.3 45.8-94.3 98.1 0 75.7 99 134.1 99 134.1s99.1-58.4 99.1-130.6" style="stroke-width:6px;fill:none;stroke:#363a5a;stroke-linecap:round;stroke-linejoin:round"/></svg>