<svg xmlns="http://www.w3.org/2000/svg" viewBox="0 0 1002 652"><path fill="#005d8f" d="M605.7 186.7c2.9 2.6 5.4 5.6 7.4 9 3.1 5.3 4.8 11.4 4.8 18v54c0 13.3-7.2 25-18 31.2v-85.2c0-9.9-8.1-18-18-18h-126v-18h126c9.9 0 18-8.1 18-18v-54.2c-.1-9.8-8.1-17.8-18-17.8H401.8v180.1h-18V69.7h198.1c6.6 0 12.7 1.8 18 4.8 5.5 3.2 10 7.7 13.2 13.2 3.1 5.3 4.8 11.4 4.8 18v54c0 6.6-1.8 12.7-4.8 18-2 3.4-4.5 6.4-7.4 9"/><path fill="#f06052" d="M581.9 222.7v72c0 3.9-2.5 7.3-6 8.5-.9.3-1.9.5-3 .5h-72.5c-4.7 0-8.5-3.8-8.5-8.5v-37c0-4.7 3.8-8.5 8.5-8.5h45.5v18h-33.7c-1.3 0-2.3 1-2.3 2.3v13.4c0 1.3 1 2.3 2.3 2.3H562c1.1 0 1.9-.9 1.9-1.9v-50.2c0-1.1-.9-1.9-1.9-1.9h-85.8c-1.3 0-2.3 1-2.3 2.3v69.7h-18v-81.5c0-4.7 3.8-8.5 8.5-8.5h108.5c4.9 0 9 4 9 9"/><path fill="#2787b7" d="M581.9 114.7v36c0 5-4 9-9 9h-117v-18h105.7c1.3 0 2.3-1 2.3-2.3V126c0-1.3-1-2.3-2.3-2.3H437.8v180.1h-54v-18h36V105.7h153.1c4.9 0 9 4 9 9"/><path fill="#f06052" d="M108.3 555.1c5.4 0 8.6 3.3 8.6 8.5v7.4c0 5.2-3.1 8.5-8.6 8.5h-8.4V555h8.4zm0 3.5h-4.2v17.5h4.2c2.9 0 4.4-1.5 4.4-5.2v-7.1c0-3.6-1.5-5.2-4.4-5.2m131.3-3.5v24.5h-4.2v-24.5zm135.1 4.8-3.1 1.1c-.9-2.2-2.4-3.1-4.5-3.1-3.3 0-4.9 1.9-4.9 5.6v7.5c0 3.4 1.7 5.1 4.7 5.1 1.8 0 3.1-.6 4.1-2.2v-4.2h-3.1v-2.8h6.9v12.4h-3.4v-1.8q-2.25 2.1-5.4 2.1c-4.8 0-7.8-2.9-7.8-8.5v-7.6c0-5.4 2.8-9.1 8.7-9.1 3.8 0 6.8 2.2 7.8 5.5m122.7-4.8v24.5h-4.2v-24.5zm134.3 0v3.6h-5.8v20.8h-4.2v-20.8h-5.8v-3.6zm122.7 24.5h-4.3l7.7-24.5h4.7l7.7 24.5h-4.3l-1.6-5.7H756zm2.4-8.9h6.6l-3.3-11.8h-.1zm135.9-15.6v20.8h9.1v3.7h-13.1v-24.5z"/><path fill="#005d8f" d="M99.9 408.4h59.8c9.8 0 16.9 2.2 21.5 6.6s6.9 11.2 6.9 20.2c0 6-1.3 10.8-3.9 14.6-2.6 3.7-5.8 6.4-9.6 7.8 8.1 2.2 13.5 7.6 16.4 16.1q1.5 4.65 1.5 10.8c0 9.8-2.3 16.9-6.9 21.5s-11.8 6.9-21.5 6.9H99.9zm61.3 29.8q0-9-9-9h-25.4v20.9h25.4q9 0 9-9zm4.5 41.9q0-9-9-9h-29.9V492h29.9q9 0 9-9zm134.4 4.5c0 10.5-2.4 18.1-7.1 22.8s-12.3 7.1-22.8 7.1h-37.4c-10.5 0-18.1-2.4-22.8-7.1s-7.1-12.3-7.1-22.8v-47.8c0-10.5 2.4-18.1 7.1-22.8s12.3-7.1 22.8-7.1h37.4c10.5 0 18.1 2.4 22.8 7.1s7.1 12.3 7.1 22.8zm-26.9-47.9q0-9-9-9h-25.4q-9 0-9 9v47.8q0 9 9 9h25.4q9 0 9-9zm136 47.9c0 10.5-2.4 18.1-7.1 22.8s-12.3 7.1-22.8 7.1H342c-10.5 0-18.1-2.4-22.8-7.1s-7.1-12.3-7.1-22.8v-47.8c0-10.5 2.4-18.1 7.1-22.8s12.3-7.1 22.8-7.1h37.4c10.5 0 18.1 2.4 22.8 7.1s7.1 12.3 7.1 22.8v47.8zm-26.9-47.9q0-9-9-9H348q-9 0-9 9v47.8q0 9 9 9h25.4q9 0 9-9v-47.8zM475 513h-26.9v-83.7h-31.4v-20.9h89.7v20.9H475z"/><path fill="#2787b7" d="M516.8 408.4h62.8c10.5 0 18.1 2.4 22.8 7.1s7.1 12.3 7.1 22.8v14.9c0 10.5-2.4 18.1-7.1 22.8s-12.3 7.1-22.8 7.1h-35.9V513h-26.9zm65.8 29.8q0-9-9-9h-29.9v32.9h29.9q9 0 9-9zm215.2 73.3c-22.2 2-40.6 3-55.3 3-9.8 0-16.9-2.3-21.5-6.9s-6.9-11.8-6.9-21.5v-47.8c0-10.5 2.4-18.1 7.1-22.8s12.3-7.1 22.8-7.1h53.8v20.9H750q-9 0-9 9v47.8c0 2.3.7 4.1 2 5.5 1.3 1.3 3.1 2 5.2 2s4.4 0 6.9-.1 5.1-.1 7.8-.2l8.1-.3c2.7-.1 6.3-.3 10.6-.6s9.7-.6 16.2-1zm38.8 1.5h-26.9V408.4h26.9v41.1H850l23.3-41.1h28.4L872.4 460l29.1 53.1h-28.4l-23.2-42.6h-13.4V513zM673 408.4h-29.9L603.5 513h29.6l11.2-33 12.2-35.7 3 8.3 2.7-.8 9.6 28.2 3.9 10.5-11.2-10.5-4.6 18.4-5-14.8h-.1l-4.5 6.3-4.2-4-9.2 27.1h75.7z"/></svg>