<?xml version="1.0" encoding="utf-8"?>
<!-- Generator: Adobe Illustrator 23.1.1, SVG Export Plug-In . SVG Version: 6.00 Build 0)  -->
<svg version="1.1" id="Layer_1" xmlns="http://www.w3.org/2000/svg" xmlns:xlink="http://www.w3.org/1999/xlink" x="0px" y="0px"
	 viewBox="0 0 147.5 40.7" style="enable-background:new 0 0 147.5 40.7;" xml:space="preserve">
<style type="text/css">
	.st0{font-family:'FuturaPT-Heavy';}
	.st1{font-size:19.3594px;}
	.st2{enable-background:new    ;}
	.st3{font-size:11.5304px;}
	.st4{fill:#4299E1;}
	.st5{fill:#FFFFFF;}
</style>
<g>
	<text transform="matrix(1 0 0 1 29.2136 25.682)" class="st0 st1">B</text>
	<text transform="matrix(1 0 0 1 39.9136 25.682)" class="st0 st1">o</text>
	<text transform="matrix(1 0 0 1 51.0136 25.682)" class="st0 st1">ot</text>
	<text transform="matrix(1 0 0 1 68.2136 25.682)" class="st0 st1">p</text>
	<text transform="matrix(1 0 0 1 79.4136 25.682)" class="st2"><tspan x="0" y="0" class="st0 st1">a</tspan><tspan x="10.8" y="0" class="st0 st1">c</tspan></text>
	<text transform="matrix(1 0 0 1 98.0136 25.682)" class="st0 st1">k</text>
	<text transform="matrix(1 0 0 1 108.8022 25.6822)" class="st0 st3">Di</text>
	<text transform="matrix(1 0 0 1 119.0022 25.6822)" class="st0 st3">g</text>
	<text transform="matrix(1 0 0 1 125.6022 25.6822)" class="st0 st3">it</text>
	<text transform="matrix(1 0 0 1 132.2022 25.6822)" class="st0 st3">a</text>
	<text transform="matrix(1 0 0 1 138.9022 25.6822)" class="st0 st3">l</text>
</g>
<path class="st4" d="M8.1,25.4c0,0-0.2,2.4,0.4,3.9c0,0-0.6,0.2-0.5,1.7c0,0,0,1.6,1.9,1.7l0.1-0.5h0.6v0.5h1.1v-0.5h0.5v0.4h1.2
	l0.2-0.7c0,0,0.5-0.6,4.1,0v0.4l1.2,0.2v-0.4l0.8,0.1v0.4l1.1,0.1l0.1-0.3h0.9v0.4h1.1v-0.4l0.8-0.1l0.1,0.4l1.1-0.1l0.1-0.4
	l0.5-0.1v0.1l1.1-0.2v-0.1c0,0,0.6-0.3,1-0.3s0.5-0.4,0.5-0.7s0.3-1.2-0.3-1.2c0,0,1-2.5-2.8-3L21.7,26l-5.9-4.1L8.1,25.4z"/>
<path class="st4" d="M24.1,27.7c-0.4,0-0.9-0.1-1.5-0.4c-1.3-0.6-5.2-3.3-5.4-3.4c0,0-0.4-0.3-0.8-0.4c-0.5,0-0.6-0.4-0.6-0.4l2.5-4
	v1.6c0,0,0,1.8,1.1,2.5l0.7,0.6l1.1,0.8c0,0,1.4,0.8,2.4,0.9h0.3c0.4,0,0.7,0.2,0.8,0.5c0.2,0,0.9,0.3,1,0.7c0,0.2,0,0.3-0.2,0.5
	C25,27.6,24.6,27.7,24.1,27.7z"/>
<path class="st5" d="M18.2,19.4v1.3c0,0,0,1.8,1.1,2.6l0.6,0.6l1.1,0.8c0,0,1.5,0.8,2.4,1h0.3c0.3,0,0.6,0.1,0.7,0.5
	c0,0,1.5,0.4,0.7,1.1c-0.4,0.3-0.8,0.5-1.2,0.5s-0.9-0.1-1.5-0.4C21.1,26.8,17,24,17,24s-0.4-0.4-0.8-0.4c-0.4,0-0.5-0.4-0.5-0.4
	L18.2,19.4z M18.4,18.7L18,19.3l-2.3,3.6V23v0.1c0,0.2,0.3,0.5,0.7,0.5c0.3,0,0.7,0.3,0.7,0.3c0.1,0.1,4.1,2.8,5.4,3.4
	c0.6,0.3,1.1,0.4,1.6,0.4s0.9-0.2,1.3-0.6c0.3-0.2,0.3-0.5,0.3-0.6c-0.1-0.4-0.7-0.7-1-0.7c-0.1-0.3-0.4-0.5-0.9-0.5
	c-0.1,0-0.3,0-0.3,0c-0.9-0.1-2.2-0.8-2.3-0.9l-1.1-0.8L19.5,23c-1.1-0.7-1.1-2.4-1.1-2.4v-1.3L18.4,18.7z"/>
<path class="st4" d="M13.2,28.5c-1.4,0-2-1-2.3-1.5c0-0.1-0.1-0.1-0.1-0.2c-0.3-0.4-0.5-0.7-2.1-1s-1.9-1.1-2-1.3
	c-0.1-0.1-0.2-0.2-0.2-0.3c0-0.3,0.2-0.8,0.2-0.8C6.8,23.2,6.9,23,7,22.9c0.2-0.2,0.3-0.4,0.2-0.7c-0.1-0.5,0.1-0.7,0.3-0.9
	c0.1-0.1,0.2-0.1,0.2-0.2c0.1-0.1-0.2-0.4-0.5-0.6s-0.4-0.3-0.4-0.4V20c0,0,0.1-0.1,0.6-0.1h1c0.4-0.6,0.4-0.8,0.4-1.1
	s0-0.7,0.4-1.4c0.7-1.5,1.8-5.8,1.8-5.9v-0.1h0.3c0.1-1.2,0-3.2,0-3.2c0-0.2,0-0.4,0-0.5c0-0.3-0.1-0.6,0-0.8c0-0.1,0.2-0.1,0.3-0.1
	s0.2,0,0.3,0.1c0.2,0.2,0.2,0.6,0.2,0.8c2,0,4.7,2,5.3,2.4c0.2-0.7,0.8-2,1.3-2c0.1,0,0.2,0,0.4,0.2c0.3,0.6-0.4,2.3-0.6,2.7
	c0.8,1.2,0.8,2,0.8,2l-0.1,0.1c0.4,0.3,0.1,1,0,1.2c0.2,0,0.4,0.2,0.4,0.3c0.1,0.2,0,0.5,0,0.6l0.2,0.1l-0.4,3.4h-0.3
	C19,19.6,18.7,20,18.4,20c-0.1,0-0.2,0-0.2-0.1c-0.3,0.2-1.3,1.3-2.2,3.1c-0.4,0.8-0.7,1.7-0.9,2.6c-0.4,1.5-0.7,2.8-1.8,2.8
	L13.2,28.5z"/>
<path class="st5" d="M11.8,6.6c0.5,0,0.3,0.9,0.3,0.9s0,0,0.1,0c2.2,0,5.4,2.5,5.4,2.5c0.4-1.3,0.9-2,1.3-2c0.1,0,0.2,0,0.3,0.2
	c0.3,0.6-0.7,2.6-0.7,2.6c0.9,1.2,0.8,2,0.8,2L19.1,13c0.5,0.3,0.1,1.2,0.1,1.2l0.1,0.1c0.7,0.2,0.3,0.9,0.3,0.9l0.3,0.2l-0.4,3.3
	h-0.4c-0.2,1.1-0.4,1.3-0.6,1.3c-0.1,0-0.2-0.1-0.2-0.1S17.1,21,16,23.1s-0.9,5.3-2.6,5.4h-0.1c-1.6,0-2.1-1.2-2.4-1.7
	s-0.5-0.8-2.2-1.1s-1.9-1.2-1.9-1.2c-0.5-0.3,0-1,0-1c0.3-0.6,0.7-0.7,0.5-1.3c-0.1-0.6,0.3-0.7,0.6-1.1C8.1,20.7,7.1,20.2,7,20
	c0-0.1,0.2-0.1,0.5-0.1h1.1c0.8-1.2,0.1-1.1,0.9-2.6c0.7-1.5,1.8-5.9,1.8-5.9h0.3c0.1-1.3,0-3.3,0-3.3C11.5,7.2,11.3,6.6,11.8,6.6
	L11.8,6.6z M11.8,6.4c-0.2,0-0.3,0-0.4,0.2c-0.2,0.2-0.1,0.5-0.1,0.9V8c0,0,0.1,1.9,0,3.2h-0.1h-0.1v0.1c0,0-1.1,4.4-1.8,5.8
	c-0.4,0.8-0.4,1.1-0.4,1.5c0,0.3,0,0.5-0.4,1.1c-0.2,0-0.6,0-0.9,0c-0.5,0-0.6,0-0.7,0.1c0,0-0.1,0.1,0,0.2c0,0.2,0.2,0.3,0.4,0.5
	c0.1,0.1,0.4,0.3,0.4,0.4S7.6,21,7.5,21.1c-0.2,0.2-0.5,0.4-0.4,1c0,0.3,0,0.4-0.2,0.6c-0.1,0.1-0.2,0.3-0.3,0.5
	c0,0.1-0.3,0.5-0.2,0.9c0,0.1,0.1,0.3,0.2,0.4c0.1,0.3,0.4,1.1,2,1.3c1.6,0.3,1.8,0.5,2.1,1s0.1,0.1,0.1,0.2c0.3,0.6,1,1.6,2.4,1.6
	h0.1c1.2,0,1.5-1.4,1.9-2.9c0.2-0.9,0.4-1.8,0.9-2.6c0.9-1.6,1.8-2.6,2.2-3h0.2c0.5,0,0.7-0.7,0.8-1.3h0.2h0.2v-0.2l0.4-3.3v-0.1
	L20,15.1L19.9,15c0-0.1,0.1-0.4,0-0.6c0-0.1-0.2-0.3-0.4-0.4c0.1-0.3,0.2-0.8,0-1.1v-0.1c0,0,0-0.9-0.8-2c0.2-0.5,1-2.1,0.6-2.7
	c-0.1-0.2-0.3-0.3-0.5-0.3c-0.6,0-1.1,1-1.4,1.9c-0.8-0.7-3.2-2.3-5.1-2.4c0-0.2,0-0.6-0.2-0.8C12,6.4,11.9,6.4,11.8,6.4z"/>
</svg>
