<?xml version="1.0" encoding="utf-8"?>
<!-- Generator: Adobe Illustrator 24.0.1, SVG Export Plug-In . SVG Version: 6.00 Build 0)  -->
<svg version="1.1" id="Layer_1" xmlns="http://www.w3.org/2000/svg" xmlns:xlink="http://www.w3.org/1999/xlink" x="0px" y="0px"
	 viewBox="0 0 922 278" style="enable-background:new 0 0 922 278;" xml:space="preserve">
<style type="text/css">
	.st0{fill:#005D8F;}
	.st1{fill:#F06052;}
	.st2{fill:#2787B7;}
</style>
<g>
	<line x1="203" y1="204.5" x2="203" y2="204.5"/>
	<line x1="226.9" y1="192.5" x2="226.9" y2="192.5"/>
	<line x1="226.9" y1="156.6" x2="226.9" y2="156.6"/>
	<path class="st0" d="M218.8,138.6c1.9,1.7,3.6,3.7,4.9,6c2,3.5,3.2,7.6,3.2,12v35.9c0,8.9-4.8,16.6-12,20.7v-56.7
		c0-6.6-5.4-12-12-12h-83.8v-12H203c6.6,0,12-5.4,12-12V84.6c-0.1-6.5-5.4-11.8-12-11.8H83.3v119.7h-12V60.8H203
		c4.4,0,8.4,1.2,12,3.2c3.6,2.1,6.7,5.1,8.8,8.8c2,3.5,3.2,7.6,3.2,12v35.9c0,4.4-1.2,8.4-3.2,12
		C222.4,134.9,220.8,136.9,218.8,138.6z"/>
	<line x1="191" y1="156.6" x2="191" y2="156.6"/>
	<line x1="191" y1="168.6" x2="191" y2="168.6"/>
	<line x1="179" y1="156.6" x2="179" y2="156.6"/>
	<line x1="191" y1="192.5" x2="191" y2="192.5"/>
	<line x1="191" y1="180.5" x2="191" y2="180.5"/>
	<line x1="179" y1="192.5" x2="179" y2="192.5"/>
	<line x1="191" y1="204.5" x2="191" y2="204.5"/>
	<path class="st1" d="M203,162.6v47.9c0,2.6-1.7,4.8-4,5.6c-0.6,0.2-1.3,0.3-2,0.3h-48.2c-3.1,0-5.7-2.5-5.7-5.7v-24.6
		c0-3.1,2.5-5.7,5.7-5.7H179v12h-22.4c-0.9,0-1.5,0.7-1.5,1.5v8.9c0,0.9,0.7,1.5,1.5,1.5h33.1c0.7,0,1.3-0.6,1.3-1.3v-33.3
		c0-0.7-0.6-1.3-1.3-1.3h-57c-0.9,0-1.5,0.7-1.5,1.5v46.4h-12v-54.2c0-3.1,2.5-5.7,5.7-5.7H197C200.3,156.6,203,159.3,203,162.6z"/>
	<line x1="203" y1="96.7" x2="203" y2="96.7"/>
	<line x1="191" y1="84.7" x2="191" y2="84.7"/>
	<line x1="203" y1="96.7" x2="203" y2="96.7"/>
	<line x1="197" y1="84.7" x2="197" y2="84.7"/>
	<path class="st2" d="M203,90.7v23.9c0,3.3-2.7,6-6,6h-77.8v-12h70.3c0.9,0,1.5-0.7,1.5-1.5v-8.9c0-0.9-0.7-1.5-1.5-1.5h-82.3v119.7
		H71.3v-12h23.9V84.7H197C200.3,84.7,203,87.4,203,90.7z"/>
	<line x1="203" y1="108.7" x2="203" y2="108.7"/>
	<line x1="203" y1="144.6" x2="203" y2="144.6"/>
	<polyline points="226.9,156.6 226.9,156.6 226.9,156.6 	"/>
	<line x1="191" y1="177.3" x2="191" y2="177.3"/>
	<polyline points="226.9,192.5 226.9,192.5 226.9,192.5 	"/>
	<line x1="191" y1="171.8" x2="191" y2="171.8"/>
	<polyline points="197,84.7 197,84.7 197,84.7 	"/>
</g>
<g>
	<path class="st1" d="M294.7,181.9c3.8,0,6,2.3,6,6v5.2c0,3.6-2.2,6-6,6h-5.9v-17.1H294.7z M294.7,184.4h-2.9v12.3h2.9
		c2,0,3.1-1.1,3.1-3.6v-5C297.8,185.5,296.8,184.4,294.7,184.4z"/>
	<path class="st1" d="M386.7,181.9v17.1h-3v-17.1H386.7z"/>
	<path class="st1" d="M481.3,185.3l-2.2,0.8c-0.6-1.5-1.7-2.2-3.1-2.2c-2.3,0-3.4,1.3-3.4,3.9v5.3c0,2.4,1.2,3.5,3.3,3.5
		c1.3,0,2.2-0.4,2.9-1.5v-3h-2.2v-2h4.8v8.7h-2.4v-1.3c-1,1-2.3,1.5-3.8,1.5c-3.4,0-5.5-2-5.5-5.9v-5.3c0-3.8,2-6.3,6.1-6.3
		C478.5,181.5,480.6,183,481.3,185.3z"/>
	<path class="st1" d="M567.2,181.9v17.1h-3v-17.1H567.2z"/>
	<path class="st1" d="M661.2,181.9v2.6h-4v14.6h-3v-14.6h-4v-2.6H661.2z"/>
	<path class="st1" d="M747.2,199.1h-3l5.4-17.1h3.3l5.4,17.1h-3l-1.1-4h-5.8L747.2,199.1z M748.9,192.9h4.6l-2.3-8.3h0L748.9,192.9z
		"/>
	<path class="st1" d="M844.1,181.9v14.6h6.3v2.6h-9.2v-17.1H844.1z"/>
	<g>
		<path class="st0" d="M288.9,79.2h41.9c6.8,0,11.9,1.6,15.1,4.7c3.2,3.1,4.8,7.8,4.8,14.2c0,4.2-0.9,7.6-2.7,10.2
			c-1.8,2.6-4,4.4-6.7,5.5c5.7,1.5,9.5,5.3,11.5,11.3c0.7,2.2,1,4.7,1,7.5c0,6.8-1.6,11.9-4.8,15.1c-3.2,3.2-8.2,4.8-15.1,4.8h-45
			V79.2z M331.8,100.1c0-4.2-2.1-6.3-6.3-6.3h-17.8v14.7h17.8c4.2,0,6.3-2.1,6.3-6.3V100.1z M334.9,129.4c0-4.2-2.1-6.3-6.3-6.3
			h-20.9v14.6h20.9c4.2,0,6.3-2.1,6.3-6.3V129.4z"/>
		<path class="st0" d="M429.1,132.6c0,7.3-1.7,12.6-5,16c-3.3,3.3-8.6,5-16,5H382c-7.3,0-12.6-1.7-16-5c-3.3-3.3-5-8.6-5-16V99.1
			c0-7.3,1.7-12.6,5-16c3.3-3.3,8.6-5,16-5h26.2c7.3,0,12.6,1.7,16,5c3.3,3.3,5,8.6,5,16V132.6z M410.2,99.1c0-4.2-2.1-6.3-6.3-6.3
			h-17.8c-4.2,0-6.3,2.1-6.3,6.3v33.5c0,4.2,2.1,6.3,6.3,6.3H404c4.2,0,6.3-2.1,6.3-6.3V99.1z"/>
		<path class="st0" d="M505.5,132.6c0,7.3-1.7,12.6-5,16c-3.3,3.3-8.6,5-16,5h-26.2c-7.3,0-12.6-1.7-16-5c-3.3-3.3-5-8.6-5-16V99.1
			c0-7.3,1.7-12.6,5-16c3.3-3.3,8.6-5,16-5h26.2c7.3,0,12.6,1.7,16,5c3.3,3.3,5,8.6,5,16V132.6z M486.6,99.1c0-4.2-2.1-6.3-6.3-6.3
			h-17.8c-4.2,0-6.3,2.1-6.3,6.3v33.5c0,4.2,2.1,6.3,6.3,6.3h17.8c4.2,0,6.3-2.1,6.3-6.3V99.1z"/>
		<path class="st0" d="M551.5,152.4h-18.8V93.8h-22V79.2h62.8v14.6h-22V152.4z"/>
		<path class="st2" d="M580.8,79.2h44c7.3,0,12.6,1.7,16,5c3.3,3.3,5,8.6,5,16v10.5c0,7.3-1.7,12.6-5,16c-3.3,3.3-8.6,5-16,5h-25.1
			v20.9h-18.8V79.2z M626.9,100.1c0-4.2-2.1-6.3-6.3-6.3h-20.9v23h20.9c4.2,0,6.3-2.1,6.3-6.3V100.1z"/>
		<path class="st2" d="M777.6,151.4c-15.6,1.4-28.5,2.1-38.7,2.1c-6.8,0-11.9-1.6-15.1-4.8c-3.2-3.2-4.8-8.2-4.8-15.1v-33.5
			c0-7.3,1.7-12.6,5-16c3.3-3.3,8.6-5,16-5h37.7v14.6h-33.5c-4.2,0-6.3,2.1-6.3,6.3v33.5c0,1.6,0.5,2.9,1.4,3.8
			c0.9,0.9,2.1,1.4,3.6,1.4s3.1,0,4.8-0.1c1.7,0,3.6-0.1,5.4-0.2c1.9-0.1,3.8-0.1,5.7-0.2c1.9-0.1,4.4-0.2,7.4-0.4
			c3-0.2,6.8-0.5,11.4-0.7V151.4z"/>
		<path class="st2" d="M804.8,152.4h-18.8V79.2h18.8V108h9.4l16.3-28.8h19.9l-20.5,36.1l20.4,37.2h-19.9l-16.2-29.8h-9.4V152.4z"/>
		<polygon class="st2" points="690.2,79.2 669.3,79.2 641.5,152.4 661.9,152.4 662.3,152.4 670.1,129.4 678.6,104.3 680.7,110.2 
			682.6,109.6 689.3,129.4 692.1,136.7 684.3,129.4 681,142.3 677.5,131.9 677.5,131.9 677.5,131.9 674.3,136.3 671.3,133.5 
			664.9,152.4 697.5,152.4 717.9,152.4 		"/>
	</g>
</g>
</svg>
