<svg xmlns="http://www.w3.org/2000/svg" viewBox="0 0 922 190"><path fill="#005d8f" d="M178.1 94.6c2.2 2 4.2 4.3 5.7 7 2.3 4.1 3.7 8.9 3.7 14v41.9c0 10.4-5.6 19.4-14 24.2v-66.2c0-7.7-6.3-14-14-14H61.7v-14h98c7.7 0 14-6.3 14-14v-42c-.1-7.6-6.3-13.8-14-13.8H19.9v139.8h-14V3.7h153.8c5.1 0 9.8 1.4 14 3.7 4.2 2.5 7.8 6 10.3 10.3 2.3 4.1 3.7 8.9 3.7 14v41.9c0 5.1-1.4 9.8-3.7 14-1.7 2.7-3.5 5-5.9 7"/><path fill="#f06052" d="M159.7 122.6v55.9c0 3-2 5.6-4.7 6.5-.7.2-1.5.4-2.3.4H96.4c-3.6 0-6.7-2.9-6.7-6.7V150c0-3.6 2.9-6.7 6.7-6.7h35.3v14h-26.2c-1.1 0-1.8.8-1.8 1.8v10.4c0 1.1.8 1.8 1.8 1.8h38.7c.8 0 1.5-.7 1.5-1.5v-38.9c0-.8-.7-1.5-1.5-1.5H77.6c-1.1 0-1.8.8-1.8 1.8v54.2h-14V122c0-3.6 2.9-6.7 6.7-6.7h84.2c3.8.3 7 3.5 7 7.3"/><path fill="#2787b7" d="M159.7 38.7v27.9c0 3.9-3.2 7-7 7H61.8v-14h82.1c1.1 0 1.8-.8 1.8-1.8V47.4c0-1.1-.8-1.8-1.8-1.8H47.8v139.8H5.9v-14h27.9V31.6h118.9c3.8 0 7 3.2 7 7.1"/><path fill="#f06052" d="M266.8 145.2c4.4 0 7 2.7 7 7v6.1c0 4.2-2.6 7-7 7h-6.9v-20h6.9zm0 2.9h-3.4v14.4h3.4c2.3 0 3.6-1.3 3.6-4.2v-5.8c0-3.1-1.2-4.4-3.6-4.4m107.4-2.9v20h-3.5v-20zm110.5 3.9-2.6.9c-.7-1.8-2-2.6-3.6-2.6-2.7 0-4 1.5-4 4.6v6.2c0 2.8 1.4 4.1 3.9 4.1 1.5 0 2.6-.5 3.4-1.8V157h-2.6v-2.3h5.6v10.2H482v-1.5c-1.2 1.2-2.7 1.8-4.4 1.8-4 0-6.4-2.3-6.4-6.9v-6.2c0-4.4 2.3-7.4 7.1-7.4 3.2 0 5.6 1.8 6.4 4.4m100.4-3.9v20h-3.5v-20zm109.8 0v3h-4.7v17.1h-3.5v-17.1H682v-3zm100.4 20.1h-3.5l6.3-20h3.9l6.3 20h-3.5l-1.3-4.7h-6.8zm2-7.3h5.4l-2.7-9.7zm111.2-12.8v17.1h7.4v3h-10.7v-20h3.4v-.1z"/><path fill="#005d8f" d="M260 25.2h48.9c7.9 0 13.9 1.9 17.6 5.5s5.6 9.1 5.6 16.6c0 4.9-1.1 8.9-3.2 11.9s-4.7 5.1-7.8 6.4c6.7 1.8 11.1 6.2 13.4 13.2.8 2.6 1.2 5.5 1.2 8.8 0 7.9-1.9 13.9-5.6 17.6s-9.6 5.6-17.6 5.6H260zm50.1 24.4c0-4.9-2.5-7.4-7.4-7.4H282v17.2h20.8c4.9 0 7.4-2.5 7.4-7.4v-2.4zm3.6 34.3c0-4.9-2.5-7.4-7.4-7.4H282v17.1h24.4c4.9 0 7.4-2.5 7.4-7.4v-2.3zm110.1 3.7c0 8.5-2 14.7-5.8 18.7-3.9 3.9-10 5.8-18.7 5.8h-30.5c-8.5 0-14.7-2-18.7-5.8-3.9-3.9-5.8-10-5.8-18.7V48.5c0-8.5 2-14.7 5.8-18.7 3.9-3.9 10-5.8 18.7-5.8h30.6c8.5 0 14.7 2 18.7 5.8 3.9 3.9 5.8 10 5.8 18.7v39.1zm-22.1-39.1c0-4.9-2.5-7.4-7.4-7.4h-20.8c-4.9 0-7.4 2.5-7.4 7.4v39.1c0 4.9 2.5 7.4 7.4 7.4h20.9c4.9 0 7.4-2.5 7.4-7.4V48.5zM513 87.6c0 8.5-2 14.7-5.8 18.7-3.9 3.9-10 5.8-18.7 5.8h-30.6c-8.5 0-14.7-2-18.7-5.8-3.9-3.9-5.8-10-5.8-18.7V48.5c0-8.5 2-14.7 5.8-18.7 3.9-3.9 10-5.8 18.7-5.8h30.6c8.5 0 14.7 2 18.7 5.8 3.9 3.9 5.8 10 5.8 18.7zm-22.1-39.1c0-4.9-2.5-7.4-7.4-7.4h-20.8c-4.9 0-7.4 2.5-7.4 7.4v39.1c0 4.9 2.5 7.4 7.4 7.4h20.8c4.9 0 7.4-2.5 7.4-7.4zm75.8 62.2h-22V42.3H519V25.2h73.4v17.1h-25.7z"/><path fill="#2787b7" d="M601 25.2h51.4c8.5 0 14.7 2 18.7 5.8 3.9 3.9 5.8 10 5.8 18.7V62c0 8.5-2 14.7-5.8 18.7-3.9 3.9-10 5.8-18.7 5.8H623V111h-22zm53.8 24.4c0-4.9-2.5-7.4-7.4-7.4H623v26.9h24.4c4.9 0 7.4-2.5 7.4-7.4zm176 60c-18.2 1.6-33.3 2.5-45.2 2.5-7.9 0-13.9-1.9-17.6-5.6s-5.6-9.6-5.6-17.6V49.6c0-8.5 2-14.7 5.8-18.7 3.9-3.9 10-5.8 18.7-5.8h44v17.1h-39.1c-4.9 0-7.4 2.5-7.4 7.4v39.1c0 1.9.6 3.4 1.6 4.4 1.1 1.1 2.5 1.6 4.2 1.6s3.6 0 5.6-.1c2 0 4.2-.1 6.3-.2 2.2-.1 4.4-.1 6.7-.2s5.1-.2 8.6-.5c3.5-.2 7.9-.6 13.3-.8zm31.8 1.1h-22V25.2h22v33.6h11l19-33.6h23.2l-23.9 42.2 23.8 43.5h-23.2L873.6 76h-11zM728.7 25.2h-24.4l-32.5 85.5h24.3l9.1-26.9 9.9-29.3 2.5 6.9 2.2-.7 7.8 23.1 3.3 8.5-9.1-8.5-3.8 15.1-4.1-12.1-3.7 5.1-3.5-3.3-7.5 22.1h61.9z"/></svg>