<?xml version="1.0" encoding="UTF-8" standalone="no"?>
<!DOCTYPE svg PUBLIC "-//W3C//DTD SVG 1.1//EN" "http://www.w3.org/Graphics/SVG/1.1/DTD/svg11.dtd">
<svg width="100%" height="100%" viewBox="0 0 882 251" version="1.1" xmlns="http://www.w3.org/2000/svg" xmlns:xlink="http://www.w3.org/1999/xlink" xml:space="preserve" xmlns:serif="http://www.serif.com/" style="fill-rule:evenodd;clip-rule:evenodd;stroke-linejoin:round;stroke-miterlimit:2;">
    <g id="Artboard1" transform="matrix(0.959739,0,0,0.965385,-10.557127,-17.376923)">
        <rect x="11" y="18" width="919" height="260" style="fill:none;"/>
        <g transform="matrix(1.04195,0,0,1.035857,-0.461451,-0.645418)">
            <g>
                <g>
                    <path d="M238.8,172C240.7,173.7 242.4,175.7 243.7,178C245.7,181.5 246.9,185.6 246.9,190L246.9,225.9C246.9,234.8 242.1,242.5 234.9,246.6L234.9,190C234.9,183.4 229.5,178 222.9,178L139.1,178L139.1,166L223,166C229.6,166 235,160.6 235,154L235,118C234.9,111.5 229.6,106.2 223,106.2L103.2,106.2L103.2,225.9L91.2,225.9L91.2,94.2L223,94.2C227.4,94.2 231.4,95.4 235,97.4C238.6,99.5 241.7,102.5 243.8,106.2C245.8,109.7 247,113.8 247,118.2L247,154.1C247,158.5 245.8,162.5 243.8,166.1C242.4,168.3 240.7,170.3 238.8,172Z" style="fill:rgb(0,93,143);fill-rule:nonzero;"/>
                    <path d="M223,196L223,243.9C223,246.5 221.3,248.7 219,249.5C218.4,249.7 217.7,249.8 217,249.8L168.8,249.8C165.7,249.8 163.1,247.3 163.1,244.1L163.1,219.5C163.1,216.4 165.6,213.8 168.8,213.8L199,213.8L199,225.8L176.6,225.8C175.7,225.8 175.1,226.5 175.1,227.3L175.1,236.2C175.1,237.1 175.8,237.7 176.6,237.7L209.7,237.7C210.4,237.7 211,237.1 211,236.4L211,203.1C211,202.4 210.4,201.8 209.7,201.8L152.7,201.8C151.8,201.8 151.2,202.5 151.2,203.3L151.2,249.7L139.2,249.7L139.2,195.5C139.2,192.4 141.7,189.8 144.9,189.8L217,189.8C220.3,190 223,192.7 223,196Z" style="fill:rgb(240,96,82);fill-rule:nonzero;"/>
                    <path d="M223,124.1L223,148C223,151.3 220.3,154 217,154L139.2,154L139.2,142L209.5,142C210.4,142 211,141.3 211,140.5L211,131.6C211,130.7 210.3,130.1 209.5,130.1L127.2,130.1L127.2,249.8L91.3,249.8L91.3,237.8L115.2,237.8L115.2,118.1L217,118.1C220.3,118.1 223,120.8 223,124.1Z" style="fill:rgb(39,135,183);fill-rule:nonzero;"/>
                </g>
                <g>
                    <path d="M314.7,215.3C318.5,215.3 320.7,217.6 320.7,221.3L320.7,226.5C320.7,230.1 318.5,232.5 314.7,232.5L308.8,232.5L308.8,215.4L314.7,215.4L314.7,215.3ZM314.7,217.8L311.8,217.8L311.8,230.1L314.7,230.1C316.7,230.1 317.8,229 317.8,226.5L317.8,221.5C317.8,218.9 316.8,217.8 314.7,217.8Z" style="fill:rgb(240,96,82);fill-rule:nonzero;"/>
                    <rect x="403.6" y="215.3" width="3" height="17.1" style="fill:rgb(240,96,82);fill-rule:nonzero;"/>
                    <path d="M501.3,218.7L499.1,219.5C498.5,218 497.4,217.3 496,217.3C493.7,217.3 492.6,218.6 492.6,221.2L492.6,226.5C492.6,228.9 493.8,230 495.9,230C497.2,230 498.1,229.6 498.8,228.5L498.8,225.5L496.6,225.5L496.6,223.5L501.4,223.5L501.4,232.2L499,232.2L499,231C498,232 496.7,232.5 495.2,232.5C491.8,232.5 489.7,230.5 489.7,226.6L489.7,221.3C489.7,217.5 491.7,215 495.8,215C498.5,214.9 500.6,216.4 501.3,218.7Z" style="fill:rgb(240,96,82);fill-rule:nonzero;"/>
                    <rect x="584.2" y="215.3" width="3" height="17.1" style="fill:rgb(240,96,82);fill-rule:nonzero;"/>
                    <path d="M681.2,215.3L681.2,217.9L677.2,217.9L677.2,232.5L674.2,232.5L674.2,217.9L670.2,217.9L670.2,215.3L681.2,215.3Z" style="fill:rgb(240,96,82);fill-rule:nonzero;"/>
                    <path d="M767.2,232.5L764.2,232.5L769.6,215.4L772.9,215.4L778.3,232.5L775.3,232.5L774.2,228.5L768.4,228.5L767.2,232.5ZM768.9,226.3L773.5,226.3L771.2,218L768.9,226.3Z" style="fill:rgb(240,96,82);fill-rule:nonzero;"/>
                    <path d="M864,215.3L864,229.9L870.3,229.9L870.3,232.5L861.1,232.5L861.1,215.4L864,215.4L864,215.3Z" style="fill:rgb(240,96,82);fill-rule:nonzero;"/>
                    <g>
                        <path d="M308.8,112.6L350.7,112.6C357.5,112.6 362.6,114.2 365.8,117.3C369,120.4 370.6,125.1 370.6,131.5C370.6,135.7 369.7,139.1 367.9,141.7C366.1,144.3 363.9,146.1 361.2,147.2C366.9,148.7 370.7,152.5 372.7,158.5C373.4,160.7 373.7,163.2 373.7,166C373.7,172.8 372.1,177.9 368.9,181.1C365.7,184.3 360.7,185.9 353.8,185.9L308.8,185.9L308.8,112.6ZM351.7,133.5C351.7,129.3 349.6,127.2 345.4,127.2L327.6,127.2L327.6,141.9L345.4,141.9C349.6,141.9 351.7,139.8 351.7,135.6L351.7,133.5ZM354.9,162.8C354.9,158.6 352.8,156.5 348.6,156.5L327.7,156.5L327.7,171.1L348.6,171.1C352.8,171.1 354.9,169 354.9,164.8L354.9,162.8Z" style="fill:rgb(0,93,143);fill-rule:nonzero;"/>
                        <path d="M449.1,166C449.1,173.3 447.4,178.6 444.1,182C440.8,185.3 435.5,187 428.1,187L402,187C394.7,187 389.4,185.3 386,182C382.7,178.7 381,173.4 381,166L381,132.5C381,125.2 382.7,119.9 386,116.5C389.3,113.2 394.6,111.5 402,111.5L428.2,111.5C435.5,111.5 440.8,113.2 444.2,116.5C447.5,119.8 449.2,125.1 449.2,132.5L449.2,166L449.1,166ZM430.2,132.5C430.2,128.3 428.1,126.2 423.9,126.2L406.1,126.2C401.9,126.2 399.8,128.3 399.8,132.5L399.8,166C399.8,170.2 401.9,172.3 406.1,172.3L423.9,172.3C428.1,172.3 430.2,170.2 430.2,166L430.2,132.5Z" style="fill:rgb(0,93,143);fill-rule:nonzero;"/>
                        <path d="M525.4,166C525.4,173.3 523.7,178.6 520.4,182C517.1,185.3 511.8,187 504.4,187L478.2,187C470.9,187 465.6,185.3 462.2,182C458.9,178.7 457.2,173.4 457.2,166L457.2,132.5C457.2,125.2 458.9,119.9 462.2,116.5C465.5,113.2 470.8,111.5 478.2,111.5L504.4,111.5C511.7,111.5 517,113.2 520.4,116.5C523.7,119.8 525.4,125.1 525.4,132.5L525.4,166ZM506.6,132.5C506.6,128.3 504.5,126.2 500.3,126.2L482.5,126.2C478.3,126.2 476.2,128.3 476.2,132.5L476.2,166C476.2,170.2 478.3,172.3 482.5,172.3L500.3,172.3C504.5,172.3 506.6,170.2 506.6,166L506.6,132.5Z" style="fill:rgb(0,93,143);fill-rule:nonzero;"/>
                        <path d="M571.5,185.8L552.7,185.8L552.7,127.2L530.7,127.2L530.7,112.6L593.5,112.6L593.5,127.2L571.5,127.2L571.5,185.8Z" style="fill:rgb(0,93,143);fill-rule:nonzero;"/>
                        <path d="M600.8,112.6L644.8,112.6C652.1,112.6 657.4,114.3 660.8,117.6C664.1,120.9 665.8,126.2 665.8,133.6L665.8,144C665.8,151.3 664.1,156.6 660.8,160C657.5,163.3 652.2,165 644.8,165L619.7,165L619.7,185.9L600.9,185.9L600.9,112.6L600.8,112.6ZM646.8,133.5C646.8,129.3 644.7,127.2 640.5,127.2L619.6,127.2L619.6,150.2L640.5,150.2C644.7,150.2 646.8,148.1 646.8,143.9L646.8,133.5Z" style="fill:rgb(39,135,183);fill-rule:nonzero;"/>
                        <path d="M797.5,184.8C781.9,186.2 769,186.9 758.8,186.9C752,186.9 746.9,185.3 743.7,182.1C740.5,178.9 738.9,173.9 738.9,167L738.9,133.5C738.9,126.2 740.6,120.9 743.9,117.5C747.2,114.2 752.5,112.5 759.9,112.5L797.6,112.5L797.6,127.1L764,127.1C759.8,127.1 757.7,129.2 757.7,133.4L757.7,167C757.7,168.6 758.2,169.9 759.1,170.8C760,171.7 761.2,172.2 762.7,172.2C764.2,172.2 765.8,172.2 767.5,172.1C769.2,172.1 771.1,172 772.9,171.9C774.8,171.8 776.7,171.8 778.6,171.7C780.5,171.6 783,171.5 786,171.3C789,171.1 792.8,170.8 797.4,170.6L797.4,184.8L797.5,184.8Z" style="fill:rgb(39,135,183);fill-rule:nonzero;"/>
                        <path d="M824.8,185.8L805.9,185.8L805.9,112.5L824.7,112.5L824.7,141.3L834.1,141.3L850.4,112.5L870.3,112.5L849.8,148.6L870.2,185.8L850.3,185.8L834.2,156L824.8,156L824.8,185.8Z" style="fill:rgb(39,135,183);fill-rule:nonzero;"/>
                        <path d="M710.1,112.6L689.2,112.6L661.5,185.8L682.2,185.8L690.1,162.8L698.6,137.7L700.7,143.6L702.6,143L709.3,162.8L712.1,170.1L704.2,162.8L701,175.7L697.5,165.3L697.4,165.3L694.3,169.7L691.3,166.9L684.9,185.8L737.9,185.8L710.1,112.6Z" style="fill:rgb(39,135,183);fill-rule:nonzero;"/>
                    </g>
                </g>
            </g>
        </g>
        <g transform="matrix(0.81124,0,0,0.822942,5.962961,17.796342)">
            <g id="path24" transform="matrix(0.01704,-0.003175,0.003175,0.01704,-5.255857,49.802368)">
                <path d="M1770,2738C2348,2738 2815,3205 2815,3783C2815,4360 2348,4827 1770,4827C1193,4827 726,4360 726,3783C726,3205 1193,2738 1770,2738Z" style="fill:rgb(255,204,0);"/>
            </g>
            <g id="path28" transform="matrix(0.01704,-0.003175,0.003175,0.01704,-5.255857,49.802368)">
                <path d="M11468,5275C11689,5137 11831,5043 11881,4941C11931,4838 11888,4728 11819,4600C11750,4473 11656,4327 11601,4170C11546,4013 11530,3843 11527,3649C11524,3456 11535,3238 11508,3086C11481,2934 11417,2848 11301,2786C11186,2724 11019,2687 10863,2654C10707,2622 10562,2595 10551,2618C10540,2641 10664,2713 10508,2868C10352,3023 9916,3260 9310,3530C8703,3800 7926,4104 7212,4334C6498,4564 5847,4720 5392,4820C4938,4919 4679,4962 4467,4959C4255,4957 4088,4908 4004,4938C3921,4967 3921,5075 3918,5298C3916,5522 3910,5860 3932,6127C3953,6393 4002,6587 4104,6732C4206,6877 4362,6974 4682,7049C5002,7125 5486,7178 5938,7184C6390,7189 6810,7146 7307,7030C7805,6915 8380,6726 8951,6506C9521,6285 10086,6033 10517,5815C10949,5597 11247,5414 11468,5275Z" style="fill:rgb(51,152,0);"/>
            </g>
            <g id="path30" transform="matrix(0.01704,-0.003175,0.003175,0.01704,-5.255857,49.802368)">
                <path d="M4004,4767C4090,4836 4260,4868 4581,4845C4903,4822 5376,4744 5973,4594C6570,4443 7291,4220 7891,4005C8491,3789 8969,3582 9358,3402C9747,3222 10045,3069 10215,2962C10384,2856 10425,2797 10441,2738C10457,2679 10449,2619 10337,2520C10226,2420 10010,2281 9614,2088C9217,1896 8639,1651 8083,1421C7528,1191 6995,976 6494,789C5992,602 5521,443 5152,329C4782,215 4513,145 4303,107C4093,70 3943,64 3782,98C3622,131 3453,204 3288,313C3122,422 2961,567 2808,731C2654,895 2509,1078 2376,1276C2243,1474 2122,1686 2038,1869C1955,2052 1909,2205 1874,2315C1839,2426 1815,2493 1819,2527C1823,2560 1855,2560 1892,2564C1928,2568 1968,2576 2005,2584C2041,2593 2073,2601 2118,2575C2162,2549 2218,2490 2296,2410C2374,2329 2474,2227 2595,2150C2716,2073 2859,2022 3024,1994C3189,1966 3378,1960 3570,1982C3762,2003 3959,2052 4135,2071C4311,2090 4467,2079 4612,2041C4757,2004 4892,1939 5043,1807C5193,1675 5360,1476 5425,1428C5489,1380 5451,1482 5376,1595C5301,1708 5188,1831 5064,1928C4940,2025 4806,2095 4655,2141C4505,2186 4338,2208 4295,2238C4252,2267 4333,2305 4470,2334C4607,2364 4801,2385 4997,2375C5193,2364 5392,2321 5473,2321C5554,2321 5516,2364 5403,2399C5290,2434 5102,2461 4927,2480C4752,2498 4591,2509 4451,2485C4311,2461 4193,2402 4080,2342C3967,2283 3859,2224 3784,2192C3709,2159 3666,2154 3690,2211C3714,2267 3805,2385 3859,2544C3913,2703 3929,2902 3932,3157C3934,3413 3924,3725 3918,3956C3913,4187 3913,4338 3914,4466C3916,4594 3918,4698 4004,4767Z" style="fill:rgb(204,0,0);"/>
            </g>
            <g id="path32" transform="matrix(0.01704,-0.003175,0.003175,0.01704,-5.255857,49.802368)">
                <path d="M7562,4217C7589,4215 7612,4215 7629,4218C7751,4244 7563,4443 7294,4649C7025,4855 6675,5067 6421,5203C6167,5339 6008,5398 6066,5409C6124,5419 6398,5382 6459,5448C6519,5514 6366,5683 6240,5809C6113,5936 6014,6019 5882,6121C5750,6224 5586,6345 5495,6441C5403,6538 5384,6611 5441,6679C5497,6748 5629,6813 5859,6858C6089,6904 6417,6931 6858,6889C7299,6848 7853,6737 8243,6651C8633,6565 8859,6503 8885,6528C8886,6528 8886,6529 8887,6530C8338,6740 7786,6919 7307,7030C6810,7146 6390,7189 5938,7184C5486,7178 5002,7125 4682,7049C4362,6974 4206,6877 4104,6732C4002,6587 3953,6393 3932,6127C3910,5860 3916,5522 3918,5298C3921,5075 3921,4967 4004,4938C4088,4908 4255,4957 4467,4959C4679,4962 4938,4919 5392,4820C5847,4720 6498,4564 7212,4334C7327,4297 7444,4258 7562,4217Z" style="fill:rgb(45,120,7);"/>
            </g>
            <g id="path34" transform="matrix(0.01704,-0.003175,0.003175,0.01704,-5.255857,49.802368)">
                <path d="M9593,3453C9767,3378 9963,3294 10130,3208C10297,3122 10434,3033 10521,2953C10609,2872 10646,2799 10658,2750C10670,2700 10657,2673 10728,2681C10800,2689 10956,2732 11082,2774C11208,2816 11305,2856 11366,2911C11426,2966 11450,3036 11464,3183C11477,3329 11480,3553 11485,3726C11491,3899 11499,4023 11539,4150C11580,4276 11652,4405 11706,4515C11760,4626 11795,4717 11803,4796C11811,4876 11792,4943 11691,5036C11590,5129 11407,5247 11220,5360C11034,5473 10843,5581 10683,5665C10523,5750 10393,5812 10484,5718C10574,5624 10883,5373 11089,5169C11294,4965 11397,4806 11424,4682C11450,4558 11402,4470 11308,4466C11214,4462 11074,4542 11062,4460C11050,4378 11165,4133 11223,3924C11281,3714 11281,3539 11282,3415C11284,3292 11286,3219 11251,3146C11216,3074 11144,3001 11039,3008C10934,3015 10797,3101 10595,3188C10393,3275 10127,3364 9870,3444C9613,3523 9366,3593 9318,3594C9269,3596 9420,3528 9593,3453Z" style="fill:rgb(45,120,7);"/>
            </g>
            <g id="path36" transform="matrix(0.01704,-0.003175,0.003175,0.01704,-5.255857,49.802368)">
                <path d="M1959,2997C1983,3082 2005,3203 2003,3376C2002,3550 1978,3776 1917,3949C1857,4123 1760,4244 1663,4331C1566,4419 1469,4472 1364,4486C1260,4499 1147,4472 1059,4452C1018,4443 983,4435 947,4426C1138,4670 1436,4827 1770,4827C2348,4827 2815,4360 2815,3783C2815,3276 2454,2853 1975,2758C1946,2776 1929,2797 1923,2818C1908,2864 1935,2912 1959,2997Z" style="fill:rgb(222,178,4);"/>
            </g>
            <g id="path38" transform="matrix(0.01704,-0.003175,0.003175,0.01704,-5.255857,49.802368)">
                <path d="M3482,1974C3676,1967 3885,1965 4066,1952C4328,1933 4533,1890 4710,1810C4888,1729 5039,1611 5181,1464C5324,1318 5458,1143 5521,1143C5585,1143 5576,1318 5562,1460C5547,1603 5525,1713 5442,1819C5359,1925 5213,2028 5107,2093C5001,2159 4934,2189 5009,2209C5084,2229 5302,2240 5555,2240C5808,2240 6096,2229 6347,2208C6599,2186 6814,2154 6651,2232C6488,2310 5948,2498 5540,2621C5133,2743 4858,2799 4718,2949C4579,3098 4573,3340 4658,3501C4743,3663 4917,3744 5071,3796C5224,3848 5356,3873 5560,3902C5765,3932 6042,3967 6374,3960C6706,3953 7093,3905 7518,3819C7943,3733 8406,3609 8550,3610C8661,3611 8582,3687 8402,3812C8242,3875 8072,3940 7891,4005C7291,4220 6570,4443 5973,4594C5376,4744 4903,4822 4581,4845C4260,4868 4090,4836 4004,4767C3918,4698 3916,4594 3914,4466C3913,4338 3913,4187 3918,3956C3924,3725 3934,3413 3932,3157C3929,2902 3913,2703 3859,2544C3805,2385 3714,2267 3690,2211C3666,2154 3709,2159 3784,2192C3859,2224 3967,2283 4080,2342C4193,2402 4311,2461 4451,2485C4591,2509 4752,2498 4927,2480C5102,2461 5290,2434 5403,2399C5516,2364 5554,2321 5473,2321C5392,2321 5193,2364 4997,2375C4801,2385 4607,2364 4470,2334C4333,2305 4252,2267 4295,2238C4338,2208 4505,2186 4655,2141C4806,2095 4940,2025 5064,1928C5188,1831 5301,1708 5376,1595C5451,1482 5489,1380 5425,1428C5360,1476 5193,1675 5043,1807C4892,1939 4757,2004 4612,2041C4467,2079 4311,2090 4135,2071C3959,2052 3762,2003 3570,1982C3541,1979 3511,1976 3482,1974Z" style="fill:rgb(166,7,7);"/>
            </g>
            <g id="path40" transform="matrix(0.01704,-0.003175,0.003175,0.01704,-5.255857,49.802368)">
                <path d="M5732,518C5295,492 4864,469 4536,462C4124,454 3874,473 3583,578C3293,683 2962,874 2688,1113C2471,1302 2290,1522 2175,1601C2236,1493 2304,1382 2376,1276C2509,1078 2654,895 2808,731C2961,567 3122,422 3288,313C3453,204 3622,131 3782,98C3943,64 4093,70 4303,107C4513,145 4782,215 5152,329C5325,383 5521,446 5732,518Z" style="fill:rgb(227,45,45);"/>
            </g>
            <g id="path42" transform="matrix(0.01704,-0.003175,0.003175,0.01704,-5.255857,49.802368)">
                <path d="M8579,1628C8795,1765 9025,1911 9203,2048C9568,2329 9710,2576 9713,2762C9716,2947 9579,3071 9462,3176C9345,3281 9248,3367 9186,3445C9172,3463 9159,3481 9151,3497C9223,3464 9292,3433 9358,3402C9747,3222 10045,3069 10215,2962C10384,2856 10425,2797 10441,2738C10457,2679 10449,2619 10337,2520C10226,2420 10010,2281 9614,2088C9335,1953 8966,1792 8579,1628Z" style="fill:rgb(227,45,45);"/>
            </g>
        </g>
    </g>
</svg>
