<?xml version="1.0" encoding="utf-8"?>
<!-- Generator: Adobe Illustrator 23.1.1, SVG Export Plug-In . SVG Version: 6.00 Build 0)  -->
<svg version="1.1" id="Calque_1" xmlns="http://www.w3.org/2000/svg" xmlns:xlink="http://www.w3.org/1999/xlink" x="0px" y="0px"
	 viewBox="0 0 162.6 45.3" style="enable-background:new 0 0 162.6 45.3;" xml:space="preserve">
<style type="text/css">
	.st0{fill:#4299E1;}
	.st1{fill:#FFFFFF;}
	.st2{enable-background:new    ;}
</style>
<g>
	<path class="st0" d="M13.9,26.3c0,0-0.2,2.4,0.4,3.9c0,0-0.6,0.2-0.5,1.7c0,0,0,1.6,1.9,1.7l0.1-0.5h0.6v0.5h1.1v-0.5H18v0.4h1.2
		l0.2-0.7c0,0,0.5-0.6,4.1,0v0.4l1.2,0.2V33l0.8,0.1v0.4l1.1,0.1l0.1-0.3h0.9v0.4h1.1v-0.4l0.8-0.1l0.1,0.4l1.1-0.1l0.1-0.4l0.5-0.1
		v0.1l1.1-0.2v-0.1c0,0,0.6-0.3,1-0.3s0.5-0.4,0.5-0.7c0-0.3,0.3-1.2-0.3-1.2c0,0,1-2.5-2.8-3l-3.3-0.7l-5.9-4.1L13.9,26.3z"/>
	<g>
		<path class="st0" d="M29.9,28.6c-0.4,0-0.9-0.1-1.5-0.4c-1.3-0.6-5.2-3.3-5.4-3.4c0,0-0.4-0.3-0.8-0.4c-0.5,0-0.6-0.4-0.6-0.4l0,0
			l2.5-4v1.6c0,0,0,1.8,1.1,2.5l0.7,0.6l1.1,0.8c0,0,1.4,0.8,2.4,0.9c0,0,0.1,0,0.3,0c0.4,0,0.7,0.2,0.8,0.5c0.2,0,0.9,0.3,1,0.7
			c0,0.2,0,0.3-0.2,0.5C30.8,28.5,30.4,28.6,29.9,28.6z"/>
		<path class="st1" d="M24,20.3v1.3c0,0,0,1.8,1.1,2.6l0.6,0.6l1.1,0.8c0,0,1.5,0.8,2.4,1c0,0,0.1,0,0.3,0c0.3,0,0.6,0.1,0.7,0.5
			c0,0,1.5,0.4,0.7,1.1c-0.4,0.3-0.8,0.5-1.2,0.5c-0.4,0-0.9-0.1-1.5-0.4c-1.3-0.6-5.4-3.4-5.4-3.4s-0.4-0.4-0.8-0.4
			c-0.4,0-0.5-0.4-0.5-0.4L24,20.3 M24.2,19.6l-0.4,0.6l-2.3,3.6v0.1V24c0,0.2,0.3,0.5,0.7,0.5c0.3,0,0.7,0.3,0.7,0.3l0,0l0,0
			c0.1,0.1,4.1,2.8,5.4,3.4c0.6,0.3,1.1,0.4,1.6,0.4s0.9-0.2,1.3-0.6c0.3-0.2,0.3-0.5,0.3-0.6c-0.1-0.4-0.7-0.7-1-0.7
			c-0.1-0.3-0.4-0.5-0.9-0.5c-0.1,0-0.3,0-0.3,0c-0.9-0.1-2.2-0.8-2.3-0.9l-1.1-0.8l-0.6-0.6l0,0l0,0c-1.1-0.7-1.1-2.4-1.1-2.4v-1.3
			L24.2,19.6L24.2,19.6z"/>
	</g>
	<g>
		<path class="st0" d="M19,29.4c-1.4,0-2-1-2.3-1.5c0-0.1-0.1-0.1-0.1-0.2l0,0c-0.3-0.4-0.5-0.7-2.1-1s-1.9-1.1-2-1.3
			c-0.1-0.1-0.2-0.2-0.2-0.3c0-0.3,0.2-0.8,0.2-0.8c0.1-0.2,0.2-0.4,0.3-0.5c0.2-0.2,0.3-0.4,0.2-0.7c-0.1-0.5,0.1-0.7,0.3-0.9
			c0.1-0.1,0.2-0.1,0.2-0.2c0.1-0.1-0.2-0.4-0.5-0.6s-0.4-0.3-0.4-0.4l0,0v-0.1c0,0,0.1-0.1,0.6-0.1c0.4,0,0.8,0,1,0
			c0.4-0.6,0.4-0.8,0.4-1.1s0-0.7,0.4-1.4c0.7-1.5,1.8-5.8,1.8-5.9v-0.1h0.3c0.1-1.2,0-3.2,0-3.2c0-0.2,0-0.4,0-0.5
			c0-0.3-0.1-0.6,0-0.8c0-0.1,0.2-0.1,0.3-0.1l0,0c0.1,0,0.2,0,0.3,0.1c0.2,0.2,0.2,0.6,0.2,0.8c2,0,4.7,2,5.3,2.4
			c0.2-0.7,0.8-2,1.3-2c0.1,0,0.2,0,0.4,0.2c0.3,0.6-0.4,2.3-0.6,2.7c0.8,1.2,0.8,2,0.8,2l0,0L25,14c0.4,0.3,0.1,1,0,1.2l0,0
			c0.2,0,0.4,0.2,0.4,0.3c0.1,0.2,0,0.5,0,0.6l0.2,0.1l-0.4,3.4h-0.3c-0.1,0.9-0.4,1.3-0.7,1.3c-0.1,0-0.2,0-0.2-0.1
			c-0.3,0.2-1.3,1.3-2.2,3.1c-0.4,0.8-0.7,1.7-0.9,2.6c-0.4,1.5-0.7,2.8-1.8,2.8L19,29.4z"/>
		<path class="st1" d="M17.6,7.5c0.5,0,0.3,0.9,0.3,0.9s0,0,0.1,0c2.2,0,5.4,2.5,5.4,2.5c0.4-1.3,0.9-2,1.3-2c0.1,0,0.2,0,0.3,0.2
			c0.3,0.6-0.7,2.6-0.7,2.6c0.9,1.2,0.8,2,0.8,2l-0.2,0.2c0.5,0.3,0.1,1.2,0.1,1.2l0.1,0.1c0.7,0.2,0.3,0.9,0.3,0.9l0.3,0.2
			l-0.4,3.3h-0.4c-0.2,1.1-0.4,1.3-0.6,1.3c-0.1,0-0.2-0.1-0.2-0.1s-1.2,1.1-2.3,3.2c-1.1,2.1-0.9,5.3-2.6,5.4h-0.1
			c-1.6,0-2.1-1.2-2.4-1.7c-0.3-0.5-0.5-0.8-2.2-1.1s-1.9-1.2-1.9-1.2c-0.5-0.3,0-1,0-1c0.3-0.6,0.7-0.7,0.5-1.3
			c-0.1-0.6,0.3-0.7,0.6-1.1c0.2-0.4-0.8-0.9-0.9-1.1c0-0.1,0.2-0.1,0.5-0.1c0.5,0,1.1,0,1.1,0c0.8-1.2,0.1-1.1,0.9-2.6
			c0.7-1.5,1.8-5.9,1.8-5.9h0.3c0.1-1.3,0-3.3,0-3.3C17.3,8.1,17.1,7.5,17.6,7.5L17.6,7.5 M17.6,7.3L17.6,7.3L17.6,7.3
			c-0.2,0-0.3,0-0.4,0.2C17,7.7,17.1,8,17.1,8.4c0,0.1,0,0.3,0,0.5c0,0,0.1,1.9,0,3.2H17h-0.1v0.1c0,0-1.1,4.4-1.8,5.8
			c-0.4,0.8-0.4,1.1-0.4,1.5c0,0.3,0,0.5-0.4,1.1c-0.2,0-0.6,0-0.9,0c-0.5,0-0.6,0-0.7,0.1c0,0-0.1,0.1,0,0.2c0,0.2,0.2,0.3,0.4,0.5
			c0.1,0.1,0.4,0.3,0.4,0.4c0,0.1-0.1,0.1-0.2,0.2c-0.2,0.2-0.5,0.4-0.4,1c0,0.3,0,0.4-0.2,0.6c-0.1,0.1-0.2,0.3-0.3,0.5
			c0,0.1-0.3,0.5-0.2,0.9c0,0.1,0.1,0.3,0.2,0.4c0.1,0.3,0.4,1.1,2,1.3c1.6,0.3,1.8,0.5,2.1,1l0,0c0,0,0.1,0.1,0.1,0.2
			c0.3,0.6,1,1.6,2.4,1.6h0.1c1.2,0,1.5-1.4,1.9-2.9c0.2-0.9,0.4-1.8,0.9-2.6c0.9-1.6,1.8-2.6,2.2-3c0,0,0.1,0,0.2,0
			c0.5,0,0.7-0.7,0.8-1.3h0.2h0.2v-0.2l0.4-3.3v-0.1L25.8,16l-0.1-0.1c0-0.1,0.1-0.4,0-0.6c0-0.1-0.2-0.3-0.4-0.4
			c0.1-0.3,0.2-0.8,0-1.1l0,0l0,0v-0.1c0,0,0-0.9-0.8-2c0.2-0.5,1-2.1,0.6-2.7c-0.1-0.2-0.3-0.3-0.5-0.3c-0.6,0-1.1,1-1.4,1.9
			c-0.8-0.7-3.2-2.3-5.1-2.4c0-0.2,0-0.6-0.2-0.8C17.8,7.3,17.7,7.3,17.6,7.3L17.6,7.3z"/>
	</g>
</g>
<g>
	<g class="st2">
		<path d="M43.5,15.9c0.7,0,2.3,0,3.3,1c0.8,0.8,0.9,1.9,0.9,2.4s-0.1,1.1-0.4,1.6s-0.8,0.8-1.1,0.9c0.6,0.1,1.3,0.4,1.8,0.9
			c0.4,0.4,0.8,1.2,0.8,2.3c0,1.3-0.5,2.1-1,2.6c-1.1,1-2.6,1.1-3.4,1.1h-4.8V15.9H43.5z M42.5,21.1H43c0.4,0,1.1-0.1,1.5-0.4
			c0.3-0.2,0.5-0.6,0.5-1.1s-0.3-0.9-0.5-1.1c-0.4-0.3-1-0.3-1.5-0.3h-0.5V21.1z M42.5,26.5h0.7c0.8,0,1.7,0,2.2-0.5
			c0.3-0.3,0.4-0.6,0.4-1.1s-0.2-0.9-0.4-1c-0.5-0.5-1.5-0.5-2.1-0.5h-0.8V26.5z"/>
	</g>
	<g class="st2">
		<path d="M58.4,27.7c-0.8,0.8-2.1,1.4-3.8,1.4c-1.7,0-3-0.6-3.8-1.4c-0.9-0.9-1.3-2.1-1.3-3.2s0.4-2.3,1.3-3.2
			c0.8-0.8,2.1-1.4,3.8-1.4c1.7,0,3,0.6,3.8,1.4c0.9,0.9,1.3,2.1,1.3,3.2C59.6,25.6,59.2,26.8,58.4,27.7z M53,22.9
			c-0.4,0.4-0.6,0.9-0.6,1.6c0,0.8,0.3,1.3,0.6,1.6c0.3,0.3,0.9,0.6,1.6,0.6c0.6,0,1.1-0.2,1.5-0.6c0.4-0.4,0.6-0.9,0.6-1.6
			s-0.2-1.2-0.6-1.6c-0.4-0.4-0.9-0.6-1.6-0.6C53.9,22.2,53.4,22.4,53,22.9z"/>
	</g>
	<g class="st2">
		<path d="M69.5,27.7c-0.8,0.8-2.1,1.4-3.8,1.4c-1.7,0-3-0.6-3.8-1.4c-0.9-0.9-1.3-2.1-1.3-3.2s0.4-2.3,1.3-3.2
			c0.8-0.8,2.1-1.4,3.8-1.4c1.7,0,3,0.6,3.8,1.4c0.9,0.9,1.3,2.1,1.3,3.2C70.7,25.6,70.3,26.8,69.5,27.7z M64.1,22.9
			c-0.4,0.4-0.6,0.9-0.6,1.6c0,0.8,0.3,1.3,0.6,1.6c0.3,0.3,0.9,0.6,1.6,0.6c0.6,0,1.1-0.2,1.5-0.6s0.6-0.9,0.6-1.6
			s-0.2-1.2-0.6-1.6s-0.9-0.6-1.6-0.6C65,22.2,64.5,22.4,64.1,22.9z"/>
		<path d="M75.4,22.4v6.4h-2.8v-6.4h-1v-2.2h1v-2.8h2.8v2.8h1.7v2.2H75.4z"/>
	</g>
	<g class="st2">
		<path d="M81,33.2h-2.8v-13H81v1c0.9-1.2,2-1.3,2.7-1.3c1.5,0,2.5,0.7,3.1,1.2c0.8,0.8,1.3,2,1.3,3.4c0,1.5-0.5,2.6-1.4,3.5
			s-1.8,1.2-2.9,1.2c-1.7,0-2.5-0.9-2.8-1.3C81,27.9,81,33.2,81,33.2z M81.5,22.9c-0.4,0.4-0.7,1.1-0.7,1.6s0.2,1.1,0.6,1.5
			c0.4,0.4,1,0.7,1.6,0.7c0.5,0,1.1-0.2,1.5-0.6s0.7-1.1,0.7-1.6c0-0.6-0.3-1.2-0.7-1.6s-0.9-0.6-1.5-0.6
			C82.3,22.3,81.8,22.6,81.5,22.9z"/>
	</g>
	<g class="st2">
		<path d="M96.1,20.2h2.8v8.6h-2.8v-1c-0.8,1.2-1.8,1.3-2.6,1.3c-1.2,0-2.3-0.3-3.2-1.3S89,25.7,89,24.6c0-1.5,0.5-2.7,1.3-3.5
			c0.8-0.8,1.8-1.2,3-1.2c0.7,0,1.9,0.2,2.7,1.3L96.1,20.2L96.1,20.2z M92.5,22.9c-0.3,0.3-0.6,0.8-0.6,1.6s0.3,1.3,0.6,1.5
			c0.4,0.4,1,0.7,1.6,0.7s1.1-0.2,1.5-0.6c0.4-0.3,0.7-0.9,0.7-1.6c0-0.6-0.2-1.2-0.6-1.6s-1-0.6-1.5-0.6
			C93.4,22.3,92.9,22.5,92.5,22.9z"/>
		<path d="M106.5,22.9c-0.7-0.6-1.4-0.7-1.8-0.7c-0.9,0-1.4,0.4-1.6,0.6c-0.4,0.4-0.6,0.9-0.6,1.6c0,0.6,0.2,1.2,0.6,1.5
			c0.4,0.5,1.1,0.7,1.7,0.7c0.5,0,1.1-0.1,1.8-0.7v2.5c-0.7,0.4-1.4,0.5-2.2,0.5c-1.5,0-2.6-0.5-3.3-1.3c-0.7-0.6-1.4-1.7-1.4-3.3
			c0-1.5,0.6-2.6,1.4-3.4c1-0.9,2.1-1.2,3.3-1.2c0.8,0,1.5,0.1,2.2,0.5L106.5,22.9L106.5,22.9z"/>
	</g>
	<g class="st2">
		<path d="M110.9,14.7v8.7l3.1-3.2h3.7l-4.1,3.9l4.4,4.7h-3.8l-3.3-3.7v3.7h-2.8V14.7H110.9z"/>
	</g>
	<g class="st2">
		<path d="M121,21.1c1,0,2.1,0.2,3,1.1c0.7,0.7,1.1,1.6,1.1,2.8s-0.4,2.1-1,2.7c-1.1,1.1-2.4,1.2-3,1.2h-2.5v-7.7L121,21.1L121,21.1
			z M120.4,27.3h0.5c0.4,0,1.2,0,1.8-0.5c0.4-0.3,0.8-1,0.8-1.9c0-0.8-0.3-1.4-0.6-1.7c-0.6-0.6-1.3-0.7-1.9-0.7h-0.5v4.8
			C120.5,27.3,120.4,27.3,120.4,27.3z"/>
		<path d="M127.2,20.5c0.5,0,1,0.4,1,1s-0.4,1-1,1c-0.5,0-1-0.4-1-1S126.7,20.5,127.2,20.5z M128.1,23.7v5.1h-1.7v-5.1H128.1z"/>
	</g>
	<g class="st2">
		<path d="M133.5,23.7h1.7v4.8c0,0.7,0,1.5-0.6,2.2c-0.6,0.7-1.6,0.8-2.2,0.8c-0.7,0-1.5-0.1-2.1-0.7c-0.3-0.3-0.7-0.7-0.8-1.4h1.8
			c0.1,0.3,0.2,0.4,0.4,0.5c0.2,0.1,0.5,0.2,0.7,0.2c0.5,0,0.7-0.2,0.8-0.3c0.3-0.3,0.3-0.9,0.3-1.1v-0.6c-0.2,0.3-0.6,0.8-1.5,0.8
			c-0.8,0-1.4-0.3-1.9-0.7c-0.4-0.4-0.8-1-0.8-1.9s0.3-1.6,0.8-2.1c0.3-0.3,0.9-0.7,1.9-0.7c0.9,0,1.3,0.5,1.5,0.8L133.5,23.7
			L133.5,23.7z M131.4,25.3c-0.3,0.2-0.4,0.6-0.4,1c0,0.3,0.1,0.7,0.4,0.9c0.2,0.2,0.5,0.4,0.9,0.4c0.4,0,0.7-0.2,0.9-0.3
			c0.3-0.2,0.4-0.6,0.4-1s-0.2-0.7-0.4-0.9c-0.2-0.2-0.6-0.3-0.9-0.3C132,24.9,131.6,25.1,131.4,25.3z"/>
	</g>
	<g class="st2">
		<path d="M137.1,20.5c0.5,0,1,0.4,1,1s-0.4,1-1,1c-0.5,0-1-0.4-1-1S136.6,20.5,137.1,20.5z M138,23.7v5.1h-1.7v-5.1H138z"/>
		<path d="M141.1,25v3.8h-1.7V25h-0.6v-1.3h0.6V22h1.7v1.7h1V25H141.1z"/>
	</g>
	<g class="st2">
		<path d="M146.7,23.7h1.7v5.1h-1.7v-0.6c-0.5,0.7-1.1,0.8-1.5,0.8c-0.7,0-1.4-0.2-1.9-0.8s-0.8-1.2-0.8-1.9c0-0.9,0.3-1.6,0.8-2.1
			s1.1-0.7,1.8-0.7c0.4,0,1.1,0.1,1.6,0.8V23.7L146.7,23.7z M144.6,25.3c-0.2,0.2-0.4,0.5-0.4,0.9s0.2,0.8,0.3,0.9
			c0.2,0.2,0.6,0.4,1,0.4c0.3,0,0.6-0.1,0.9-0.4c0.2-0.2,0.4-0.5,0.4-1c0-0.4-0.1-0.7-0.4-0.9c-0.3-0.2-0.6-0.4-0.9-0.4
			C145.2,24.9,144.8,25.1,144.6,25.3z"/>
	</g>
	<g class="st2">
		<path d="M151.2,20.4v8.4h-1.7v-8.4H151.2z"/>
	</g>
</g>
</svg>
