<?xml version="1.0" encoding="utf-8"?>
<!-- Generator: Adobe Illustrator 23.1.1, SVG Export Plug-In . SVG Version: 6.00 Build 0)  -->
<svg version="1.1" id="Calque_1" xmlns="http://www.w3.org/2000/svg" xmlns:xlink="http://www.w3.org/1999/xlink" x="0px" y="0px"
	 viewBox="0 0 93.8 42.1" style="enable-background:new 0 0 93.8 42.1;" xml:space="preserve">
<style type="text/css">
	.st0{enable-background:new    ;}
</style>
<g>
	<g class="st0">
		<path d="M13.2,9.5c0.7,0,2.3,0,3.3,1c0.8,0.8,0.9,1.9,0.9,2.4S17.3,14,17,14.5s-0.8,0.8-1.1,0.9c0.6,0.1,1.3,0.4,1.8,0.9
			c0.4,0.4,0.8,1.2,0.8,2.3c0,1.3-0.5,2.1-1,2.6c-1.1,1-2.6,1.1-3.4,1.1H9.3V9.5H13.2z M12.2,14.7h0.5c0.4,0,1.1-0.1,1.5-0.4
			c0.3-0.2,0.5-0.6,0.5-1.1s-0.3-0.9-0.5-1.1c-0.4-0.3-1-0.3-1.5-0.3h-0.5V14.7z M12.2,20.1h0.7c0.8,0,1.7,0,2.2-0.5
			c0.3-0.3,0.4-0.6,0.4-1.1s-0.2-0.9-0.4-1C14.6,17,13.6,17,13,17h-0.8C12.2,17,12.2,20.1,12.2,20.1z"/>
	</g>
	<g class="st0">
		<path d="M28.1,21.3c-0.8,0.8-2.1,1.4-3.8,1.4s-3-0.6-3.8-1.4c-0.9-0.9-1.3-2.1-1.3-3.2c0-1.1,0.4-2.3,1.3-3.2
			c0.8-0.8,2.1-1.4,3.8-1.4s3,0.6,3.8,1.4c0.9,0.9,1.3,2.1,1.3,3.2C29.3,19.2,28.9,20.4,28.1,21.3z M22.7,16.5
			c-0.4,0.4-0.6,0.9-0.6,1.6c0,0.8,0.3,1.3,0.6,1.6c0.3,0.3,0.9,0.6,1.6,0.6c0.6,0,1.1-0.2,1.5-0.6c0.4-0.4,0.6-0.9,0.6-1.6
			c0-0.7-0.2-1.2-0.6-1.6c-0.4-0.4-0.9-0.6-1.6-0.6C23.6,15.8,23.1,16,22.7,16.5z"/>
	</g>
	<g class="st0">
		<path d="M39.2,21.3c-0.8,0.8-2.1,1.4-3.8,1.4s-3-0.6-3.8-1.4c-0.9-0.9-1.3-2.1-1.3-3.2c0-1.1,0.4-2.3,1.3-3.2
			c0.8-0.8,2.1-1.4,3.8-1.4s3,0.6,3.8,1.4c0.9,0.9,1.3,2.1,1.3,3.2C40.4,19.2,40,20.4,39.2,21.3z M33.8,16.5
			c-0.4,0.4-0.6,0.9-0.6,1.6c0,0.8,0.3,1.3,0.6,1.6c0.3,0.3,0.9,0.6,1.6,0.6c0.6,0,1.1-0.2,1.5-0.6c0.4-0.4,0.6-0.9,0.6-1.6
			c0-0.7-0.2-1.2-0.6-1.6c-0.4-0.4-0.9-0.6-1.6-0.6C34.7,15.8,34.2,16,33.8,16.5z"/>
		<path d="M45.1,16v6.4h-2.8V16h-1v-2.2h1V11h2.8v2.8h1.7V16H45.1z"/>
	</g>
	<g class="st0">
		<path d="M50.7,26.8h-2.8v-13h2.8v1c0.9-1.2,2-1.3,2.7-1.3c1.5,0,2.5,0.7,3.1,1.2c0.8,0.8,1.3,2,1.3,3.4c0,1.5-0.5,2.6-1.4,3.5
			s-1.8,1.2-2.9,1.2c-1.7,0-2.5-0.9-2.8-1.3C50.7,21.5,50.7,26.8,50.7,26.8z M51.2,16.5c-0.4,0.4-0.7,1.1-0.7,1.6s0.2,1.1,0.6,1.5
			s1,0.7,1.6,0.7c0.5,0,1.1-0.2,1.5-0.6c0.4-0.4,0.7-1.1,0.7-1.6c0-0.6-0.3-1.2-0.7-1.6c-0.4-0.4-0.9-0.6-1.5-0.6
			C52,15.9,51.5,16.2,51.2,16.5z"/>
	</g>
	<g class="st0">
		<path d="M65.8,13.8h2.8v8.6h-2.8v-1c-0.8,1.2-1.8,1.3-2.6,1.3c-1.2,0-2.3-0.3-3.2-1.3c-0.9-1-1.3-2.1-1.3-3.2
			c0-1.5,0.5-2.7,1.3-3.5s1.8-1.2,3-1.2c0.7,0,1.9,0.2,2.7,1.3L65.8,13.8L65.8,13.8z M62.2,16.5c-0.3,0.3-0.6,0.8-0.6,1.6
			s0.3,1.3,0.6,1.5c0.4,0.4,1,0.7,1.6,0.7c0.6,0,1.1-0.2,1.5-0.6c0.4-0.3,0.7-0.9,0.7-1.6c0-0.6-0.2-1.2-0.6-1.6
			c-0.4-0.4-1-0.6-1.5-0.6C63.1,15.9,62.6,16.1,62.2,16.5z"/>
		<path d="M76.2,16.5c-0.7-0.6-1.4-0.7-1.8-0.7c-0.9,0-1.4,0.4-1.6,0.6c-0.4,0.4-0.6,0.9-0.6,1.6c0,0.6,0.2,1.2,0.6,1.5
			c0.4,0.5,1.1,0.7,1.7,0.7c0.5,0,1.1-0.1,1.8-0.7V22c-0.7,0.4-1.4,0.5-2.2,0.5c-1.5,0-2.6-0.5-3.3-1.3c-0.7-0.6-1.4-1.7-1.4-3.3
			c0-1.5,0.6-2.6,1.4-3.4c1-0.9,2.1-1.2,3.3-1.2c0.8,0,1.5,0.1,2.2,0.5L76.2,16.5L76.2,16.5z"/>
	</g>
	<g class="st0">
		<path d="M79.6,8.3V17l3.1-3.2h3.7l-4.1,3.9l4.4,4.7h-3.8l-3.3-3.7v3.7h-2.8V8.3H79.6z"/>
	</g>
	<g class="st0">
		<path d="M55.8,26c1,0,2.1,0.2,3,1.1c0.7,0.7,1.1,1.6,1.1,2.8s-0.4,2.1-1,2.7c-1.1,1.1-2.4,1.2-3,1.2h-2.5v-7.7L55.8,26L55.8,26z
			 M55.2,32.2h0.5c0.4,0,1.2,0,1.8-0.5c0.4-0.3,0.8-1,0.8-1.9c0-0.8-0.3-1.4-0.6-1.7c-0.6-0.6-1.3-0.7-1.9-0.7h-0.5v4.8H55.2z"/>
		<path d="M62,25.4c0.5,0,1,0.4,1,1s-0.4,1-1,1c-0.5,0-1-0.4-1-1S61.5,25.4,62,25.4z M62.9,28.6v5.1h-1.7v-5.1H62.9z"/>
	</g>
	<g class="st0">
		<path d="M67.3,28.6H69v4.8c0,0.7,0,1.5-0.6,2.2s-1.6,0.8-2.2,0.8c-0.7,0-1.5-0.1-2.1-0.7c-0.3-0.3-0.7-0.7-0.8-1.4h1.8
			c0.1,0.3,0.2,0.4,0.4,0.5c0.2,0.1,0.5,0.2,0.7,0.2c0.5,0,0.7-0.2,0.8-0.3c0.3-0.3,0.3-0.9,0.3-1.1V33c-0.2,0.3-0.6,0.8-1.5,0.8
			c-0.8,0-1.4-0.3-1.9-0.7c-0.4-0.4-0.8-1-0.8-1.9c0-0.9,0.3-1.6,0.8-2.1c0.3-0.3,0.9-0.7,1.9-0.7c0.9,0,1.3,0.5,1.5,0.8V28.6z
			 M65.2,30.2c-0.3,0.2-0.4,0.6-0.4,1c0,0.3,0.1,0.7,0.4,0.9c0.3,0.2,0.5,0.4,0.9,0.4c0.4,0,0.7-0.2,0.9-0.3c0.3-0.2,0.4-0.6,0.4-1
			s-0.2-0.7-0.4-0.9S66.4,30,66.1,30C65.8,29.8,65.4,30,65.2,30.2z"/>
	</g>
	<g class="st0">
		<path d="M70.9,25.4c0.5,0,1,0.4,1,1s-0.4,1-1,1c-0.5,0-1-0.4-1-1S70.4,25.4,70.9,25.4z M71.8,28.6v5.1h-1.7v-5.1H71.8z"/>
		<path d="M74.9,29.9v3.8h-1.7v-3.8h-0.6v-1.3h0.6v-1.7h1.7v1.7h1v1.3H74.9z"/>
	</g>
	<g class="st0">
		<path d="M80.5,28.6h1.7v5.1h-1.7v-0.6c-0.5,0.7-1.1,0.8-1.5,0.8c-0.7,0-1.4-0.2-1.9-0.8s-0.8-1.2-0.8-1.9c0-0.9,0.3-1.6,0.8-2.1
			s1.1-0.7,1.8-0.7c0.4,0,1.1,0.1,1.6,0.8L80.5,28.6L80.5,28.6z M78.4,30.2c-0.2,0.2-0.4,0.5-0.4,0.9s0.2,0.8,0.3,0.9
			c0.2,0.2,0.6,0.4,1,0.4c0.3,0,0.6-0.1,0.9-0.4c0.2-0.2,0.4-0.5,0.4-1c0-0.4-0.1-0.7-0.4-0.9c-0.3-0.2-0.6-0.4-0.9-0.4
			C79,29.8,78.6,30,78.4,30.2z"/>
	</g>
	<g class="st0">
		<path d="M85,25.3v8.4h-1.7v-8.4C83.3,25.3,85,25.3,85,25.3z"/>
	</g>
</g>
</svg>
