<?xml version="1.0" encoding="utf-8"?>
<!-- Generator: Adobe Illustrator 23.1.1, SVG Export Plug-In . SVG Version: 6.00 Build 0)  -->
<svg version="1.1" id="Calque_1" xmlns="http://www.w3.org/2000/svg" xmlns:xlink="http://www.w3.org/1999/xlink" x="0px" y="0px"
	 viewBox="0 0 100 100" style="enable-background:new 0 0 100 100;" xml:space="preserve">
<style type="text/css">
	.st0{fill:#4299E1;}
	.st1{fill:#FFFFFF;}
</style>
<g>
	<path class="st0" d="M28.4,62.8c0,0-0.5,6.3,1,10.1c0,0-1.6,0.5-1.2,4.4c0,0,0,4.2,4.9,4.4l0.2-1.2h1.6v1.2h2.8v-1.2h1.2v1H42
		l0.5-1.7c0,0,1.2-1.6,10.7,0v1l3.1,0.5v-1l2.1,0.2v1l2.8,0.2l0.2-0.7h2.3v1h2.8v-1l2.1-0.2l0.2,1l2.8-0.2l0.2-1l1.2-0.2v0.2
		l2.8-0.5v-0.3c0,0,1.6-0.7,2.6-0.7c1,0,1.2-1,1.2-1.7c0-0.7,0.7-3.1-0.7-3.1c0,0,2.6-6.5-7.3-7.9L63,64.5L47.6,53.9L28.4,62.8z"/>
	<g>
		<path class="st0" d="M70.2,68.9c-1,0-2.3-0.2-3.8-1C63,66.3,52.7,59.3,52.2,59c0,0-1-0.7-2.1-1c-1.2,0-1.6-1-1.6-1l0,0L55,46.4
			v4.2c0,0,0,4.7,2.8,6.5l1.7,1.6l2.8,2.1c0,0,3.7,2.1,6.3,2.3c0,0,0.2,0,0.7,0c1,0,1.7,0.5,2.1,1.2c0.5,0,2.3,0.7,2.6,1.7
			c0,0.5,0,0.7-0.5,1.2C72.6,68.6,71.6,68.9,70.2,68.9z"/>
		<path class="st1" d="M54.8,47.2v3.3c0,0,0,4.7,2.8,6.8l1.6,1.6l2.8,2.1c0,0,3.8,2.1,6.3,2.6c0,0,0.2,0,0.7,0
			c0.7,0,1.6,0.2,1.7,1.2c0,0,3.8,1,1.7,2.8c-1,0.7-2.1,1.2-3.1,1.2s-2.3-0.2-3.8-1C62.1,66.3,51.3,59,51.3,59s-1-1-2.1-1
			c-1,0-1.2-1-1.2-1L54.8,47.2 M55.3,45.3l-1,1.6l-5.9,9.4v0.2v0.2c0,0.5,0.7,1.2,1.7,1.2c0.7,0,1.7,0.7,1.7,0.7l0,0l0,0
			c0.2,0.2,10.7,7.3,14.2,8.9c1.6,0.7,2.8,1,4.2,1c1.2,0,2.3-0.5,3.3-1.6c0.7-0.5,0.7-1.2,0.7-1.6c-0.2-1-1.7-1.7-2.6-1.7
			c-0.2-0.7-1-1.2-2.3-1.2c-0.2,0-0.7,0-0.7,0c-2.3-0.2-5.8-1.9-5.9-2.3l-2.8-2.1l-1.6-1.6l0,0l0,0c-2.8-1.7-2.8-6.3-2.8-6.3v-3.3
			L55.3,45.3L55.3,45.3z"/>
	</g>
	<g>
		<path class="st0" d="M41.7,71c-3.7,0-5.2-2.6-5.9-3.8c0-0.2-0.2-0.2-0.2-0.5l0,0c-0.7-1-1.2-1.7-5.4-2.6s-4.9-2.8-5.2-3.3
			c-0.2-0.2-0.5-0.5-0.5-0.7c0-0.7,0.5-2.1,0.5-2.1c0.2-0.5,0.5-1,0.7-1.2c0.5-0.5,0.7-1,0.5-1.7c-0.2-1.2,0.2-1.7,0.7-2.3
			c0.2-0.2,0.5-0.2,0.5-0.5c0.2-0.2-0.5-1-1.2-1.6c-0.7-0.5-1-0.7-1-1l0,0v-0.2c0,0,0.2-0.2,1.6-0.2c1,0,2.1,0,2.6,0
			c1-1.6,1-2.1,1-2.8s0-1.7,1-3.7c1.7-3.8,4.7-15.2,4.7-15.4v-0.2h0.7c0.2-3.1,0-8.4,0-8.4c0-0.5,0-1,0-1.2c0-0.7-0.2-1.6,0-2.1
			c0-0.2,0.5-0.2,0.7-0.2l0,0c0.2,0,0.5,0,0.7,0.2c0.5,0.5,0.5,1.6,0.5,2.1c5.2,0,12.2,5.2,13.8,6.3c0.5-1.7,2.1-5.2,3.3-5.2
			c0.2,0,0.5,0,1,0.5c0.7,1.6-1,5.9-1.6,7c2.1,3.1,2.1,5.2,2.1,5.2l0,0l0-0.5c1,0.7,0.2,2.6,0,3.1l0,0c0.5,0,1,0.5,1,0.7
			c0.2,0.5,0,1.2,0,1.6l0.5,0.2l-1,8.9h-0.7c-0.2,2.3-1,3.3-1.7,3.3c-0.2,0-0.5,0-0.5-0.2c-0.7,0.5-3.3,3.3-5.8,8
			c-1,2.1-1.7,4.4-2.3,6.8c-1,3.8-1.7,7.3-4.7,7.3L41.7,71z"/>
		<path class="st1" d="M38.2,13.8c1.2,0,0.7,2.3,0.7,2.3s0,0,0.2,0c5.8,0,14.2,6.5,14.2,6.5c1-3.3,2.3-5.2,3.3-5.2
			c0.2,0,0.5,0,0.7,0.5c0.7,1.6-1.7,6.8-1.7,6.8c2.3,3.1,2.1,5.2,2.1,5.2l-0.5,0.5c1.2,0.7,0.2,3.1,0.2,3.1l0.2,0.2
			c1.7,0.5,0.7,2.3,0.7,2.3l0.7,0.5l-1,8.6h-1c-0.5,2.8-1,3.3-1.6,3.3c-0.2,0-0.5-0.2-0.5-0.2s-3.1,2.8-5.9,8.4
			c-2.8,5.4-2.3,13.8-6.8,14.2h-0.2c-4.2,0-5.4-3.1-6.3-4.4c-0.7-1.2-1.2-2.1-5.8-2.8c-4.4-0.7-4.9-3.1-4.9-3.1
			c-1.2-0.7,0-2.6,0-2.6c0.7-1.6,1.7-1.7,1.2-3.3c-0.2-1.6,0.7-1.7,1.6-2.8c0.5-1-2.1-2.3-2.3-2.8c0-0.2,0.5-0.2,1.2-0.2
			c1.2,0,2.8,0,2.8,0c2.1-3.1,0.2-2.8,2.3-6.8c1.7-3.8,4.7-15.4,4.7-15.4H37c0.2-3.3,0-8.6,0-8.6C37.3,15.4,36.8,13.8,38.2,13.8
			L38.2,13.8 M38.2,13.3L38.2,13.3L38.2,13.3c-0.5,0-0.7,0-1,0.5c-0.5,0.5-0.2,1.2-0.2,2.3c0,0.2,0,0.7,0,1.2c0,0,0.2,4.9,0,8.4
			h-0.3h-0.2v0.2c0,0-2.8,11.5-4.7,15.2c-1,2.1-1,2.8-1,3.8c0,0.7,0,1.2-1,2.8c-0.5,0-1.6,0-2.3,0c-1.2,0-1.6,0-1.7,0.2
			c0,0-0.2,0.2,0,0.5c0,0.5,0.5,0.7,1,1.2c0.2,0.2,1,0.7,1,1c0,0.2-0.2,0.2-0.5,0.5c-0.5,0.5-1.2,1-1,2.6c0,0.7,0,1-0.5,1.6
			c-0.2,0.2-0.5,0.7-0.7,1.2c0,0.2-0.7,1.2-0.5,2.3c0,0.2,0.2,0.7,0.5,1c0.2,0.7,1,2.8,5.2,3.3c4.2,0.7,4.7,1.2,5.4,2.6l0,0
			c0,0,0.2,0.2,0.2,0.5c0.7,1.6,2.6,4.2,6.3,4.2h0.2c3.1,0,3.8-3.7,4.9-7.5c0.5-2.3,1-4.7,2.3-6.8c2.3-4.2,4.7-6.8,5.8-7.9
			c0,0,0.2,0,0.5,0c1.2,0,1.7-1.7,2.1-3.3h0.5h0.5v-0.5l1-8.6v-0.2L59.5,36l-0.2-0.2c0-0.2,0.2-1,0-1.6c0-0.2-0.5-0.7-1-1
			c0.2-0.7,0.5-2.1,0-2.8l0,0l0,0v-0.2c0,0,0-2.3-2.1-5.2c0.5-1.2,2.6-5.4,1.6-7c-0.2-0.5-0.7-0.7-1.2-0.7c-1.6,0-2.8,2.6-3.7,4.9
			c-2.1-1.7-8.4-5.9-13.3-6.3c0-0.5,0-1.6-0.5-2.1C38.5,13.3,38.4,13.3,38.2,13.3L38.2,13.3z"/>
	</g>
</g>
</svg>
