<?xml version="1.0" encoding="utf-8"?>
<!-- Generator: Adobe Illustrator 23.1.1, SVG Export Plug-In . SVG Version: 6.00 Build 0)  -->
<svg version="1.1" id="Layer_1" xmlns="http://www.w3.org/2000/svg" xmlns:xlink="http://www.w3.org/1999/xlink" x="0px" y="0px"
	 viewBox="0 0 124.1 52.5" style="enable-background:new 0 0 124.1 52.5;" xml:space="preserve">
<style type="text/css">
	.st0{font-family:'FuturaPT-Heavy';}
	.st1{font-size:19.3594px;}
	.st2{font-size:11.5304px;}
	.st3{fill:#4299E1;}
	.st4{fill:#FFFFFF;}
</style>
<g>
	<text transform="matrix(1 0 0 1 37.2622 26.4204)" class="st0 st1">B</text>
	<text transform="matrix(1 0 0 1 47.9622 26.4204)" class="st0 st1">o</text>
	<text transform="matrix(1 0 0 1 59.0622 26.4204)" class="st0 st1">ot</text>
	<text transform="matrix(1 0 0 1 76.2622 26.4204)" class="st0 st1">p</text>
	<text transform="matrix(1 0 0 1 87.4622 26.4204)" class="st0 st1">ac</text>
	<text transform="matrix(1 0 0 1 107.0622 26.4204)" class="st0 st1">k</text>
	<text transform="matrix(1 0 0 1 81.8842 36.8569)" class="st0 st2">Di</text>
	<text transform="matrix(1 0 0 1 92.0842 36.8569)" class="st0 st2">g</text>
	<text transform="matrix(1 0 0 1 98.6842 36.8569)" class="st0 st2">it</text>
	<text transform="matrix(1 0 0 1 105.2842 36.8569)" class="st0 st2">a</text>
	<text transform="matrix(1 0 0 1 111.9842 36.8569)" class="st0 st2">l</text>
</g>
<path class="st3" d="M10,32.9c0,0-0.3,3.6,0.6,5.8c0,0-0.9,0.3-0.7,2.5c0,0,0,2.4,2.8,2.5l0.1-0.7h0.9v0.7h1.6V43H16v0.6h1.8l0.3-1
	c0,0,0.7-0.9,6.1,0v0.6l1.8,0.3v-0.6l1.2,0.1v0.6l1.6,0.1l0.1-0.4h1.3v0.6h1.6v-0.6l1.2-0.1l0.1,0.6l1.6-0.1l0.1-0.6l0.7-0.1v0.1
	l1.6-0.3v-0.2c0,0,0.9-0.4,1.5-0.4s0.7-0.6,0.7-1s0.4-1.8-0.4-1.8c0,0,1.5-3.7-4.2-4.5l-4.9-1L21,27.8L10,32.9z"/>
<path class="st3" d="M33.9,36.4c-0.6,0-1.3-0.1-2.2-0.6c-1.9-0.9-7.8-4.9-8.1-5.1c0,0-0.6-0.4-1.2-0.6c-0.7,0-0.9-0.6-0.9-0.6l3.7-6
	v2.4c0,0,0,2.7,1.6,3.7l1,0.9l1.6,1.2c0,0,2.1,1.2,3.6,1.3h0.4c0.6,0,1,0.3,1.2,0.7c0.3,0,1.3,0.4,1.5,1c0,0.3,0,0.4-0.3,0.7
	C35.3,36.2,34.7,36.4,33.9,36.4L33.9,36.4z"/>
<path class="st4" d="M25.1,24v1.9c0,0,0,2.7,1.6,3.9l0.9,0.9l1.6,1.2c0,0,2.2,1.2,3.6,1.5h0.4c0.4,0,0.9,0.1,1,0.7
	c0,0,2.2,0.6,1,1.6c-0.6,0.4-1.2,0.7-1.8,0.7s-1.3-0.1-2.2-0.6c-1.9-0.9-8.1-5.1-8.1-5.1s-0.6-0.6-1.2-0.6s-0.7-0.6-0.7-0.6L25.1,24
	z M25.4,22.9l-0.6,0.9l-3.4,5.4v0.1v0.1c0,0.3,0.4,0.7,1,0.7c0.4,0,1,0.4,1,0.4c0.1,0.1,6.1,4.2,8.1,5.1c0.9,0.4,1.6,0.6,2.4,0.6
	c0.7,0,1.3-0.3,1.9-0.9c0.4-0.3,0.4-0.7,0.4-0.9c-0.1-0.6-1-1-1.5-1c-0.1-0.4-0.6-0.7-1.3-0.7c-0.1,0-0.4,0-0.4,0
	c-1.3-0.1-3.3-1.1-3.4-1.3L28,30.2l-0.9-0.9c-1.6-1-1.6-3.6-1.6-3.6v-1.9L25.4,22.9z"/>
<path class="st3" d="M17.6,37.6c-2.1,0-3-1.5-3.4-2.2c0-0.1-0.1-0.1-0.1-0.3c-0.4-0.6-0.7-1-3.1-1.5S8.2,32,8,31.7
	c-0.1-0.1-0.3-0.3-0.3-0.4c0-0.4,0.3-1.2,0.3-1.2c0.1-0.3,0.3-0.6,0.4-0.7c0.3-0.3,0.4-0.6,0.3-1c-0.1-0.7,0.1-1,0.4-1.3
	C9.2,27,9.4,27,9.4,26.8c0.1-0.1-0.3-0.6-0.7-0.9s-0.6-0.4-0.6-0.6v-0.1c0,0,0.1-0.1,0.9-0.1h1.5c0.6-0.9,0.6-1.2,0.6-1.6
	s0-1,0.6-2.1c1-2.2,2.7-8.7,2.7-8.8v-0.1h0.4c0.1-1.8,0-4.8,0-4.8c0-0.3,0-0.6,0-0.7c0-0.4-0.1-0.9,0-1.2c0-0.1,0.3-0.1,0.4-0.1
	c0.1,0,0.3,0,0.4,0.1c0.3,0.3,0.3,0.9,0.3,1.2c3,0,7,3,7.9,3.6c0.3-1,1.2-3,1.9-3c0.1,0,0.3,0,0.6,0.3c0.4,0.9-0.6,3.4-0.9,4
	c1.2,1.8,1.2,3,1.2,3v-0.3c0.6,0.4,0.1,1.5,0,1.8c0.3,0,0.6,0.3,0.6,0.4c0.1,0.3,0,0.7,0,0.9l0.3,0.1l-0.6,5.1h-0.4
	c-0.1,1.3-0.6,1.9-1,1.9c-0.1,0-0.3,0-0.3-0.1c-0.4,0.3-1.9,1.9-3.3,4.6c-0.6,1.2-1,2.5-1.3,3.9c-0.6,2.2-1,4.2-2.7,4.2L17.6,37.6z"
	/>
<path class="st4" d="M15.6,4.9c0.7,0,0.4,1.3,0.4,1.3s0,0,0.1,0c3.3,0,8.1,3.7,8.1,3.7c0.6-1.9,1.3-3,1.9-3c0.1,0,0.3,0,0.4,0.3
	c0.4,0.9-1,3.9-1,3.9c1.3,1.8,1.2,3,1.2,3l-0.3,0.3c0.7,0.4,0.1,1.8,0.1,1.8l0.1,0.1c1,0.3,0.4,1.3,0.4,1.3l0.4,0.3l-0.6,4.9h-0.6
	c-0.3,1.6-0.6,1.9-0.9,1.9c-0.1,0-0.3-0.1-0.3-0.1s-1.8,1.6-3.4,4.8c-1.6,3.1-1.3,7.9-3.9,8.1h-0.1c-2.4,0-3.1-1.8-3.6-2.5
	c-0.4-0.7-0.7-1.2-3.3-1.6c-2.5-0.4-2.8-1.8-2.8-1.8c-0.7-0.4,0-1.5,0-1.5c0.4-0.9,1-1,0.7-1.9c-0.1-0.9,0.4-1,0.9-1.6
	C9.8,26,8.3,25.3,8.2,25c0-0.1,0.3-0.1,0.7-0.1h1.6c1.2-1.8,0.1-1.6,1.3-3.9c1-2.2,2.7-8.8,2.7-8.8h0.4c0.1-1.9,0-4.9,0-4.9
	C15.1,5.8,14.8,4.9,15.6,4.9L15.6,4.9z M15.6,4.6c-0.3,0-0.4,0-0.6,0.3c-0.3,0.3-0.1,0.7-0.1,1.3v0.7c0,0,0.1,2.8,0,4.8h-0.2h-0.1
	v0.1c0,0-1.6,6.6-2.7,8.7c-0.6,1.2-0.6,1.6-0.6,2.2c0,0.4,0,0.7-0.6,1.6c-0.3,0-0.9,0-1.3,0c-0.7,0-0.9,0-1,0.1c0,0-0.1,0.1,0,0.3
	c0,0.3,0.3,0.4,0.6,0.7c0.1,0.1,0.6,0.4,0.6,0.6c0,0.1-0.1,0.1-0.3,0.3c-0.3,0.3-0.7,0.6-0.6,1.5c0,0.4,0,0.6-0.3,0.9
	c-0.1,0.1-0.3,0.4-0.4,0.7c0,0.1-0.4,0.7-0.3,1.3c0,0.1,0.1,0.4,0.3,0.6c0.1,0.4,0.6,1.6,3,1.9c2.4,0.4,2.7,0.7,3.1,1.5
	s0.1,0.1,0.1,0.3c0.4,0.9,1.5,2.4,3.6,2.4h0.1c1.8,0,2.2-2.1,2.8-4.3c0.3-1.3,0.6-2.7,1.3-3.9c1.3-2.4,2.7-3.9,3.3-4.5h0.3
	c0.7,0,1-1,1.2-1.9h0.3h0.3v-0.3l0.6-4.9v-0.1l-0.2,0.1l-0.1-0.1c0-0.1,0.1-0.6,0-0.9c0-0.1-0.3-0.4-0.6-0.6c0.1-0.4,0.3-1.2,0-1.6
	v-0.1c0,0,0-1.3-1.2-3c0.3-0.7,1.5-3.1,0.9-4c-0.1-0.3-0.4-0.4-0.7-0.4c-0.9,0-1.6,1.5-2.1,2.8c-1.2-1-4.8-3.4-7.6-3.6
	c0-0.3,0-0.9-0.3-1.2C15.8,4.6,15.7,4.6,15.6,4.6z"/>
</svg>
