<?xml version="1.0" encoding="utf-8"?>
<!-- Generator: Adobe Illustrator 23.1.1, SVG Export Plug-In . SVG Version: 6.00 Build 0)  -->
<svg version="1.1" id="Calque_1" xmlns="http://www.w3.org/2000/svg" xmlns:xlink="http://www.w3.org/1999/xlink" x="0px" y="0px"
	 viewBox="0 0 133.7 57.8" style="enable-background:new 0 0 133.7 57.8;" xml:space="preserve">
<style type="text/css">
	.st0{fill:#4299E1;}
	.st1{fill:#FFFFFF;}
	.st2{enable-background:new    ;}
</style>
<g>
	<path class="st0" d="M12.8,36.4c0,0-0.3,3.6,0.6,5.8c0,0-0.9,0.3-0.7,2.5c0,0,0,2.4,2.8,2.5l0.1-0.7h0.9v0.7h1.6v-0.7h0.7v0.6h1.8
		l0.3-1c0,0,0.7-0.9,6.1,0v0.6l1.8,0.3v-0.6l1.2,0.1v0.6l1.6,0.1l0.1-0.4H33v0.6h1.6v-0.6l1.2-0.1l0.1,0.6l1.6-0.1l0.1-0.6l0.7-0.1
		v0.1l1.6-0.3v-0.2c0,0,0.9-0.4,1.5-0.4s0.7-0.6,0.7-1s0.4-1.8-0.4-1.8c0,0,1.5-3.7-4.2-4.5l-4.9-1l-8.8-6.1L12.8,36.4z"/>
	<g>
		<path class="st0" d="M36.7,39.9c-0.6,0-1.3-0.1-2.2-0.6c-1.9-0.9-7.8-4.9-8.1-5.1c0,0-0.6-0.4-1.2-0.6c-0.7,0-0.9-0.6-0.9-0.6l0,0
			l3.7-6v2.4c0,0,0,2.7,1.6,3.7l1,0.9l1.6,1.2c0,0,2.1,1.2,3.6,1.3c0,0,0.1,0,0.4,0c0.6,0,1,0.3,1.2,0.7c0.3,0,1.3,0.4,1.5,1
			c0,0.3,0,0.4-0.3,0.7C38.1,39.7,37.5,39.9,36.7,39.9z"/>
		<path class="st1" d="M27.9,27.5v1.9c0,0,0,2.7,1.6,3.9l0.9,0.9l1.6,1.2c0,0,2.2,1.2,3.6,1.5c0,0,0.1,0,0.4,0c0.4,0,0.9,0.1,1,0.7
			c0,0,2.2,0.6,1,1.6c-0.6,0.4-1.2,0.7-1.8,0.7s-1.3-0.1-2.2-0.6c-1.9-0.9-8.1-5.1-8.1-5.1s-0.6-0.6-1.2-0.6C24.1,33.6,24,33,24,33
			L27.9,27.5 M28.2,26.4l-0.6,0.9l-3.4,5.4v0.1v0.1c0,0.3,0.4,0.7,1,0.7c0.4,0,1,0.4,1,0.4l0,0l0,0c0.1,0.1,6.1,4.2,8.1,5.1
			c0.9,0.4,1.6,0.6,2.4,0.6c0.7,0,1.3-0.3,1.9-0.9c0.4-0.3,0.4-0.7,0.4-0.9c-0.1-0.6-1-1-1.5-1c-0.1-0.4-0.6-0.7-1.3-0.7
			c-0.1,0-0.4,0-0.4,0c-1.3-0.1-3.3-1.1-3.4-1.3l-1.6-1.2l-0.9-0.9l0,0l0,0c-1.6-1-1.6-3.6-1.6-3.6v-1.9L28.2,26.4L28.2,26.4z"/>
	</g>
	<g>
		<path class="st0" d="M20.4,41.1c-2.1,0-3-1.5-3.4-2.2c0-0.1-0.1-0.1-0.1-0.3l0,0c-0.4-0.6-0.7-1-3.1-1.5s-2.8-1.6-3-1.9
			c-0.1-0.1-0.3-0.3-0.3-0.4c0-0.4,0.3-1.2,0.3-1.2c0.1-0.3,0.3-0.6,0.4-0.7c0.3-0.3,0.4-0.6,0.3-1c-0.1-0.7,0.1-1,0.4-1.3
			c0.1-0.1,0.3-0.1,0.3-0.3c0.1-0.1-0.3-0.6-0.7-0.9s-0.6-0.4-0.6-0.6l0,0v-0.1c0,0,0.1-0.1,0.9-0.1c0.6,0,1.2,0,1.5,0
			c0.6-0.9,0.6-1.2,0.6-1.6s0-1,0.6-2.1c1-2.2,2.7-8.7,2.7-8.8V16h0.4c0.1-1.8,0-4.8,0-4.8c0-0.3,0-0.6,0-0.7c0-0.4-0.1-0.9,0-1.2
			c0-0.1,0.3-0.1,0.4-0.1l0,0c0.1,0,0.3,0,0.4,0.1c0.3,0.3,0.3,0.9,0.3,1.2c3,0,7,3,7.9,3.6c0.3-1,1.2-3,1.9-3c0.1,0,0.3,0,0.6,0.3
			c0.4,0.9-0.6,3.4-0.9,4c1.2,1.8,1.2,3,1.2,3l0,0v-0.3c0.6,0.4,0.1,1.5,0,1.8l0,0c0.3,0,0.6,0.3,0.6,0.4c0.1,0.3,0,0.7,0,0.9
			l0.3,0.1l-0.6,5.1h-0.4c-0.1,1.3-0.6,1.9-1,1.9c-0.1,0-0.3,0-0.3-0.1c-0.4,0.3-1.9,1.9-3.3,4.6c-0.6,1.2-1,2.5-1.3,3.9
			c-0.6,2.2-1,4.2-2.7,4.2L20.4,41.1z"/>
		<path class="st1" d="M18.4,8.4c0.7,0,0.4,1.3,0.4,1.3s0,0,0.1,0c3.3,0,8.1,3.7,8.1,3.7c0.6-1.9,1.3-3,1.9-3c0.1,0,0.3,0,0.4,0.3
			c0.4,0.9-1,3.9-1,3.9c1.3,1.8,1.2,3,1.2,3l-0.3,0.3c0.7,0.4,0.1,1.8,0.1,1.8l0.1,0.1c1,0.3,0.4,1.3,0.4,1.3l0.4,0.3l-0.6,4.9H29
			c-0.3,1.6-0.6,1.9-0.9,1.9c-0.1,0-0.3-0.1-0.3-0.1s-1.8,1.6-3.4,4.8c-1.6,3.1-1.3,7.9-3.9,8.1h-0.1c-2.4,0-3.1-1.8-3.6-2.5
			c-0.4-0.7-0.7-1.2-3.3-1.6c-2.5-0.4-2.8-1.8-2.8-1.8c-0.7-0.4,0-1.5,0-1.5c0.4-0.9,1-1,0.7-1.9c-0.1-0.9,0.4-1,0.9-1.6
			c0.3-0.6-1.2-1.3-1.3-1.6c0-0.1,0.3-0.1,0.7-0.1c0.7,0,1.6,0,1.6,0c1.2-1.8,0.1-1.6,1.3-3.9c1-2.2,2.7-8.8,2.7-8.8h0.4
			c0.1-1.9,0-4.9,0-4.9C17.9,9.3,17.6,8.4,18.4,8.4L18.4,8.4 M18.4,8.1L18.4,8.1L18.4,8.1c-0.3,0-0.4,0-0.6,0.3
			c-0.3,0.3-0.1,0.7-0.1,1.3c0,0.1,0,0.4,0,0.7c0,0,0.1,2.8,0,4.8h-0.2h-0.1v0.1c0,0-1.6,6.6-2.7,8.7c-0.6,1.2-0.6,1.6-0.6,2.2
			c0,0.4,0,0.7-0.6,1.6c-0.3,0-0.9,0-1.3,0c-0.7,0-0.9,0-1,0.1c0,0-0.1,0.1,0,0.3c0,0.3,0.3,0.4,0.6,0.7c0.1,0.1,0.6,0.4,0.6,0.6
			c0,0.1-0.1,0.1-0.3,0.3c-0.3,0.3-0.7,0.6-0.6,1.5c0,0.4,0,0.6-0.3,0.9c-0.1,0.1-0.3,0.4-0.4,0.7c0,0.1-0.4,0.7-0.3,1.3
			c0,0.1,0.1,0.4,0.3,0.6c0.1,0.4,0.6,1.6,3,1.9c2.4,0.4,2.7,0.7,3.1,1.5l0,0c0,0,0.1,0.1,0.1,0.3c0.4,0.9,1.5,2.4,3.6,2.4h0.1
			c1.8,0,2.2-2.1,2.8-4.3c0.3-1.3,0.6-2.7,1.3-3.9c1.3-2.4,2.7-3.9,3.3-4.5c0,0,0.1,0,0.3,0c0.7,0,1-1,1.2-1.9h0.3h0.3V26l0.6-4.9
			V21l-0.2,0.1L30.5,21c0-0.1,0.1-0.6,0-0.9c0-0.1-0.3-0.4-0.6-0.6c0.1-0.4,0.3-1.2,0-1.6l0,0l0,0v-0.1c0,0,0-1.3-1.2-3
			c0.3-0.7,1.5-3.1,0.9-4c-0.1-0.3-0.4-0.4-0.7-0.4c-0.9,0-1.6,1.5-2.1,2.8c-1.2-1-4.8-3.4-7.6-3.6c0-0.3,0-0.9-0.3-1.2
			C18.6,8.1,18.5,8.1,18.4,8.1L18.4,8.1z"/>
	</g>
</g>
<g>
	<g class="st2">
		<path d="M47.5,16.4c0.7,0,2.3,0,3.3,1c0.8,0.8,0.9,1.9,0.9,2.4s-0.1,1.1-0.4,1.6s-0.8,0.8-1.1,0.9c0.6,0.1,1.3,0.4,1.8,0.9
			c0.4,0.4,0.8,1.2,0.8,2.3c0,1.3-0.5,2.1-1,2.6c-1.1,1-2.6,1.1-3.4,1.1h-4.8V16.4H47.5z M46.5,21.6H47c0.4,0,1.1-0.1,1.5-0.4
			c0.3-0.2,0.5-0.6,0.5-1.1s-0.3-0.9-0.5-1.1c-0.4-0.3-1-0.3-1.5-0.3h-0.5V21.6z M46.5,27h0.7c0.8,0,1.7,0,2.2-0.5
			c0.3-0.3,0.4-0.6,0.4-1.1s-0.2-0.9-0.4-1c-0.5-0.5-1.5-0.5-2.1-0.5h-0.8V27z"/>
	</g>
	<g class="st2">
		<path d="M62.4,28.2c-0.8,0.8-2.1,1.4-3.8,1.4c-1.7,0-3-0.6-3.8-1.4c-0.9-0.9-1.3-2.1-1.3-3.2s0.4-2.3,1.3-3.2
			c0.8-0.8,2.1-1.4,3.8-1.4c1.7,0,3,0.6,3.8,1.4c0.9,0.9,1.3,2.1,1.3,3.2C63.6,26.1,63.2,27.3,62.4,28.2z M57,23.4
			c-0.4,0.4-0.6,0.9-0.6,1.6c0,0.8,0.3,1.3,0.6,1.6c0.3,0.3,0.9,0.6,1.6,0.6c0.6,0,1.1-0.2,1.5-0.6c0.4-0.4,0.6-0.9,0.6-1.6
			s-0.2-1.2-0.6-1.6c-0.4-0.4-0.9-0.6-1.6-0.6C57.9,22.7,57.4,22.9,57,23.4z"/>
	</g>
	<g class="st2">
		<path d="M73.5,28.2c-0.8,0.8-2.1,1.4-3.8,1.4c-1.7,0-3-0.6-3.8-1.4c-0.9-0.9-1.3-2.1-1.3-3.2s0.4-2.3,1.3-3.2
			c0.8-0.8,2.1-1.4,3.8-1.4c1.7,0,3,0.6,3.8,1.4c0.9,0.9,1.3,2.1,1.3,3.2C74.7,26.1,74.3,27.3,73.5,28.2z M68.1,23.4
			c-0.4,0.4-0.6,0.9-0.6,1.6c0,0.8,0.3,1.3,0.6,1.6c0.3,0.3,0.9,0.6,1.6,0.6c0.6,0,1.1-0.2,1.5-0.6s0.6-0.9,0.6-1.6
			s-0.2-1.2-0.6-1.6c-0.4-0.4-0.9-0.6-1.6-0.6C69,22.7,68.5,22.9,68.1,23.4z"/>
		<path d="M79.4,22.9v6.4h-2.8v-6.4h-1v-2.2h1v-2.8h2.8v2.8h1.7v2.2H79.4z"/>
	</g>
	<g class="st2">
		<path d="M85,33.7h-2.8v-13H85v1c0.9-1.2,2-1.3,2.7-1.3c1.5,0,2.5,0.7,3.1,1.2c0.8,0.8,1.3,2,1.3,3.4c0,1.5-0.5,2.6-1.4,3.5
			s-1.8,1.2-2.9,1.2c-1.7,0-2.5-0.9-2.8-1.3C85,28.4,85,33.7,85,33.7z M85.5,23.4c-0.4,0.4-0.7,1.1-0.7,1.6s0.2,1.1,0.6,1.5
			c0.4,0.4,1,0.7,1.6,0.7c0.5,0,1.1-0.2,1.5-0.6s0.7-1.1,0.7-1.6c0-0.6-0.3-1.2-0.7-1.6s-0.9-0.6-1.5-0.6
			C86.3,22.8,85.8,23.1,85.5,23.4z"/>
	</g>
	<g class="st2">
		<path d="M100.1,20.7h2.8v8.6h-2.8v-1c-0.8,1.2-1.8,1.3-2.6,1.3c-1.2,0-2.3-0.3-3.2-1.3S93,26.2,93,25.1c0-1.5,0.5-2.7,1.3-3.5
			c0.8-0.8,1.8-1.2,3-1.2c0.7,0,1.9,0.2,2.7,1.3L100.1,20.7L100.1,20.7z M96.5,23.4c-0.3,0.3-0.6,0.8-0.6,1.6s0.3,1.3,0.6,1.5
			c0.4,0.4,1,0.7,1.6,0.7s1.1-0.2,1.5-0.6c0.4-0.3,0.7-0.9,0.7-1.6c0-0.6-0.2-1.2-0.6-1.6s-1-0.6-1.5-0.6
			C97.4,22.8,96.9,23,96.5,23.4z"/>
		<path d="M110.5,23.4c-0.7-0.6-1.4-0.7-1.8-0.7c-0.9,0-1.4,0.4-1.6,0.6c-0.4,0.4-0.6,0.9-0.6,1.6c0,0.6,0.2,1.2,0.6,1.5
			c0.4,0.5,1.1,0.7,1.7,0.7c0.5,0,1.1-0.1,1.8-0.7v2.5c-0.7,0.4-1.4,0.5-2.2,0.5c-1.5,0-2.6-0.5-3.3-1.3c-0.7-0.6-1.4-1.7-1.4-3.3
			c0-1.5,0.6-2.6,1.4-3.4c1-0.9,2.1-1.2,3.3-1.2c0.8,0,1.5,0.1,2.2,0.5L110.5,23.4L110.5,23.4z"/>
	</g>
	<g class="st2">
		<path d="M114.9,15.2v8.7l3.1-3.2h3.7l-4.1,3.9l4.4,4.7h-3.8l-3.3-3.7v3.7h-2.8V15.2H114.9z"/>
	</g>
	<g class="st2">
		<path d="M89.8,32.7c1,0,2.1,0.2,3,1.1c0.7,0.7,1.1,1.6,1.1,2.8c0,1.2-0.4,2.1-1,2.7c-1.1,1.1-2.4,1.2-3,1.2h-2.5v-7.7L89.8,32.7
			L89.8,32.7z M89.2,38.9h0.5c0.4,0,1.2,0,1.8-0.5c0.4-0.3,0.8-1,0.8-1.9c0-0.8-0.3-1.4-0.6-1.7c-0.6-0.6-1.3-0.7-1.9-0.7h-0.5v4.8
			C89.3,38.9,89.2,38.9,89.2,38.9z"/>
		<path d="M96,32.1c0.5,0,1,0.4,1,1c0,0.6-0.4,1-1,1c-0.5,0-1-0.4-1-1C95,32.5,95.5,32.1,96,32.1z M96.9,35.3v5.1h-1.7v-5.1H96.9z"
			/>
	</g>
	<g class="st2">
		<path d="M102.3,35.3h1.7v4.8c0,0.7,0,1.5-0.6,2.2s-1.6,0.8-2.2,0.8c-0.7,0-1.5-0.1-2.1-0.7c-0.3-0.3-0.7-0.7-0.8-1.4h1.8
			c0.1,0.3,0.2,0.4,0.4,0.5c0.2,0.1,0.5,0.2,0.7,0.2c0.5,0,0.7-0.2,0.8-0.3c0.3-0.3,0.3-0.9,0.3-1.1v-0.6c-0.2,0.3-0.6,0.8-1.5,0.8
			c-0.8,0-1.4-0.3-1.9-0.7c-0.4-0.4-0.8-1-0.8-1.9c0-0.9,0.3-1.6,0.8-2.1c0.3-0.3,0.9-0.7,1.9-0.7c0.9,0,1.3,0.5,1.5,0.8L102.3,35.3
			L102.3,35.3z M100.2,36.9c-0.3,0.2-0.4,0.6-0.4,1c0,0.3,0.1,0.7,0.4,0.9c0.2,0.2,0.5,0.4,0.9,0.4s0.7-0.2,0.9-0.3
			c0.3-0.2,0.4-0.6,0.4-1c0-0.4-0.2-0.7-0.4-0.9c-0.2-0.2-0.6-0.3-0.9-0.3C100.8,36.5,100.4,36.7,100.2,36.9z"/>
	</g>
	<g class="st2">
		<path d="M105.9,32.1c0.5,0,1,0.4,1,1c0,0.6-0.4,1-1,1c-0.5,0-1-0.4-1-1C104.9,32.5,105.4,32.1,105.9,32.1z M106.8,35.3v5.1h-1.7
			v-5.1H106.8z"/>
		<path d="M109.9,36.6v3.8h-1.7v-3.8h-0.6v-1.3h0.6v-1.7h1.7v1.7h1v1.3H109.9z"/>
	</g>
	<g class="st2">
		<path d="M115.5,35.3h1.7v5.1h-1.7v-0.6c-0.5,0.7-1.1,0.8-1.5,0.8c-0.7,0-1.4-0.2-1.9-0.8s-0.8-1.2-0.8-1.9c0-0.9,0.3-1.6,0.8-2.1
			s1.1-0.7,1.8-0.7c0.4,0,1.1,0.1,1.6,0.8V35.3L115.5,35.3z M113.4,36.9c-0.2,0.2-0.4,0.5-0.4,0.9c0,0.4,0.2,0.8,0.3,0.9
			c0.2,0.2,0.6,0.4,1,0.4c0.3,0,0.6-0.1,0.9-0.4c0.2-0.2,0.4-0.5,0.4-1c0-0.4-0.1-0.7-0.4-0.9c-0.3-0.2-0.6-0.4-0.9-0.4
			C114,36.5,113.6,36.7,113.4,36.9z"/>
	</g>
	<g class="st2">
		<path d="M120,32v8.4h-1.7V32H120z"/>
	</g>
</g>
</svg>
