<?xml version="1.0" encoding="utf-8"?>
<!-- Generator: Adobe Illustrator 23.1.1, SVG Export Plug-In . SVG Version: 6.00 Build 0)  -->
<svg version="1.1" id="Calque_1" xmlns="http://www.w3.org/2000/svg" xmlns:xlink="http://www.w3.org/1999/xlink" x="0px" y="0px"
	 viewBox="0 0 126.1 32.1" style="enable-background:new 0 0 126.1 32.1;" xml:space="preserve">
<style type="text/css">
	.st0{enable-background:new    ;}
</style>
<g>
	<g class="st0">
		<path d="M12.8,10c0.7,0,2.3,0,3.3,1c0.8,0.8,0.9,1.9,0.9,2.4s-0.1,1.1-0.4,1.6s-0.8,0.8-1.1,0.9c0.6,0.1,1.3,0.4,1.8,0.9
			c0.4,0.4,0.8,1.2,0.8,2.3c0,1.3-0.5,2.1-1,2.6c-1.1,1-2.6,1.1-3.4,1.1H8.9V10H12.8z M11.8,15.2h0.5c0.4,0,1.1-0.1,1.5-0.4
			c0.3-0.2,0.5-0.6,0.5-1.1s-0.3-0.9-0.5-1.1c-0.4-0.3-1-0.3-1.5-0.3h-0.5V15.2z M11.8,20.6h0.7c0.8,0,1.7,0,2.2-0.5
			c0.3-0.3,0.4-0.6,0.4-1.1s-0.2-0.9-0.4-1c-0.5-0.5-1.5-0.5-2.1-0.5h-0.8V20.6z"/>
	</g>
	<g class="st0">
		<path d="M27.7,21.8c-0.8,0.8-2.1,1.4-3.8,1.4s-3-0.6-3.8-1.4c-0.9-0.9-1.3-2.1-1.3-3.2s0.4-2.3,1.3-3.2c0.8-0.8,2.1-1.4,3.8-1.4
			s3,0.6,3.8,1.4c0.9,0.9,1.3,2.1,1.3,3.2C28.9,19.7,28.5,20.9,27.7,21.8z M22.3,17c-0.4,0.4-0.6,0.9-0.6,1.6c0,0.8,0.3,1.3,0.6,1.6
			c0.3,0.3,0.9,0.6,1.6,0.6c0.6,0,1.1-0.2,1.5-0.6s0.6-0.9,0.6-1.6s-0.2-1.2-0.6-1.6s-0.9-0.6-1.6-0.6C23.2,16.3,22.7,16.5,22.3,17z
			"/>
	</g>
	<g class="st0">
		<path d="M38.8,21.8c-0.8,0.8-2.1,1.4-3.8,1.4s-3-0.6-3.8-1.4c-0.9-0.9-1.3-2.1-1.3-3.2s0.4-2.3,1.3-3.2C32,14.6,33.3,14,35,14
			s3,0.6,3.8,1.4c0.9,0.9,1.3,2.1,1.3,3.2C40,19.7,39.6,20.9,38.8,21.8z M33.4,17c-0.4,0.4-0.6,0.9-0.6,1.6c0,0.8,0.3,1.3,0.6,1.6
			c0.3,0.3,0.9,0.6,1.6,0.6c0.6,0,1.1-0.2,1.5-0.6s0.6-0.9,0.6-1.6s-0.2-1.2-0.6-1.6c-0.4-0.4-0.9-0.6-1.6-0.6
			C34.3,16.3,33.8,16.5,33.4,17z"/>
		<path d="M44.7,16.5v6.4h-2.8v-6.4h-1v-2.2h1v-2.8h2.8v2.8h1.7v2.2H44.7z"/>
	</g>
	<g class="st0">
		<path d="M50.3,27.3h-2.8v-13h2.8v1c0.9-1.2,2-1.3,2.7-1.3c1.5,0,2.5,0.7,3.1,1.2c0.8,0.8,1.3,2,1.3,3.4c0,1.5-0.5,2.6-1.4,3.5
			s-1.8,1.2-2.9,1.2c-1.7,0-2.5-0.9-2.8-1.3C50.3,22,50.3,27.3,50.3,27.3z M50.8,17c-0.4,0.4-0.7,1.1-0.7,1.6s0.2,1.1,0.6,1.5
			s1,0.7,1.6,0.7c0.5,0,1.1-0.2,1.5-0.6s0.7-1.1,0.7-1.6c0-0.6-0.3-1.2-0.7-1.6s-0.9-0.6-1.5-0.6C51.6,16.4,51.1,16.7,50.8,17z"/>
	</g>
	<g class="st0">
		<path d="M65.4,14.3h2.8v8.6h-2.8v-1c-0.8,1.2-1.8,1.3-2.6,1.3c-1.2,0-2.3-0.3-3.2-1.3s-1.3-2.1-1.3-3.2c0-1.5,0.5-2.7,1.3-3.5
			s1.8-1.2,3-1.2c0.7,0,1.9,0.2,2.7,1.3L65.4,14.3L65.4,14.3z M61.8,17c-0.3,0.3-0.6,0.8-0.6,1.6s0.3,1.3,0.6,1.5
			c0.4,0.4,1,0.7,1.6,0.7s1.1-0.2,1.5-0.6c0.4-0.3,0.7-0.9,0.7-1.6c0-0.6-0.2-1.2-0.6-1.6s-1-0.6-1.5-0.6
			C62.7,16.4,62.2,16.6,61.8,17z"/>
		<path d="M75.8,17c-0.7-0.6-1.4-0.7-1.8-0.7c-0.9,0-1.4,0.4-1.6,0.6c-0.4,0.4-0.6,0.9-0.6,1.6c0,0.6,0.2,1.2,0.6,1.5
			c0.4,0.5,1.1,0.7,1.7,0.7c0.5,0,1.1-0.1,1.8-0.7v2.5c-0.7,0.4-1.4,0.5-2.2,0.5c-1.5,0-2.6-0.5-3.3-1.3C69.7,21.1,69,20,69,18.4
			c0-1.5,0.6-2.6,1.4-3.4c1-0.9,2.1-1.2,3.3-1.2c0.8,0,1.5,0.1,2.2,0.5L75.8,17L75.8,17z"/>
	</g>
	<g class="st0">
		<path d="M80.2,8.8v8.7l3.1-3.2H87l-4.1,3.9l4.4,4.7h-3.8l-3.3-3.7v3.7h-2.8V8.8H80.2z"/>
	</g>
	<g class="st0">
		<path d="M90.3,15.2c1,0,2.1,0.2,3,1.1c0.7,0.7,1.1,1.6,1.1,2.8s-0.4,2.1-1,2.7c-1.1,1.1-2.4,1.2-3,1.2h-2.5v-7.7L90.3,15.2
			L90.3,15.2z M89.7,21.4h0.5c0.4,0,1.2,0,1.8-0.5c0.4-0.3,0.8-1,0.8-1.9c0-0.8-0.3-1.4-0.6-1.7c-0.6-0.6-1.3-0.7-1.9-0.7h-0.5v4.8
			C89.8,21.4,89.7,21.4,89.7,21.4z"/>
		<path d="M96.5,14.6c0.5,0,1,0.4,1,1s-0.4,1-1,1c-0.5,0-1-0.4-1-1S96,14.6,96.5,14.6z M97.4,17.8v5.1h-1.7v-5.1H97.4z"/>
	</g>
	<g class="st0">
		<path d="M102.8,17.8h1.7v4.8c0,0.7,0,1.5-0.6,2.2s-1.6,0.8-2.2,0.8c-0.7,0-1.5-0.1-2.1-0.7c-0.3-0.3-0.7-0.7-0.8-1.4h1.8
			c0.1,0.3,0.2,0.4,0.4,0.5s0.5,0.2,0.7,0.2c0.5,0,0.7-0.2,0.8-0.3c0.3-0.3,0.3-0.9,0.3-1.1v-0.6c-0.2,0.3-0.6,0.8-1.5,0.8
			c-0.8,0-1.4-0.3-1.9-0.7c-0.4-0.4-0.8-1-0.8-1.9s0.3-1.6,0.8-2.1c0.3-0.3,0.9-0.7,1.9-0.7c0.9,0,1.3,0.5,1.5,0.8L102.8,17.8
			L102.8,17.8z M100.7,19.4c-0.3,0.2-0.4,0.6-0.4,1c0,0.3,0.1,0.7,0.4,0.9c0.2,0.2,0.5,0.4,0.9,0.4s0.7-0.2,0.9-0.3
			c0.3-0.2,0.4-0.6,0.4-1s-0.2-0.7-0.4-0.9s-0.6-0.3-0.9-0.3C101.3,19,100.9,19.2,100.7,19.4z"/>
	</g>
	<g class="st0">
		<path d="M106.4,14.6c0.5,0,1,0.4,1,1s-0.4,1-1,1c-0.5,0-1-0.4-1-1S105.9,14.6,106.4,14.6z M107.3,17.8v5.1h-1.7v-5.1H107.3z"/>
		<path d="M110.4,19.1v3.8h-1.7v-3.8h-0.6v-1.3h0.6v-1.7h1.7v1.7h1v1.3H110.4z"/>
	</g>
	<g class="st0">
		<path d="M116,17.8h1.7v5.1H116v-0.6c-0.5,0.7-1.1,0.8-1.5,0.8c-0.7,0-1.4-0.2-1.9-0.8s-0.8-1.2-0.8-1.9c0-0.9,0.3-1.6,0.8-2.1
			s1.1-0.7,1.8-0.7c0.4,0,1.1,0.1,1.6,0.8V17.8L116,17.8z M113.9,19.4c-0.2,0.2-0.4,0.5-0.4,0.9s0.2,0.8,0.3,0.9
			c0.2,0.2,0.6,0.4,1,0.4c0.3,0,0.6-0.1,0.9-0.4c0.2-0.2,0.4-0.5,0.4-1c0-0.4-0.1-0.7-0.4-0.9c-0.3-0.2-0.6-0.4-0.9-0.4
			C114.5,19,114.1,19.2,113.9,19.4z"/>
	</g>
	<g class="st0">
		<path d="M120.5,14.5v8.4h-1.7v-8.4H120.5z"/>
	</g>
</g>
</svg>
