<svg enable-background="new 0 0 100 100" viewBox="0 0 100 100" xmlns="http://www.w3.org/2000/svg"><path d="m28.4 62.8s-.5 6.3 1 10.1c0 0-1.6.5-1.2 4.4 0 0 0 4.2 4.9 4.4l.2-1.2h1.6v1.2h2.8v-1.2h1.2v1h3.1l.5-1.7s1.2-1.6 10.7 0v1l3.1.5v-1l2.1.2v1l2.8.2.2-.7h2.3v1h2.8v-1l2.1-.2.2 1 2.8-.2.2-1 1.2-.2v.2l2.8-.5v-.3s1.6-.7 2.6-.7 1.2-1 1.2-1.7.7-3.1-.7-3.1c0 0 2.6-6.5-7.3-7.9l-8.6-1.9-15.4-10.6z" fill="#4299e1"/><path d="m70.2 68.9c-1 0-2.3-.2-3.8-1-3.4-1.6-13.7-8.6-14.2-8.9 0 0-1-.7-2.1-1-1.2 0-1.6-1-1.6-1l6.5-10.6v4.2s0 4.7 2.8 6.5l1.7 1.6 2.8 2.1s3.7 2.1 6.3 2.3h.7c1 0 1.7.5 2.1 1.2.5 0 2.3.7 2.6 1.7 0 .5 0 .7-.5 1.2-.9 1.4-1.9 1.7-3.3 1.7z" fill="#4299e1"/><path d="m54.8 47.2v3.3s0 4.7 2.8 6.8l1.6 1.6 2.8 2.1s3.8 2.1 6.3 2.6h.7c.7 0 1.6.2 1.7 1.2 0 0 3.8 1 1.7 2.8-1 .7-2.1 1.2-3.1 1.2s-2.3-.2-3.8-1c-3.4-1.5-14.2-8.8-14.2-8.8s-1-1-2.1-1c-1 0-1.2-1-1.2-1zm.5-1.9-1 1.6-5.9 9.4v.2.2c0 .5.7 1.2 1.7 1.2.7 0 1.7.7 1.7.7.2.2 10.7 7.3 14.2 8.9 1.6.7 2.8 1 4.2 1 1.2 0 2.3-.5 3.3-1.6.7-.5.7-1.2.7-1.6-.2-1-1.7-1.7-2.6-1.7-.2-.7-1-1.2-2.3-1.2-.2 0-.7 0-.7 0-2.3-.2-5.8-1.9-5.9-2.3l-2.8-2.1-1.6-1.6c-2.8-1.7-2.8-6.3-2.8-6.3v-3.3z" fill="#fff"/><path d="m41.7 71c-3.7 0-5.2-2.6-5.9-3.8 0-.2-.2-.2-.2-.5-.7-1-1.2-1.7-5.4-2.6s-4.9-2.8-5.2-3.3c-.2-.2-.5-.5-.5-.7 0-.7.5-2.1.5-2.1.2-.5.5-1 .7-1.2.5-.5.7-1 .5-1.7-.2-1.2.2-1.7.7-2.3.2-.2.5-.2.5-.5.2-.2-.5-1-1.2-1.6-.7-.5-1-.7-1-1v-.2s.2-.2 1.6-.2h2.6c1-1.6 1-2.1 1-2.8s0-1.7 1-3.7c1.7-3.8 4.7-15.2 4.7-15.4v-.2h.7c.2-3.1 0-8.4 0-8.4 0-.5 0-1 0-1.2 0-.7-.2-1.6 0-2.1 0-.2.5-.2.7-.2.2 0 .5 0 .7.2.5.5.5 1.6.5 2.1 5.2 0 12.2 5.2 13.8 6.3.5-1.7 2.1-5.2 3.3-5.2.2 0 .5 0 1 .5.7 1.6-1 5.9-1.6 7 2.1 3.1 2.1 5.2 2.1 5.2v-.5c1 .7.2 2.6 0 3.1.5 0 1 .5 1 .7.2.5 0 1.2 0 1.6l.5.2-1 8.9h-.7c-.2 2.3-1 3.3-1.7 3.3-.2 0-.5 0-.5-.2-.7.5-3.3 3.3-5.8 8-1 2.1-1.7 4.4-2.3 6.8-1 3.8-1.7 7.3-4.7 7.3z" fill="#4299e1"/><path d="m38.2 13.8c1.2 0 .7 2.3.7 2.3s0 0 .2 0c5.8 0 14.2 6.5 14.2 6.5 1-3.3 2.3-5.2 3.3-5.2.2 0 .5 0 .7.5.7 1.6-1.7 6.8-1.7 6.8 2.3 3.1 2.1 5.2 2.1 5.2l-.5.5c1.2.7.2 3.1.2 3.1l.2.2c1.7.5.7 2.3.7 2.3l.7.5-1 8.6h-1c-.5 2.8-1 3.3-1.6 3.3-.2 0-.5-.2-.5-.2s-3.1 2.8-5.9 8.4c-2.8 5.4-2.3 13.8-6.8 14.2h-.2c-4.2 0-5.4-3.1-6.3-4.4-.7-1.2-1.2-2.1-5.8-2.8-4.4-.7-4.9-3.1-4.9-3.1-1.2-.7 0-2.6 0-2.6.7-1.6 1.7-1.7 1.2-3.3-.2-1.6.7-1.7 1.6-2.8.5-1-2.1-2.3-2.3-2.8 0-.2.5-.2 1.2-.2h2.8c2.1-3.1.2-2.8 2.3-6.8 1.7-3.8 4.7-15.4 4.7-15.4h.5c.2-3.3 0-8.6 0-8.6.3-2.6-.2-4.2 1.2-4.2zm0-.5c-.5 0-.7 0-1 .5-.5.5-.2 1.2-.2 2.3v1.2s.2 4.9 0 8.4h-.3-.2v.2s-2.8 11.5-4.7 15.2c-1 2.1-1 2.8-1 3.8 0 .7 0 1.2-1 2.8-.5 0-1.6 0-2.3 0-1.2 0-1.6 0-1.7.2 0 0-.2.2 0 .5 0 .5.5.7 1 1.2.2.2 1 .7 1 1 0 .2-.2.2-.5.5-.5.5-1.2 1-1 2.6 0 .7 0 1-.5 1.6-.2.2-.5.7-.7 1.2 0 .2-.7 1.2-.5 2.3 0 .2.2.7.5 1 .2.7 1 2.8 5.2 3.3 4.2.7 4.7 1.2 5.4 2.6s.2.2.2.5c.7 1.6 2.6 4.2 6.3 4.2h.2c3.1 0 3.8-3.7 4.9-7.5.5-2.3 1-4.7 2.3-6.8 2.3-4.2 4.7-6.8 5.8-7.9h.5c1.2 0 1.7-1.7 2.1-3.3h.5.5v-.5l1-8.6v-.2l-.5.4-.2-.2c0-.2.2-1 0-1.6 0-.2-.5-.7-1-1 .2-.7.5-2.1 0-2.8v-.2s0-2.3-2.1-5.2c.5-1.2 2.6-5.4 1.6-7-.2-.5-.7-.7-1.2-.7-1.6 0-2.8 2.6-3.7 4.9-2.1-1.7-8.4-5.9-13.3-6.3 0-.5 0-1.6-.5-2.1-.6-.5-.7-.5-.9-.5z" fill="#fff"/></svg>