<?xml version="1.0" encoding="utf-8"?>
<!-- Generator: Adobe Illustrator 24.0.1, SVG Export Plug-In . SVG Version: 6.00 Build 0)  -->
<svg version="1.1" id="Layer_1" xmlns="http://www.w3.org/2000/svg" xmlns:xlink="http://www.w3.org/1999/xlink" x="0px" y="0px"
	 viewBox="0 0 1002 652" style="enable-background:new 0 0 1002 652;" xml:space="preserve">
<style type="text/css">
	.st0{fill:#005D8F;}
	.st1{fill:#F06052;}
	.st2{fill:#2787B7;}
</style>
<g>
	<line x1="581.9" y1="285.7" x2="581.9" y2="285.7"/>
	<line x1="617.9" y1="267.7" x2="617.9" y2="267.7"/>
	<line x1="617.9" y1="213.7" x2="617.9" y2="213.7"/>
	<path class="st0" d="M605.7,186.7c2.9,2.6,5.4,5.6,7.4,9c3.1,5.3,4.8,11.4,4.8,18v54c0,13.3-7.2,25-18,31.2v-85.2
		c0-9.9-8.1-18-18-18h-126v-18h126c9.9,0,18-8.1,18-18v-54.2c-0.1-9.8-8.1-17.8-18-17.8H401.8v180.1h-18V69.7h198.1
		c6.6,0,12.7,1.8,18,4.8c5.5,3.2,10,7.7,13.2,13.2c3.1,5.3,4.8,11.4,4.8,18v54c0,6.6-1.8,12.7-4.8,18
		C611.1,181.1,608.6,184.1,605.7,186.7z"/>
	<line x1="563.9" y1="213.7" x2="563.9" y2="213.7"/>
	<line x1="563.9" y1="231.7" x2="563.9" y2="231.7"/>
	<line x1="545.9" y1="213.7" x2="545.9" y2="213.7"/>
	<line x1="563.9" y1="267.7" x2="563.9" y2="267.7"/>
	<line x1="563.9" y1="249.7" x2="563.9" y2="249.7"/>
	<line x1="545.9" y1="267.7" x2="545.9" y2="267.7"/>
	<line x1="563.9" y1="285.7" x2="563.9" y2="285.7"/>
	<path class="st1" d="M581.9,222.7v72c0,3.9-2.5,7.3-6,8.5c-0.9,0.3-1.9,0.5-3,0.5h-72.5c-4.7,0-8.5-3.8-8.5-8.5v-37
		c0-4.7,3.8-8.5,8.5-8.5h45.5v18h-33.7c-1.3,0-2.3,1-2.3,2.3v13.4c0,1.3,1,2.3,2.3,2.3h49.8c1.1,0,1.9-0.9,1.9-1.9v-50.2
		c0-1.1-0.9-1.9-1.9-1.9h-85.8c-1.3,0-2.3,1-2.3,2.3v69.7h-18v-81.5c0-4.7,3.8-8.5,8.5-8.5h108.5
		C577.8,213.7,581.9,217.7,581.9,222.7z"/>
	<line x1="581.9" y1="123.7" x2="581.9" y2="123.7"/>
	<line x1="563.9" y1="105.7" x2="563.9" y2="105.7"/>
	<line x1="581.9" y1="123.7" x2="581.9" y2="123.7"/>
	<line x1="572.9" y1="105.7" x2="572.9" y2="105.7"/>
	<path class="st2" d="M581.9,114.7v36c0,5-4,9-9,9h-117v-18h105.7c1.3,0,2.3-1,2.3-2.3V126c0-1.3-1-2.3-2.3-2.3H437.8v180.1h-54v-18
		h36V105.7h153.1C577.8,105.7,581.9,109.7,581.9,114.7z"/>
	<line x1="581.9" y1="141.7" x2="581.9" y2="141.7"/>
	<line x1="581.9" y1="195.7" x2="581.9" y2="195.7"/>
	<polyline points="617.9,213.7 617.9,213.7 617.9,213.7 	"/>
	<line x1="563.9" y1="244.9" x2="563.9" y2="244.9"/>
	<polyline points="617.9,267.7 617.9,267.7 617.9,267.7 	"/>
	<line x1="563.9" y1="236.6" x2="563.9" y2="236.6"/>
	<polyline points="572.9,105.7 572.9,105.7 572.9,105.7 	"/>
</g>
<path class="st1" d="M108.3,555.1c5.4,0,8.6,3.3,8.6,8.5v7.4c0,5.2-3.1,8.5-8.6,8.5h-8.4v-24.5H108.3z M108.3,558.6h-4.2v17.5h4.2
	c2.9,0,4.4-1.5,4.4-5.2v-7.1C112.7,560.2,111.2,558.6,108.3,558.6z"/>
<path class="st1" d="M239.6,555.1v24.5h-4.2v-24.5H239.6z"/>
<path class="st1" d="M374.7,559.9l-3.1,1.1c-0.9-2.2-2.4-3.1-4.5-3.1c-3.3,0-4.9,1.9-4.9,5.6v7.5c0,3.4,1.7,5.1,4.7,5.1
	c1.8,0,3.1-0.6,4.1-2.2v-4.2h-3.1v-2.8h6.9v12.4h-3.4v-1.8c-1.5,1.4-3.3,2.1-5.4,2.1c-4.8,0-7.8-2.9-7.8-8.5v-7.6
	c0-5.4,2.8-9.1,8.7-9.1C370.7,554.4,373.7,556.6,374.7,559.9z"/>
<path class="st1" d="M497.4,555.1v24.5h-4.2v-24.5H497.4z"/>
<path class="st1" d="M631.7,555.1v3.6h-5.8v20.8h-4.2v-20.8h-5.8v-3.6H631.7z"/>
<path class="st1" d="M754.4,579.6h-4.3l7.7-24.5h4.7l7.7,24.5h-4.3l-1.6-5.7H756L754.4,579.6z M756.8,570.7h6.6l-3.3-11.8H760
	L756.8,570.7z"/>
<path class="st1" d="M892.7,555.1v20.8h9.1v3.7h-13.1v-24.5H892.7z"/>
<g>
	<path class="st0" d="M99.9,408.4h59.8c9.8,0,16.9,2.2,21.5,6.6c4.6,4.4,6.9,11.2,6.9,20.2c0,6-1.3,10.8-3.9,14.6
		c-2.6,3.7-5.8,6.4-9.6,7.8c8.1,2.2,13.5,7.6,16.4,16.1c1,3.1,1.5,6.7,1.5,10.8c0,9.8-2.3,16.9-6.9,21.5c-4.6,4.6-11.8,6.9-21.5,6.9
		H99.9V408.4z M161.2,438.2c0-6-3-9-9-9h-25.4v20.9h25.4c6,0,9-3,9-9V438.2z M165.7,480.1c0-6-3-9-9-9h-29.9V492h29.9c6,0,9-3,9-9
		V480.1z"/>
	<path class="st0" d="M300.1,484.6c0,10.5-2.4,18.1-7.1,22.8c-4.7,4.7-12.3,7.1-22.8,7.1h-37.4c-10.5,0-18.1-2.4-22.8-7.1
		c-4.7-4.7-7.1-12.3-7.1-22.8v-47.8c0-10.5,2.4-18.1,7.1-22.8c4.7-4.7,12.3-7.1,22.8-7.1h37.4c10.5,0,18.1,2.4,22.8,7.1
		c4.7,4.7,7.1,12.3,7.1,22.8V484.6z M273.2,436.7c0-6-3-9-9-9h-25.4c-6,0-9,3-9,9v47.8c0,6,3,9,9,9h25.4c6,0,9-3,9-9V436.7z"/>
	<path class="st0" d="M409.2,484.6c0,10.5-2.4,18.1-7.1,22.8c-4.7,4.7-12.3,7.1-22.8,7.1H342c-10.5,0-18.1-2.4-22.8-7.1
		c-4.7-4.7-7.1-12.3-7.1-22.8v-47.8c0-10.5,2.4-18.1,7.1-22.8c4.7-4.7,12.3-7.1,22.8-7.1h37.4c10.5,0,18.1,2.4,22.8,7.1
		c4.7,4.7,7.1,12.3,7.1,22.8V484.6z M382.3,436.7c0-6-3-9-9-9H348c-6,0-9,3-9,9v47.8c0,6,3,9,9,9h25.4c6,0,9-3,9-9V436.7z"/>
	<path class="st0" d="M475,513h-26.9v-83.7h-31.4v-20.9h89.7v20.9H475V513z"/>
	<path class="st2" d="M516.8,408.4h62.8c10.5,0,18.1,2.4,22.8,7.1c4.7,4.7,7.1,12.3,7.1,22.8v14.9c0,10.5-2.4,18.1-7.1,22.8
		c-4.7,4.7-12.3,7.1-22.8,7.1h-35.9V513h-26.9V408.4z M582.6,438.2c0-6-3-9-9-9h-29.9v32.9h29.9c6,0,9-3,9-9V438.2z"/>
	<path class="st2" d="M797.8,511.5c-22.2,2-40.6,3-55.3,3c-9.8,0-16.9-2.3-21.5-6.9c-4.6-4.6-6.9-11.8-6.9-21.5v-47.8
		c0-10.5,2.4-18.1,7.1-22.8c4.7-4.7,12.3-7.1,22.8-7.1h53.8v20.9h-47.8c-6,0-9,3-9,9v47.8c0,2.3,0.7,4.1,2,5.5c1.3,1.3,3.1,2,5.2,2
		s4.4,0,6.9-0.1c2.5-0.1,5.1-0.1,7.8-0.2c2.7-0.1,5.4-0.2,8.1-0.3c2.7-0.1,6.3-0.3,10.6-0.6c4.3-0.3,9.7-0.6,16.2-1V511.5z"/>
	<path class="st2" d="M836.6,513h-26.9V408.4h26.9v41.1h13.4l23.3-41.1h28.4l-29.3,51.6l29.1,53.1h-28.4l-23.2-42.6h-13.4V513z"/>
	<polygon class="st2" points="673,408.4 643.1,408.4 603.5,513 632.6,513 633.1,513 644.3,480 656.5,444.3 659.5,452.6 662.2,451.8 
		671.8,480 675.7,490.5 664.5,480 659.9,498.4 654.9,483.6 654.9,483.6 654.8,483.6 650.3,489.9 646.1,485.9 636.9,513 683.4,513 
		712.6,513 	"/>
</g>
</svg>
