<?xml version="1.0" encoding="utf-8"?>
<!-- Generator: Adobe Illustrator 23.1.1, SVG Export Plug-In . SVG Version: 6.00 Build 0)  -->
<svg version="1.1" id="fd01fc53-8d1b-486a-a481-e11f41af06c1"
	 xmlns="http://www.w3.org/2000/svg" xmlns:xlink="http://www.w3.org/1999/xlink" x="0px" y="0px" viewBox="0 0 1134.4 709.8"
	 style="enable-background:new 0 0 1134.4 709.8;" xml:space="preserve">
<style type="text/css">
	.st0{fill:#EDF2F7;}
	.st1{fill:#3F3D56;}
	.st2{fill:#BBBAD8;}
	.st3{fill:#C4C3DD;}
	.st4{fill:#D7EFFF;}
	.st5{fill:#BDBDD1;}
</style>
<title>destinations</title>
<path class="st0" d="M1118.3,286.7C1076.6,123,932.8,4.9,764,0.1c-89.3-2.5-183.2,27.1-251.6,130.7c-122.2,185.2,7.5,313.1,98,373.9
	c43.7,29.4,83.1,64.8,117,105.2c61.1,72.5,178.6,162.6,318.6,21.4C1147.5,529,1146,395.8,1118.3,286.7z"/>
<path class="st1" d="M421.7,287.4c-0.5-1.9-1.1-3.8-1.7-5.7l1.9-0.6c0.6,1.9,1.2,3.9,1.8,5.8L421.7,287.4z"/>
<path class="st2" d="M409.6,175.4h-2c0-2,0-4,0.1-6l2,0.1C409.6,171.4,409.6,173.4,409.6,175.4z"/>
<path class="st3" d="M410.5,157.4l-2-0.2c0.4-4,1-8.1,1.7-12.1l2,0.4C411.5,149.4,410.9,153.5,410.5,157.4z M414.8,133.7l-1.9-0.5
	c1-3.9,2.2-7.9,3.4-11.7l1.9,0.6C416.9,126,415.7,129.9,414.8,133.7z M733.7,112.6c-1.5-3.7-3.1-7.4-4.9-11l1.8-0.9
	c1.8,3.6,3.4,7.4,5,11.1L733.7,112.6z M422.4,110.9l-1.8-0.8c1.6-3.7,3.3-7.5,5.1-11.1l1.8,0.9C425.6,103.5,423.9,107.2,422.4,110.9
	z M723.1,91c-2-3.5-4.2-6.9-6.4-10.2l1.7-1.1c2.3,3.3,4.5,6.8,6.5,10.3L723.1,91z M433.2,89.4l-1.7-1c2.1-3.5,4.3-6.9,6.6-10.2
	l1.6,1.1C437.5,82.5,435.3,85.9,433.2,89.4L433.2,89.4z M709.6,71.1c-2.5-3.1-5.1-6.2-7.8-9.2l1.5-1.4c2.7,3,5.4,6.1,7.9,9.3
	L709.6,71.1z M447,69.6l-1.6-1.3c2.6-3.1,5.2-6.2,8-9.2l1.5,1.4C452.2,63.4,449.5,66.5,447,69.6z M693.3,53.3c-2.9-2.8-5.9-5.4-9-8
	l1.3-1.5c3.1,2.6,6.2,5.3,9.1,8.1L693.3,53.3z M463.5,52l-1.4-1.5c3-2.7,6.1-5.4,9.2-8l1.3,1.6C469.5,46.7,466.4,49.3,463.5,52
	L463.5,52z M674.7,38.1c-3.3-2.3-6.7-4.5-10.1-6.6l1-1.7c3.5,2.1,6.9,4.3,10.2,6.7L674.7,38.1z M482.3,37l-1.1-1.6
	c3.3-2.3,6.8-4.5,10.3-6.6l1,1.7C489,32.5,485.6,34.7,482.3,37L482.3,37z M654.1,25.6c-3.6-1.8-7.2-3.5-10.9-5.1l0.8-1.8
	c3.7,1.6,7.4,3.3,11.1,5.2L654.1,25.6z M503,24.7l-0.9-1.8c3.6-1.8,7.4-3.5,11.1-5l0.8,1.9C510.3,21.3,506.6,23,503,24.7L503,24.7z
	 M631.9,16.2c-3.8-1.3-7.7-2.5-11.5-3.5l0.5-1.9c3.9,1,7.9,2.2,11.7,3.5L631.9,16.2z M525.3,15.6l-0.6-1.9c3.8-1.3,7.8-2.4,11.7-3.4
	l0.5,1.9C533,13.2,529.1,14.4,525.3,15.6L525.3,15.6z M608.6,10.1c-3.9-0.7-7.9-1.3-11.9-1.8l0.2-2c4,0.5,8.1,1.1,12.1,1.8
	L608.6,10.1z M548.6,9.8l-0.3-2c4-0.7,8-1.3,12.1-1.7l0.2,2C556.6,8.5,552.6,9.1,548.6,9.8L548.6,9.8z M584.6,7.4
	c-4-0.2-8.1-0.2-12.1-0.1l-0.1-2c4-0.1,8.1-0.1,12.2,0.1L584.6,7.4z"/>
<path class="st1" d="M739.6,129.8c-0.5-1.9-1.1-3.8-1.7-5.7l1.9-0.6c0.6,1.9,1.2,3.9,1.7,5.8L739.6,129.8z"/>
<ellipse class="st4" cx="420.7" cy="312.4" rx="33.3" ry="2.5"/>
<ellipse class="st4" cx="748.9" cy="186.6" rx="33.3" ry="2.5"/>
<rect x="615.5" y="228.2" transform="matrix(0.7071 -0.7071 0.7071 0.7071 38.9688 552.4127)" class="st5" width="141.7" height="2"/>
<rect x="438.2" y="291.4" class="st5" width="168.2" height="2"/>
<path class="st5" d="M420.7,310.9c-10.2,0-18.5-8.3-18.5-18.5s8.3-18.5,18.5-18.5s18.5,8.3,18.5,18.5S430.9,310.9,420.7,310.9z
	 M420.7,275.9c-9.1,0-16.5,7.4-16.5,16.5s7.4,16.5,16.5,16.5s16.5-7.4,16.5-16.5S429.8,275.9,420.7,275.9L420.7,275.9z"/>
<path class="st5" d="M623.9,310.9c-10.2,0-18.5-8.3-18.5-18.5s8.3-18.5,18.5-18.5s18.5,8.3,18.5,18.5S634.1,310.9,623.9,310.9z
	 M623.9,275.9c-9.1,0-16.5,7.4-16.5,16.5s7.4,16.5,16.5,16.5s16.5-7.4,16.5-16.5S633,275.9,623.9,275.9L623.9,275.9z"/>
<path class="st5" d="M748.9,185.1c-10.2,0-18.5-8.3-18.5-18.5s8.3-18.5,18.5-18.5s18.5,8.3,18.5,18.5
	C767.3,176.9,759.1,185.1,748.9,185.1z M748.9,150.2c-9.1,0-16.5,7.4-16.5,16.5s7.4,16.5,16.5,16.5s16.5-7.4,16.5-16.5
	C765.3,157.5,758,150.2,748.9,150.2L748.9,150.2z"/>
<path class="st4" d="M420.7,179.1c-18.4,0-33.3,14.9-33.3,33.3s33.3,79.1,33.3,79.1s33.3-60.7,33.3-79.1
	C454,194.1,439.1,179.1,420.7,179.1L420.7,179.1z M420.7,229.9c-9.7,0-17.5-7.8-17.5-17.5s7.8-17.5,17.5-17.5s17.5,7.8,17.5,17.5
	S430.4,229.9,420.7,229.9L420.7,229.9z"/>
<path class="st4" d="M748.9,59.2c-18.4,0-33.3,14.9-33.3,33.3l0,0c0,18.4,33.3,79.1,33.3,79.1s33.3-60.7,33.3-79.1
	S767.3,59.2,748.9,59.2L748.9,59.2z M748.9,110c-9.7,0-17.5-7.8-17.5-17.5S739.2,75,748.9,75s17.5,7.8,17.5,17.5
	S758.5,110,748.9,110L748.9,110L748.9,110z"/>
<circle class="st0" cx="480.3" cy="661" r="18"/>
<circle class="st0" cx="592.5" cy="584.8" r="18"/>
<circle class="st0" cx="453.8" cy="513.8" r="18"/>
</svg>
