<?xml version="1.0" encoding="utf-8"?>
<!-- Generator: Adobe Illustrator 23.1.1, SVG Export Plug-In . SVG Version: 6.00 Build 0)  -->
<svg version="1.1" id="fd01fc53-8d1b-486a-a481-e11f41af06c1"
	 xmlns="http://www.w3.org/2000/svg" xmlns:xlink="http://www.w3.org/1999/xlink" x="0px" y="0px" viewBox="0 0 1134.4 709.8"
	 style="enable-background:new 0 0 1134.4 709.8;" xml:space="preserve">
<style type="text/css">
	.st0{fill:#F2F2F2;}
	.st1{fill:#3F3D56;}
	.st2{fill:#4299E1;}
	.st3{fill:#F1F1F1;}
</style>
<title>destinations</title>
<path class="st0" d="M1118.3,286.7C1076.6,123,932.8,4.9,764,0.1c-89.3-2.5-183.2,27.1-251.6,130.7c-122.2,185.2,7.5,313.1,98,373.9
	c43.7,29.4,83.1,64.8,117,105.2c61.1,72.5,178.6,162.6,318.6,21.4C1147.5,529,1146,395.8,1118.3,286.7z"/>
<path class="st1" d="M156.2,410.8c-1.1-1.7-2.2-3.4-3.3-5.1l1.7-1.1c1,1.7,2.1,3.4,3.2,5L156.2,410.8z"/>
<path class="st1" d="M146.9,395c-1.9-3.6-3.6-7.4-5.1-11.2l1.9-0.8c1.5,3.7,3.2,7.4,5.1,11L146.9,395z M137.6,372.3
	c-1.2-3.9-2.3-7.9-3.2-11.9l2-0.4c0.9,3.9,2,7.9,3.2,11.7L137.6,372.3z M132.2,348.3c-0.6-4-1-8.2-1.2-12.2l2-0.1
	c0.2,4,0.6,8.1,1.2,12.1L132.2,348.3z M132.8,323.8l-2,0c0.1-4.1,0.4-8.2,0.8-12.3l2,0.2C133.2,315.7,132.9,319.8,132.8,323.8z
	 M135.3,299.7l-2-0.4c0.8-4,1.7-8,2.8-12l1.9,0.5C137,291.8,136.1,295.8,135.3,299.7L135.3,299.7z M141.8,276.4l-1.9-0.7
	c1.4-3.8,3-7.7,4.7-11.4l1.8,0.8C144.8,268.8,143.2,272.6,141.8,276.4L141.8,276.4z M415.7,270.2c-1.6-3.7-3.3-7.4-5.2-11l1.8-0.9
	c1.9,3.6,3.7,7.4,5.2,11.1L415.7,270.2z M152.1,254.4l-1.7-1c2-3.5,4.2-7,6.5-10.4l1.6,1.1C156.2,247.5,154.1,250.9,152.1,254.4z
	 M404.5,248.7c-2.2-3.4-4.5-6.8-6.9-10l1.6-1.2c2.5,3.3,4.8,6.7,7,10.1L404.5,248.7z M165.8,234.4l-1.6-1.3c2.6-3.2,5.3-6.3,8.2-9.2
	l1.4,1.4C171,228.3,168.3,231.3,165.8,234.4z M389.9,229.4c-2.7-3-5.5-5.9-8.4-8.7l1.4-1.4c3,2.8,5.8,5.8,8.6,8.8L389.9,229.4z
	 M182.6,217l-1.3-1.5c3.1-2.7,6.3-5.3,9.5-7.8l1.2,1.6C188.8,211.7,185.6,214.3,182.6,217z M372.3,212.7c-3.1-2.5-6.4-5-9.8-7.2
	l1.1-1.7c3.4,2.3,6.7,4.8,9.9,7.3L372.3,212.7z M202,202.5l-1.1-1.7c3.5-2.2,7.1-4.2,10.7-6.1l0.9,1.8
	C209,198.3,205.4,200.3,202,202.5z M352.3,199.1c-3.5-2-7.1-3.8-10.8-5.5l0.8-1.8c3.7,1.7,7.4,3.6,11,5.6L352.3,199.1z M223.5,191.3
	l-0.8-1.8c3.8-1.6,7.6-3,11.5-4.2l0.6,1.9C231.1,188.4,227.3,189.8,223.5,191.3z M330.2,188.9c-3.8-1.4-7.7-2.6-11.6-3.7l0.5-1.9
	c3.9,1.1,7.9,2.3,11.7,3.7L330.2,188.9z M246.6,183.9l-0.5-1.9c4-0.9,8-1.7,12.1-2.3l0.3,2C254.5,182.3,250.5,183,246.6,183.9
	L246.6,183.9z M306.8,182.6c-4-0.7-8-1.3-12-1.7l0.2-2c4.1,0.4,8.2,1,12.2,1.7L306.8,182.6z M270.6,180.4l-0.1-2
	c4.1-0.3,8.2-0.3,12.3-0.3l0,2C278.7,180.1,274.6,180.2,270.6,180.4z"/>
<path class="st1" d="M421.7,287.4c-0.5-1.9-1.1-3.8-1.7-5.7l1.9-0.6c0.6,1.9,1.2,3.9,1.8,5.8L421.7,287.4z"/>
<path class="st1" d="M409.6,175.4h-2c0-2,0-4,0.1-6l2,0.1C409.6,171.4,409.6,173.4,409.6,175.4z"/>
<path class="st1" d="M410.5,157.4l-2-0.2c0.4-4,1-8.1,1.7-12.1l2,0.4C411.5,149.4,410.9,153.5,410.5,157.4z M414.8,133.7l-1.9-0.5
	c1-3.9,2.2-7.9,3.4-11.7l1.9,0.6C416.9,126,415.7,129.9,414.8,133.7z M733.7,112.6c-1.5-3.7-3.1-7.4-4.9-11l1.8-0.9
	c1.8,3.6,3.4,7.4,5,11.1L733.7,112.6z M422.4,110.9l-1.8-0.8c1.6-3.7,3.3-7.5,5.1-11.1l1.8,0.9C425.6,103.5,423.9,107.2,422.4,110.9
	z M723.1,91c-2-3.5-4.2-6.9-6.4-10.2l1.7-1.1c2.3,3.3,4.5,6.8,6.5,10.3L723.1,91z M433.2,89.4l-1.7-1c2.1-3.5,4.3-6.9,6.6-10.2
	l1.6,1.1C437.5,82.5,435.3,85.9,433.2,89.4L433.2,89.4z M709.6,71.1c-2.5-3.1-5.1-6.2-7.8-9.2l1.5-1.4c2.7,3,5.4,6.1,7.9,9.3
	L709.6,71.1z M447,69.6l-1.6-1.3c2.6-3.1,5.2-6.2,8-9.2l1.5,1.4C452.2,63.4,449.5,66.5,447,69.6z M693.3,53.3c-2.9-2.8-5.9-5.4-9-8
	l1.3-1.5c3.1,2.6,6.2,5.3,9.1,8.1L693.3,53.3z M463.5,52l-1.4-1.5c3-2.7,6.1-5.4,9.2-8l1.3,1.6C469.5,46.7,466.4,49.3,463.5,52
	L463.5,52z M674.7,38.1c-3.3-2.3-6.7-4.5-10.1-6.6l1-1.7c3.5,2.1,6.9,4.3,10.2,6.7L674.7,38.1z M482.3,37l-1.1-1.6
	c3.3-2.3,6.8-4.5,10.3-6.6l1,1.7C489,32.5,485.6,34.7,482.3,37L482.3,37z M654.1,25.6c-3.6-1.8-7.2-3.5-10.9-5.1l0.8-1.8
	c3.7,1.6,7.4,3.3,11.1,5.2L654.1,25.6z M503,24.7l-0.9-1.8c3.6-1.8,7.4-3.5,11.1-5l0.8,1.9C510.3,21.3,506.6,23,503,24.7L503,24.7z
	 M631.9,16.2c-3.8-1.3-7.7-2.5-11.5-3.5l0.5-1.9c3.9,1,7.9,2.2,11.7,3.5L631.9,16.2z M525.3,15.6l-0.6-1.9c3.8-1.3,7.8-2.4,11.7-3.4
	l0.5,1.9C533,13.2,529.1,14.4,525.3,15.6L525.3,15.6z M608.6,10.1c-3.9-0.7-7.9-1.3-11.9-1.8l0.2-2c4,0.5,8.1,1.1,12.1,1.8
	L608.6,10.1z M548.6,9.8l-0.3-2c4-0.7,8-1.3,12.1-1.7l0.2,2C556.6,8.5,552.6,9.1,548.6,9.8L548.6,9.8z M584.6,7.4
	c-4-0.2-8.1-0.2-12.1-0.1l-0.1-2c4-0.1,8.1-0.1,12.2,0.1L584.6,7.4z"/>
<path class="st1" d="M739.6,129.8c-0.5-1.9-1.1-3.8-1.7-5.7l1.9-0.6c0.6,1.9,1.2,3.9,1.7,5.8L739.6,129.8z"/>
<ellipse class="st2" cx="155.1" cy="433.2" rx="33.3" ry="2.5"/>
<ellipse class="st2" cx="420.7" cy="312.4" rx="33.3" ry="2.5"/>
<ellipse class="st2" cx="748.9" cy="186.6" rx="33.3" ry="2.5"/>
<rect x="615.5" y="228.2" transform="matrix(0.7071 -0.7071 0.7071 0.7071 38.9201 552.4176)" class="st1" width="141.7" height="2"/>
<rect x="438.2" y="291.4" class="st1" width="168.2" height="2"/>
<rect x="294.7" y="351.8" transform="matrix(0.7071 -0.7071 0.7071 0.7071 -143.6738 358.7253)" class="st1" width="133.1" height="2"/>
<rect x="172.6" y="412.2" class="st1" width="112.4" height="2"/>
<rect x="7.8" y="480.4" transform="matrix(0.7071 -0.7071 0.7071 0.7071 -314.9589 202.403)" class="st1" width="158" height="2"/>
<path class="st1" d="M155.1,431.7c-10.2,0-18.5-8.3-18.5-18.5c0-10.2,8.3-18.5,18.5-18.5s18.5,8.3,18.5,18.5c0,0,0,0,0,0
	C173.5,423.4,165.3,431.6,155.1,431.7z M155.1,396.7c-9.1,0-16.5,7.4-16.5,16.5c0,9.1,7.4,16.5,16.5,16.5c9.1,0,16.5-7.4,16.5-16.5
	c0,0,0,0,0,0C171.5,404.1,164.2,396.7,155.1,396.7z"/>
<path class="st1" d="M302.5,431.7c-10.2,0-18.5-8.3-18.5-18.5c0-10.2,8.3-18.5,18.5-18.5S321,403,321,413.2l0,0
	C321,423.4,312.7,431.6,302.5,431.7z M302.5,396.7c-9.1,0-16.5,7.4-16.5,16.5s7.4,16.5,16.5,16.5c9.1,0,16.5-7.4,16.5-16.5l0,0
	C319,404.1,311.6,396.7,302.5,396.7z"/>
<path class="st1" d="M420.7,310.9c-10.2,0-18.5-8.3-18.5-18.5s8.3-18.5,18.5-18.5c10.2,0,18.5,8.3,18.5,18.5
	C439.2,302.6,430.9,310.9,420.7,310.9z M420.7,275.9c-9.1,0-16.5,7.4-16.5,16.5s7.4,16.5,16.5,16.5c9.1,0,16.5-7.4,16.5-16.5
	C437.2,283.3,429.8,275.9,420.7,275.9L420.7,275.9z"/>
<path class="st1" d="M623.9,310.9c-10.2,0-18.5-8.3-18.5-18.5c0-10.2,8.3-18.5,18.5-18.5c10.2,0,18.5,8.3,18.5,18.5
	C642.4,302.6,634.1,310.9,623.9,310.9z M623.9,275.9c-9.1,0-16.5,7.4-16.5,16.5c0,9.1,7.4,16.5,16.5,16.5c9.1,0,16.5-7.4,16.5-16.5
	C640.4,283.3,633,275.9,623.9,275.9L623.9,275.9z"/>
<path class="st1" d="M748.9,185.1c-10.2,0-18.5-8.3-18.5-18.5c0-10.2,8.3-18.5,18.5-18.5c10.2,0,18.5,8.3,18.5,18.5
	C767.3,176.9,759.1,185.1,748.9,185.1z M748.9,150.2c-9.1,0-16.5,7.4-16.5,16.5c0,9.1,7.4,16.5,16.5,16.5c9.1,0,16.5-7.4,16.5-16.5
	C765.3,157.5,758,150.2,748.9,150.2L748.9,150.2z"/>
<path class="st1" d="M18.5,568.2C8.3,568.2,0,560,0,549.7s8.3-18.5,18.5-18.5S37,539.5,37,549.7c0,0,0,0,0,0
	C37,560,28.7,568.2,18.5,568.2z M18.5,533.3c-9.1,0-16.5,7.4-16.5,16.5s7.4,16.5,16.5,16.5c9.1,0,16.5-7.4,16.5-16.5c0,0,0,0,0,0
	C35,540.6,27.6,533.3,18.5,533.3z"/>
<path class="st2" d="M155.1,304.1c-18.4,0-33.3,14.9-33.3,33.3c0,0,0,0,0,0c0,18.4,33.3,79.1,33.3,79.1s33.3-60.7,33.3-79.1
	C188.4,319,173.5,304.1,155.1,304.1C155.1,304.1,155.1,304.1,155.1,304.1z M155.1,354.9c-9.7,0-17.5-7.8-17.5-17.5
	c0-9.7,7.8-17.5,17.5-17.5s17.5,7.8,17.5,17.5S164.7,354.9,155.1,354.9C155.1,354.9,155.1,354.9,155.1,354.9z"/>
<path class="st2" d="M420.7,179.1c-18.4,0-33.3,14.9-33.3,33.3c0,18.4,33.3,79.1,33.3,79.1s33.3-60.7,33.3-79.1
	C454,194.1,439.1,179.1,420.7,179.1C420.7,179.1,420.7,179.1,420.7,179.1z M420.7,229.9c-9.7,0-17.5-7.8-17.5-17.5
	s7.8-17.5,17.5-17.5s17.5,7.8,17.5,17.5S430.4,229.9,420.7,229.9L420.7,229.9z"/>
<path class="st2" d="M748.9,59.2c-18.4,0-33.3,14.9-33.3,33.3l0,0c0,18.4,33.3,79.1,33.3,79.1s33.3-60.7,33.3-79.1
	C782.2,74.1,767.3,59.2,748.9,59.2C748.9,59.2,748.9,59.2,748.9,59.2z M748.9,110c-9.7,0-17.5-7.8-17.5-17.5
	c0-9.7,7.8-17.5,17.5-17.5c9.7,0,17.5,7.8,17.5,17.5S758.5,110,748.9,110L748.9,110L748.9,110z"/>
<circle class="st3" cx="480.3" cy="661" r="18"/>
<circle class="st3" cx="592.5" cy="584.8" r="18"/>
<circle class="st3" cx="453.8" cy="513.8" r="18"/>
</svg>
