<svg enable-background="new 0 0 1134.4 709.8" viewBox="0 0 1134.4 709.8" xmlns="http://www.w3.org/2000/svg"><path d="m1118.3 286.7c-41.7-163.7-185.5-281.8-354.3-286.6-89.3-2.5-183.2 27.1-251.6 130.7-122.2 185.2 7.5 313.1 98 373.9 43.7 29.4 83.1 64.8 117 105.2 61.1 72.5 178.6 162.6 318.6 21.4 101.5-102.3 100-235.5 72.3-344.6z" fill="#edf2f7"/><path d="m421.7 287.4c-.5-1.9-1.1-3.8-1.7-5.7l1.9-.6c.6 1.9 1.2 3.9 1.8 5.8z" fill="#3f3d56"/><path d="m409.6 175.4h-2c0-2 0-4 .1-6l2 .1c-.1 1.9-.1 3.9-.1 5.9z" fill="#bbbad8"/><path d="m410.5 157.4-2-.2c.4-4 1-8.1 1.7-12.1l2 .4c-.7 3.9-1.3 8-1.7 11.9zm4.3-23.7-1.9-.5c1-3.9 2.2-7.9 3.4-11.7l1.9.6c-1.3 3.9-2.5 7.8-3.4 11.6zm318.9-21.1c-1.5-3.7-3.1-7.4-4.9-11l1.8-.9c1.8 3.6 3.4 7.4 5 11.1zm-311.3-1.7-1.8-.8c1.6-3.7 3.3-7.5 5.1-11.1l1.8.9c-1.9 3.6-3.6 7.3-5.1 11zm300.7-19.9c-2-3.5-4.2-6.9-6.4-10.2l1.7-1.1c2.3 3.3 4.5 6.8 6.5 10.3zm-289.9-1.6-1.7-1c2.1-3.5 4.3-6.9 6.6-10.2l1.6 1.1c-2.2 3.2-4.4 6.6-6.5 10.1zm276.4-18.3c-2.5-3.1-5.1-6.2-7.8-9.2l1.5-1.4c2.7 3 5.4 6.1 7.9 9.3zm-262.6-1.5-1.6-1.3c2.6-3.1 5.2-6.2 8-9.2l1.5 1.4c-2.7 2.9-5.4 6-7.9 9.1zm246.3-16.3c-2.9-2.8-5.9-5.4-9-8l1.3-1.5c3.1 2.6 6.2 5.3 9.1 8.1zm-229.8-1.3-1.4-1.5c3-2.7 6.1-5.4 9.2-8l1.3 1.6c-3.1 2.6-6.2 5.2-9.1 7.9zm211.2-13.9c-3.3-2.3-6.7-4.5-10.1-6.6l1-1.7c3.5 2.1 6.9 4.3 10.2 6.7zm-192.4-1.1-1.1-1.6c3.3-2.3 6.8-4.5 10.3-6.6l1 1.7c-3.5 2-6.9 4.2-10.2 6.5zm171.8-11.4c-3.6-1.8-7.2-3.5-10.9-5.1l.8-1.8c3.7 1.6 7.4 3.3 11.1 5.2zm-151.1-.9-.9-1.8c3.6-1.8 7.4-3.5 11.1-5l.8 1.9c-3.7 1.5-7.4 3.2-11 4.9zm128.9-8.5c-3.8-1.3-7.7-2.5-11.5-3.5l.5-1.9c3.9 1 7.9 2.2 11.7 3.5zm-106.6-.6-.6-1.9c3.8-1.3 7.8-2.4 11.7-3.4l.5 1.9c-3.9 1-7.8 2.2-11.6 3.4zm83.3-5.5c-3.9-.7-7.9-1.3-11.9-1.8l.2-2c4 .5 8.1 1.1 12.1 1.8zm-60-.3-.3-2c4-.7 8-1.3 12.1-1.7l.2 2c-4 .4-8 1-12 1.7zm36-2.4c-4-.2-8.1-.2-12.1-.1l-.1-2c4-.1 8.1-.1 12.2.1z" fill="#c4c3dd"/><path d="m739.6 129.8c-.5-1.9-1.1-3.8-1.7-5.7l1.9-.6c.6 1.9 1.2 3.9 1.7 5.8z" fill="#3f3d56"/><ellipse cx="420.7" cy="312.4" fill="#d7efff" rx="33.3" ry="2.5"/><ellipse cx="748.9" cy="186.6" fill="#d7efff" rx="33.3" ry="2.5"/><g fill="#bdbdd1"><path d="m615.5 228.2h141.7v2h-141.7z" transform="matrix(.7071 -.7071 .7071 .7071 38.9688 552.4127)"/><path d="m438.2 291.4h168.2v2h-168.2z"/><path d="m420.7 310.9c-10.2 0-18.5-8.3-18.5-18.5s8.3-18.5 18.5-18.5 18.5 8.3 18.5 18.5-8.3 18.5-18.5 18.5zm0-35c-9.1 0-16.5 7.4-16.5 16.5s7.4 16.5 16.5 16.5 16.5-7.4 16.5-16.5-7.4-16.5-16.5-16.5z"/><path d="m623.9 310.9c-10.2 0-18.5-8.3-18.5-18.5s8.3-18.5 18.5-18.5 18.5 8.3 18.5 18.5-8.3 18.5-18.5 18.5zm0-35c-9.1 0-16.5 7.4-16.5 16.5s7.4 16.5 16.5 16.5 16.5-7.4 16.5-16.5-7.4-16.5-16.5-16.5z"/><path d="m748.9 185.1c-10.2 0-18.5-8.3-18.5-18.5s8.3-18.5 18.5-18.5 18.5 8.3 18.5 18.5c-.1 10.3-8.3 18.5-18.5 18.5zm0-34.9c-9.1 0-16.5 7.4-16.5 16.5s7.4 16.5 16.5 16.5 16.5-7.4 16.5-16.5c-.1-9.2-7.4-16.5-16.5-16.5z"/></g><path d="m420.7 179.1c-18.4 0-33.3 14.9-33.3 33.3s33.3 79.1 33.3 79.1 33.3-60.7 33.3-79.1c0-18.3-14.9-33.3-33.3-33.3zm0 50.8c-9.7 0-17.5-7.8-17.5-17.5s7.8-17.5 17.5-17.5 17.5 7.8 17.5 17.5-7.8 17.5-17.5 17.5z" fill="#d7efff"/><path d="m748.9 59.2c-18.4 0-33.3 14.9-33.3 33.3s33.3 79.1 33.3 79.1 33.3-60.7 33.3-79.1-14.9-33.3-33.3-33.3zm0 50.8c-9.7 0-17.5-7.8-17.5-17.5s7.8-17.5 17.5-17.5 17.5 7.8 17.5 17.5-7.9 17.5-17.5 17.5z" fill="#d7efff"/><g fill="#edf2f7"><circle cx="480.3" cy="661" r="18"/><circle cx="592.5" cy="584.8" r="18"/><circle cx="453.8" cy="513.8" r="18"/></g></svg>