<svg enable-background="new 0 0 1200 663" viewBox="0 0 1200 663" xmlns="http://www.w3.org/2000/svg"><path d="m1200 0v663h-213.6c-3 0-6 0-9.1-.1h-2.2c-2.4 0-4.9-.1-7.3-.2-7.5-.2-15-.5-22.5-.9-124.9-6.5-246.5-42.6-355.9-104.3-260.6-147-589.4-81.4-589.4-81.4v-476.1z" fill="#4299e1"/><path d="m252.4 0-64.1 44-71.3 48.9-7.6 5.3-58.4 40-51 35v-90.6l23-15.8 4.9-3.4 23.1-15.9 5.2-3.5 64.1-44z" fill="#005d8f" opacity=".5"/><path d="m425 0-101 69.3-97 66.6-7.6 5.2-7.1 4.9-212.3 145.8v-90.7l80.2-55.1 52.8-36.2 4.9-3.4 90.9-62.4 64.1-44z" fill="#005d8f" opacity=".5"/><path d="m1148 334h-370v-247h370zm-368-2h366v-243h-366z" fill="#d0cde1"/><g fill="#005d8f"><path d="m860 191h44v116h-44z"/><path d="m941 236h44v71h-44z"/><path d="m1022 143h44v164h-44z"/></g><circle cx="963" cy="191" fill="#f06052" r="22"/><path d="m325 147h-275v-104h275zm-273-2h271v-100h-271z" fill="#d0cde1"/><path d="m630 321h-150v-73h150zm-148-2h146v-69h-146z" fill="#d0cde1"/><path d="m161.5 72.5 52 23-52 22z" fill="#f06052"/><g fill="#005d8f"><circle cx="521" cy="284.5" r="11"/><circle cx="555" cy="284.5" r="11"/><circle cx="589" cy="284.5" r="11"/></g><g fill="#d0cde1"><path d="m553.3 168.9-10.2 13c-16.3-23.1-35.7-41.8-57.9-55.6-18.6-11.6-39.2-19.8-60.6-24.3-37-7.9-65.6-2.6-65.9-2.5l.7 3.6c.3-.1 28.1-5.2 64.4 2.5 32.9 7 79.5 26.3 116.2 78.2l-16.1 3.5c10.1 3.1 22.5 10.5 31.3 17.2-2.3-10.8-3.6-25.2-1.9-35.6z"/><path d="m830.7 387.3c-.2.2-22.6 17.8-58.3 27.8-32.3 9.1-82.5 13.7-139.1-15.2l12.6-10.6c-10.4 2-24.8 1.2-35.7-.7 7 8.5 14.8 20.7 18.2 30.7l3-16.3c25.1 12.8 51.1 20.3 77.2 22.2 4.5.3 9 .5 13.4.5 17.4 0 34.8-2.4 51.6-7.2 36.4-10.3 59.2-28.3 59.5-28.5z"/><path d="m278.3 362.3c.2.2 22.6 17.8 58.3 27.8 32.3 9.1 82.5 13.7 139.1-15.2l-12.6-10.6c10.4 2 24.8 1.2 35.7-.7-7 8.5-14.8 20.7-18.2 30.7l-3-16.3c-25.1 12.8-51.1 20.3-77.2 22.2-4.5.3-9 .5-13.4.5-17.4 0-34.8-2.4-51.6-7.2-36.4-10.3-59.2-28.3-59.5-28.5z"/><path d="m227.5 408.7h-154v-154h154zm-151.9-2.1h149.7v-149.7h-149.7z"/></g><path d="m103.4 303.4h94.1v8.6h-94.1z" fill="#005d8f"/><path d="m103.4 327.4h94.1v8.6h-94.1z" fill="#005d8f"/><path d="m103.4 351.4h94.1v8.6h-94.1z" fill="#005d8f"/><path d="m685.9 110.1c0-6.6 5.4-12 12-12s12 5.4 12 12-5.4 12-12 12-12-5.3-12-12zm2 0c0 5.5 4.5 10 10 10s10-4.5 10-10-4.5-10-10-10-10 4.5-10 10z" fill="#f06052"/><path d="m825.6 550.9-17.7-18.9 18.9-17.7 17.7 18.9zm-14.9-18.9 14.9 16 16-14.9-14.9-16z" fill="#f06052"/><path d="m357.6 222.9-17.7-18.9 18.9-17.7 17.7 18.9zm-14.9-18.9 14.9 16 16-14.9-14.9-16z" fill="#f06052"/><circle cx="1004" cy="383.4" fill="#2f2e41" r="66.9"/><path d="m1093.7 663h-107.3c-3 0-6 0-9.1-.1h-2.2c-2.4 0-4.9-.1-7.3-.2l-2.4-9.4 4.8-.8 5.7-1 54.9-9.3 45.7-7.8c1.4-.2 2.9-.2 4.3.2 4.1 1.1 7.1 4.7 7.4 8.9.5 6.3 1.9 14 5.5 19.5z" fill="#005d8f"/><ellipse cx="992.1" cy="407.9" fill="#a0616a" rx="44" ry="44" transform="matrix(.1602 -.9871 .9871 .1602 430.5355 1321.8829)"/><path d="m992.1 447.3s15.4 39.4 3.1 46.3-18.5 7.7-18.5 7.7l-13.1 22.4-7.7 23.2 61.7 2.3 43.2-68.7s-20.8-10.8-31.6-57.1z" fill="#a0616a"/><path d="m1072.8 481.6s-7.9-5.2-15.1-3.4c-3.6.8-7 1.9-10.4 3.4 0 0-40.1 54.8-61.7 56.3 0 0-28.6 7.7-21.6-3.9s22.2-35.9 22.2-35.9-27.6 6.6-27.6 15.9-5.4 26.2-5.4 26.2-26.2 26.2 0 57.1 16.2 58.7 16.2 58.7l115.8-20.8z" fill="#d0cde1"/><path d="m967.9 662.8c-7.5-.2-15-.5-22.5-.9l4.5-68.7.9-14.3 20.8 39.4s1.9 13.8 4.3 33.3c.1 1 .3 2.1.4 3.2.3 2.6.7 5.4 1 8.2h-2.2c-2.3-.1-4.8-.2-7.2-.2z" fill="#d0cde1"/><circle cx="1031.8" cy="322.5" fill="#2f2e41" r="27.7"/><path d="m994.8 307.5c0-14.2 10.7-26.1 24.8-27.6-1-.1-1.9-.1-2.9-.1-15.3 0-27.7 12.4-27.7 27.7s12.4 27.7 27.7 27.7c1 0 1.9-.1 2.9-.1-14.1-1.5-24.8-13.4-24.8-27.6z" fill="#2f2e41"/><ellipse cx="996.7" cy="383.2" fill="#2f2e41" rx="27.7" ry="46.2" transform="matrix(.2568 -.9665 .9665 .2568 370.4054 1248.0236)"/><path d="m1083.2 611.9c-.9 9.2-1.8 17.1-2.4 22.8-.1.4-.1.9-.2 1.3-.6 5.3-1 8.5-1 8.5l-9.2 18.5h-48.9c2.8-6.4 5.5-12.5 7.9-17.8.5-1 .9-2 1.3-3 5.3-11.9 9.1-19.8 9.9-20.5 3.1-3.1 12.7-135.4 12.7-135.4s7.5-6.4 15.7-6.5c5.7-.1 11.8 3 16 13.4 6.8 17.1 2.1 79.6-1.8 118.7z" fill="#d0cde1"/><path d="m955.5 600.2s17 36.1 15.7 45.8-15.7-45.8-15.7-45.8z" opacity=".1"/><ellipse cx="1039.2" cy="405.6" fill="#a0616a" rx="3.9" ry="7.7"/></svg>