<svg enable-background="new 0 0 1098.8 632.4" viewBox="0 0 1098.8 632.4" xmlns="http://www.w3.org/2000/svg"><path d="m175 0h825.3v592.9h-825.3z" fill="#f2f7f9"/><path d="m174.9 10h825.3v16.9h-825.3z" fill="#b7d7e5"/><ellipse cx="549.4" cy="600.8" fill="#f2f2f2" rx="549.4" ry="31.6"/><path d="m175 10c0-5.5 4.5-10 10-10h805.3c5.5 0 10 4.5 10 10v6.3c0 5.5-4.5 10-10 10h-805.3c-5.5 0-10-4.5-10-10z" fill="#b7d7e5"/><circle cx="197.1" cy="12.7" fill="#2787b7" opacity=".57" r="6.8"/><circle cx="219.1" cy="12.7" fill="#2787b7" opacity=".57" r="6.8"/><circle cx="241.2" cy="12.7" fill="#2787b7" opacity=".57" r="6.8"/><path d="m175.6 415.3-.6.5v177.1h825.3v-311.1l-9.9.7z" fill="#005d8f"/><path d="m234.5 175.6h230.5v9.3h-230.5z" fill="#f06052"/><path d="m234.5 196.1h230.5v9.3h-230.5z" fill="#f06052"/><path d="m234.5 216.5h78.1v9.3h-78.1z" fill="#f06052"/><path d="m704.5 433.6h230.5v9.3h-230.5z" fill="#fff"/><path d="m704.5 454.1h230.5v9.3h-230.5z" fill="#fff"/><path d="m704.5 474.5h78.1v9.3h-78.1z" fill="#fff"/><g fill="#f2f2f2"><circle cx="561.3" cy="575.3" r="9.1"/><circle cx="587.6" cy="576.2" r="9.1"/><circle cx="613.9" cy="577.1" r="9.1"/></g><circle cx="587.7" cy="576.2" fill="#005d8f" r="7.3"/><path d="m310.5 282h78.1v17.8h-78.1z" fill="#005d8f"/><path d="m774.5 523h78.1v17.8h-78.1z" fill="#fff"/><g fill="#2787b7"><circle cx="350" cy="291" opacity=".3" r="54"/><circle cx="350" cy="291" opacity=".3" r="36"/><circle cx="350" cy="291" r="25"/><circle cx="804.4" cy="157.2" opacity=".3" r="54"/><circle cx="804.4" cy="157.2" opacity=".3" r="36"/><circle cx="804.4" cy="157.2" r="25"/><circle cx="814" cy="532" opacity=".3" r="54"/><circle cx="814" cy="532" opacity=".3" r="36"/><circle cx="814" cy="532" r="25"/><path d="m87.3 84.4h28.6v22.2h-28.6z" transform="matrix(.03875078 -.9992 .9992 .03875078 2.2178 193.3017)"/></g><path d="m191.3 180.9s30.8-14.7 30.3-2-31 21.1-31 21.1z" fill="#ffb9b9"/><path d="m174.4 288.3s14.5 35.5 19.9 61.2c5.4 25.6 13.5 60.9 3 86s-40.4 98.6-40.7 106.5 2.6 16-3.8 15.8-40.9-11.1-42.3-16 11.8-17 11.8-17l32.6-102.1-34-66.5-24.5 99.2-4.8 123.8s-23.6-7.3-27-1c0 0-10.6-14.7-11.9-21.1s5-128.6 5-128.6-21.7-139.2-4.2-138.5 85.9-41.2 120.9-1.7z" fill="#153442"/><path d="m153.1 551.4s16.1 35.6 17.6 37.3 12 18 4.1 17.6-26.7-9-40.5-22.2-32-36.2-30.3-37.7 12.9-5.9 12.9-5.9z" fill="#153442"/><path d="m88.7 571.2s1 15.9 3.9 22.4 2.6 16-5.4 15.7-28.4-4.3-28.4-4.3-1.2-9.6.4-11.1 8.7-18.7 5.7-23.6 23.8.9 23.8.9z" fill="#153442"/><path d="m77 54s-16.9 26.4-23.5 32.5 12 19.5 12 19.5l33.2 4.5s-.4-30.2 1.3-33.3-23-23.2-23-23.2z" fill="#ffb9b9"/><path d="m105.8 88.5s-6.8 12.5-13.2 12.2-39.2-14.2-40.6-19-10.9 34.6-10.9 34.6l80.4 141.4 19.6-13.5-9.5-83-7.8-44.8z" fill="#2787b7"/><path d="m49.1 215.1c3.2 6.7 5.2 13.7 4.9 20.9 0 .3 0 .6-.1 1-.8 14.7-6.2 31.7-8.1 44-1.4 8.9-1 15.3 4.2 16.9 12.6 3.7-1.8 6.3 46.8 22.5s57.2 2.2 57.3-1-6.9-27.3-5.2-28.8 23.1 20 29.5 17c6.5-2.9.7-19.1.7-19.1s-14.6-34-14.3-41.9-22.1-45.4-22.1-45.4l-15.2-99.2s-5.9-12.9-13.7-14.8-14.4 2.6-14.4 2.6l13.2 29.1 13.9 51.4-2.3 19s-16.2-34-26.8-47.1-33.3-44.2-33.3-44.2-5.3-17.8-1.3-23.2c4-5.3-16.6-6.1-25.4 15.8-4.7 11.6-12.2 28.9-17 45.1-4.2 14.3-6.2 27.6-2 35.3 6.4 11.6 22.5 27 30.7 44.1z" fill="#266682"/><path d="m18.4 171c6.4 11.7 22.5 27 30.7 44.1 2.1-7.7 4.8-15.7 4.8-15.7s10-53.7-19.6-67.5c-4.9-.5-9.8.9-13.8 3.9-4.3 14.2-6.3 27.5-2.1 35.2z" opacity=".1"/><path d="m136.2 167.6 25.2 7.3 34.9 1.4 3.6 30.3-57.4 4.1c-.1.1-14.4-40.2-6.3-43.1z" fill="#266682"/><path d="m95.1 269.6s33.7 5.6 26 15.7-37.5-.5-37.5-.5z" fill="#ffb9b9"/><path d="m54 236.9c-.8 14.7-6.2 31.7-8.1 44 10.7 10.1 20.9 19.1 24.8 19.2 7.9.3 20.7-.8 25.4 1s7.5-28.3 7.5-28.3-2.8-9.6-15.3-14.9c-8.6-3.5-24.8-13.1-34.3-21z" opacity=".1"/><path d="m34.6 122.3s-26.9-4.2-25.4 40.4-2.8 73 8 81.4 45.8 46.3 53.8 46.6 20.7-.8 25.4 1 7.5-28.3 7.5-28.3-2.8-9.6-15.3-14.9-42-23.9-41.8-30.2 7.5-28.3 7.5-28.3 9.9-53.8-19.7-67.7z" fill="#266682"/><circle cx="100.7" cy="58.1" fill="#ffb9b9" r="35"/><path d="m124.2 8c.8.7 1.9 1.2 2.9 1.5 1.1.2 2.2-.5 2.4-1.7.8 1.7 1.7 3.4 3.3 4.3s4.2.1 4.4-1.7c.2 1.4.9 2.7 1.8 3.7 1 1 2.9 1.2 3.7.1-.7 3.9-.3 7.9-.5 11.9s-1.3 8.2-4.3 10.8c-4.4 3.8-10.9 2.9-16.7 2.1-.9-.2-1.8-.1-2.6.1-2.2.9-2.1 3.9-2.1 6.3-.4 8.5-6.8 15.5-15.2 16.5-2.3.4-4.6-.2-6.5-1.6-1.6-1.4-2.5-3.6-4.3-4.7-3-1.7-6.7.8-9 3.5s-4.4 6-7.9 6.5c-4.6.6-8-4-9.7-8.3-4.7-12.1-4.4-25.6 1-37.5 9.6-20.7 42.1-23.9 59.3-11.8z" fill="#153442"/></svg>