<svg xmlns="http://www.w3.org/2000/svg" xmlns:xlink="http://www.w3.org/1999/xlink" id="Layer_1" x="0" y="0" version="1.1" viewBox="0 0 962 344" style="enable-background:new 0 0 962 344" xml:space="preserve"><style type="text/css">.st0{fill:#005d8f}.st1{fill:#f06052}.st2{fill:#2787b7}</style><switch><g><g><line x1="223" x2="223" y1="237.9" y2="237.9"/><line x1="246.9" x2="246.9" y1="225.9" y2="225.9"/><line x1="246.9" x2="246.9" y1="190" y2="190"/><path d="M238.8,172c1.9,1.7,3.6,3.7,4.9,6c2,3.5,3.2,7.6,3.2,12v35.9c0,8.9-4.8,16.6-12,20.7V190c0-6.6-5.4-12-12-12 h-83.8v-12H223c6.6,0,12-5.4,12-12V118c-0.1-6.5-5.4-11.8-12-11.8H103.2v119.7h-12V94.2H223c4.4,0,8.4,1.2,12,3.2 c3.6,2.1,6.7,5.1,8.8,8.8c2,3.5,3.2,7.6,3.2,12v35.9c0,4.4-1.2,8.4-3.2,12C242.4,168.3,240.7,170.3,238.8,172z" class="st0"/><line x1="211" x2="211" y1="190" y2="190"/><line x1="211" x2="211" y1="202" y2="202"/><line x1="199" x2="199" y1="190" y2="190"/><line x1="211" x2="211" y1="225.9" y2="225.9"/><line x1="211" x2="211" y1="213.9" y2="213.9"/><line x1="199" x2="199" y1="225.9" y2="225.9"/><line x1="211" x2="211" y1="237.9" y2="237.9"/><path d="M223,196v47.9c0,2.6-1.7,4.8-4,5.6c-0.6,0.2-1.3,0.3-2,0.3h-48.2c-3.1,0-5.7-2.5-5.7-5.7v-24.6 c0-3.1,2.5-5.7,5.7-5.7H199v12h-22.4c-0.9,0-1.5,0.7-1.5,1.5v8.9c0,0.9,0.7,1.5,1.5,1.5h33.1c0.7,0,1.3-0.6,1.3-1.3v-33.3 c0-0.7-0.6-1.3-1.3-1.3h-57c-0.9,0-1.5,0.7-1.5,1.5v46.4h-12v-54.2c0-3.1,2.5-5.7,5.7-5.7H217C220.3,190,223,192.7,223,196z" class="st1"/><line x1="223" x2="223" y1="130.1" y2="130.1"/><line x1="211" x2="211" y1="118.1" y2="118.1"/><line x1="223" x2="223" y1="130.1" y2="130.1"/><line x1="217" x2="217" y1="118.1" y2="118.1"/><path d="M223,124.1v23.9c0,3.3-2.7,6-6,6h-77.8v-12h70.3c0.9,0,1.5-0.7,1.5-1.5v-8.9c0-0.9-0.7-1.5-1.5-1.5h-82.3 v119.7H91.3v-12h23.9V118.1H217C220.3,118.1,223,120.8,223,124.1z" class="st2"/><line x1="223" x2="223" y1="142.1" y2="142.1"/><line x1="223" x2="223" y1="178" y2="178"/><polyline points="246.9 190 246.9 190 246.9 190"/><line x1="211" x2="211" y1="210.7" y2="210.7"/><polyline points="246.9 225.9 246.9 225.9 246.9 225.9"/><line x1="211" x2="211" y1="205.2" y2="205.2"/><polyline points="217 118.1 217 118.1 217 118.1"/></g><g><path d="M314.7,215.3c3.8,0,6,2.3,6,6v5.2c0,3.6-2.2,6-6,6h-5.9v-17.1H314.7z M314.7,217.8h-2.9v12.3h2.9 c2,0,3.1-1.1,3.1-3.6v-5C317.8,218.9,316.8,217.8,314.7,217.8z" class="st1"/><path d="M406.6,215.3v17.1h-3v-17.1H406.6z" class="st1"/><path d="M501.3,218.7l-2.2,0.8c-0.6-1.5-1.7-2.2-3.1-2.2c-2.3,0-3.4,1.3-3.4,3.9v5.3c0,2.4,1.2,3.5,3.3,3.5 c1.3,0,2.2-0.4,2.9-1.5v-3h-2.2v-2h4.8v8.7h-2.4V231c-1,1-2.3,1.5-3.8,1.5c-3.4,0-5.5-2-5.5-5.9v-5.3c0-3.8,2-6.3,6.1-6.3 C498.5,214.9,500.6,216.4,501.3,218.7z" class="st1"/><path d="M587.2,215.3v17.1h-3v-17.1H587.2z" class="st1"/><path d="M681.2,215.3v2.6h-4v14.6h-3v-14.6h-4v-2.6H681.2z" class="st1"/><path d="M767.2,232.5h-3l5.4-17.1h3.3l5.4,17.1h-3l-1.1-4h-5.8L767.2,232.5z M768.9,226.3h4.6l-2.3-8.3h0 L768.9,226.3z" class="st1"/><path d="M864,215.3v14.6h6.3v2.6h-9.2v-17.1H864z" class="st1"/><g><path d="M308.8,112.6h41.9c6.8,0,11.9,1.6,15.1,4.7c3.2,3.1,4.8,7.8,4.8,14.2c0,4.2-0.9,7.6-2.7,10.2 c-1.8,2.6-4,4.4-6.7,5.5c5.7,1.5,9.5,5.3,11.5,11.3c0.7,2.2,1,4.7,1,7.5c0,6.8-1.6,11.9-4.8,15.1c-3.2,3.2-8.2,4.8-15.1,4.8h-45 V112.6z M351.7,133.5c0-4.2-2.1-6.3-6.3-6.3h-17.8v14.7h17.8c4.2,0,6.3-2.1,6.3-6.3V133.5z M354.9,162.8c0-4.2-2.1-6.3-6.3-6.3 h-20.9v14.6h20.9c4.2,0,6.3-2.1,6.3-6.3V162.8z" class="st0"/><path d="M449.1,166c0,7.3-1.7,12.6-5,16c-3.3,3.3-8.6,5-16,5H402c-7.3,0-12.6-1.7-16-5c-3.3-3.3-5-8.6-5-16v-33.5 c0-7.3,1.7-12.6,5-16c3.3-3.3,8.6-5,16-5h26.2c7.3,0,12.6,1.7,16,5c3.3,3.3,5,8.6,5,16V166z M430.2,132.5c0-4.2-2.1-6.3-6.3-6.3 h-17.8c-4.2,0-6.3,2.1-6.3,6.3V166c0,4.2,2.1,6.3,6.3,6.3h17.8c4.2,0,6.3-2.1,6.3-6.3V132.5z" class="st0"/><path d="M525.4,166c0,7.3-1.7,12.6-5,16c-3.3,3.3-8.6,5-16,5h-26.2c-7.3,0-12.6-1.7-16-5c-3.3-3.3-5-8.6-5-16v-33.5 c0-7.3,1.7-12.6,5-16c3.3-3.3,8.6-5,16-5h26.2c7.3,0,12.6,1.7,16,5c3.3,3.3,5,8.6,5,16V166z M506.6,132.5c0-4.2-2.1-6.3-6.3-6.3 h-17.8c-4.2,0-6.3,2.1-6.3,6.3V166c0,4.2,2.1,6.3,6.3,6.3h17.8c4.2,0,6.3-2.1,6.3-6.3V132.5z" class="st0"/><path d="M571.5,185.8h-18.8v-58.6h-22v-14.6h62.8v14.6h-22V185.8z" class="st0"/><path d="M600.8,112.6h44c7.3,0,12.6,1.7,16,5c3.3,3.3,5,8.6,5,16V144c0,7.3-1.7,12.6-5,16c-3.3,3.3-8.6,5-16,5 h-25.1v20.9h-18.8V112.6z M646.8,133.5c0-4.2-2.1-6.3-6.3-6.3h-20.9v23h20.9c4.2,0,6.3-2.1,6.3-6.3V133.5z" class="st2"/><path d="M797.5,184.8c-15.6,1.4-28.5,2.1-38.7,2.1c-6.8,0-11.9-1.6-15.1-4.8c-3.2-3.2-4.8-8.2-4.8-15.1v-33.5 c0-7.3,1.7-12.6,5-16c3.3-3.3,8.6-5,16-5h37.7v14.6H764c-4.2,0-6.3,2.1-6.3,6.3V167c0,1.6,0.5,2.9,1.4,3.8 c0.9,0.9,2.1,1.4,3.6,1.4c1.5,0,3.1,0,4.8-0.1c1.7,0,3.6-0.1,5.4-0.2c1.9-0.1,3.8-0.1,5.7-0.2c1.9-0.1,4.4-0.2,7.4-0.4 c3-0.2,6.8-0.5,11.4-0.7V184.8z" class="st2"/><path d="M824.7,185.8h-18.8v-73.3h18.8v28.8h9.4l16.3-28.8h19.9l-20.5,36.1l20.4,37.2h-19.9L834.2,156h-9.4V185.8z" class="st2"/><polygon points="710.1 112.6 689.2 112.6 661.5 185.8 681.9 185.8 682.2 185.8 690.1 162.8 698.6 137.7 700.7 143.6 702.6 143 709.3 162.8 712.1 170.1 704.2 162.8 701 175.7 697.5 165.3 697.4 165.3 697.4 165.3 694.3 169.7 691.3 166.9 684.9 185.8 717.5 185.8 737.9 185.8" class="st2"/></g></g></g></switch></svg>