<svg xmlns="http://www.w3.org/2000/svg" xmlns:xlink="http://www.w3.org/1999/xlink" id="Layer_1" x="0" y="0" version="1.1" viewBox="0 0 1024 1024" xml:space="preserve" style="enable-background:new 0 0 1024 1024"><style type="text/css">.st0{fill:#fff}</style><path d="M890.4,512c10.3,9.2,19.6,20.1,26.6,32.6c10.9,19,17.4,41.3,17.4,65.2v195c0,48.3-26.1,90.2-65.2,112.5v-308	c0-35.9-29.3-65.2-65.2-65.2H348.8v-65.2h455.8c35.9,0,65.2-29.3,65.2-65.2v-195c-0.5-35.3-29.3-64.1-65.2-64.1H154.3v650.3H89.1	V89.4h715.5c23.9,0,45.6,6.5,65.2,17.4c19.6,11.4,36.4,27.7,47.8,47.8c10.9,19,17.4,41.3,17.4,65.2v195c0,23.9-6.5,45.6-17.4,65.2	C909.9,491.9,901.2,502.8,890.4,512z" class="st0"/><path d="M804.5,642.4v260.2c0,14.1-9.2,26.1-21.7,30.4c-3.3,1.1-7.1,1.6-10.9,1.6H510.1c-16.8,0-31-13.6-31-31V770	c0-16.8,13.6-31,31-31h164.1v65.2H552.5c-4.9,0-8.1,3.8-8.1,8.1v48.3c0,4.9,3.8,8.1,8.1,8.1h179.8c3.8,0,7.1-3.3,7.1-7.1V680.9	c0-3.8-3.3-7.1-7.1-7.1H422.6c-4.9,0-8.1,3.8-8.1,8.1V934h-65.2V639.7c0-16.8,13.6-31,31-31H772	C789.9,609.8,804.5,624.5,804.5,642.4L804.5,642.4z" class="st0"/><path d="M804.5,251.8v129.8c0,17.9-14.7,32.6-32.6,32.6H349.3V349h381.9c4.9,0,8.1-3.8,8.1-8.1v-48.3	c0-4.9-3.8-8.1-8.1-8.1H284.1v650.3h-195v-65.2h129.8V219.2h553C789.9,219.2,804.5,233.9,804.5,251.8z" class="st0"/></svg>