<?xml version="1.0" encoding="utf-8"?>
<!-- Generator: Adobe Illustrator 24.0.0, SVG Export Plug-In . SVG Version: 6.00 Build 0)  -->
<svg version="1.1" id="Layer_1" xmlns="http://www.w3.org/2000/svg" xmlns:xlink="http://www.w3.org/1999/xlink" x="0px" y="0px"
	 viewBox="0 0 205.8 86.1" style="enable-background:new 0 0 205.8 86.1;" xml:space="preserve">
<style type="text/css">
	.st0{fill-rule:evenodd;clip-rule:evenodd;fill:#718096;}
</style>
<g>
	<path class="st0" d="M165.2,23.6c0.5-1.8,0.3-3-0.5-3.6c-0.6-0.5-1.8-0.5-3.4,0c-3.5,1.5-7.1,4.7-10.8,9.6c-5,7.1-8.7,14-11.2,20.8
		l-0.3,0.4c-0.6,0.3-1.5,0.5-2.2,0.3c-0.2-0.1-0.3-0.3-0.3-0.4l1-3.7c0.3-1.5,0.1-2.8-0.6-3.8c-0.5-0.8-1.3-1.1-2.2-1.1
		c-2.8,0.2-5.7,2.2-8.7,6.2c-3,4.2-4.6,8.3-4.9,11.9c0,2.3,0.7,3.8,2.2,4.5c1.7,0.4,3.5-0.1,5.6-1.9c2.2-2.1,4.3-5.2,6.4-9.3
		l0.4-0.4h2.3c0.2,0,0.3,0.1,0.3,0.3c-0.6,2.8-1,4.4-1,4.6c-0.3,1.9-0.2,3.4,0.2,4.8c0.4,1.3,1.2,1.9,2.3,2c1.9,0.2,4-1.2,6.4-4.1
		l0.2-0.1l0.1,0.3c0.1,2.1,0.7,3.3,1.7,3.8c1,0.3,2.1,0.1,3.1-0.4c0.6-0.4,1.5-1,2.7-2.1c0.1-0.1,0.3-0.1,0.3,0.1l0.4,1.2
		c0.1,0.5,0.4,0.9,0.7,1.2c0.8,0.4,1.9,0.3,3.3-0.3c3.1-1.7,6-5.1,8.4-10.1l0.2-0.8l-1.4,0.1l-2.1,3.3c-1,1.3-1.9,2.3-2.8,2.8
		c-0.4,0.1-0.6,0-0.6-0.2c-0.1-0.3,0.1-1,0.6-1.9l7.3-14.7c0.1-0.3,0.1-0.4,0-0.4l-4.3-0.4c-0.2,0-0.3,0.1-0.4,0.3l-0.4,0.4
		c-0.2,0.1-0.4,0.1-0.5-0.1l-0.5-0.3c-1.8-0.8-3.8-0.3-6,1.4c-1.9,1.6-3.9,4-5.8,7.2c-2.4,3.9-4.2,6.5-5.1,7.6
		c-0.8,0.8-1.5,1.2-2,0.9c-0.3-0.1-0.4-0.4-0.4-0.8c0.1-1.5,0.4-3.5,1.2-6l0.4-1.2c0.2-0.4,0.4-0.8,0.6-1l3-2.4
		c3.9-3.5,7.4-7.7,10.8-12.4l0.7-1.4h-0.1c-1,0.1-1.7,0.2-1.9,0.3c-3.4,4.7-6.5,8.3-9.3,10.9c-0.8,0.7-1.3,1-1.5,1
		c-0.1-0.1-0.1-0.1-0.1-0.3c0.3-0.9,1.2-2.8,2.6-5.6c3.4-6.6,6.7-11.8,9.9-15.5c1.5-1.7,2.8-2.8,3.7-3.2c0.4-0.1,0.8,0,0.9,0.1
		c0.1,0.1,0.1,0.4,0.1,1l-0.5,1.9c0,0.1,0,0.1,0.1,0.1C164.5,24.6,165.2,24.2,165.2,23.6L165.2,23.6z M153.2,56.1
		c1.9-4.8,4-8.1,6-10.1l1-0.9c0.4-0.3,0.8-0.3,1.3-0.1c0.2,0.1,0.3,0.4,0.1,1c-1.9,4.6-3.7,8.3-5.5,11c-1.1,1.5-1.9,2.4-2.5,2.7
		c-0.4,0.1-0.6,0.1-0.8-0.1c-0.3-0.3-0.3-0.8-0.3-1.7L153.2,56.1L153.2,56.1z M134.9,44.7c0.3,0.1,0.6,0.4,0.8,0.9
		c0.3,1.3-0.1,2.9-0.9,4.8c-0.2,0.3-0.4,0.3-0.8,0.1c-1.3-0.4-1.9-1.3-2.1-2.5c0.1-1.4,0.6-2.4,1.7-3.1
		C134.1,44.6,134.5,44.6,134.9,44.7L134.9,44.7z M129.9,50.1c0.1-0.1,0.3,0,0.4,0c0.9,1.2,1.9,2,3.1,2.5c0.3,0.1,0.3,0.4,0.1,0.8
		c-1.6,3.1-3.1,5.2-4.6,6.3c-0.6,0.3-1,0.3-1.3,0.2c-0.6-0.3-1-0.7-1-1.5c0-1.2,0.4-2.8,1.3-4.8C128.7,52,129.3,50.8,129.9,50.1
		L129.9,50.1z"/>
	<path class="st0" d="M173.1,21.2c0.3-0.6,0.4-1.2,0.5-1.5c-5,4.9-9.8,7.5-14.4,7.6l-0.3,0.2l-3.5,5c-0.1,0.3-0.1,0.5,0,0.5l1.6,0.1
		c3.4-0.1,6.7-1.2,9.7-3.6C169.6,27.2,171.7,24.4,173.1,21.2L173.1,21.2z"/>
	<path class="st0" d="M132.3,24.1c0.1-0.7,0.2-1,0.3-1.1c3-0.5,6.2,0.4,9.5,2.6l5.8,4c0.2,0.1,0.4,0.1,0.5,0l3.5-4.3
		c0.3-0.3,0.3-0.4,0-0.6c-3.5-2.2-5.7-3.5-6.7-4c-1.9-0.9-4.2-1.3-6.7-1.3c-2.4,0.1-4.6,0.6-6.7,1.5c-0.3,0.1-0.5,0-0.8-0.3
		c-1-0.9-2.4-1.2-4.4-1c-4.7,0.8-9.5,3.7-14.4,8.7c-3.9,3.8-7.2,8.8-10.2,14.9l-1.4,3.3c-2.2,6.4-2.4,11.2-0.8,14.6
		c1.1,2.4,2.9,3.6,5.5,3.9c5,0.4,9.5-2.5,13.5-8.9c2.4-4.3,3.5-7.9,3.1-10.9c-0.3-1.6-1-2.6-2.3-3c-2.4-0.6-4.9,0.6-7.3,3.4
		c-2.7,3.7-3.9,7.4-3.8,11.4l0.1,0.2c1.2-1.3,2.4-2.4,3.8-3.5l2.2-1.4c0.3-2.7,1.2-4.8,2.5-6.4c1-1,1.7-1.3,2.4-1
		c0.5,0.3,0.8,0.9,0.8,1.6l-0.2,2c-0.8,3.9-2.8,7.3-5.8,10.4c-2.8,2.4-5.2,3.1-7.1,2.1c-2-1.4-2.4-4.6-1.3-9.4
		c2.2-7.4,6-14.4,11.6-21.1c4-4.6,7.4-7.3,10.1-8.2l1,0.1c0.1,0.1,0.1,0.2-0.1,0.3c-2.7,2.1-4.8,4.4-6.2,6.9
		c-1.9,3.7-2.3,6.4-1.1,8.3c0.6,0.9,1.5,1.2,2.6,1c1.8-0.5,3.6-2.1,5.5-4.9C131.4,30.4,132.4,27.2,132.3,24.1L132.3,24.1z
		 M129.6,24.8c0.1-0.2,0.4-0.3,0.6-0.3c0.1,0.1,0.1,0.7,0.1,1.8c-0.4,3.7-2,7-4.8,10c-1.1,0.8-2,1.2-2.6,1c-0.5-0.2-0.8-0.6-0.8-1.2
		c0.1-1.9,1-4,2.6-6.5C126.2,27.5,127.8,25.9,129.6,24.8L129.6,24.8z"/>
	<path class="st0" d="M78.6,32.4c-0.4-0.8-1.1-1.2-2-1.3c-1.9-0.2-3.8,0.5-5.6,1.9c-0.6,0.5-2.1,2-4.4,4.6c-1.4,1.3-2.8,2-4.4,2
		c-0.1,0-0.1-0.1-0.3-0.3c1.2-3.6,1-6.2-0.4-7.6c-1-0.8-2.1-1-3.5-0.6c-3.6,1.1-6.9,4.5-10,10.1c-1.2,2.4-1.9,4.6-2.3,6.7
		c-0.3,2.6,0.3,4.5,1.8,5.5s3.4,0.7,5.5-0.8c2.4-1.9,5.1-5.4,7.8-10.5l0.3-0.4l2.6-0.3c0.1,0,0.2,0.1,0.2,0.3
		c-1,2.4-1.7,4.1-1.9,5.3c-0.4,2.2-0.1,3.9,1,5.3c1,1.1,2.3,1.5,3.9,1.4c2.6-0.5,5.5-2.3,8.5-5.3c0.1-0.1,0.3-0.1,0.3,0l-0.1,2
		c0,0.8,0.1,1.5,0.4,1.9c0.3,0.7,0.9,1.2,1.7,1.3c1.6,0.2,3.5-0.7,5.6-2.6c0.1-0.1,0.2,0,0.3,0.1c0.3,1.3,0.6,2.1,1,2.3
		c0.3,0.3,1,0.4,1.9,0.3c2.8-0.7,5.7-3.3,8.7-7.9c1.3-2.4,1.9-3.7,2-3.7h-1.3c-0.3,0-0.6,0.2-0.9,0.6c-0.4,0.9-1,1.9-1.7,3
		c-1.3,1.5-2.2,2.5-2.8,2.8c-0.3,0.1-0.5,0.1-0.6-0.1l0.1-0.6l8.2-16.6L98,31.1L93.7,31c-0.2,0-0.6,0.3-1.2,0.8
		c-0.1,0.1-0.3,0-0.4-0.1l-0.4-0.3c-1.6-0.8-3.5-0.5-5.6,0.9c-1.9,1.4-3.9,3.5-5.7,6.4c-2.7,4-4.3,6.4-4.9,7.1
		c-2.1,2.2-4,3.7-5.6,4.3c-0.8,0.2-1.4,0-1.9-0.6c-0.4-0.6-0.4-1.7-0.1-3.2c0.8-2.7,2.1-5.3,3.7-7.8c1.9-2.7,3.4-4.4,4.8-4.9
		c0.4,0,0.7,0.1,0.9,0.3c0.1,0.4,0,0.6-0.3,0.6l-0.8,0.3c-1.5,1.1-2.2,2.4-1.9,3.9c0.1,0.4,0.4,0.6,0.8,0.8c0.6,0.2,1.3-0.1,2.1-0.7
		C79.1,36.4,79.7,34.4,78.6,32.4L78.6,32.4z M90.7,34.4c0.3,0.2,0.3,0.3,0.4,0.4c-0.1,0.4-0.3,1.2-0.8,2.4c-1.9,4.2-4,7.8-6,10.8
		c-0.8,0.9-1.5,1.3-1.9,1.3l-0.6-0.4c-0.1-0.5,0-1.5,0.4-3l0.6-1.6c2.2-4.8,4.6-8,6.8-9.7C90.1,34.4,90.5,34.4,90.7,34.4L90.7,34.4z
		 M53.7,41l1-1.7l0.4-0.4l0.1,0.1c1,1.1,2.1,1.9,3.4,2.4c0.1,0.1,0.1,0.4-0.1,0.7c-1.5,2.9-3,5-4.7,6.4c-0.6,0.3-1.1,0.5-1.5,0.4
		s-0.8-0.5-0.9-1.2C51.5,46.1,52.3,43.9,53.7,41L53.7,41z M58.9,33.7c0.4-0.2,0.8-0.2,1.2,0c0.7,0.6,1,1.6,0.6,3.1
		c-0.3,0.8-0.5,1.6-0.8,2.2c-0.1,0.1-0.3,0.1-0.8,0.1c-1.3-0.5-2-1.3-2.1-2.4C56.9,35.4,57.6,34.4,58.9,33.7L58.9,33.7z"/>
	<path class="st0" d="M98.2,36.4c0.3,0,1.9,0,4.6,0c0.4,0,0.8-0.3,1-0.8l2.1-4.4l-0.1-0.1H102c-0.8,0.1-1.3,0.2-1.5,0.4l-2.3,4.3
		C98.2,36.1,98.2,36.3,98.2,36.4L98.2,36.4z"/>
	<path class="st0" d="M44.2,27.5c-3.1,3.1-5.8,6.8-8.1,11c-1.2,2.1-2,4-2.6,5.6c-1.2,3.1-1.7,6.2-1.5,9.3c0.2,3.7,1.3,6.5,3.4,8.6
		c2.2,2.5,6,3.5,11.4,3c1.5-0.2,5.5-1.2,11.7-2.8c4.8-1.3,8.8-1.7,12.1-1.3c3.1,0.6,5.3,2.1,6.8,4.4l0.3,0.1
		c3.8-1.8,9.4-1.7,16.9,0.3c0.1,0,0.1,0,0.1-0.1c-1.9-2.8-5.1-5.3-9.6-7.2c-5.7-2.2-12.3-2.4-19.8-0.2l-9.9,3
		c-2.6,0.7-4.7,1.2-6,1.3c-2.4,0.2-4.4-0.1-6.1-1c-3.1-1.7-4.6-4.8-4.2-9.3c0.5-4.2,2.2-9,5.1-14.3c3.7-6.2,7.5-10.8,11.4-13.9
		c1.9-1.3,3.3-1.9,4.2-1.7c0.3,0.1,0.6,0.3,0.8,0.6c0.1,0.4,0.1,0.6-0.1,0.7c-0.8,0.1-1.5,0.4-2.1,1.2c-0.6,0.6-1,1.2-1.1,2
		c-0.2,1-0.1,1.6,0.3,2c0.3,0.3,0.6,0.4,1,0.4c2-0.3,3.1-1.7,3.7-4.4c0.4-1.9,0-3.3-1.2-4.2c-1.1-0.8-3-1-5.5-0.3
		C51.6,21.3,47.9,23.8,44.2,27.5L44.2,27.5z"/>
</g>
</svg>
