<?xml version="1.0" encoding="utf-8"?>
<!-- Generator: Adobe Illustrator 23.1.1, SVG Export Plug-In . SVG Version: 6.00 Build 0)  -->
<svg version="1.1" id="Layer_1" xmlns="http://www.w3.org/2000/svg" xmlns:xlink="http://www.w3.org/1999/xlink" x="0px" y="0px"
	 viewBox="0 0 171.9 71.9" style="enable-background:new 0 0 171.9 71.9;" xml:space="preserve">
<style type="text/css">
	.st0{fill-rule:evenodd;clip-rule:evenodd;fill:#EC1C24;}
</style>
<g>
	<path class="st0" d="M148.2,16.5c0.5-1.8,0.3-3-0.5-3.6c-0.6-0.5-1.8-0.5-3.4,0c-3.5,1.5-7.1,4.7-10.8,9.6c-5,7.1-8.7,14-11.2,20.8
		l-0.3,0.4c-0.6,0.3-1.5,0.5-2.2,0.3c-0.2-0.1-0.3-0.3-0.3-0.4l1-3.7c0.3-1.5,0.1-2.8-0.6-3.8c-0.5-0.8-1.3-1.1-2.2-1.1
		c-2.8,0.2-5.7,2.2-8.7,6.2c-3,4.2-4.6,8.3-4.9,11.9c0,2.3,0.7,3.8,2.2,4.5c1.7,0.4,3.5-0.1,5.6-1.9c2.2-2.1,4.3-5.2,6.4-9.3
		l0.4-0.4h2.3c0.2,0,0.3,0.1,0.3,0.3c-0.6,2.8-1,4.4-1,4.6c-0.3,1.9-0.2,3.4,0.2,4.8c0.4,1.3,1.2,1.9,2.3,2c1.9,0.2,4-1.2,6.4-4.1
		l0.2-0.1l0.1,0.3c0.1,2.1,0.7,3.3,1.7,3.8c1,0.3,2.1,0.1,3.1-0.4c0.6-0.4,1.5-1,2.7-2.1c0.1-0.1,0.3-0.1,0.3,0.1l0.4,1.2
		c0.1,0.5,0.4,0.9,0.7,1.2c0.8,0.4,1.9,0.3,3.3-0.3c3.1-1.7,6-5.1,8.4-10.1l0.2-0.8l-1.4,0.1l-2.1,3.3c-1,1.3-1.9,2.3-2.8,2.8
		c-0.4,0.1-0.6,0-0.6-0.2c-0.1-0.3,0.1-1,0.6-1.9l7.3-14.7c0.1-0.3,0.1-0.4,0-0.4L147,35c-0.2,0-0.3,0.1-0.4,0.3l-0.4,0.4
		c-0.2,0.1-0.4,0.1-0.5-0.1l-0.5-0.3c-1.8-0.8-3.8-0.3-6,1.4c-1.9,1.6-3.9,4-5.8,7.2c-2.4,3.9-4.2,6.5-5.1,7.6
		c-0.8,0.8-1.5,1.2-2,0.9c-0.3-0.1-0.4-0.4-0.4-0.8c0.1-1.5,0.4-3.5,1.2-6l0.4-1.2c0.2-0.4,0.4-0.8,0.6-1l3-2.4
		c3.9-3.5,7.4-7.7,10.8-12.4l0.7-1.4h-0.1c-1,0.1-1.7,0.2-1.9,0.3c-3.4,4.7-6.5,8.3-9.3,10.9c-0.8,0.7-1.3,1-1.5,1
		c-0.1-0.1-0.1-0.1-0.1-0.3c0.3-0.9,1.2-2.8,2.6-5.6c3.4-6.6,6.7-11.8,9.9-15.5c1.5-1.7,2.8-2.8,3.7-3.2c0.4-0.1,0.8,0,0.9,0.1
		c0.1,0.1,0.1,0.4,0.1,1l-0.5,1.9c0,0.1,0,0.1,0.1,0.1C147.5,17.5,148.2,17.1,148.2,16.5L148.2,16.5z M136.2,49
		c1.9-4.8,4-8.1,6-10.1l1-0.9c0.4-0.3,0.8-0.3,1.3-0.1c0.2,0.1,0.3,0.4,0.1,1c-1.9,4.6-3.7,8.3-5.5,11c-1.1,1.5-1.9,2.4-2.5,2.7
		c-0.4,0.1-0.6,0.1-0.8-0.1c-0.3-0.3-0.3-0.8-0.3-1.7L136.2,49L136.2,49z M117.9,37.6c0.3,0.1,0.6,0.4,0.8,0.9
		c0.3,1.3-0.1,2.9-0.9,4.8c-0.2,0.3-0.4,0.3-0.8,0.1c-1.3-0.4-1.9-1.3-2.1-2.5c0.1-1.4,0.6-2.4,1.7-3.1
		C117.1,37.5,117.5,37.5,117.9,37.6L117.9,37.6z M112.9,43c0.1-0.1,0.3,0,0.4,0c0.9,1.2,1.9,2,3.1,2.5c0.3,0.1,0.3,0.4,0.1,0.8
		c-1.6,3.1-3.1,5.2-4.6,6.3c-0.6,0.3-1,0.3-1.3,0.2c-0.6-0.3-1-0.7-1-1.5c0-1.2,0.4-2.8,1.3-4.8C111.7,44.9,112.3,43.7,112.9,43
		L112.9,43z"/>
	<path class="st0" d="M156.1,14.1c0.3-0.6,0.4-1.2,0.5-1.5c-5,4.9-9.8,7.5-14.4,7.6l-0.3,0.2l-3.5,5c-0.1,0.3-0.1,0.5,0,0.5L140,26
		c3.4-0.1,6.7-1.2,9.7-3.6C152.6,20.1,154.7,17.3,156.1,14.1L156.1,14.1z"/>
	<path class="st0" d="M115.3,17c0.1-0.7,0.2-1,0.3-1.1c3-0.5,6.2,0.4,9.5,2.6l5.8,4c0.2,0.1,0.4,0.1,0.5,0l3.5-4.3
		c0.3-0.3,0.3-0.4,0-0.6c-3.5-2.2-5.7-3.5-6.7-4c-1.9-0.9-4.2-1.3-6.7-1.3c-2.4,0.1-4.6,0.6-6.7,1.5c-0.3,0.1-0.5,0-0.8-0.3
		c-1-0.9-2.4-1.2-4.4-1c-4.7,0.8-9.5,3.7-14.4,8.7C91.3,25,88,30,85,36.1l-1.4,3.3c-2.2,6.4-2.4,11.2-0.8,14.6
		c1.1,2.4,2.9,3.6,5.5,3.9c5,0.4,9.5-2.5,13.5-8.9c2.4-4.3,3.5-7.9,3.1-10.9c-0.3-1.6-1-2.6-2.3-3c-2.4-0.6-4.9,0.6-7.3,3.4
		c-2.7,3.7-3.9,7.4-3.8,11.4l0.1,0.2c1.2-1.3,2.4-2.4,3.8-3.5l2.2-1.4c0.3-2.7,1.2-4.8,2.5-6.4c1-1,1.7-1.3,2.4-1
		c0.5,0.3,0.8,0.9,0.8,1.6l-0.2,2c-0.8,3.9-2.8,7.3-5.8,10.4c-2.8,2.4-5.2,3.1-7.1,2.1c-2-1.4-2.4-4.6-1.3-9.4
		c2.2-7.4,6-14.4,11.6-21.1c4-4.6,7.4-7.3,10.1-8.2l1,0.1c0.1,0.1,0.1,0.2-0.1,0.3c-2.7,2.1-4.8,4.4-6.2,6.9
		c-1.9,3.7-2.3,6.4-1.1,8.3c0.6,0.9,1.5,1.2,2.6,1c1.8-0.5,3.6-2.1,5.5-4.9C114.4,23.3,115.4,20.1,115.3,17L115.3,17z M112.6,17.7
		c0.1-0.2,0.4-0.3,0.6-0.3c0.1,0.1,0.1,0.7,0.1,1.8c-0.4,3.7-2,7-4.8,10c-1.1,0.8-2,1.2-2.6,1c-0.5-0.2-0.8-0.6-0.8-1.2
		c0.1-1.9,1-4,2.6-6.5C109.2,20.4,110.8,18.8,112.6,17.7L112.6,17.7z"/>
	<path class="st0" d="M61.6,25.3c-0.4-0.8-1.1-1.2-2-1.3c-1.9-0.2-3.8,0.5-5.6,1.9c-0.6,0.5-2.1,2-4.4,4.6c-1.4,1.3-2.8,2-4.4,2
		c-0.1,0-0.1-0.1-0.3-0.3c1.2-3.6,1-6.2-0.4-7.6c-1-0.8-2.1-1-3.5-0.6c-3.6,1.1-6.9,4.5-10,10.1c-1.2,2.4-1.9,4.6-2.3,6.7
		c-0.3,2.6,0.3,4.5,1.8,5.5s3.4,0.7,5.5-0.8c2.4-1.9,5.1-5.4,7.8-10.5l0.3-0.4l2.6-0.3c0.1,0,0.2,0.1,0.2,0.3
		c-1,2.4-1.7,4.1-1.9,5.3c-0.4,2.2-0.1,3.9,1,5.3c1,1.1,2.3,1.5,3.9,1.4c2.6-0.5,5.5-2.3,8.5-5.3c0.1-0.1,0.3-0.1,0.3,0l-0.1,2
		c0,0.8,0.1,1.5,0.4,1.9c0.3,0.7,0.9,1.2,1.7,1.3c1.6,0.2,3.5-0.7,5.6-2.6c0.1-0.1,0.2,0,0.3,0.1c0.3,1.3,0.6,2.1,1,2.3
		c0.3,0.3,1,0.4,1.9,0.3c2.8-0.7,5.7-3.3,8.7-7.9c1.3-2.4,1.9-3.7,2-3.7l-1.3,0c-0.3,0-0.6,0.2-0.9,0.6c-0.4,0.9-1,1.9-1.7,3
		c-1.3,1.5-2.2,2.5-2.8,2.8c-0.3,0.1-0.5,0.1-0.6-0.1l0.1-0.6l8.2-16.6L81,24l-4.3-0.1c-0.2,0-0.6,0.3-1.2,0.8
		c-0.1,0.1-0.3,0-0.4-0.1l-0.4-0.3c-1.6-0.8-3.5-0.5-5.6,0.9c-1.9,1.4-3.9,3.5-5.7,6.4c-2.7,4-4.3,6.4-4.9,7.1
		c-2.1,2.2-4,3.7-5.6,4.3c-0.8,0.2-1.4,0-1.9-0.6c-0.4-0.6-0.4-1.7-0.1-3.2c0.8-2.7,2.1-5.3,3.7-7.8c1.9-2.7,3.4-4.4,4.8-4.9
		c0.4,0,0.7,0.1,0.9,0.3c0.1,0.4,0,0.6-0.3,0.6l-0.8,0.3c-1.5,1.1-2.2,2.4-1.9,3.9c0.1,0.4,0.4,0.6,0.8,0.8c0.6,0.2,1.3-0.1,2.1-0.7
		C62.1,29.3,62.7,27.3,61.6,25.3L61.6,25.3z M73.7,27.3c0.3,0.2,0.3,0.3,0.4,0.4c-0.1,0.4-0.3,1.2-0.8,2.4c-1.9,4.2-4,7.8-6,10.8
		c-0.8,0.9-1.5,1.3-1.9,1.3l-0.6-0.4c-0.1-0.5,0-1.5,0.4-3l0.6-1.6c2.2-4.8,4.6-8,6.8-9.7C73.1,27.3,73.5,27.3,73.7,27.3L73.7,27.3z
		 M36.7,33.9l1-1.7l0.4-0.4l0.1,0.1c1,1.1,2.1,1.9,3.4,2.4c0.1,0.1,0.1,0.4-0.1,0.7c-1.5,2.9-3,5-4.7,6.4c-0.6,0.3-1.1,0.5-1.5,0.4
		s-0.8-0.5-0.9-1.2C34.5,39,35.3,36.8,36.7,33.9L36.7,33.9z M41.9,26.6c0.4-0.2,0.8-0.2,1.2,0c0.7,0.6,1,1.6,0.6,3.1
		c-0.3,0.8-0.5,1.6-0.8,2.2C42.8,32,42.6,32,42.1,32c-1.3-0.5-2-1.3-2.1-2.4C39.9,28.3,40.6,27.3,41.9,26.6L41.9,26.6z"/>
	<path class="st0" d="M81.2,29.3c0.3,0,1.9,0,4.6,0c0.4,0,0.8-0.3,1-0.8l2.1-4.4L88.8,24H85c-0.8,0.1-1.3,0.2-1.5,0.4l-2.3,4.3
		C81.2,29,81.2,29.2,81.2,29.3L81.2,29.3z"/>
	<path class="st0" d="M27.2,20.4c-3.1,3.1-5.8,6.8-8.1,11c-1.2,2.1-2,4-2.6,5.6c-1.2,3.1-1.7,6.2-1.5,9.3c0.2,3.7,1.3,6.5,3.4,8.6
		c2.2,2.5,6,3.5,11.4,3c1.5-0.2,5.5-1.2,11.7-2.8c4.8-1.3,8.8-1.7,12.1-1.3c3.1,0.6,5.3,2.1,6.8,4.4l0.3,0.1
		c3.8-1.8,9.4-1.7,16.9,0.3c0.1,0,0.1,0,0.1-0.1c-1.9-2.8-5.1-5.3-9.6-7.2c-5.7-2.2-12.3-2.4-19.8-0.2l-9.9,3
		c-2.6,0.7-4.7,1.2-6,1.3c-2.4,0.2-4.4-0.1-6.1-1c-3.1-1.7-4.6-4.8-4.2-9.3c0.5-4.2,2.2-9,5.1-14.3c3.7-6.2,7.5-10.8,11.4-13.9
		c1.9-1.3,3.3-1.9,4.2-1.7c0.3,0.1,0.6,0.3,0.8,0.6c0.1,0.4,0.1,0.6-0.1,0.7c-0.8,0.1-1.5,0.4-2.1,1.2c-0.6,0.6-1,1.2-1.1,2
		c-0.2,1-0.1,1.6,0.3,2c0.3,0.3,0.6,0.4,1,0.4c2-0.3,3.1-1.7,3.7-4.4c0.4-1.9,0-3.3-1.2-4.2c-1.1-0.8-3-1-5.5-0.3
		C34.6,14.2,30.9,16.7,27.2,20.4L27.2,20.4z"/>
</g>
</svg>
