<svg xmlns="http://www.w3.org/2000/svg" viewBox="0 0 171.9 71.9"><g fill="#ec1c24" fill-rule="evenodd" clip-rule="evenodd"><path d="M148.2 16.5c.5-1.8.3-3-.5-3.6-.6-.5-1.8-.5-3.4 0q-5.25 2.25-10.8 9.6c-5 7.1-8.7 14-11.2 20.8l-.3.4c-.6.3-1.5.5-2.2.3-.2-.1-.3-.3-.3-.4l1-3.7c.3-1.5.1-2.8-.6-3.8-.5-.8-1.3-1.1-2.2-1.1-2.8.2-5.7 2.2-8.7 6.2-3 4.2-4.6 8.3-4.9 11.9 0 2.3.7 3.8 2.2 4.5 1.7.4 3.5-.1 5.6-1.9 2.2-2.1 4.3-5.2 6.4-9.3l.4-.4h2.3q.3 0 .3.3c-.6 2.8-1 4.4-1 4.6-.3 1.9-.2 3.4.2 4.8.4 1.3 1.2 1.9 2.3 2 1.9.2 4-1.2 6.4-4.1l.2-.1.1.3c.1 2.1.7 3.3 1.7 3.8 1 .3 2.1.1 3.1-.4.6-.4 1.5-1 2.7-2.1.1-.1.3-.1.3.1l.4 1.2c.1.5.4.9.7 1.2q1.2.6 3.3-.3c3.1-1.7 6-5.1 8.4-10.1l.2-.8-1.4.1-2.1 3.3c-1 1.3-1.9 2.3-2.8 2.8-.4.1-.6 0-.6-.2-.1-.3.1-1 .6-1.9l7.3-14.7c.1-.3.1-.4 0-.4L147 35c-.2 0-.3.1-.4.3l-.4.4c-.2.1-.4.1-.5-.1l-.5-.3c-1.8-.8-3.8-.3-6 1.4-1.9 1.6-3.9 4-5.8 7.2-2.4 3.9-4.2 6.5-5.1 7.6-.8.8-1.5 1.2-2 .9-.3-.1-.4-.4-.4-.8.1-1.5.4-3.5 1.2-6l.4-1.2c.2-.4.4-.8.6-1l3-2.4c3.9-3.5 7.4-7.7 10.8-12.4l.7-1.4h-.1c-1 .1-1.7.2-1.9.3-3.4 4.7-6.5 8.3-9.3 10.9-.8.7-1.3 1-1.5 1-.1-.1-.1-.1-.1-.3.3-.9 1.2-2.8 2.6-5.6 3.4-6.6 6.7-11.8 9.9-15.5 1.5-1.7 2.8-2.8 3.7-3.2.4-.1.8 0 .9.1s.1.4.1 1l-.5 1.9c0 .1 0 .1.1.1 1-.4 1.7-.8 1.7-1.4m-12 32.5c1.9-4.8 4-8.1 6-10.1l1-.9c.4-.3.8-.3 1.3-.1.2.1.3.4.1 1-1.9 4.6-3.7 8.3-5.5 11-1.1 1.5-1.9 2.4-2.5 2.7-.4.1-.6.1-.8-.1-.3-.3-.3-.8-.3-1.7zm-18.3-11.4c.3.1.6.4.8.9.3 1.3-.1 2.9-.9 4.8-.2.3-.4.3-.8.1-1.3-.4-1.9-1.3-2.1-2.5.1-1.4.6-2.4 1.7-3.1.5-.3.9-.3 1.3-.2m-5 5.4c.1-.1.3 0 .4 0 .9 1.2 1.9 2 3.1 2.5.3.1.3.4.1.8-1.6 3.1-3.1 5.2-4.6 6.3-.6.3-1 .3-1.3.2-.6-.3-1-.7-1-1.5 0-1.2.4-2.8 1.3-4.8.8-1.6 1.4-2.8 2-3.5"/><path d="M156.1 14.1c.3-.6.4-1.2.5-1.5-5 4.9-9.8 7.5-14.4 7.6l-.3.2-3.5 5c-.1.3-.1.5 0 .5l1.6.1c3.4-.1 6.7-1.2 9.7-3.6 2.9-2.3 5-5.1 6.4-8.3M115.3 17c.1-.7.2-1 .3-1.1 3-.5 6.2.4 9.5 2.6l5.8 4c.2.1.4.1.5 0l3.5-4.3c.3-.3.3-.4 0-.6-3.5-2.2-5.7-3.5-6.7-4-1.9-.9-4.2-1.3-6.7-1.3-2.4.1-4.6.6-6.7 1.5-.3.1-.5 0-.8-.3-1-.9-2.4-1.2-4.4-1q-7.05 1.2-14.4 8.7C91.3 25 88 30 85 36.1l-1.4 3.3c-2.2 6.4-2.4 11.2-.8 14.6 1.1 2.4 2.9 3.6 5.5 3.9 5 .4 9.5-2.5 13.5-8.9 2.4-4.3 3.5-7.9 3.1-10.9-.3-1.6-1-2.6-2.3-3-2.4-.6-4.9.6-7.3 3.4-2.7 3.7-3.9 7.4-3.8 11.4l.1.2c1.2-1.3 2.4-2.4 3.8-3.5l2.2-1.4c.3-2.7 1.2-4.8 2.5-6.4 1-1 1.7-1.3 2.4-1 .5.3.8.9.8 1.6l-.2 2c-.8 3.9-2.8 7.3-5.8 10.4-2.8 2.4-5.2 3.1-7.1 2.1-2-1.4-2.4-4.6-1.3-9.4 2.2-7.4 6-14.4 11.6-21.1 4-4.6 7.4-7.3 10.1-8.2l1 .1c.1.1.1.2-.1.3-2.7 2.1-4.8 4.4-6.2 6.9-1.9 3.7-2.3 6.4-1.1 8.3.6.9 1.5 1.2 2.6 1 1.8-.5 3.6-2.1 5.5-4.9 2.1-3.6 3.1-6.8 3-9.9m-2.7.7c.1-.2.4-.3.6-.3.1.1.1.7.1 1.8-.4 3.7-2 7-4.8 10-1.1.8-2 1.2-2.6 1-.5-.2-.8-.6-.8-1.2.1-1.9 1-4 2.6-6.5 1.5-2.1 3.1-3.7 4.9-4.8m-51 7.6c-.4-.8-1.1-1.2-2-1.3-1.9-.2-3.8.5-5.6 1.9-.6.5-2.1 2-4.4 4.6-1.4 1.3-2.8 2-4.4 2-.1 0-.1-.1-.3-.3 1.2-3.6 1-6.2-.4-7.6-1-.8-2.1-1-3.5-.6-3.6 1.1-6.9 4.5-10 10.1-1.2 2.4-1.9 4.6-2.3 6.7-.3 2.6.3 4.5 1.8 5.5s3.4.7 5.5-.8c2.4-1.9 5.1-5.4 7.8-10.5l.3-.4 2.6-.3c.1 0 .2.1.2.3-1 2.4-1.7 4.1-1.9 5.3-.4 2.2-.1 3.9 1 5.3 1 1.1 2.3 1.5 3.9 1.4 2.6-.5 5.5-2.3 8.5-5.3.1-.1.3-.1.3 0l-.1 2c0 .8.1 1.5.4 1.9.3.7.9 1.2 1.7 1.3 1.6.2 3.5-.7 5.6-2.6.1-.1.2 0 .3.1.3 1.3.6 2.1 1 2.3.3.3 1 .4 1.9.3 2.8-.7 5.7-3.3 8.7-7.9 1.3-2.4 1.9-3.7 2-3.7h-1.3q-.45 0-.9.6c-.4.9-1 1.9-1.7 3-1.3 1.5-2.2 2.5-2.8 2.8-.3.1-.5.1-.6-.1l.1-.6 8.2-16.6-.2-.1-4.3-.1c-.2 0-.6.3-1.2.8-.1.1-.3 0-.4-.1l-.4-.3c-1.6-.8-3.5-.5-5.6.9-1.9 1.4-3.9 3.5-5.7 6.4-2.7 4-4.3 6.4-4.9 7.1-2.1 2.2-4 3.7-5.6 4.3-.8.2-1.4 0-1.9-.6-.4-.6-.4-1.7-.1-3.2.8-2.7 2.1-5.3 3.7-7.8 1.9-2.7 3.4-4.4 4.8-4.9q.6 0 .9.3.15.6-.3.6l-.8.3c-1.5 1.1-2.2 2.4-1.9 3.9.1.4.4.6.8.8.6.2 1.3-.1 2.1-.7 1.9-2.4 2.5-4.4 1.4-6.4m12.1 2c.3.2.3.3.4.4-.1.4-.3 1.2-.8 2.4-1.9 4.2-4 7.8-6 10.8-.8.9-1.5 1.3-1.9 1.3l-.6-.4c-.1-.5 0-1.5.4-3l.6-1.6c2.2-4.8 4.6-8 6.8-9.7.5-.2.9-.2 1.1-.2m-37 6.6 1-1.7.4-.4.1.1c1 1.1 2.1 1.9 3.4 2.4.1.1.1.4-.1.7-1.5 2.9-3 5-4.7 6.4-.6.3-1.1.5-1.5.4s-.8-.5-.9-1.2c.1-1.6.9-3.8 2.3-6.7m5.2-7.3q.6-.3 1.2 0c.7.6 1 1.6.6 3.1-.3.8-.5 1.6-.8 2.2-.1.1-.3.1-.8.1q-1.95-.75-2.1-2.4c-.1-1.3.6-2.3 1.9-3m39.3 2.7h4.6c.4 0 .8-.3 1-.8l2.1-4.4-.1-.1H85c-.8.1-1.3.2-1.5.4l-2.3 4.3z"/><path d="M27.2 20.4c-3.1 3.1-5.8 6.8-8.1 11-1.2 2.1-2 4-2.6 5.6q-1.8 4.65-1.5 9.3c.2 3.7 1.3 6.5 3.4 8.6q3.3 3.75 11.4 3c1.5-.2 5.5-1.2 11.7-2.8 4.8-1.3 8.8-1.7 12.1-1.3 3.1.6 5.3 2.1 6.8 4.4l.3.1c3.8-1.8 9.4-1.7 16.9.3.1 0 .1 0 .1-.1-1.9-2.8-5.1-5.3-9.6-7.2-5.7-2.2-12.3-2.4-19.8-.2l-9.9 3c-2.6.7-4.7 1.2-6 1.3-2.4.2-4.4-.1-6.1-1-3.1-1.7-4.6-4.8-4.2-9.3.5-4.2 2.2-9 5.1-14.3 3.7-6.2 7.5-10.8 11.4-13.9 1.9-1.3 3.3-1.9 4.2-1.7.3.1.6.3.8.6.1.4.1.6-.1.7-.8.1-1.5.4-2.1 1.2-.6.6-1 1.2-1.1 2-.2 1-.1 1.6.3 2 .3.3.6.4 1 .4 2-.3 3.1-1.7 3.7-4.4q.6-2.85-1.2-4.2c-1.1-.8-3-1-5.5-.3-4 1-7.7 3.5-11.4 7.2"/></g></svg>