<svg xmlns="http://www.w3.org/2000/svg" xmlns:xlink="http://www.w3.org/1999/xlink" id="Layer_1" x="0" y="0" version="1.1" viewBox="0 0 205.8 86.1" style="enable-background:new 0 0 205.8 86.1" xml:space="preserve"><style type="text/css">.st0{fill:#718096}</style><g id="layer1" transform="translate(5.6925923,-37.490243)"><g id="g4698"><g transform="matrix(0.35277777,0,0,-0.35277777,-147.98392,223.16779)"><g id="g4700"><g id="g4706" transform="translate(426.6875,523.2122)"><path id="path4708" d="M155.4-48.9c-16.6,12-38.5,16.4-59.6,9.9L47.5-53.8v-28.1L155.4-48.9z" class="st0"/></g><g id="g4710" transform="translate(431.7218,516.6655)"><path id="path4712" d="M174-73.1c-3.5,9-8.7,17-15.2,23.5L42.5-85.2v-28.1L174-73.1z" class="st0"/></g><g id="g4714" transform="translate(432.4302,508.796)"><path id="path4716" d="M176.6-102.2c1.7,9,1.6,18.5-0.6,28L41.8-115.3v-28.1L176.6-102.2z" class="st0"/></g><g id="g4718" transform="translate(422.4458,497.6579)"><path id="path4720" d="M139.7-143.4c21.1,6.5,36.8,22.3,43.9,41.6L51.8-142.2v-28.1L139.7-143.4z" class="st0"/></g><g id="g4722" transform="translate(443.3549,513.538)"><path id="path4724" d="M217-84.7c7.6,0,11.8,4.8,11.8,12.5c0,7.7-4.2,12.6-11.8,12.6h-4.9v-25.1H217z M200.4-49.4 h17.2c14.4,0,23.1-8.9,23.1-22.8c0-13.9-8.7-22.8-23.1-22.8h-17.2V-49.4z" class="st0"/></g><g id="g4726" transform="translate(452.7237,516.5774)"><path id="path4728" d="M251.7-73.4c-3.6,0-5.6-3.3-5.6-7.9s2-7.8,5.6-7.8c3.6,0,5.6,3.2,5.6,7.8 S255.3-73.4,251.7-73.4 M251.7-98.8c-10.1,0-17.1,7.1-17.1,17.5c0,10.3,7,17.5,17.1,17.5c10.2,0,17.1-7.1,17.1-17.5 C268.8-91.7,261.8-98.8,251.7-98.8" class="st0"/></g><g id="g4730" transform="translate(465.8156,518.6196)"><path id="path4732" d="M300.1-65.9c7,0,11.3-4.8,11.3-12.3v-21.9h-11.7V-81c0,2.8-1.2,4.8-3.8,4.8 c-2,0-3.7-1.3-4.3-3.6v-20.4H280V-81c0,2.8-1.2,4.8-3.8,4.8c-2,0-3.8-1.3-4.3-3.6v-20.4h-11.7v33.5h11.7v-2.7 c1.7,2.1,4.9,3.5,8.6,3.5c4.2,0,7.2-1.6,9.2-4C291.7-67.8,295.1-65.9,300.1-65.9" class="st0"/></g><path id="path4734" d="M795.2,418.5h-11.7V452h11.7V418.5z" class="st0"/><g id="g4736" transform="translate(473.4015,518.4611)"><path id="path4738" d="M328.1-66.5h11.7v-2.9c1.9,2.1,5.1,3.6,9,3.6c7.4,0,11.8-4.8,11.8-12.3v-21.9H349v19.1 c0,2.8-1.4,4.8-4.4,4.8c-2.3,0-4.2-1.3-4.8-3.6v-20.2h-11.7V-66.5z" class="st0"/></g><path id="path4740" d="M852,418.5h-11.7V452H852V418.5z" class="st0"/><g id="g4742" transform="translate(488.7543,516.5774)"><path id="path4744" d="M384.9-73.4c-3.6,0-5.6-3.3-5.6-7.9s2-7.8,5.6-7.8c3.6,0,5.7,3.2,5.7,7.8 S388.5-73.4,384.9-73.4 M384.9-98.8c-10.1,0-17.1,7.1-17.1,17.5c0,10.3,7,17.5,17.1,17.5c10.2,0,17.1-7.1,17.1-17.5 C402-91.7,395.1-98.8,384.9-98.8" class="st0"/></g><g id="g4746" transform="translate(493.3612,518.4611)"><path id="path4748" d="M401.9-66.5h11.7v-2.9c1.9,2.1,5.1,3.6,9,3.6c7.4,0,11.8-4.8,11.8-12.3v-21.9h-11.6v19.1 c0,2.8-1.4,4.8-4.4,4.8c-2.3,0-4.2-1.3-4.8-3.6v-20.2h-11.7V-66.5z" class="st0"/></g><path id="path4750" d="M852,455.9h-11.7v8.3H852V455.9z" class="st0"/><path id="path4752" d="M795.2,455.9h-11.7v8.3h11.7V455.9z" class="st0"/><g id="g4754" transform="translate(448.0387,506.8202)"><path id="path4756" d="M234.3-109.5H246v-2.9c1.9,2.1,5.1,3.6,9,3.6c7.4,0,11.8-4.8,11.8-12.3V-143h-11.6v19.1 c0,2.8-1.4,4.8-4.4,4.8c-2.3,0-4.2-1.3-4.8-3.6V-143h-11.7V-109.5z" class="st0"/></g><g id="g4758" transform="translate(468.8923,504.638)"><path id="path4760" d="M311.4-117.6c-1.6,0.7-2.8,1-4.6,1c-2.8,0-5.7-1.6-6.2-4.6v-19.6H289v33.5h11.7v-3 c1.6,2.2,4.2,3.7,7.6,3.7c1.5,0,2.7-0.3,3.2-0.6V-117.6z" class="st0"/></g><g id="g4762" transform="translate(479.0393,496.9632)"><path id="path4764" d="M348.9-146l5.2,13.7l-12.5,32.6h12.1l6.4-19l6.2,19h11.6L360.5-146H348.9z" class="st0"/></g><g id="g4766" transform="translate(473.1576,501.8524)"><path id="path4768" d="M327.2-127.9c-4.6,0-6.6,3.5-6.6,7.7s1.8,7.6,6.2,7.6c2.2,0,4.7-1.7,5.6-3.2v-8.8 C331.5-126.1,329.5-127.9,327.2-127.9 M343.9-104.5h-11.5v-2.5c-1.5,1.8-4.2,3.3-7.9,3.3c-9.4,0-14.8-7.2-14.8-16.4 s5.4-16.5,14.8-16.5c3.3,0,5.8,1.3,7.4,2.8c0,0,0.2,0.2,0.3,0.3l0-2.5c-0.2-4.4-4-6.5-8.3-6.5c-4.6,0-8.3,1.2-11.7,4.1v-10.1 c3.2-2.2,7.4-2.8,12-2.8c10.7,0,19.6,5.3,19.6,17.7L343.9-104.5z" class="st0"/></g><g id="g4770" transform="translate(442.3101,503.5744)"><path id="path4772" d="M213.2-121.5h17.7v10h-17.7v7.1h20.9v10.3h-32.6v-45.7h32.6v10.3h-20.9V-121.5z" class="st0"/></g><g id="g4774" transform="translate(458.3193,504.0173)"><path id="path4776" d="M272.3-119.9c0.4,3.9,3.3,5.7,5.8,5.7c2.5,0,5.5-1.7,6-5.7H272.3z M278.1-105.8 c-10,0-17-7.8-17-17.6c0-12.2,7.3-17.7,18.4-17.7c5,0,9,1,12.1,2.5v8.3c-3.8-2.1-7.4-2.6-10.1-2.6c-5.3,0-8.8,2.4-9.1,6.7H295 c0.1,0.8,0.1,1.3,0.1,2C295.1-114.3,289.7-105.8,278.1-105.8" class="st0"/></g><g id="g4778" transform="translate(487.6378,507.5699)"><path id="path4780" d="M380.7-106.7c-3.7,0-6.7-3-6.7-6.7s3-6.7,6.7-6.7c3.7,0,6.8,3,6.8,6.7 S384.5-106.7,380.7-106.7 M380.7-119.4c-3.3,0-5.9,2.6-5.9,5.9c0,3.3,2.6,5.9,5.9,5.9s5.9-2.7,5.9-5.9S384-119.4,380.7-119.4" class="st0"/></g><g id="g4782" transform="translate(488.2411,506.4686)"><path id="path4784" d="M383-110.8c0,1.1-0.6,1.7-2.3,1.7h-2.9v-6.6h0.7v3h1.5l1.9-3h1l-2,3 C382.1-112.6,383-112.1,383-110.8 M379.8-111.9h-1.3v2.1h1.9c0.8,0,1.8-0.1,1.8-1C382.2-112,380.7-111.9,379.8-111.9" class="st0"/></g></g></g></g></g></svg>