<svg xmlns="http://www.w3.org/2000/svg" xml:space="preserve" id="Layer_1" x="0" y="0" viewBox="0 0 205.8 86.1"><style>.st0{fill:#718096}</style><g id="layer1" transform="translate(5.693 -37.49)"><g id="g4698" transform="matrix(.35278 0 0 -.35278 -147.984 223.168)"><g id="g4700"><g id="g4706" transform="translate(426.688 523.212)"><path id="path4708" d="M155.4-48.9c-16.6 12-38.5 16.4-59.6 9.9L47.5-53.8v-28.1z" class="st0"/></g><g id="g4710" transform="translate(431.722 516.665)"><path id="path4712" d="M174-73.1c-3.5 9-8.7 17-15.2 23.5L42.5-85.2v-28.1z" class="st0"/></g><g id="g4714" transform="translate(432.43 508.796)"><path id="path4716" d="M176.6-102.2c1.7 9 1.6 18.5-.6 28L41.8-115.3v-28.1z" class="st0"/></g><g id="g4718" transform="translate(422.446 497.658)"><path id="path4720" d="M139.7-143.4c21.1 6.5 36.8 22.3 43.9 41.6L51.8-142.2v-28.1z" class="st0"/></g><g id="g4722" transform="translate(443.355 513.538)"><path id="path4724" d="M217-84.7c7.6 0 11.8 4.8 11.8 12.5s-4.2 12.6-11.8 12.6h-4.9v-25.1zm-16.6 35.3h17.2c14.4 0 23.1-8.9 23.1-22.8S232-95 217.6-95h-17.2z" class="st0"/></g><g id="g4726" transform="translate(452.724 516.577)"><path id="path4728" d="M251.7-73.4c-3.6 0-5.6-3.3-5.6-7.9s2-7.8 5.6-7.8 5.6 3.2 5.6 7.8-2 7.9-5.6 7.9m0-25.4c-10.1 0-17.1 7.1-17.1 17.5 0 10.3 7 17.5 17.1 17.5 10.2 0 17.1-7.1 17.1-17.5s-7-17.5-17.1-17.5" class="st0"/></g><g id="g4730" transform="translate(465.816 518.62)"><path id="path4732" d="M300.1-65.9c7 0 11.3-4.8 11.3-12.3v-21.9h-11.7V-81c0 2.8-1.2 4.8-3.8 4.8-2 0-3.7-1.3-4.3-3.6v-20.4H280V-81c0 2.8-1.2 4.8-3.8 4.8-2 0-3.8-1.3-4.3-3.6v-20.4h-11.7v33.5h11.7v-2.7c1.7 2.1 4.9 3.5 8.6 3.5 4.2 0 7.2-1.6 9.2-4 2 2.1 5.4 4 10.4 4" class="st0"/></g><path id="path4734" d="M795.2 418.5h-11.7V452h11.7z" class="st0"/><g id="g4736" transform="translate(473.401 518.461)"><path id="path4738" d="M328.1-66.5h11.7v-2.9c1.9 2.1 5.1 3.6 9 3.6 7.4 0 11.8-4.8 11.8-12.3V-100H349v19.1c0 2.8-1.4 4.8-4.4 4.8-2.3 0-4.2-1.3-4.8-3.6v-20.2h-11.7z" class="st0"/></g><path id="path4740" d="M852 418.5h-11.7V452H852z" class="st0"/><g id="g4742" transform="translate(488.754 516.577)"><path id="path4744" d="M384.9-73.4c-3.6 0-5.6-3.3-5.6-7.9s2-7.8 5.6-7.8 5.7 3.2 5.7 7.8-2.1 7.9-5.7 7.9m0-25.4c-10.1 0-17.1 7.1-17.1 17.5 0 10.3 7 17.5 17.1 17.5 10.2 0 17.1-7.1 17.1-17.5s-6.9-17.5-17.1-17.5" class="st0"/></g><g id="g4746" transform="translate(493.361 518.461)"><path id="path4748" d="M401.9-66.5h11.7v-2.9c1.9 2.1 5.1 3.6 9 3.6 7.4 0 11.8-4.8 11.8-12.3V-100h-11.6v19.1c0 2.8-1.4 4.8-4.4 4.8-2.3 0-4.2-1.3-4.8-3.6v-20.2h-11.7z" class="st0"/></g><path id="path4750" d="M852 455.9h-11.7v8.3H852z" class="st0"/><path id="path4752" d="M795.2 455.9h-11.7v8.3h11.7z" class="st0"/><g id="g4754" transform="translate(448.039 506.82)"><path id="path4756" d="M234.3-109.5H246v-2.9c1.9 2.1 5.1 3.6 9 3.6 7.4 0 11.8-4.8 11.8-12.3V-143h-11.6v19.1c0 2.8-1.4 4.8-4.4 4.8-2.3 0-4.2-1.3-4.8-3.6V-143h-11.7z" class="st0"/></g><g id="g4758" transform="translate(468.892 504.638)"><path id="path4760" d="M311.4-117.6c-1.6.7-2.8 1-4.6 1-2.8 0-5.7-1.6-6.2-4.6v-19.6H289v33.5h11.7v-3c1.6 2.2 4.2 3.7 7.6 3.7 1.5 0 2.7-.3 3.2-.6v-10.4z" class="st0"/></g><g id="g4762" transform="translate(479.04 496.963)"><path id="path4764" d="m348.9-146 5.2 13.7-12.5 32.6h12.1l6.4-19 6.2 19h11.6L360.5-146z" class="st0"/></g><g id="g4766" transform="translate(473.158 501.852)"><path id="path4768" d="M327.2-127.9c-4.6 0-6.6 3.5-6.6 7.7s1.8 7.6 6.2 7.6c2.2 0 4.7-1.7 5.6-3.2v-8.8c-.9-1.5-2.9-3.3-5.2-3.3m16.7 23.4h-11.5v-2.5c-1.5 1.8-4.2 3.3-7.9 3.3-9.4 0-14.8-7.2-14.8-16.4s5.4-16.5 14.8-16.5c3.3 0 5.8 1.3 7.4 2.8l.3.3v-2.5c-.2-4.4-4-6.5-8.3-6.5-4.6 0-8.3 1.2-11.7 4.1v-10.1c3.2-2.2 7.4-2.8 12-2.8 10.7 0 19.6 5.3 19.6 17.7z" class="st0"/></g><g id="g4770" transform="translate(442.31 503.574)"><path id="path4772" d="M213.2-121.5h17.7v10h-17.7v7.1h20.9v10.3h-32.6v-45.7h32.6v10.3h-20.9z" class="st0"/></g><g id="g4774" transform="translate(458.32 504.017)"><path id="path4776" d="M272.3-119.9c.4 3.9 3.3 5.7 5.8 5.7s5.5-1.7 6-5.7zm5.8 14.1c-10 0-17-7.8-17-17.6 0-12.2 7.3-17.7 18.4-17.7 5 0 9 1 12.1 2.5v8.3c-3.8-2.1-7.4-2.6-10.1-2.6-5.3 0-8.8 2.4-9.1 6.7H295c.1.8.1 1.3.1 2 0 9.9-5.4 18.4-17 18.4" class="st0"/></g><g id="g4778" transform="translate(487.638 507.57)"><path id="path4780" d="M380.7-106.7a6.7 6.7 0 0 1 0-13.4c3.7 0 6.8 3 6.8 6.7s-3 6.7-6.8 6.7m0-12.7c-3.3 0-5.9 2.6-5.9 5.9s2.6 5.9 5.9 5.9 5.9-2.7 5.9-5.9-2.6-5.9-5.9-5.9" class="st0"/></g><g id="g4782" transform="translate(488.241 506.469)"><path id="path4784" d="M383-110.8c0 1.1-.6 1.7-2.3 1.7h-2.9v-6.6h.7v3h1.5l1.9-3h1l-2 3c1.2.1 2.1.6 2.1 1.9m-3.2-1.1h-1.3v2.1h1.9c.8 0 1.8-.1 1.8-1 0-1.2-1.5-1.1-2.4-1.1" class="st0"/></g></g></g></g></svg>