<svg xmlns="http://www.w3.org/2000/svg" width="129.745" height="46.363" viewBox="0 0 34.328 12.267"><defs><clipPath id="a" clipPathUnits="userSpaceOnUse"><path d="M394 472.945h116v72H394Z"/></clipPath></defs><g clip-path="url(#a)" transform="matrix(.35278 0 0 -.35278 -142.291 185.678)"><path d="M0 0a14.44 14.44 0 0 1-12.699 2.107l-10.268-3.139v-5.989Z" style="fill:#2c6cbe;fill-opacity:1;fill-rule:nonzero;stroke:none" transform="translate(426.688 523.212)"/><path d="M0 0a14.4 14.4 0 0 1-3.227 5.003l-24.774-7.574v-5.99z" style="fill:#2c6cbe;fill-opacity:1;fill-rule:nonzero;stroke:none" transform="translate(431.722 516.665)"/><path d="M0 0a14.4 14.4 0 0 1-.122 5.953l-28.587-8.741v-5.989Z" style="fill:#2c6cbe;fill-opacity:1;fill-rule:nonzero;stroke:none" transform="translate(432.43 508.796)"/><path d="M0 0a14.44 14.44 0 0 1 9.349 8.848L-18.725.265v-5.99z" style="fill:#2c6cbe;fill-opacity:1;fill-rule:nonzero;stroke:none" transform="translate(422.446 497.658)"/><path d="M0 0c1.615 0 2.517 1.029 2.517 2.659 0 1.647-.902 2.676-2.517 2.676h-1.045V0Zm-3.546 7.52H.126c3.056 0 4.908-1.9 4.908-4.861S3.182-2.201.126-2.201h-3.672z" style="fill:#231f20;fill-opacity:1;fill-rule:nonzero;stroke:none" transform="translate(443.355 513.538)"/><path d="M0 0c-.761 0-1.188-.697-1.188-1.678S-.761-3.34 0-3.34c.775 0 1.202.681 1.202 1.662S.775 0 0 0m0-5.399c-2.154 0-3.642 1.521-3.642 3.721S-2.154 2.042 0 2.042c2.169 0 3.641-1.519 3.641-3.72 0-2.2-1.472-3.721-3.641-3.721" style="fill:#231f20;fill-opacity:1;fill-rule:nonzero;stroke:none" transform="translate(452.724 516.577)"/><path d="M0 0c1.488 0 2.406-1.013 2.406-2.613v-4.67H-.079v4.069c0 .601-.253 1.029-.808 1.029-.427 0-.792-.269-.918-.76v-4.338h-2.47v4.069c0 .601-.253 1.029-.807 1.029-.427 0-.807-.269-.919-.76v-4.338h-2.485v7.124h2.485v-.585C-5.636-.301-4.954 0-4.164 0c.902 0 1.537-.348 1.963-.855C-1.772-.412-1.046 0 0 0" style="fill:#231f20;fill-opacity:1;fill-rule:nonzero;stroke:none" transform="translate(465.816 518.62)"/><path d="M472.056 511.337h-2.485v7.124h2.485z" style="fill:#231f20;fill-opacity:1;fill-rule:nonzero;stroke:none"/><path d="M0 0h2.486v-.617c.395.443 1.092.776 1.915.776 1.584 0 2.518-1.029 2.518-2.613v-4.67H4.448v4.069c0 .586-.3 1.013-.934 1.013-.491 0-.901-.285-1.028-.776v-4.306H0Z" style="fill:#231f20;fill-opacity:1;fill-rule:nonzero;stroke:none" transform="translate(473.401 518.461)"/><path d="M484.147 511.337h-2.485v7.124h2.485z" style="fill:#231f20;fill-opacity:1;fill-rule:nonzero;stroke:none"/><path d="M0 0c-.76 0-1.187-.697-1.187-1.678S-.76-3.34 0-3.34c.776 0 1.203.681 1.203 1.662S.776 0 0 0m0-5.399c-2.153 0-3.642 1.521-3.642 3.721S-2.153 2.042 0 2.042c2.169 0 3.641-1.519 3.641-3.72 0-2.2-1.472-3.721-3.641-3.721" style="fill:#231f20;fill-opacity:1;fill-rule:nonzero;stroke:none" transform="translate(488.754 516.577)"/><path d="M0 0h2.487v-.617c.394.443 1.09.776 1.914.776 1.583 0 2.517-1.029 2.517-2.613v-4.67h-2.47v4.069c0 .586-.301 1.013-.933 1.013-.492 0-.903-.285-1.028-.776v-4.306H0Z" style="fill:#231f20;fill-opacity:1;fill-rule:nonzero;stroke:none" transform="translate(493.361 518.461)"/><path d="M484.147 519.286h-2.485v1.772h2.485zm-12.091 0h-2.485v1.772h2.485z" style="fill:#231f20;fill-opacity:1;fill-rule:nonzero;stroke:none"/><path d="M0 0h2.486v-.617c.396.443 1.091.776 1.915.776 1.584 0 2.517-1.029 2.517-2.613v-4.669H4.449v4.068c0 .586-.301 1.013-.934 1.013-.491 0-.902-.285-1.029-.775v-4.306H0Z" style="fill:#231f20;fill-opacity:1;fill-rule:nonzero;stroke:none" transform="translate(448.039 506.82)"/><path d="M0 0a2.26 2.26 0 0 1-.985.211c-.596 0-1.216-.332-1.311-.973v-4.179h-2.486v7.123h2.486v-.633c.348.475.902.792 1.615.792.316 0 .569-.064.681-.127z" style="fill:#231f20;fill-opacity:1;fill-rule:nonzero;stroke:none" transform="translate(468.892 504.638)"/><path d="m0 0 1.116 2.926-2.659 6.95h2.581l1.361-4.053 1.33 4.053h2.47L2.453 0Z" style="fill:#231f20;fill-opacity:1;fill-rule:nonzero;stroke:none" transform="translate(479.04 496.963)"/><path d="M0 0c-.98 0-1.403.744-1.403 1.647s.39 1.613 1.314 1.613c.475 0 .993-.363 1.183-.68V.696C.904.379.489 0 0 0m3.548 4.987H1.094v-.538c-.317.38-.903.697-1.678.697-2.011 0-3.151-1.536-3.151-3.499s1.14-3.515 3.151-3.515c.699 0 1.244.27 1.575.591 0 0 .048.048.064.066l.002-.541C1.019-2.698.214-3.133-.714-3.133c-.981 0-1.757.254-2.484.871V-4.42c.684-.469 1.567-.601 2.565-.601 2.279 0 4.173 1.135 4.173 3.763z" style="fill:#231f20;fill-opacity:1;fill-rule:nonzero;stroke:none" transform="translate(473.158 501.852)"/><path d="M0 0h3.776v2.137H0v1.521h4.448v2.185h-6.95v-9.721h6.95v2.201H0Z" style="fill:#231f20;fill-opacity:1;fill-rule:nonzero;stroke:none" transform="translate(442.31 503.574)"/><path d="M0 0c.09.833.694 1.211 1.233 1.211.538 0 1.181-.372 1.283-1.211Zm1.219 3.003c-2.123 0-3.622-1.661-3.622-3.756 0-2.594 1.548-3.766 3.924-3.766 1.059 0 1.912.22 2.57.534v1.759a4.5 4.5 0 0 0-2.143-.553c-1.125 0-1.884.514-1.931 1.42h4.812c.012.172.012.274.012.434 0 2.109-1.14 3.928-3.622 3.928" style="fill:#231f20;fill-opacity:1;fill-rule:nonzero;stroke:none" transform="translate(458.32 504.017)"/><path d="M0 0a1.436 1.436 0 1 1 .002-2.872A1.436 1.436 0 0 1 0 0m.002-2.696a1.26 1.26 0 1 0 0 2.52 1.26 1.26 0 0 0 0-2.52" style="fill:#231f20;fill-opacity:1;fill-rule:nonzero;stroke:none" transform="translate(487.638 507.57)"/><path d="M0 0c0 .233-.125.37-.497.37h-.613v-1.401h.159v.648h.328l.401-.648h.206l-.425.648C-.192-.377 0-.275 0 0m-.676-.224h-.275v.437h.413c.174 0 .379-.026.379-.208 0-.262-.319-.229-.517-.229" style="fill:#231f20;fill-opacity:1;fill-rule:nonzero;stroke:none" transform="translate(488.241 506.469)"/></g></svg>