<?xml version="1.0" encoding="utf-8"?>
<!-- Generator: Adobe Illustrator 23.1.1, SVG Export Plug-In . SVG Version: 6.00 Build 0)  -->
<svg version="1.1" id="Layer_1" xmlns="http://www.w3.org/2000/svg" xmlns:xlink="http://www.w3.org/1999/xlink" x="0px" y="0px"
	 viewBox="0 0 907.2 196" style="enable-background:new 0 0 907.2 196;" xml:space="preserve">
<style type="text/css">
	.st0{fill:#F48322;}
	.st1{fill:#5C5C5F;}
	.st2{fill:#5D5D60;}
	.st3{fill:#5B5B5E;}
	.st4{fill:#F48628;}
	.st5{fill:#F48526;}
	.st6{fill:#F48527;}
</style>
<g>
	<path class="st0" d="M95.5,26.9c24,0,41.6,8.2,56.1,23.7c3.7,3.9,3.6,4.1-1.3,5.3c-15.5,3.7-31.1,7.4-46.6,11.1
		c-4.8,1.1-7.8,7.6-5.4,12.1c1.1,2.1,3,0.7,4.4,0.4c18.5-4.2,37-8.5,55.5-12.7c1.5-0.3,3.3-1.7,4.5,0.3c1.6,2.7,3.1,5.6,3.3,8.7
		c0.1,1.5-2.1,1.1-3.3,1.4c-19.9,4.8-39.8,9.5-59.7,14.3c-1.7,0.4-4.3-0.1-4.6,2.2c-0.4,3.3-0.4,6.7,0.2,9.9
		c0.3,1.7,2.7,0.4,3.9,0.1c14.9-3.3,29.8-6.8,44.8-10.2c6-1.4,12-2.6,18-4.2c2.9-0.8,4-0.5,4.4,2.9c0.9,7.6,1,7.7-6.2,9.3
		c-20.3,4.5-40.6,8.9-60.9,13.4c-1.6,0.4-4.1-0.1-4.3,2.4c-0.2,3.3-0.2,6.7,0.4,9.9c0.2,1.3,2.3,0.1,3.5-0.2
		c20.6-4.5,41.3-9,61.9-13.7c3.7-0.8,4.8-0.6,3.7,3.6c-8.5,32.9-39.5,55.5-73.9,53.8c-33.5-1.7-62.6-27.3-67.2-60.6
		C19.5,57.9,61.5,25.3,95.5,26.9z"/>
	<path class="st1" d="M402.8,95.8c8.3,0,16.7,0.1,25-0.1c3.2-0.1,4,1.2,4,4.1c-0.1,25.4-20.4,45.9-46.4,46.7
		c-25,0.8-46.4-18.7-48.2-43.8c-1.4-20.1,6.8-35.7,23.9-45.5c16.1-9.3,33.1-8.9,49.4,0.7c7.4,4.4,12.2,11.1,16,18.7
		c1.2,2.5,0.6,3.2-2,3.1c-5.3-0.1-10.7-0.1-16,0c-2,0-3.3-0.8-4.7-2.2c-8.6-8.4-21.4-10.4-31.8-5c-11.1,5.7-17.3,18.2-15.3,30.5
		c2.1,12.6,11.1,22,22.8,24c11.7,2,22.8-2.8,28.5-12.2c1.6-2.6,2.1-4-2-3.9c-9.3,0.2-18.7-0.1-28,0.1c-3.1,0.1-3.9-0.8-3.9-3.9
		c-0.1-11.5-0.2-11.5,11.3-11.5C391.1,95.8,396.9,95.8,402.8,95.8z"/>
	<path class="st2" d="M254.4,98.5c0-14,0.1-27.9-0.1-41.9c0-3.1,0.8-4,3.9-3.9c10.8,0.3,21.6,0.4,32.4,0.4c24,0,39.2,16.3,41.3,40
		c1.4,15.2-1.8,29.1-12.8,40.5c-8.6,8.9-19.7,11.2-31.5,11.3c-9.7,0.1-19.3-0.1-29,0.1c-3.5,0.1-4.5-0.9-4.5-4.4
		C254.5,126.4,254.4,112.5,254.4,98.5z M273,98.5c0,6.1,0,12.3,0,18.4c0,12.3,0,12.3,12.4,11.8c16.9-0.8,25.1-7.2,27.5-21.7
		c0.8-4.9,0.9-10,0.1-14.9c-1.9-13.6-11.4-22.3-25.2-23.2c-3.5-0.2-7,0.1-10.5-0.2c-3.4-0.3-4.7,0.7-4.5,4.3
		C273.1,81.6,273,90,273,98.5z"/>
	<path class="st2" d="M191,98.8c0-14,0.1-28-0.1-42c0-3.2,0.8-4.3,4.1-4.2c14,0.2,28,0.2,42,0c3.1,0,3.9,0.9,3.9,4
		c0.1,12.8,0.2,12.8-12.6,12.8c-5.3,0-10.7,0.1-16,0c-2.7-0.1-3.5,0.9-3.4,3.5c0.2,5.5-1.7,12.4,0.9,16c2.6,3.4,10,0.7,15.2,1.1
		c1.3,0.1,2.7,0,4,0c12.9,0,13.3,0.6,11.8,13.6c-0.4,3-2.1,2.4-3.8,2.5c-8,0-16,0.2-24-0.1c-3.3-0.1-4.3,1-4.1,4.2
		c0.3,4.8,0.3,9.7,0,14.5c-0.2,3.2,1.1,3.9,4,3.8c8-0.2,16,0.1,24-0.1c3.1-0.1,3.9,0.9,3.9,3.9c0.1,12.6,0.2,12.6-12.2,12.6
		c-10.8,0-21.7-0.3-32.5,0.1c-4.7,0.2-5.5-1.4-5.4-5.6C191.2,125.8,191,112.3,191,98.8z"/>
	<path class="st3" d="M440.9,99c0-13.8,0.2-27.6-0.1-41.4c-0.1-4.1,1.3-4.9,5.1-4.9c13.3,0.2,26.6,0.2,40,0c3.9-0.1,4.7,1.2,4.6,4.8
		c-0.1,11.8,0,11.8-12,11.8c-5.2,0-10.3,0.2-15.5-0.1c-3.6-0.2-4.6,1.2-4.4,4.6c0.3,4.1,0.2,8.3,0,12.5c-0.2,2.9,0.9,3.7,3.7,3.7
		c8-0.1,16,0.1,24-0.1c3.4-0.1,4.1,1.1,4.1,4.2c0,11.9,0.1,11.9-11.9,11.9c-5.5,0-11,0.1-16.5,0c-2.6-0.1-3.5,0.8-3.4,3.4
		c0.2,5.2,0.2,10.3,0,15.5c-0.1,3,1.1,3.6,3.8,3.6c7.8-0.1,15.7,0.1,23.5-0.1c3.4-0.1,4.6,0.7,4.6,4.3c0,12.2,0.1,12.2-12.1,12.2
		c-10.8,0-21.6-0.2-32.5,0.1c-3.8,0.1-5.1-0.8-5.1-4.9C441.1,126.3,440.9,112.6,440.9,99z"/>
	<path class="st4" d="M658.3,82.1c14.2-11.8,31-11.2,43.6,1.3c1.7,1.7,2.4,1.3,3.7-0.2c8.7-9.4,19.7-11,31.6-8.4
		c7.2,1.6,12,6.3,14.7,13c2.1,5.3,3.1,10.9,3.1,16.6c0.1,12.1-0.1,24.3,0.1,36.4c0.1,3.8-1.7,3.8-4.5,3.9c-3,0-4.5-0.4-4.4-4
		c0.2-12.8,0.2-25.6-0.2-38.4c-0.4-11.5-5.1-17.8-13.7-19.3c-14.9-2.6-25.1,5.8-25.3,21c-0.1,12.1-0.2,24.3,0.1,36.4
		c0.1,3.8-1.3,4.3-4.6,4.3c-3.4,0-4.6-0.8-4.5-4.4c0.2-12.3,0.2-24.6,0.1-36.9c0-5.8-1.1-11.4-5.2-15.7c-5.6-5.8-12.9-5.9-20-4.4
		c-7.3,1.6-11.9,6.4-13.7,13.7c-1.4,5.7-1,11.6-1,17.4c0,8.7-0.2,17.3,0.1,26c0.1,3.6-1.1,4.5-4.5,4.4c-3.2-0.1-4.7-0.5-4.6-4.3
		c0.2-20.3,0.2-40.6,0-60.9c0-3.3,0.6-4.7,4.3-4.6c3.5,0.1,5.5,0.6,4.7,4.6C658,80.3,658.2,80.9,658.3,82.1z"/>
	<path class="st5" d="M803.8,113c-9,0-18,0.2-27-0.1c-3.6-0.1-4.3,1.2-3.5,4.3c2.7,10.2,8.6,17.3,19,19.7
		c11.1,2.6,20.7-0.3,27.2-9.8c2.8-4.1,5.8-5,10.2-4.9c3.4,0.1,2.9,1.3,1.9,3.6c-11,23.7-41.8,28.2-59.4,8.7
		c-12.7-14.1-12.2-37.4,1.1-50.9c12.9-13.1,36-14,49.5-1.8c8.5,7.6,11.7,17.4,12.3,28.5c0.1,2.9-1.5,2.8-3.5,2.8
		C822.4,113,813.1,113,803.8,113z M825.2,104.9c-1.2-3.3-2-6.1-3.3-8.8c-5-10.3-14.4-15.2-26.7-14.1c-10.3,1-18.9,8.8-21.5,19.4
		c-0.5,1.9-1.1,3.5,2,3.5C792,104.9,808.2,104.9,825.2,104.9z"/>
	<path class="st4" d="M511.9,82.5c9.4-9.2,19.9-10,30.9-7.5c7.6,1.7,12.5,6.6,15.2,13.8c2.2,5.8,2.9,12,3,18.1
		c0.1,11.3-0.1,22.6,0.1,33.9c0.1,3.7-1.5,4.1-4.4,4c-2.7-0.1-5.1,0.4-5.1-3.9c0.1-13.3,0.4-26.6-0.4-39.9
		c-0.8-13.7-6.9-18.6-20.3-18.2c-11.1,0.3-18.4,7.7-18.8,19.7c-0.4,12.6-0.4,25.3-0.2,37.9c0,3.6-1.1,4.5-4.5,4.4
		c-3.1-0.1-4.8-0.3-4.8-4.2c0.2-28,0.2-55.9,0-83.9c0-3.8,1.5-4.2,4.7-4.3c3.3,0,4.7,0.7,4.6,4.4C511.7,65.1,511.9,73.2,511.9,82.5z
		"/>
	<path class="st5" d="M605,72.9c20.2,0.5,36.2,17.2,35.7,37.2c-0.6,21.1-17,36.9-37.5,36.5c-17.8-0.4-35.6-16.7-34.2-39.5
		C570.1,88.5,586.4,72.4,605,72.9z M604.2,81.9c-14.4,0.1-25.8,12.6-25.7,28.1c0.1,15.6,12.1,28.2,26.6,27.9
		c14.7-0.3,26.2-12.9,26-28.5C630.9,93.6,619.3,81.7,604.2,81.9z"/>
	<path class="st6" d="M876.9,92.8c-3.2,0.4-5.2,0.2-6.2-3.8c-1.1-4.7-5.3-6.7-10.1-6.4c-4.6,0.2-7.9,2.7-9.1,7.2
		c-1.3,4.7,0.2,8.5,4.3,11.2c4.6,3,10,3.6,14.8,5.8c9,4,12,11,11.6,20.5c-0.4,8.4-4.5,13.8-11.6,17.1c-14.8,6.9-30.2-1.9-32.1-18.1
		c-0.2-1.7-0.8-4.3,2.1-3.8c2.5,0.4,6.5-2.5,7.3,2.5c0.6,3.8,1.9,7,4.7,9.6c3.7,3.4,7.9,4.1,12.5,2.3c4.2-1.6,6.8-4.7,7.2-9.3
		c0.4-4.9-1.2-9-5.7-11.3c-4.9-2.5-10-4.4-15-6.8c-8.1-4-11.2-9.7-10.4-18.6c0.7-7.6,6.9-14.8,14.4-16.8c12-3.2,23.1,2.9,25.3,13.9
		C881.8,91.7,881.2,93.8,876.9,92.8z"/>
</g>
</svg>
