<svg xmlns="http://www.w3.org/2000/svg" viewBox="0 0 907.2 196"><path fill="#718096" d="M95.5 26.9c24 0 41.6 8.2 56.1 23.7 3.7 3.9 3.6 4.1-1.3 5.3-15.5 3.7-31.1 7.4-46.6 11.1-4.8 1.1-7.8 7.6-5.4 12.1 1.1 2.1 3 .7 4.4.4 18.5-4.2 37-8.5 55.5-12.7 1.5-.3 3.3-1.7 4.5.3 1.6 2.7 3.1 5.6 3.3 8.7.1 1.5-2.1 1.1-3.3 1.4-19.9 4.8-39.8 9.5-59.7 14.3-1.7.4-4.3-.1-4.6 2.2-.4 3.3-.4 6.7.2 9.9.3 1.7 2.7.4 3.9.1 14.9-3.3 29.8-6.8 44.8-10.2 6-1.4 12-2.6 18-4.2 2.9-.8 4-.5 4.4 2.9.9 7.6 1 7.7-6.2 9.3-20.3 4.5-40.6 8.9-60.9 13.4-1.6.4-4.1-.1-4.3 2.4-.2 3.3-.2 6.7.4 9.9.2 1.3 2.3.1 3.5-.2 20.6-4.5 41.3-9 61.9-13.7 3.7-.8 4.8-.6 3.7 3.6-8.5 32.9-39.5 55.5-73.9 53.8-33.5-1.7-62.6-27.3-67.2-60.6-7.2-52.2 34.8-84.8 68.8-83.2m307.3 68.9c8.3 0 16.7.1 25-.1 3.2-.1 4 1.2 4 4.1-.1 25.4-20.4 45.9-46.4 46.7-25 .8-46.4-18.7-48.2-43.8-1.4-20.1 6.8-35.7 23.9-45.5 16.1-9.3 33.1-8.9 49.4.7 7.4 4.4 12.2 11.1 16 18.7 1.2 2.5.6 3.2-2 3.1-5.3-.1-10.7-.1-16 0-2 0-3.3-.8-4.7-2.2-8.6-8.4-21.4-10.4-31.8-5-11.1 5.7-17.3 18.2-15.3 30.5 2.1 12.6 11.1 22 22.8 24s22.8-2.8 28.5-12.2c1.6-2.6 2.1-4-2-3.9-9.3.2-18.7-.1-28 .1-3.1.1-3.9-.8-3.9-3.9-.1-11.5-.2-11.5 11.3-11.5 5.7.2 11.5.2 17.4.2m-148.4 2.7c0-14 .1-27.9-.1-41.9 0-3.1.8-4 3.9-3.9 10.8.3 21.6.4 32.4.4 24 0 39.2 16.3 41.3 40 1.4 15.2-1.8 29.1-12.8 40.5-8.6 8.9-19.7 11.2-31.5 11.3-9.7.1-19.3-.1-29 .1-3.5.1-4.5-.9-4.5-4.4.4-14.2.3-28.1.3-42.1m18.6 0v18.4c0 12.3 0 12.3 12.4 11.8 16.9-.8 25.1-7.2 27.5-21.7.8-4.9.9-10 .1-14.9-1.9-13.6-11.4-22.3-25.2-23.2-3.5-.2-7 .1-10.5-.2-3.4-.3-4.7.7-4.5 4.3.3 8.6.2 17 .2 25.5m-82 .3c0-14 .1-28-.1-42 0-3.2.8-4.3 4.1-4.2q21 .3 42 0c3.1 0 3.9.9 3.9 4 .1 12.8.2 12.8-12.6 12.8-5.3 0-10.7.1-16 0-2.7-.1-3.5.9-3.4 3.5.2 5.5-1.7 12.4.9 16 2.6 3.4 10 .7 15.2 1.1 1.3.1 2.7 0 4 0 12.9 0 13.3.6 11.8 13.6-.4 3-2.1 2.4-3.8 2.5-8 0-16 .2-24-.1-3.3-.1-4.3 1-4.1 4.2.3 4.8.3 9.7 0 14.5-.2 3.2 1.1 3.9 4 3.8 8-.2 16 .1 24-.1 3.1-.1 3.9.9 3.9 3.9.1 12.6.2 12.6-12.2 12.6-10.8 0-21.7-.3-32.5.1-4.7.2-5.5-1.4-5.4-5.6.5-13.6.3-27.1.3-40.6m249.9.2c0-13.8.2-27.6-.1-41.4-.1-4.1 1.3-4.9 5.1-4.9 13.3.2 26.6.2 40 0 3.9-.1 4.7 1.2 4.6 4.8-.1 11.8 0 11.8-12 11.8-5.2 0-10.3.2-15.5-.1-3.6-.2-4.6 1.2-4.4 4.6.3 4.1.2 8.3 0 12.5-.2 2.9.9 3.7 3.7 3.7 8-.1 16 .1 24-.1 3.4-.1 4.1 1.1 4.1 4.2 0 11.9.1 11.9-11.9 11.9-5.5 0-11 .1-16.5 0-2.6-.1-3.5.8-3.4 3.4.2 5.2.2 10.3 0 15.5-.1 3 1.1 3.6 3.8 3.6 7.8-.1 15.7.1 23.5-.1 3.4-.1 4.6.7 4.6 4.3 0 12.2.1 12.2-12.1 12.2-10.8 0-21.6-.2-32.5.1-3.8.1-5.1-.8-5.1-4.9.3-13.8.1-27.5.1-41.1m217.4-16.9c14.2-11.8 31-11.2 43.6 1.3 1.7 1.7 2.4 1.3 3.7-.2 8.7-9.4 19.7-11 31.6-8.4 7.2 1.6 12 6.3 14.7 13 2.1 5.3 3.1 10.9 3.1 16.6.1 12.1-.1 24.3.1 36.4.1 3.8-1.7 3.8-4.5 3.9-3 0-4.5-.4-4.4-4 .2-12.8.2-25.6-.2-38.4-.4-11.5-5.1-17.8-13.7-19.3-14.9-2.6-25.1 5.8-25.3 21-.1 12.1-.2 24.3.1 36.4.1 3.8-1.3 4.3-4.6 4.3-3.4 0-4.6-.8-4.5-4.4.2-12.3.2-24.6.1-36.9 0-5.8-1.1-11.4-5.2-15.7-5.6-5.8-12.9-5.9-20-4.4-7.3 1.6-11.9 6.4-13.7 13.7-1.4 5.7-1 11.6-1 17.4 0 8.7-.2 17.3.1 26 .1 3.6-1.1 4.5-4.5 4.4-3.2-.1-4.7-.5-4.6-4.3q.3-30.45 0-60.9c0-3.3.6-4.7 4.3-4.6 3.5.1 5.5.6 4.7 4.6-.2.7 0 1.3.1 2.5M803.8 113c-9 0-18 .2-27-.1-3.6-.1-4.3 1.2-3.5 4.3 2.7 10.2 8.6 17.3 19 19.7 11.1 2.6 20.7-.3 27.2-9.8 2.8-4.1 5.8-5 10.2-4.9 3.4.1 2.9 1.3 1.9 3.6-11 23.7-41.8 28.2-59.4 8.7-12.7-14.1-12.2-37.4 1.1-50.9 12.9-13.1 36-14 49.5-1.8 8.5 7.6 11.7 17.4 12.3 28.5.1 2.9-1.5 2.8-3.5 2.8-9.2-.1-18.5-.1-27.8-.1m21.4-8.1c-1.2-3.3-2-6.1-3.3-8.8-5-10.3-14.4-15.2-26.7-14.1-10.3 1-18.9 8.8-21.5 19.4-.5 1.9-1.1 3.5 2 3.5zM511.9 82.5c9.4-9.2 19.9-10 30.9-7.5 7.6 1.7 12.5 6.6 15.2 13.8 2.2 5.8 2.9 12 3 18.1.1 11.3-.1 22.6.1 33.9.1 3.7-1.5 4.1-4.4 4-2.7-.1-5.1.4-5.1-3.9.1-13.3.4-26.6-.4-39.9-.8-13.7-6.9-18.6-20.3-18.2-11.1.3-18.4 7.7-18.8 19.7-.4 12.6-.4 25.3-.2 37.9 0 3.6-1.1 4.5-4.5 4.4-3.1-.1-4.8-.3-4.8-4.2.2-28 .2-55.9 0-83.9 0-3.8 1.5-4.2 4.7-4.3 3.3 0 4.7.7 4.6 4.4-.2 8.3 0 16.4 0 25.7m93.1-9.6c20.2.5 36.2 17.2 35.7 37.2-.6 21.1-17 36.9-37.5 36.5-17.8-.4-35.6-16.7-34.2-39.5 1.1-18.6 17.4-34.7 36-34.2m-.8 9c-14.4.1-25.8 12.6-25.7 28.1.1 15.6 12.1 28.2 26.6 27.9 14.7-.3 26.2-12.9 26-28.5-.2-15.8-11.8-27.7-26.9-27.5m272.7 10.9c-3.2.4-5.2.2-6.2-3.8-1.1-4.7-5.3-6.7-10.1-6.4-4.6.2-7.9 2.7-9.1 7.2-1.3 4.7.2 8.5 4.3 11.2 4.6 3 10 3.6 14.8 5.8 9 4 12 11 11.6 20.5-.4 8.4-4.5 13.8-11.6 17.1-14.8 6.9-30.2-1.9-32.1-18.1-.2-1.7-.8-4.3 2.1-3.8 2.5.4 6.5-2.5 7.3 2.5.6 3.8 1.9 7 4.7 9.6 3.7 3.4 7.9 4.1 12.5 2.3 4.2-1.6 6.8-4.7 7.2-9.3.4-4.9-1.2-9-5.7-11.3-4.9-2.5-10-4.4-15-6.8-8.1-4-11.2-9.7-10.4-18.6.7-7.6 6.9-14.8 14.4-16.8 12-3.2 23.1 2.9 25.3 13.9.9 3.7.3 5.8-4 4.8"/></svg>