<svg xmlns="http://www.w3.org/2000/svg" viewBox="0 0 2500 783.5"><g fill="#718096"><path stroke="#fff" stroke-linecap="round" stroke-linejoin="round" stroke-miterlimit="33.89" stroke-width="17.315" d="m1999 384.1 61.7 5.2"/><g fill-rule="evenodd" clip-rule="evenodd"><path d="M2463.2 486.7v37.6h-6.5v-29.2l-11 29.2h-6.5l-9.7-29.2v29.2h-6.5v-37.6h11l9.8 27.3 9.7-27.3zm-59.7 7.7v29.9h-7.8v-29.9H2384v-7.8h31.2v7.8zM1384.1 350.3c11 0 16.2-5.2 16.2-16.2 0-11.1-5.2-16.2-16.2-16.2-11.1 0-16.2 5.2-16.2 16.2s5.1 16.2 16.2 16.2m-705.8 20.8c-3.2 13-6.5 20.1-9.7 23.4l-29.9 5.8h-46.8l1.3-84.4c.6-11 3.9-16.2 10.4-16.2h31.8l42.2 5.2 29.2 42.2h9.7L702.2 290h-172v7.1c11.7 0 20.8 2.6 24.7 6.5 3.2 3.2 5.8 13 5.8 27.3l-2.6 154.5c0 14.3-1.9 22.7-5.2 27.3-4.6 4.5-14.3 6.5-27.9 6.5v7.8h102.6v-7.8l-29.2-6.5c-4.6-4.5-6.5-13-6.5-27.3v-72.1h50c13 0 21.4 1.9 26.6 6.5 5.8 5.2 9.1 13.6 9.7 27.9h9.1v-76.6zm43.5 115.6c0 14.3-1.3 24-4.5 27.3-3.2 3.9-8.4 6.5-18.2 6.5v6.5h71.4v-6.5l-18.2-6.5-4.6-22.1v-61.7c0-19.5 7.8-29.2 24-29.2l20.1 1.3c11 0 16.2-3.3 16.2-11.1 0-7.1-5.2-11.7-14.9-11.7-7.8 0-17.5 3.3-27.3 9.8l-14.9 8.4-3.2-3.9v-13l-1.9-3.3-39 19.5v.7l1.9 4.6h1.3c5.2-1.3 9.7 1.9 10.4 9.7l1.3 8.4zm173.3-42.3v55.2c-14.3 9.8-25.3 14.9-32.5 14.9-20.8-.7-30.5-11.7-30.5-29.9 3.2-16.2 18.2-29.2 47.4-37zm-49.9-37c4.6-13 13-19.5 24.7-19.5 16.2 0 25.3 11 25.3 32.5v16.2l-20.8 5.8c-44.1 10.4-68.2 26.6-69.5 47.4 0 11.7 4.6 21.4 12.3 29.2 7.1 7.8 16.2 11.1 26.6 11.1 16.2 0 33.8-7.8 51.3-22.7q.9 19.5 19.5 19.5h22.7v-6.5h3.9l-11.7-2.6c-5.2-3.2-7.8-9.7-7.8-18.2v-76c0-29.2-13.6-44.1-42.9-44.1-13 0-27.3 4.6-41.6 13-13.6 8.4-20.1 16.2-20.1 24 0 7.1 3.2 10.4 10.4 10.4q9.9 0 17.7-19.5"/><path d="M1109.4 520.4c-9.1 0-14.3-2.6-17.5-6.5l-4.5-27.3v-55.2c0-34.4-16.9-52-50.6-52-16.2 0-33.8 5.2-50 17.5v-17.5l-1.9-4.5h-1.3l-37.7 18.8 3.2 5.2h1.3c5.2-1.9 9.7 1.9 10.4 13l1.3 5.2v69.5c0 13-1.3 21.4-4.5 27.3-3.2 3.2-8.4 5.2-16.2 6.5h-3.9v6.5h73.4v-6.5c-9.7 0-14.9-2.6-18.2-6.5l-4.6-27.3v-76c9.7-11.7 21.4-18.2 34.4-18.2 25.3 0 38.3 14.9 38.3 45.4v48.7c0 14.3-1.3 24-4.6 27.3-3.2 3.9-8.4 6.5-17.5 6.5v6.5h70.8v-6.4zm19.5-197.4.6 163.6c0 14.3-.6 24-3.9 27.3-2.6 3.9-7.8 6.5-16.2 6.5v6.5h70.1v-6.5c-9.7 0-14.9-2.6-18.2-6.5l-4.6-27.3v-26l11.1-8.4c35.7 31.2 52.6 52 52.6 60.4 0 4.5-6.5 6.5-19.5 7.8v6.5h72.7v-6.5h4.6c-9.1-1.3-19.5-9.1-31.8-20.8l-58.4-61.7c35.1-31.2 58.4-47.4 72.7-50v-5.2h-63v5.2c11 1.3 16.2 4.5 16.2 9.7 0 6.5-8.4 16.2-24.7 28.6l-32.5 21.4V293.8l-1.3-3.2-3.9-3.2-41.6 16.2 3.2 5.8 1.3-1.3c8 0 11.9 5.2 14.5 14.9"/><path d="m1291.2 323 .7 163.6c0 21.4-5.2 32.5-16.9 33.8h-3.2v6.5h70.1v-6.5c-9.8 0-14.9-2.6-18.2-6.5-3.2-3.2-4.6-13-4.6-27.3v-196l-4.5-3.2-40.9 16.2 1.9 5.8 1.3-1.3c8.5 0 13 5.2 14.3 14.9m102.6 57.8-40.9 14.9 1.9 5.2 1.3-.6c5.2 0 9.8 3.2 11.7 8.4 3.2 3.2 4.5 13 4.5 27.9v51.3l-5.8 26c-1.9 3.9-7.1 6.5-16.2 6.5v6.5h69.5v-6.5c-8.4 0-14.3-2.6-17.5-6.5-3.2-3.2-3.9-12.3-3.9-26V384.7zm433.1 79.9c-16.2 40.9-43.5 61.7-81.2 61.7-27.3 0-50-11-67.5-31.2-16.9-20.8-26-46.7-26-80.5 0-37.7 9.1-66.9 26-87.7 15.6-19.5 35.1-29.2 57.8-29.2 40.9 0 68.8 22.7 84.4 68.2h6.5l.7-46.1c-8.5-7.8-22.7-15.6-40.9-20.8l-47.4-7.8c-38.3 0-68.2 12.3-90.9 37-22.7 24-33.8 53.9-33.8 89.6 0 31.8 11.1 58.4 31.2 80.5 24 22.7 55.2 34.4 94.1 34.4 42.2 0 71.4-11.1 89-31.2l5.2-37zm97.4 61.6c-30.5 0-45.4-22.7-45.4-68.2 0-44.1 14.9-66.9 45.4-66.9 29.9 0 45.4 22.7 45.4 66.9.1 45.5-15.5 68.2-45.4 68.2m52.6-12.9c15.6-14.3 22.7-32.5 22.7-55.2s-7.1-40.9-22.7-55.2c-13.6-13-32.5-19.5-52.6-19.5-20.8 0-38.3 6.5-52 19.5-15.6 14.3-22.7 32.5-22.7 55.2s7.1 40.9 22.7 55.2c13.7 13 31.2 19.5 52 19.5 20.1 0 39-6.6 52.6-19.5m14.3-126.6v5.2c8.4 1.3 16.2 9.1 21.4 22.7l50 118.2h8.4l37-97.4c9.7-27.3 19.5-42.2 27.3-43.5v-5.2h-44.8v5.2c12.3 1.3 17.5 5.8 17.5 11l-33.8 97.4-37.7-96.1c0-7.8 5.2-11.1 16.2-12.3v-5.2zm141.5 75.9c0 18.2 6.5 33.1 18.8 47.4 13.6 14.9 31.2 22.7 52.6 22.7 16.2 0 35.1-8.4 57.8-24.7l-5.8-5.8c-16.2 9.8-29.9 15.6-42.2 15.6-29.2 0-46.1-14.3-52.6-42.2-3.3-7.8-3.3-15.6-2.6-22.1H2262l3.9-1.9c0-14.3-5.2-27.9-16.2-43.5-11.7-16.2-26.6-24.7-45.5-24.7-20.1 0-36.4 7.8-50.6 21.4-14.4 15.6-20.9 35.1-20.9 57.8m26-17.5c6.5-35.7 20.8-53.2 41.6-53.9 23.4-1.3 36.4 16.9 37.6 53.9z"/><path d="M2359.4 382.8v5.2c11.7 1.3 16.9 6.5 16.9 15.6l-29.9 96.1h-1.3l-20.8-57.1-14.9-40.3c0-8.5 6.5-13 19.5-14.3v-5.2H2262v5.2q14.55 4.8 19.5 19.5l49.3 123.4-6.5 22.1c-5.2 14.9-13 22.7-21.4 23.4-17.6 4.5-26 9.7-26 16.2 0 7.8 4.6 11.1 14.3 11.1 16.2 0 29.2-14.3 40.9-43.5l53.2-140.2c6.5-17.5 13-28.6 20.1-31.8V383zm-931.8 144.1h73.4v-6.5c-9.8 0-14.9-2.6-18.2-6.5-3.2-4.5-5.8-13-5.8-27.3v-76c11.1-11.7 22.7-18.2 35.1-18.2 26 0 39 14.9 39 45.4v48.7l-4.5 27.3c-3.2 3.9-8.4 6.5-17.5 6.5v6.5h70.8v-6.5c-9.1 0-14.3-2.6-17.5-6.5-3.3-3.2-4.6-13-4.6-27.3v-55.2c0-34.4-16.9-52-51.9-52-16.2 0-32.5 5.2-48.7 17.5v-17.5l-1.9-4.5h-1.3l-37.7 18.8 3.2 5.2c5.2-1.9 9.8 1.9 11.7 13l1.3 5.2v69.5l-4.5 27.3c-3.3 3.9-10.4 6.5-20.1 6.5zM139.4 380.8c12.3-31.8 32.5-53.3 63-64.9L238 347V150.9l-22.7 100.6c-37.7 5.8-69.5 22.1-95.4 48.7C93.3 328.9 79 362 75.7 400.3zm131.1 129.9c31.2-11.1 53.2-32.5 64.9-64.9l-30.5-32.5H438l-39 13c-3.2 39.6-19.5 73.4-47.4 101.3-27.9 28.5-61.7 43.5-101.9 46.7zm-131.1-64.3c12.3 32.5 33.8 54.6 64.9 65l33.8-29.9v133.1l-14.3-39c-38.9-3.2-72.1-19.5-101.3-48-28.6-29.3-43.5-62.4-46.8-101.3l-39-13h134.4zm216.8-144.8c26.6 27.3 40.9 60.4 42.9 98.7l-63.6-19.5c-11.7-32.5-33.8-54.6-63.6-64.9l-13-64.3c37.6 5.8 70.1 22.7 97.3 50"/></g></g></svg>