<?xml version="1.0" encoding="utf-8"?>
<!-- Generator: Adobe Illustrator 24.0.0, SVG Export Plug-In . SVG Version: 6.00 Build 0)  -->
<svg version="1.1" id="Layer_1" xmlns="http://www.w3.org/2000/svg" xmlns:xlink="http://www.w3.org/1999/xlink" x="0px" y="0px"
	 viewBox="0 0 2500 783.5" style="enable-background:new 0 0 2500 783.5;" xml:space="preserve">
<style type="text/css">
	.st0{fill:#718096;stroke:#FFFFFF;stroke-width:17.3146;stroke-linecap:round;stroke-linejoin:round;stroke-miterlimit:33.89;}
	.st1{fill-rule:evenodd;clip-rule:evenodd;fill:#718096;}
</style>
<path class="st0" d="M1999,384.1l61.7,5.2"/>
<path class="st1" d="M2463.2,486.7v37.6h-6.5v-29.2l-11,29.2h-6.5l-9.7-29.2v29.2h-6.5v-37.6h11l9.8,27.3l9.7-27.3H2463.2z
	 M2403.5,494.4v29.9h-7.8v-29.9H2384v-7.8h31.2v7.8H2403.5z M1384.1,350.3c11,0,16.2-5.2,16.2-16.2c0-11.1-5.2-16.2-16.2-16.2
	c-11.1,0-16.2,5.2-16.2,16.2C1367.9,345.1,1373,350.3,1384.1,350.3z M678.3,371.1c-3.2,13-6.5,20.1-9.7,23.4l-29.9,5.8h-46.8
	l1.3-84.4c0.6-11,3.9-16.2,10.4-16.2h31.8l42.2,5.2l29.2,42.2h9.7L702.2,290h-172v7.1c11.7,0,20.8,2.6,24.7,6.5
	c3.2,3.2,5.8,13,5.8,27.3l-2.6,154.5c0,14.3-1.9,22.7-5.2,27.3c-4.6,4.5-14.3,6.5-27.9,6.5v7.8h102.6v-7.8l-29.2-6.5
	c-4.6-4.5-6.5-13-6.5-27.3v-72.1h50c13,0,21.4,1.9,26.6,6.5c5.8,5.2,9.1,13.6,9.7,27.9h9.1v-76.6H678.3L678.3,371.1L678.3,371.1z
	 M721.8,486.7c0,14.3-1.3,24-4.5,27.3c-3.2,3.9-8.4,6.5-18.2,6.5v6.5h71.4v-6.5l-18.2-6.5l-4.6-22.1v-61.7c0-19.5,7.8-29.2,24-29.2
	l20.1,1.3c11,0,16.2-3.3,16.2-11.1c0-7.1-5.2-11.7-14.9-11.7c-7.8,0-17.5,3.3-27.3,9.8l-14.9,8.4l-3.2-3.9v-13l-1.9-3.3l-39,19.5
	v0.7l1.9,4.6h1.3c5.2-1.3,9.7,1.9,10.4,9.7l1.3,8.4L721.8,486.7L721.8,486.7z M895.1,444.4v55.2c-14.3,9.8-25.3,14.9-32.5,14.9
	c-20.8-0.7-30.5-11.7-30.5-29.9c3.2-16.2,18.2-29.2,47.4-37L895.1,444.4z M845.2,407.4c4.6-13,13-19.5,24.7-19.5
	c16.2,0,25.3,11,25.3,32.5v16.2l-20.8,5.8c-44.1,10.4-68.2,26.6-69.5,47.4c0,11.7,4.6,21.4,12.3,29.2c7.1,7.8,16.2,11.1,26.6,11.1
	c16.2,0,33.8-7.8,51.3-22.7c0.6,13,7.1,19.5,19.5,19.5h22.7v-6.5h3.9l-11.7-2.6c-5.2-3.2-7.8-9.7-7.8-18.2v-76
	c0-29.2-13.6-44.1-42.9-44.1c-13,0-27.3,4.6-41.6,13c-13.6,8.4-20.1,16.2-20.1,24c0,7.1,3.2,10.4,10.4,10.4
	C834.1,426.9,840,420.4,845.2,407.4L845.2,407.4z"/>
<path class="st1" d="M1109.4,520.4c-9.1,0-14.3-2.6-17.5-6.5l-4.5-27.3v-55.2c0-34.4-16.9-52-50.6-52c-16.2,0-33.8,5.2-50,17.5
	v-17.5l-1.9-4.5h-1.3l-37.7,18.8l3.2,5.2h1.3c5.2-1.9,9.7,1.9,10.4,13l1.3,5.2v69.5c0,13-1.3,21.4-4.5,27.3
	c-3.2,3.2-8.4,5.2-16.2,6.5h-3.9v6.5h73.4v-6.5c-9.7,0-14.9-2.6-18.2-6.5l-4.6-27.3v-76c9.7-11.7,21.4-18.2,34.4-18.2
	c25.3,0,38.3,14.9,38.3,45.4v48.7c0,14.3-1.3,24-4.6,27.3c-3.2,3.9-8.4,6.5-17.5,6.5v6.5h70.8v-6.4H1109.4z M1128.9,323l0.6,163.6
	c0,14.3-0.6,24-3.9,27.3c-2.6,3.9-7.8,6.5-16.2,6.5v6.5h70.1v-6.5c-9.7,0-14.9-2.6-18.2-6.5l-4.6-27.3v-26l11.1-8.4
	c35.7,31.2,52.6,52,52.6,60.4c0,4.5-6.5,6.5-19.5,7.8v6.5h72.7v-6.5h4.6c-9.1-1.3-19.5-9.1-31.8-20.8l-58.4-61.7
	c35.1-31.2,58.4-47.4,72.7-50v-5.2h-63v5.2c11,1.3,16.2,4.5,16.2,9.7c0,6.5-8.4,16.2-24.7,28.6l-32.5,21.4V293.8l-1.3-3.2l-3.9-3.2
	l-41.6,16.2l3.2,5.8l1.3-1.3C1122.4,308.1,1126.3,313.3,1128.9,323L1128.9,323z"/>
<path class="st1" d="M1291.2,323l0.7,163.6c0,21.4-5.2,32.5-16.9,33.8h-3.2v6.5h70.1v-6.5c-9.8,0-14.9-2.6-18.2-6.5
	c-3.2-3.2-4.6-13-4.6-27.3v-196l-4.5-3.2l-40.9,16.2l1.9,5.8l1.3-1.3C1285.4,308.1,1289.9,313.3,1291.2,323L1291.2,323z
	 M1393.8,380.8l-40.9,14.9l1.9,5.2l1.3-0.6c5.2,0,9.8,3.2,11.7,8.4c3.2,3.2,4.5,13,4.5,27.9v51.3l-5.8,26c-1.9,3.9-7.1,6.5-16.2,6.5
	v6.5h69.5v-6.5c-8.4,0-14.3-2.6-17.5-6.5c-3.2-3.2-3.9-12.3-3.9-26V384.7L1393.8,380.8L1393.8,380.8z M1826.9,460.7
	c-16.2,40.9-43.5,61.7-81.2,61.7c-27.3,0-50-11-67.5-31.2c-16.9-20.8-26-46.7-26-80.5c0-37.7,9.1-66.9,26-87.7
	c15.6-19.5,35.1-29.2,57.8-29.2c40.9,0,68.8,22.7,84.4,68.2h6.5l0.7-46.1c-8.5-7.8-22.7-15.6-40.9-20.8l-47.4-7.8
	c-38.3,0-68.2,12.3-90.9,37c-22.7,24-33.8,53.9-33.8,89.6c0,31.8,11.1,58.4,31.2,80.5c24,22.7,55.2,34.4,94.1,34.4
	c42.2,0,71.4-11.1,89-31.2l5.2-37L1826.9,460.7L1826.9,460.7z M1924.3,522.3c-30.5,0-45.4-22.7-45.4-68.2
	c0-44.1,14.9-66.9,45.4-66.9c29.9,0,45.4,22.7,45.4,66.9C1969.8,499.6,1954.2,522.3,1924.3,522.3z M1976.9,509.4
	c15.6-14.3,22.7-32.5,22.7-55.2s-7.1-40.9-22.7-55.2c-13.6-13-32.5-19.5-52.6-19.5c-20.8,0-38.3,6.5-52,19.5
	c-15.6,14.3-22.7,32.5-22.7,55.2s7.1,40.9,22.7,55.2c13.7,13,31.2,19.5,52,19.5C1944.4,528.9,1963.3,522.3,1976.9,509.4z
	 M1991.2,382.8v5.2c8.4,1.3,16.2,9.1,21.4,22.7l50,118.2h8.4l37-97.4c9.7-27.3,19.5-42.2,27.3-43.5v-5.2h-44.8v5.2
	c12.3,1.3,17.5,5.8,17.5,11l-33.8,97.4l-37.7-96.1c0-7.8,5.2-11.1,16.2-12.3v-5.2L1991.2,382.8L1991.2,382.8z M2132.7,458.7
	c0,18.2,6.5,33.1,18.8,47.4c13.6,14.9,31.2,22.7,52.6,22.7c16.2,0,35.1-8.4,57.8-24.7l-5.8-5.8c-16.2,9.8-29.9,15.6-42.2,15.6
	c-29.2,0-46.1-14.3-52.6-42.2c-3.3-7.8-3.3-15.6-2.6-22.1H2262l3.9-1.9c0-14.3-5.2-27.9-16.2-43.5c-11.7-16.2-26.6-24.7-45.5-24.7
	c-20.1,0-36.4,7.8-50.6,21.4C2139.2,416.5,2132.7,436,2132.7,458.7L2132.7,458.7z M2158.7,441.2c6.5-35.7,20.8-53.2,41.6-53.9
	c23.4-1.3,36.4,16.9,37.6,53.9H2158.7z"/>
<path class="st1" d="M2359.4,382.8v5.2c11.7,1.3,16.9,6.5,16.9,15.6l-29.9,96.1h-1.3l-20.8-57.1l-14.9-40.3c0-8.5,6.5-13,19.5-14.3
	v-5.2H2262v5.2c9.7,3.2,16.2,9.7,19.5,19.5l49.3,123.4l-6.5,22.1c-5.2,14.9-13,22.7-21.4,23.4c-17.6,4.5-26,9.7-26,16.2
	c0,7.8,4.6,11.1,14.3,11.1c16.2,0,29.2-14.3,40.9-43.5l53.2-140.2c6.5-17.5,13-28.6,20.1-31.8V383L2359.4,382.8L2359.4,382.8
	L2359.4,382.8z M1427.6,526.9h73.4v-6.5c-9.8,0-14.9-2.6-18.2-6.5c-3.2-4.5-5.8-13-5.8-27.3v-76c11.1-11.7,22.7-18.2,35.1-18.2
	c26,0,39,14.9,39,45.4v48.7l-4.5,27.3c-3.2,3.9-8.4,6.5-17.5,6.5v6.5h70.8v-6.5c-9.1,0-14.3-2.6-17.5-6.5c-3.3-3.2-4.6-13-4.6-27.3
	v-55.2c0-34.4-16.9-52-51.9-52c-16.2,0-32.5,5.2-48.7,17.5v-17.5l-1.9-4.5h-1.3l-37.7,18.8l3.2,5.2c5.2-1.9,9.8,1.9,11.7,13l1.3,5.2
	v69.5l-4.5,27.3c-3.3,3.9-10.4,6.5-20.1,6.5L1427.6,526.9L1427.6,526.9L1427.6,526.9z M139.4,380.8c12.3-31.8,32.5-53.3,63-64.9
	L238,347V150.9l-22.7,100.6c-37.7,5.8-69.5,22.1-95.4,48.7C93.3,328.9,79,362,75.7,400.3L139.4,380.8L139.4,380.8z M270.5,510.7
	c31.2-11.1,53.2-32.5,64.9-64.9l-30.5-32.5H438l-39,13c-3.2,39.6-19.5,73.4-47.4,101.3c-27.9,28.5-61.7,43.5-101.9,46.7L270.5,510.7
	L270.5,510.7z M139.4,446.4c12.3,32.5,33.8,54.6,64.9,65l33.8-29.9v133.1l-14.3-39c-38.9-3.2-72.1-19.5-101.3-48
	C93.9,498.3,79,465.2,75.7,426.3l-39-13h134.4L139.4,446.4L139.4,446.4z M356.2,301.6c26.6,27.3,40.9,60.4,42.9,98.7l-63.6-19.5
	c-11.7-32.5-33.8-54.6-63.6-64.9l-13-64.3C296.5,257.4,329,274.3,356.2,301.6L356.2,301.6z"/>
</svg>
