<?xml version="1.0" encoding="utf-8"?>
<!-- Generator: Adobe Illustrator 25.0.0, SVG Export Plug-In . SVG Version: 6.00 Build 0)  -->
<svg version="1.1" id="layer" xmlns="http://www.w3.org/2000/svg" xmlns:xlink="http://www.w3.org/1999/xlink" x="0px" y="0px"
	 viewBox="0 0 652 137.8" style="enable-background:new 0 0 652 137.8;" xml:space="preserve">
<style type="text/css">
	.st0{fill:#004499;}
	.st1{fill:#3388DD;}
	.st2{fill:#88BB00;}
</style>
<g>
	<path class="st0" d="M178.2,29.7c0-3.3,0.5-8.6-3.2-10v-0.2h13.7v0.2c-3.6,1.4-3.2,6.7-3.2,10V57c0,3.3-0.4,8.5,3.2,9.9v0.2H175
		v-0.2c3.6-1.3,3.2-6.7,3.2-9.9V29.7z"/>
	<path class="st0" d="M197.5,33.9c1.6,0,3.3-0.1,4.9-0.9h0.2v5.6c2.5-3.5,5.5-5.6,10.2-5.6c4.1,0,8.7,1.6,11,5
		c2,2.9,1.8,7.4,1.8,10.8v10.5c0,3.3-0.4,5.9,2.7,7.7v0.2h-12.1V67c3.2-1.8,2.8-4.5,2.8-7.7v-9.9c0-7.8-2.2-11.7-8.8-11.7
		s-7.7,4.4-7.7,8.7v12.8c0,3.3-0.4,5.9,2.7,7.7v0.2h-12v-0.2c3.2-1.8,2.7-4.5,2.7-7.8V41.9c0-3.3,0.4-6-2.7-7.8v-0.2H197.5z"/>
	<path class="st0" d="M243,53.1c0,2.7-0.9,10.2,6.9,10.2c1,0,2-0.4,2.9-0.7l-3.8,5.1c-0.7,0.2-1.5,0.4-2.3,0.4
		c-11.2,0-10.2-11.6-10.2-14.4V38.6h-4.9V36c6.8-1.2,8.6-6.2,8.6-13h2.9v10.8h6.8c0.9,0,2,0,2.8-0.4h0.2V40h-0.2
		c-1.2-1.5-3.3-1.4-5.2-1.4h-4.3v14.5H243z"/>
	<path class="st0" d="M263,49.3c0.1,8.8,6.3,14,14.5,14c4.3,0,8.5-1.2,11.9-3.8h0.2l-3.6,6.8c-3.1,1.3-6.6,1.8-10,1.8
		c-12.3,0-20.8-7.7-20.8-17.8c0-10,7.3-17.4,18.1-17.4c9.8,0,16.6,7.1,16.3,16.4H263z M282,45.1c-0.8-5.1-4.1-7.5-9.3-7.5
		c-4.8,0-8.5,2.9-9.3,7.5H282z"/>
	<path class="st0" d="M298.4,33.9c1.7,0,3.4-0.1,4.4-0.9h0.2v5.5c1.6-3.3,4.9-5.5,8.5-5.5l2.6,0.2v6.7c-0.8-0.9-2.1-1.2-3.3-1.2
		c-5.5,0-7.8,2.9-7.8,10.3v10.1c0,3.3-0.4,6,2.7,7.8v0.2h-12.1v-0.2c3.2-1.8,2.8-4.5,2.8-7.8V41.8c0-3.3,0.4-5.9-2.7-7.7v-0.2H298.4
		z"/>
	<path class="st0" d="M324.1,33.9c1.6,0,3.3-0.1,4.5-0.9h0.2v5.7c2.5-3.9,5.4-5.7,10.2-5.7c5.1,0,8.6,2,11.3,6.3
		c2.8-3.9,6.2-6.3,11.6-6.3c10.3,0,12.9,5.9,12.9,15.1v11.1c0,3.1-0.4,6.7,3.2,7.8v0.2h-12.5V67c3.2-1.8,2.7-4.5,2.7-7.8v-9.3
		c0-7.4-2.3-12.1-8.1-12.1c-6.5,0-8.3,4.1-8.3,10.9v10.5c0,3.3-0.4,6,2.8,7.8v0.2h-12.1V67c3.2-1.8,2.8-4.5,2.8-7.8v-10
		c0-7.6-3.8-11.4-8.2-11.4c-5.5,0-8.2,3.4-8.2,10.4v11.1c0,3.3-0.4,5.9,2.7,7.8v0.2h-12v-0.2c3.2-1.8,2.7-4.5,2.7-7.8V42
		c0-3.3,0.4-5.9-2.7-7.7v-0.2h4.5V33.9z"/>
	<path class="st0" d="M381.7,50.8c0-10.8,8.7-17.9,19.2-17.9c4.6,0,8.6,1.2,12.1,4.3c3.7,3.2,5.9,8,5.9,13
		c0,10.4-8.7,17.9-18.9,17.9C390.1,68.1,381.7,61.1,381.7,50.8 M411.5,51.7c0-7-3.8-14-11.5-14c-6.7,0-11.1,5.3-11.1,11.8
		c0,6.7,4,13.8,11.4,13.8C407,63.3,411.5,58.2,411.5,51.7"/>
	<path class="st0" d="M449.4,33.9c1.9,0,4.1,0.3,5.4-0.9h0.2v26.3c0,3.3-0.4,6,2.8,7.7v0.2h-9.3v-4.8c-2.6,4-5.4,5.6-10.4,5.6
		c-8.5,0-12.6-4.8-12.6-15V41.9c0-3.3,0.4-6-2.8-7.8v-0.2h4.7c1.6,0,3.4-0.1,4.4-0.9h0.2v18.9c0,6.7,1.9,10.8,8.2,10.8
		c4.8,0,8.3-3.9,8.3-9.5V42.1c0-3.4,0.4-6-2.8-7.9V34L449.4,33.9L449.4,33.9z"/>
	<path class="st0" d="M465.9,33.9c1.6,0,3.3-0.1,4.9-0.9h0.2v5.6c2.5-3.5,5.5-5.6,10.2-5.6c4,0,8.7,1.6,11,5c2,2.9,1.8,7.4,1.8,10.8
		v10.5c0,3.3-0.4,5.9,2.7,7.7v0.2h-12.1V67c3.2-1.8,2.7-4.5,2.7-7.7v-9.9c0-7.8-2.2-11.7-8.8-11.7c-6.6,0-7.7,4.4-7.7,8.7v12.8
		c0,3.3-0.4,5.9,2.8,7.7v0.2h-12.1v-0.2c3.2-1.8,2.8-4.5,2.8-7.8V41.9c0-3.3,0.4-6-2.8-7.8v-0.2H465.9z"/>
	<path class="st0" d="M510,53.1c0,2.7-0.9,10.2,6.9,10.2c1,0,2-0.4,2.9-0.7l-3.8,5.1c-0.7,0.2-1.5,0.4-2.3,0.4
		c-11.2,0-10.2-11.6-10.2-14.4V38.6h-4.9V36c6.8-1.2,8.6-6.2,8.6-13h2.9v10.8h6.8c0.9,0,2,0,2.8-0.4h0.2V40h-0.2
		c-1.2-1.5-3.3-1.4-5.2-1.4h-4.3v14.5H510z"/>
	<path class="st0" d="M552.8,68.1c-4.8-0.3-9.6-1.7-9.6-7.5V49.2c-2.1,1.1-4.6,1.7-6.9,2.2c-3.5,0.8-7.4,1.6-7.4,6
		c0,4.5,4.1,5.9,7.9,5.9c1.7,0,3.5-0.5,5.2-1l-4.3,5.4c-1.2,0.2-2.5,0.4-3.8,0.4c-7.3,0-12.4-4.6-12.4-10.6
		c0-13.5,21.6-7.2,21.6-15.1c0-3.5-4.3-4.6-6.9-4.6c-3.7,0-6.6,1.4-9.8,2.9l4.8-7.2l4.7-0.4c7.8,0,13.8,2.2,13.8,11V55
		c0,5.7,0.2,7.9,6.1,8.5L552.8,68.1z"/>
	<path class="st0" d="M562,33.9c1.7,0,3.5-0.1,4.7-1.2h0.2v26.4c0,3.3-0.4,6,2.8,7.8v0.2h-12.1v-0.2c3.2-1.8,2.7-4.5,2.7-7.8V41.8
		c0-3.3,0.4-5.9-2.7-7.7v-0.2L562,33.9L562,33.9z M563.3,29.5c-2.7,0-4.7-2.1-4.7-4.8c0-2.5,2.3-4.3,4.7-4.3c2.5,0,4.3,2.1,4.3,4.5
		C567.7,27.4,565.8,29.5,563.3,29.5"/>
	<path class="st0" d="M578.8,33.9c1.6,0,3.3-0.1,4.9-0.9h0.2v5.6c2.5-3.5,5.5-5.6,10.2-5.6c4.1,0,8.7,1.6,11,5
		c2,2.9,1.8,7.4,1.8,10.8v10.5c0,3.3-0.4,5.9,2.7,7.7v0.2h-12.1V67c3.2-1.8,2.7-4.5,2.7-7.7v-9.9c0-7.7-2.2-11.7-8.7-11.7
		c-6.6,0-7.7,4.4-7.7,8.7v12.8c0,3.3-0.4,5.9,2.8,7.7v0.2h-12.1v-0.2c3.2-1.8,2.7-4.5,2.7-7.8V41.9c0-3.3,0.4-6-2.7-7.8v-0.2H578.8z
		"/>
	<path class="st0" d="M85.5,32.5c0-3.5,2.8-6.3,6.3-6.3s6.3,2.8,6.3,6.3s-2.8,6.3-6.3,6.3C88.3,38.9,85.5,36,85.5,32.5"/>
</g>
<g>
	<path class="st0" d="M91.8,112.4c0.6,0,1.1-0.4,1.2-1l16.6-77.9v-0.1v-0.2c0-0.8-0.6-1.5-1.4-1.5c-0.5,0-0.9,0.3-1.2,0.7L93,52.9
		l0,0c-0.3,0.4-0.8,0.6-1.3,0.6h0.1c-0.5,0-1-0.3-1.3-0.6h-0.1l-14-20.5c-0.2-0.4-0.7-0.7-1.2-0.7c-0.8,0-1.4,0.7-1.4,1.5v0.2v0.1
		l16.8,77.9C90.8,112,91.3,112.4,91.8,112.4L91.8,112.4z"/>
	<path class="st1" d="M100.3,103c0.3,0.2,0.8,0.1,1-0.2L136.6,54l0,0l0.1-0.1c0.2-0.5,0.1-1.2-0.4-1.5c-0.3-0.2-0.7-0.2-0.9,0
		l-14.6,8.3h-0.1c-0.3,0.1-0.7,0.1-1-0.1h0.1c-0.3-0.2-0.5-0.5-0.6-0.9v-0.1l2.6-39.1c0-0.4-0.2-0.7-0.5-0.9c-0.5-0.3-1-0.1-1.3,0.5
		v0.1l0,0l-20.1,81.6C99.9,102.4,100,102.8,100.3,103L100.3,103z"/>
	<path class="st1" d="M82.5,103c-0.3,0.2-0.8,0.1-1-0.2L46.2,54l0,0l-0.1-0.1c-0.3-0.5-0.1-1.2,0.4-1.5c0.3-0.2,0.6-0.2,0.9,0
		L62,60.7l0,0c0.3,0.1,0.7,0.1,1-0.1h-0.1c0.3-0.2,0.5-0.5,0.6-0.9v-0.1l-2.6-39.1c0-0.4,0.2-0.7,0.5-0.9c0.5-0.3,1-0.1,1.3,0.5v0.1
		l0,0l20.1,81.6C83,102.4,82.8,102.8,82.5,103L82.5,103z"/>
	<path class="st2" d="M122,84.4c0.2,0.3,0.5,0.3,0.7,0.2l35.2-19l0,0h0.1c0.3-0.3,0.4-0.8,0.2-1.1c-0.1-0.2-0.4-0.3-0.6-0.3
		l-12.1,0.6l0,0c-0.2,0-0.5-0.1-0.6-0.4l0,0c-0.2-0.2-0.2-0.5-0.1-0.8l0,0l5.9-17.2c0.1-0.3,0.1-0.6-0.1-0.8c-0.2-0.4-0.7-0.4-1-0.1
		v0.1l0,0l-27.5,38.1C121.9,83.8,121.9,84.1,122,84.4L122,84.4z"/>
	<path class="st2" d="M60.8,84.4c-0.2,0.3-0.5,0.3-0.7,0.2l-35.2-19l0,0h-0.1c-0.3-0.3-0.4-0.8-0.2-1.1c0.1-0.2,0.4-0.3,0.6-0.3
		l12.1,0.6l0,0c0.3,0,0.5-0.1,0.6-0.4l0,0c0.2-0.2,0.2-0.5,0.1-0.8l0,0l-5.9-17.2c-0.1-0.3-0.1-0.6,0.1-0.8c0.2-0.4,0.7-0.4,1-0.1
		l0-0.1l0,0l27.5,38.1C60.9,83.8,60.9,84.1,60.8,84.4L60.8,84.4z"/>
</g>
<g>
	<polygon class="st1" points="178.2,79.1 185.9,79.1 185.9,94.5 201.1,94.5 201.1,79.1 208.8,79.1 208.8,117.2 201.1,117.2 
		201.1,100.5 185.9,100.5 185.9,117.2 178.2,117.2 	"/>
	<path class="st1" d="M240.4,115.6c-2.7,1.5-5.7,2.2-9.7,2.2c-9.3,0-14.7-5.4-14.7-14.6c0-8.1,4.3-14.8,13.1-14.8
		c10.4,0,13.4,7.1,13.4,17h-19.4c0.3,4.5,3.5,7.1,8,7.1c3.5,0,6.6-1.3,9.3-2.8V115.6L240.4,115.6z M235.5,100.4
		c-0.2-3.6-1.9-6.6-5.9-6.6c-4.1,0-6.2,2.8-6.5,6.6H235.5z"/>
	<path class="st1" d="M250.6,90.5c2.8-1.3,6.7-2.1,9.8-2.1c8.6,0,12.1,3.5,12.1,11.8v3.6c0,2.8,0,5,0.1,7c0.1,2.1,0.2,4.1,0.3,6.3
		h-6.4c-0.3-1.5-0.3-3.3-0.3-4.2h-0.1c-1.7,3.1-5.3,4.9-8.7,4.9c-5,0-9.8-3-9.8-8.3c0-4.2,2-6.7,4.8-8c2.8-1.4,6.4-1.6,9.4-1.6h4
		c0-4.5-2-6.1-6.3-6.1c-3.1,0-6.2,1.2-8.7,3.1L250.6,90.5z M259.1,112.5c2.2,0,4-1,5.1-2.5c1.2-1.6,1.5-3.6,1.5-5.8h-3.2
		c-3.3,0-8.1,0.5-8.1,4.9C254.5,111.4,256.5,112.5,259.1,112.5"/>
	<rect x="280.7" y="76.2" class="st1" width="7.3" height="40.9"/>
	<path class="st1" d="M301.1,94.4h-5.4v-5.3h5.4v-5.7l7.3-2.3v8h6.5v5.3h-6.5v13.1c0,2.4,0.7,4.6,3.4,4.6c1.3,0,2.6-0.3,3.3-0.8
		l0.2,5.8c-1.5,0.4-3.2,0.7-5.4,0.7c-5.7,0-8.9-3.5-8.9-9.1V94.4H301.1z"/>
	<path class="st1" d="M324,76.2h7.3v16.6h0.1c1.9-2.7,5-4.5,8.8-4.5c6.7,0,9.5,4.7,9.5,11V117h-7.3v-15c0-3.4-0.1-8.1-4.8-8.1
		c-5.3,0-6.4,5.7-6.4,9.3V117h-7.3L324,76.2L324,76.2z"/>
	<path class="st1" d="M376.8,95.1c-1.3-0.6-2.7-1-5-1c-4.5,0-7.4,3.6-7.4,8.9c0,5.2,2.5,9.2,7.6,9.2c2.1,0,4.4-0.8,5.6-1.3l0.3,6.1
		c-2.1,0.6-4.3,0.9-7.3,0.9c-9.2,0-13.9-6.3-13.9-14.8c0-8.1,4.8-14.6,13.6-14.6c3,0,5.1,0.3,7.1,0.9L376.8,95.1z"/>
	<path class="st1" d="M387,90.5c2.8-1.3,6.7-2.1,9.8-2.1c8.6,0,12.1,3.5,12.1,11.8v3.6c0,2.8,0.1,5,0.1,7c0.1,2.1,0.2,4.1,0.3,6.3
		h-6.4c-0.3-1.5-0.3-3.3-0.3-4.2h-0.1c-1.7,3.1-5.3,4.9-8.7,4.9c-5,0-9.8-3-9.8-8.3c0-4.2,2-6.7,4.8-8c2.8-1.4,6.4-1.6,9.4-1.6h4
		c0-4.5-2-6.1-6.3-6.1c-3.1,0-6.2,1.2-8.7,3.1L387,90.5z M395.5,112.5c2.2,0,4-1,5.1-2.5c1.2-1.6,1.5-3.6,1.5-5.8h-3.2
		c-3.3,0-8.1,0.5-8.1,4.9C390.9,111.4,392.9,112.5,395.5,112.5"/>
	<path class="st1" d="M418.1,89h6.5v6.4h0.1c0.3-2.6,3.3-7,7.7-7c0.7,0,1.5,0,2.2,0.2V96c-0.6-0.4-2-0.6-3.3-0.6
		c-5.9,0-5.9,7.4-5.9,11.5v10.3h-7.3L418.1,89L418.1,89z"/>
	<path class="st1" d="M462.6,115.6c-2.7,1.5-5.7,2.2-9.7,2.2c-9.3,0-14.7-5.4-14.7-14.6c0-8.1,4.3-14.8,13-14.8
		c10.4,0,13.4,7.1,13.4,17h-19.4c0.3,4.5,3.5,7.1,8,7.1c3.5,0,6.6-1.3,9.3-2.8v5.9H462.6z M457.7,100.4c-0.2-3.6-1.9-6.6-5.9-6.6
		c-4.1,0-6.2,2.8-6.5,6.6H457.7z"/>
	<path class="st0" d="M613.2,38.5c0-3.1,2.6-5.7,5.7-5.7c3.1,0,5.7,2.6,5.7,5.7s-2.6,5.7-5.7,5.7C615.7,44.2,613.2,41.6,613.2,38.5
		 M623.2,38.5c0-2.7-1.9-4.6-4.3-4.6s-4.3,1.9-4.3,4.6s1.9,4.6,4.3,4.6S623.2,41.2,623.2,38.5 M616.7,35.3h2.4
		c1.5,0,2.4,0.5,2.4,1.9c0,1.1-0.6,1.6-1.7,1.7l1.7,2.8h-1.2l-1.7-2.8h-0.7v2.8h-1.2L616.7,35.3L616.7,35.3z M617.8,38h1.1
		c0.7,0,1.3-0.1,1.3-1c0-0.8-0.7-0.9-1.3-0.9h-1.1V38z"/>
</g>
</svg>
