<?xml version="1.0" encoding="utf-8"?>
<!-- Generator: Adobe Illustrator 25.0.0, SVG Export Plug-In . SVG Version: 6.00 Build 0)  -->
<svg version="1.1" id="layer" xmlns="http://www.w3.org/2000/svg" xmlns:xlink="http://www.w3.org/1999/xlink" x="0px" y="0px"
	 viewBox="0 0 652 137.8" style="enable-background:new 0 0 652 137.8;" xml:space="preserve">
<style type="text/css">
	.st0{fill:#718096;}
</style>
<g>
	<path class="st0" d="M174,29.2c0-3.3,0.5-8.6-3.2-10V19h13.7v0.2c-3.6,1.4-3.2,6.7-3.2,10v27.3c0,3.3-0.4,8.5,3.2,9.9v0.2h-13.7
		v-0.2c3.6-1.3,3.2-6.7,3.2-9.9V29.2z"/>
	<path class="st0" d="M193.3,33.4c1.6,0,3.3-0.1,4.9-0.9h0.2v5.6c2.5-3.5,5.5-5.6,10.2-5.6c4.1,0,8.7,1.6,11,5
		c2,2.9,1.8,7.4,1.8,10.8v10.5c0,3.3-0.4,5.9,2.7,7.7v0.2H212v-0.2c3.2-1.8,2.8-4.5,2.8-7.7v-9.9c0-7.8-2.2-11.7-8.8-11.7
		s-7.7,4.4-7.7,8.7v12.8c0,3.3-0.4,5.9,2.7,7.7v0.2h-12v-0.2c3.2-1.8,2.7-4.5,2.7-7.8V41.4c0-3.3,0.4-6-2.7-7.8v-0.2H193.3z"/>
	<path class="st0" d="M238.8,52.6c0,2.7-0.9,10.2,6.9,10.2c1,0,2-0.4,2.9-0.7l-3.8,5.1c-0.7,0.2-1.5,0.4-2.3,0.4
		c-11.2,0-10.2-11.6-10.2-14.4V38.1h-4.9v-2.6c6.8-1.2,8.6-6.2,8.6-13h2.9v10.8h6.8c0.9,0,2,0,2.8-0.4h0.2v6.6h-0.2
		c-1.2-1.5-3.3-1.4-5.2-1.4H239v14.5H238.8z"/>
	<path class="st0" d="M258.8,48.8c0.1,8.8,6.3,14,14.5,14c4.3,0,8.5-1.2,11.9-3.8h0.2l-3.6,6.8c-3.1,1.3-6.6,1.8-10,1.8
		c-12.3,0-20.8-7.7-20.8-17.8c0-10,7.3-17.4,18.1-17.4c9.8,0,16.6,7.1,16.3,16.4H258.8z M277.8,44.6c-0.8-5.1-4.1-7.5-9.3-7.5
		c-4.8,0-8.5,2.9-9.3,7.5H277.8z"/>
	<path class="st0" d="M294.2,33.4c1.7,0,3.4-0.1,4.4-0.9h0.2V38c1.6-3.3,4.9-5.5,8.5-5.5l2.6,0.2v6.7c-0.8-0.9-2.1-1.2-3.3-1.2
		c-5.5,0-7.8,2.9-7.8,10.3v10.1c0,3.3-0.4,6,2.7,7.8v0.2h-12.1v-0.2c3.2-1.8,2.8-4.5,2.8-7.8V41.3c0-3.3,0.4-5.9-2.7-7.7v-0.2H294.2
		z"/>
	<path class="st0" d="M319.9,33.4c1.6,0,3.3-0.1,4.5-0.9h0.2v5.7c2.5-3.9,5.4-5.7,10.2-5.7c5.1,0,8.6,2,11.3,6.3
		c2.8-3.9,6.2-6.3,11.6-6.3c10.3,0,12.9,5.9,12.9,15.1v11.1c0,3.1-0.4,6.7,3.2,7.8v0.2h-12.5v-0.2c3.2-1.8,2.7-4.5,2.7-7.8v-9.3
		c0-7.4-2.3-12.1-8.1-12.1c-6.5,0-8.3,4.1-8.3,10.9v10.5c0,3.3-0.4,6,2.8,7.8v0.2h-12.1v-0.2c3.2-1.8,2.8-4.5,2.8-7.8v-10
		c0-7.6-3.8-11.4-8.2-11.4c-5.5,0-8.2,3.4-8.2,10.4v11.1c0,3.3-0.4,5.9,2.7,7.8v0.2h-12v-0.2c3.2-1.8,2.7-4.5,2.7-7.8V41.5
		c0-3.3,0.4-5.9-2.7-7.7v-0.2h4.5V33.4z"/>
	<path class="st0" d="M377.5,50.3c0-10.8,8.7-17.9,19.2-17.9c4.6,0,8.6,1.2,12.1,4.3c3.7,3.2,5.9,8,5.9,13
		c0,10.4-8.7,17.9-18.9,17.9C385.9,67.6,377.5,60.6,377.5,50.3 M407.3,51.2c0-7-3.8-14-11.5-14c-6.7,0-11.1,5.3-11.1,11.8
		c0,6.7,4,13.8,11.4,13.8C402.8,62.8,407.3,57.7,407.3,51.2"/>
	<path class="st0" d="M445.2,33.4c1.9,0,4.1,0.3,5.4-0.9h0.2v26.3c0,3.3-0.4,6,2.8,7.7v0.2h-9.3v-4.8c-2.6,4-5.4,5.6-10.4,5.6
		c-8.5,0-12.6-4.8-12.6-15V41.4c0-3.3,0.4-6-2.8-7.8v-0.2h4.7c1.6,0,3.4-0.1,4.4-0.9h0.2v18.9c0,6.7,1.9,10.8,8.2,10.8
		c4.8,0,8.3-3.9,8.3-9.5V41.6c0-3.4,0.4-6-2.8-7.9v-0.2L445.2,33.4L445.2,33.4z"/>
	<path class="st0" d="M461.7,33.4c1.6,0,3.3-0.1,4.9-0.9h0.2v5.6c2.5-3.5,5.5-5.6,10.2-5.6c4,0,8.7,1.6,11,5c2,2.9,1.8,7.4,1.8,10.8
		v10.5c0,3.3-0.4,5.9,2.7,7.7v0.2h-12.1v-0.2c3.2-1.8,2.7-4.5,2.7-7.7v-9.9c0-7.8-2.2-11.7-8.8-11.7c-6.6,0-7.7,4.4-7.7,8.7v12.8
		c0,3.3-0.4,5.9,2.8,7.7v0.2h-12.1v-0.2c3.2-1.8,2.8-4.5,2.8-7.8V41.4c0-3.3,0.4-6-2.8-7.8v-0.2H461.7z"/>
	<path class="st0" d="M505.8,52.6c0,2.7-0.9,10.2,6.9,10.2c1,0,2-0.4,2.9-0.7l-3.8,5.1c-0.7,0.2-1.5,0.4-2.3,0.4
		c-11.2,0-10.2-11.6-10.2-14.4V38.1h-4.9v-2.6c6.8-1.2,8.6-6.2,8.6-13h2.9v10.8h6.8c0.9,0,2,0,2.8-0.4h0.2v6.6h-0.2
		c-1.2-1.5-3.3-1.4-5.2-1.4H506v14.5H505.8z"/>
	<path class="st0" d="M548.5,67.6c-4.8-0.3-9.6-1.7-9.6-7.5V48.7c-2.1,1.1-4.6,1.7-6.9,2.2c-3.5,0.8-7.4,1.6-7.4,6
		c0,4.5,4.1,5.9,7.9,5.9c1.7,0,3.5-0.5,5.2-1l-4.3,5.4c-1.2,0.2-2.5,0.4-3.8,0.4c-7.3,0-12.4-4.6-12.4-10.6
		c0-13.5,21.6-7.2,21.6-15.1c0-3.5-4.3-4.6-6.9-4.6c-3.7,0-6.6,1.4-9.8,2.9l4.8-7.2l4.7-0.4c7.8,0,13.8,2.2,13.8,11v10.9
		c0,5.7,0.2,7.9,6.1,8.5L548.5,67.6z"/>
	<path class="st0" d="M557.7,33.4c1.7,0,3.5-0.1,4.7-1.2h0.2v26.4c0,3.3-0.4,6,2.8,7.8v0.2h-12.1v-0.2c3.2-1.8,2.7-4.5,2.7-7.8V41.3
		c0-3.3,0.4-5.9-2.7-7.7v-0.2L557.7,33.4L557.7,33.4z M559.1,29c-2.7,0-4.7-2.1-4.7-4.8c0-2.5,2.3-4.3,4.7-4.3
		c2.5,0,4.3,2.1,4.3,4.5C563.4,26.9,561.5,29,559.1,29"/>
	<path class="st0" d="M574.6,33.4c1.6,0,3.3-0.1,4.9-0.9h0.2v5.6c2.5-3.5,5.5-5.6,10.2-5.6c4.1,0,8.7,1.6,11,5
		c2,2.9,1.8,7.4,1.8,10.8v10.5c0,3.3-0.4,5.9,2.7,7.7v0.2h-12.1v-0.2c3.2-1.8,2.7-4.5,2.7-7.7v-9.9c0-7.7-2.2-11.7-8.7-11.7
		c-6.6,0-7.7,4.4-7.7,8.7v12.8c0,3.3-0.4,5.9,2.8,7.7v0.2h-12.1v-0.2c3.2-1.8,2.7-4.5,2.7-7.8V41.4c0-3.3,0.4-6-2.7-7.8v-0.2H574.6z
		"/>
	<path class="st0" d="M81.3,32c0-3.5,2.8-6.3,6.3-6.3s6.3,2.8,6.3,6.3s-2.8,6.3-6.3,6.3C84.1,38.4,81.3,35.5,81.3,32"/>
</g>
<g>
	<path class="st0" d="M87.6,111.9c0.6,0,1.1-0.4,1.2-1L105.4,33v-0.1v-0.2c0-0.8-0.6-1.5-1.4-1.5c-0.5,0-0.9,0.3-1.2,0.7l-14,20.5
		l0,0C88.5,52.8,88,53,87.5,53h0.1c-0.5,0-1-0.3-1.3-0.6h-0.1l-14-20.5c-0.2-0.4-0.7-0.7-1.2-0.7c-0.8,0-1.4,0.7-1.4,1.5v0.2V33
		l16.8,77.9C86.6,111.5,87.1,111.9,87.6,111.9L87.6,111.9z"/>
	<path class="st0" d="M96.1,102.5c0.3,0.2,0.8,0.1,1-0.2l35.3-48.8l0,0l0.1-0.1c0.2-0.5,0.1-1.2-0.4-1.5c-0.3-0.2-0.7-0.2-0.9,0
		l-14.6,8.3h-0.1c-0.3,0.1-0.7,0.1-1-0.1h0.1c-0.3-0.2-0.5-0.5-0.6-0.9v-0.1l2.6-39.1c0-0.4-0.2-0.7-0.5-0.9c-0.5-0.3-1-0.1-1.3,0.5
		v0.1l0,0l-20.1,81.6C95.7,101.9,95.8,102.3,96.1,102.5L96.1,102.5z"/>
	<path class="st0" d="M78.3,102.5c-0.3,0.2-0.8,0.1-1-0.2L42,53.5l0,0l-0.1-0.1c-0.3-0.5-0.1-1.2,0.4-1.5c0.3-0.2,0.6-0.2,0.9,0
		l14.6,8.3l0,0c0.3,0.1,0.7,0.1,1-0.1h-0.1c0.3-0.2,0.5-0.5,0.6-0.9v-0.1L56.7,20c0-0.4,0.2-0.7,0.5-0.9c0.5-0.3,1-0.1,1.3,0.5v0.1
		l0,0l20.1,81.6C78.8,101.9,78.6,102.3,78.3,102.5L78.3,102.5z"/>
	<path class="st0" d="M117.8,83.9c0.2,0.3,0.5,0.3,0.7,0.2l35.2-19l0,0h0.1c0.3-0.3,0.4-0.8,0.2-1.1c-0.1-0.2-0.4-0.3-0.6-0.3
		l-12.1,0.6l0,0c-0.2,0-0.5-0.1-0.6-0.4l0,0c-0.2-0.2-0.2-0.5-0.1-0.8l0,0l5.9-17.2c0.1-0.3,0.1-0.6-0.1-0.8c-0.2-0.4-0.7-0.4-1-0.1
		v0.1l0,0l-27.5,38.1C117.7,83.3,117.7,83.6,117.8,83.9L117.8,83.9z"/>
	<path class="st0" d="M56.6,83.9c-0.2,0.3-0.5,0.3-0.7,0.2l-35.2-19l0,0h-0.1c-0.3-0.3-0.4-0.8-0.2-1.1c0.1-0.2,0.4-0.3,0.6-0.3
		l12.1,0.6l0,0c0.3,0,0.5-0.1,0.6-0.4l0,0c0.2-0.2,0.2-0.5,0.1-0.8l0,0l-5.9-17.2c-0.1-0.3-0.1-0.6,0.1-0.8c0.2-0.4,0.7-0.4,1-0.1
		l0-0.1l0,0L56.5,83C56.7,83.3,56.7,83.6,56.6,83.9L56.6,83.9z"/>
</g>
<g>
	<polygon class="st0" points="174,78.6 181.7,78.6 181.7,94 196.9,94 196.9,78.6 204.6,78.6 204.6,116.7 196.9,116.7 196.9,100 
		181.7,100 181.7,116.7 174,116.7 	"/>
	<path class="st0" d="M236.2,115.1c-2.7,1.5-5.7,2.2-9.7,2.2c-9.3,0-14.7-5.4-14.7-14.6c0-8.1,4.3-14.8,13.1-14.8
		c10.4,0,13.4,7.1,13.4,17h-19.4c0.3,4.5,3.5,7.1,8,7.1c3.5,0,6.6-1.3,9.3-2.8L236.2,115.1L236.2,115.1z M231.3,99.9
		c-0.2-3.6-1.9-6.6-5.9-6.6c-4.1,0-6.2,2.8-6.5,6.6H231.3z"/>
	<path class="st0" d="M246.4,90c2.8-1.3,6.7-2.1,9.8-2.1c8.6,0,12.1,3.5,12.1,11.8v3.6c0,2.8,0,5,0.1,7c0.1,2.1,0.2,4.1,0.3,6.3
		h-6.4c-0.3-1.5-0.3-3.3-0.3-4.2h-0.1c-1.7,3.1-5.3,4.9-8.7,4.9c-5,0-9.8-3-9.8-8.3c0-4.2,2-6.7,4.8-8c2.8-1.4,6.4-1.6,9.4-1.6h4
		c0-4.5-2-6.1-6.3-6.1c-3.1,0-6.2,1.2-8.7,3.1L246.4,90z M254.9,112c2.2,0,4-1,5.1-2.5c1.2-1.6,1.5-3.6,1.5-5.8h-3.2
		c-3.3,0-8.1,0.5-8.1,4.9C250.3,110.9,252.3,112,254.9,112"/>
	<rect x="276.5" y="75.7" class="st0" width="7.3" height="40.9"/>
	<path class="st0" d="M296.9,93.9h-5.4v-5.3h5.4v-5.7l7.3-2.3v8h6.5v5.3h-6.5V107c0,2.4,0.7,4.6,3.4,4.6c1.3,0,2.6-0.3,3.3-0.8
		l0.2,5.8c-1.5,0.4-3.2,0.7-5.4,0.7c-5.7,0-8.9-3.5-8.9-9.1V93.9H296.9z"/>
	<path class="st0" d="M319.8,75.7h7.3v16.6h0.1c1.9-2.7,5-4.5,8.8-4.5c6.7,0,9.5,4.7,9.5,11v17.7h-7.3v-15c0-3.4-0.1-8.1-4.8-8.1
		c-5.3,0-6.4,5.7-6.4,9.3v13.8h-7.3L319.8,75.7L319.8,75.7z"/>
	<path class="st0" d="M372.6,94.6c-1.3-0.6-2.7-1-5-1c-4.5,0-7.4,3.6-7.4,8.9c0,5.2,2.5,9.2,7.6,9.2c2.1,0,4.4-0.8,5.6-1.3l0.3,6.1
		c-2.1,0.6-4.3,0.9-7.3,0.9c-9.2,0-13.9-6.3-13.9-14.8c0-8.1,4.8-14.6,13.6-14.6c3,0,5.1,0.3,7.1,0.9L372.6,94.6z"/>
	<path class="st0" d="M382.8,90c2.8-1.3,6.7-2.1,9.8-2.1c8.6,0,12.1,3.5,12.1,11.8v3.6c0,2.8,0.1,5,0.1,7c0.1,2.1,0.2,4.1,0.3,6.3
		h-6.4c-0.3-1.5-0.3-3.3-0.3-4.2h-0.1c-1.7,3.1-5.3,4.9-8.7,4.9c-5,0-9.8-3-9.8-8.3c0-4.2,2-6.7,4.8-8c2.8-1.4,6.4-1.6,9.4-1.6h4
		c0-4.5-2-6.1-6.3-6.1c-3.1,0-6.2,1.2-8.7,3.1L382.8,90z M391.3,112c2.2,0,4-1,5.1-2.5c1.2-1.6,1.5-3.6,1.5-5.8h-3.2
		c-3.3,0-8.1,0.5-8.1,4.9C386.7,110.9,388.7,112,391.3,112"/>
	<path class="st0" d="M413.9,88.5h6.5v6.4h0.1c0.3-2.6,3.3-7,7.7-7c0.7,0,1.5,0,2.2,0.2v7.4c-0.6-0.4-2-0.6-3.3-0.6
		c-5.9,0-5.9,7.4-5.9,11.5v10.3h-7.3L413.9,88.5L413.9,88.5z"/>
	<path class="st0" d="M458.4,115.1c-2.7,1.5-5.7,2.2-9.7,2.2c-9.3,0-14.7-5.4-14.7-14.6c0-8.1,4.3-14.8,13-14.8
		c10.4,0,13.4,7.1,13.4,17H441c0.3,4.5,3.5,7.1,8,7.1c3.5,0,6.6-1.3,9.3-2.8v5.9H458.4z M453.5,99.9c-0.2-3.6-1.9-6.6-5.9-6.6
		c-4.1,0-6.2,2.8-6.5,6.6H453.5z"/>
	<path class="st0" d="M608.9,38c0-3.1,2.6-5.7,5.7-5.7c3.1,0,5.7,2.6,5.7,5.7s-2.6,5.7-5.7,5.7C611.4,43.7,608.9,41.1,608.9,38
		 M618.9,38c0-2.7-1.9-4.6-4.3-4.6s-4.3,1.9-4.3,4.6s1.9,4.6,4.3,4.6S618.9,40.7,618.9,38 M612.4,34.8h2.4c1.5,0,2.4,0.5,2.4,1.9
		c0,1.1-0.6,1.6-1.7,1.7l1.7,2.8H616l-1.7-2.8h-0.7v2.8h-1.2L612.4,34.8L612.4,34.8z M613.6,37.5h1.1c0.7,0,1.3-0.1,1.3-1
		c0-0.8-0.7-0.9-1.3-0.9h-1.1V37.5z"/>
</g>
</svg>
