<svg enable-background="new 0 0 668.6 290.5" viewBox="0 0 668.6 290.5" xmlns="http://www.w3.org/2000/svg"><g fill="#718096"><path d="m246.3 117.7v32.8h-6.1v-5.1h-.1c-2.7 4.2-6.3 6.2-10.8 6.2-4.6 0-8.3-1.7-11-5.2-2.7-3.4-4.1-7.6-4.1-12.6 0-4.7 1.4-8.7 4.1-12.1 2.8-3.4 6.4-5.1 10.8-5.1 4.6 0 8.2 2.2 10.9 6.4h.1v-5.5h6.2zm-16 28.4c3.2 0 5.7-1.1 7.5-3.4s2.7-5.1 2.7-8.5c0-3.3-.9-6.1-2.8-8.4s-4.3-3.4-7.5-3.4c-3 0-5.4 1.2-7.3 3.5-1.8 2.3-2.7 5.1-2.7 8.3 0 3.3.9 6.1 2.7 8.4 1.9 2.3 4.3 3.5 7.4 3.5z"/><path d="m261.1 123.6v26.6h-6.3v-26.6h-3.4v-5.9h3.4v-11.5h6.3v11.6h6.2v5.9c0-.1-6.2-.1-6.2-.1z"/><path d="m270.3 99.6c.8-.9 1.9-1.3 3.1-1.3s2.2.4 3.1 1.3c.8.9 1.3 1.9 1.3 3.1s-.4 2.2-1.3 3c-.8.8-1.9 1.2-3.1 1.2s-2.2-.4-3.1-1.2c-.8-.8-1.3-1.8-1.3-3 .1-1.2.5-2.3 1.3-3.1zm6.3 18.1v32.8h-6.3v-32.8z"/><path d="m285.2 121.8c3.3-3.4 7.3-5.1 12-5.1s8.7 1.7 12 5.1 4.9 7.5 4.9 12.4-1.6 9.1-4.9 12.4-7.3 5.1-12 5.1-8.7-1.7-12-5.1-4.9-7.5-4.9-12.4c-.1-4.9 1.6-9 4.9-12.4zm19.6 4.3c-2.1-2.2-4.7-3.4-7.6-3.4-3 0-5.5 1.1-7.7 3.4-2.1 2.2-3.2 4.9-3.2 8.1 0 3.1 1.1 5.8 3.2 8 2.1 2.3 4.7 3.4 7.7 3.4s5.5-1.1 7.6-3.4 3.2-4.9 3.2-8-1.1-5.8-3.2-8.1z"/><path d="m323.5 117.7v4.4h.1c.9-1.7 2.3-3.1 4.1-4s3.7-1.4 5.8-1.4c4.3 0 7.3 1.3 9.1 3.8 1.7 2.5 2.6 6 2.6 10.4v19.6h-6.3v-18.8c0-3.2-.5-5.6-1.4-7.1s-2.9-2.3-5.9-2.3c-1.3 0-2.5.2-3.4.5-1 .3-1.8.9-2.3 1.6-.6.8-1 1.5-1.4 2.2s-.6 1.6-.7 2.9-.2 2.2-.2 2.9v3.1 15.1h-6.3v-32.8z"/><path d="m380.1 117.7v32.8h-6.1v-5.1h-.1c-2.7 4.2-6.3 6.2-10.8 6.2-4.6 0-8.3-1.7-11.1-5.2-2.7-3.4-4.1-7.6-4.1-12.6 0-4.7 1.4-8.7 4.1-12.1 2.8-3.4 6.4-5.1 10.8-5.1 4.6 0 8.2 2.2 10.9 6.4h.1v-5.5h6.3zm-16 28.4c3.2 0 5.7-1.1 7.5-3.4s2.7-5.1 2.7-8.5c0-3.3-.9-6.1-2.8-8.4s-4.4-3.4-7.5-3.4c-3 0-5.4 1.2-7.3 3.5-1.8 2.3-2.7 5.1-2.7 8.3 0 3.3.9 6.1 2.7 8.4 1.9 2.3 4.3 3.5 7.4 3.5z"/><path d="m391.7 98.3v52.3h-6.3v-52.3z"/><path d="m220.5 159.4v4.4h.1c.9-1.7 2.3-3.1 4.1-4s3.7-1.4 5.8-1.4c4.3 0 7.3 1.3 9 3.8s2.6 6 2.6 10.5v19.6h-6.3v-18.8c0-3.2-.5-5.6-1.4-7.1s-2.9-2.3-5.9-2.3c-1.3 0-2.5.2-3.4.5-1 .3-1.8.9-2.3 1.6-.5.8-1 1.4-1.4 2.1-.3.7-.6 1.6-.7 2.9-.1 1.2-.2 2.2-.2 2.9s0 1.7 0 3.1v15.1h-6.3v-32.8z"/><path d="m278.8 176.9h-25c0 2.9 1 5.5 2.8 7.6s4.2 3.2 7.1 3.2c2.3 0 4.2-.5 5.7-1.6s2.9-2.7 4.2-4.8l5.3 3c-1.5 2.8-3.7 5-6.3 6.6-2.7 1.6-5.7 2.4-8.9 2.4-4.9 0-8.8-1.6-11.8-4.9-2.9-3.3-4.4-7.4-4.4-12.4 0-5.2 1.4-9.5 4.1-12.8s6.7-4.9 11.9-4.9c5 0 8.8 1.6 11.4 4.9s3.9 7.5 3.9 12.6zm-24.7-4.8h18.4c-.4-2.5-1.4-4.5-2.9-6-1.6-1.5-3.6-2.2-6.1-2.2-2.4 0-4.5.8-6.2 2.3s-2.8 3.5-3.2 5.9z"/><path d="m291 159.4v5.3h.2c.8-2 2-3.5 3.6-4.6s3.4-1.7 5.4-1.7c1.8 0 3.5.5 5.2 1.6l-2.9 5.8c-1-.9-2.3-1.3-3.9-1.3s-3 .3-4.1 1-1.9 1.6-2.3 2.9c-.5 1.2-.8 2.4-1 3.6s-.2 2.6-.2 4.1v16.1h-6.3v-32.9z"/><path d="m333.3 193.4v-6.2h-.1c-1.3 1.9-2.9 3.4-4.9 4.6s-4 1.7-6.3 1.7c-4.9 0-8.7-1.7-11.5-5.2-2.8-3.4-4.2-7.6-4.2-12.6 0-4.7 1.4-8.7 4.3-12.1s6.6-5.1 11.1-5.1c4.8 0 8.6 2.2 11.4 6.6h.1v-5.6h6.3v32.2c0 6.2-1.2 11-3.5 14.4m-13-18.3c3.3 0 5.9-1.1 7.8-3.4s2.8-5.1 2.8-8.5c0-3.3-1-6.1-2.9-8.4s-4.5-3.4-7.8-3.4c-3.1 0-5.6 1.2-7.5 3.5s-2.8 5.1-2.8 8.3c0 3.3.9 6.1 2.8 8.4s4.4 3.5 7.6 3.5z"/><path d="m352.3 192.2 4.6-8.1-13-24.8h7l9.8 19.5 10.5-19.5h6.7l-18.8 32.9z"/><path d="m213.8 205.4c3.3-3.4 7.3-5.1 12-5.1s8.7 1.7 12 5.1 4.9 7.5 4.9 12.4-1.6 9.1-4.9 12.4c-3.3 3.4-7.3 5.1-12 5.1s-8.7-1.7-12-5.1-4.9-7.5-4.9-12.4 1.6-9.1 4.9-12.4zm19.6 4.3c-2.1-2.2-4.7-3.4-7.7-3.4s-5.5 1.1-7.7 3.4c-2.1 2.2-3.2 4.9-3.2 8.1 0 3.1 1.1 5.8 3.2 8 2.1 2.3 4.7 3.4 7.7 3.4s5.5-1.1 7.7-3.4c2.1-2.3 3.2-4.9 3.2-8 0-3.2-1-5.8-3.2-8.1z"/><path d="m245.8 201.3h6.3v18.2c0 3 .6 5.4 1.6 7.2 1.1 1.8 3.1 2.7 5.9 2.7s4.8-.9 5.9-2.7 1.7-4.2 1.7-7.2v-18.2h6.3v18.9c0 4.7-1.1 8.4-3.4 11.1s-5.8 4-10.5 4-8.2-1.4-10.5-4c-2.3-2.7-3.4-6.4-3.4-11.1z"/><path d="m282.7 201.3v4.4h.2c.9-1.7 2.3-3.1 4.1-4s3.7-1.4 5.8-1.4c4.3 0 7.3 1.3 9.1 3.8 1.7 2.5 2.6 6 2.6 10.5v19.6h-6.3v-18.8c0-3.2-.4-5.6-1.4-7.1-.9-1.5-2.9-2.3-5.9-2.3-1.3 0-2.5.2-3.4.5-1 .3-1.8.9-2.3 1.6-.6.8-1 1.5-1.4 2.1-.3.7-.6 1.6-.7 2.9-.1 1.2-.2 2.2-.2 2.9s0 1.7 0 3.1v15.1h-6.3v-32.9z"/><path d="m339.6 183v51.1h-6.3v-5.1h-.1c-1.3 1.9-2.9 3.4-4.9 4.6-1.9 1.1-4 1.7-6.3 1.7-4.9 0-8.7-1.7-11.5-5.2-2.8-3.4-4.2-7.6-4.2-12.6 0-4.7 1.4-8.7 4.3-12.1s6.6-5.1 11.2-5.1c4.8 0 8.6 2.1 11.4 6.5h.1v-24.3m-10.3 47.1c3.3 0 5.9-1.1 7.8-3.4s2.8-5.1 2.8-8.5c0-3.3-1-6.1-2.9-8.4s-4.5-3.4-7.8-3.4c-3.1 0-5.6 1.2-7.5 3.5s-2.8 5.1-2.8 8.3c0 3.3.9 6.1 2.8 8.4 1.9 2.4 4.4 3.5 7.6 3.5z"/><path d="m375 201.3v32.8h-6.1v-5.1h-.1c-2.7 4.2-6.3 6.2-10.7 6.2-4.6 0-8.3-1.7-11.1-5.2-2.7-3.4-4.1-7.6-4.1-12.6 0-4.7 1.4-8.7 4.1-12.1 2.8-3.4 6.4-5.1 10.8-5.1 4.6 0 8.2 2.1 10.9 6.5h.1v-5.5zm-16 28.3c3.2 0 5.7-1.1 7.5-3.4s2.7-5.1 2.7-8.5c0-3.3-.9-6.1-2.8-8.4s-4.4-3.4-7.5-3.4c-3 0-5.4 1.2-7.3 3.5-1.8 2.3-2.7 5.1-2.7 8.3 0 3.3.9 6.1 2.7 8.4 1.9 2.4 4.3 3.5 7.4 3.5z"/><path d="m389.2 207.2v26.6h-6.3v-26.6h-3.4v-5.9h3.4v-11.4h6.3v11.4h6.2v5.9z"/><path d="m400.2 183.1c.8-.9 1.9-1.3 3.1-1.3s2.2.4 3.1 1.3 1.3 1.9 1.3 3.1-.4 2.2-1.3 3c-.8.8-1.9 1.2-3.1 1.2s-2.2-.4-3.1-1.2c-.8-.8-1.3-1.9-1.3-3 .1-1.1.5-2.2 1.3-3.1zm6.3 18.2v32.8h-6.3v-32.9z"/><path d="m414.9 205.4c3.3-3.4 7.3-5.1 12-5.1s8.7 1.7 12 5.1 4.9 7.5 4.9 12.4-1.6 9.1-4.9 12.4c-3.3 3.4-7.3 5.1-12 5.1s-8.8-1.7-12-5.1c-3.3-3.4-4.9-7.5-4.9-12.4s1.6-9.1 4.9-12.4zm19.6 4.3c-2.1-2.2-4.7-3.4-7.6-3.4-3 0-5.5 1.1-7.7 3.4-2.1 2.2-3.2 4.9-3.2 8.1 0 3.1 1.1 5.8 3.2 8 2.1 2.3 4.7 3.4 7.7 3.4s5.5-1.1 7.6-3.4 3.2-4.9 3.2-8c0-3.2-1-5.8-3.2-8.1z"/><path d="m453.4 201.3v4.4h.1c.9-1.7 2.3-3.1 4.1-4s3.7-1.4 5.8-1.4c4.3 0 7.3 1.3 9 3.8s2.6 6 2.6 10.5v19.6h-6.3v-18.8c0-3.2-.5-5.6-1.4-7.1s-2.9-2.3-5.9-2.3c-1.3 0-2.5.2-3.4.5-1 .3-1.8.9-2.3 1.6-.6.8-1 1.5-1.4 2.1-.4.7-.6 1.6-.7 2.9-.1 1.2-.2 2.2-.3 2.9v3.1 15.1h-6.3v-32.9z"/><path d="m203.2 117.4v21.6l-23.9-25v36.8h6.2v-21.6l23.9 25v-36.8z"/><path d="m207.5 164.8v-5.9h-28.2v33.4h28.2v-5.9h-22v-9.3h21.7v-5.9h-21.7v-6.4z"/><path d="m207 206v-6h-27.7v33.9h6.2v-15.2h17.5v-5.9h-17.5v-6.8z"/><path d="m192.1 250.9c-1.2-1.3-2.6-2.1-4.4-2.1-3 0-5.2 2.5-5.2 5.4s2.2 5.5 5.2 5.5c1.8 0 3.5-.9 4.6-2.3v1.7c-1.3 1.1-2.9 1.8-4.6 1.8-3.7 0-6.5-2.9-6.5-6.6s2.8-6.6 6.5-6.6c1.6 0 3.1.5 4.4 1.6 0-.1 0 1.6 0 1.6z"/><path d="m204.4 247.9v7.6c0 1.3 0 2.6-.8 3.6-.9 1.1-2.3 1.7-3.8 1.7s-2.9-.6-3.8-1.7c-.8-1.1-.8-2.4-.8-3.6v-7.6h1.2v7.1c0 2.4.3 4.6 3.3 4.6s3.3-2.2 3.3-4.6v-7.1z"/><path d="m209.6 260.6h-1.2v-22.6h1.2z"/><path d="m215.2 260.6h-1.2v-11.5h-1.4v-1.1h1.4v-4.5h1.2v4.5h2.2v1.1h-2.2z"/><path d="m221.8 243.7c0 .6-.5 1.1-1.1 1.1s-1.1-.5-1.1-1.1.5-1.1 1.1-1.1 1.1.5 1.1 1.1zm-.6 16.9h-1.2v-12.6h1.2z"/><path d="m229.8 258.4 4.5-10.4h1.3l-5.8 13.3-5.8-13.4h1.3z"/><path d="m248.9 260.6h-1.2v-2.3h-.1c-.9 1.6-2.9 2.5-4.8 2.5-3.8 0-6.2-3-6.2-6.7s2.4-6.5 6.2-6.5c1.9 0 3.8.9 4.9 2.5h.1v-2.2h1.2v12.7zm-11.1-6.4c0 2.9 1.9 5.5 5 5.5 3.2 0 5-2.6 5-5.7 0-2.9-2-5.2-5.1-5.2-2.9 0-4.9 2.6-4.9 5.4z"/><path d="m254.4 260.6h-1.2v-11.5h-1.4v-1.1h1.4v-4.5h1.2v4.5h2.2v1.1h-2.2z"/><path d="m261 243.7c0 .6-.5 1.1-1.1 1.1s-1.1-.5-1.1-1.1.5-1.1 1.1-1.1 1.1.5 1.1 1.1zm-.5 16.9h-1.2v-12.6h1.2z"/><path d="m266.4 249.9c.8-1.4 2.2-2.2 3.8-2.2 3.2 0 4.2 2 4.2 5.3v7.6h-1.2v-7.6c0-2.3-.3-4.1-3-4.1-3.2 0-3.7 2.9-3.7 5.5v6.2h-1.2v-12.6h1.2z"/><path d="m289.9 260c0 1.9-.1 3.7-1.3 5.4-1.2 1.6-3 2.4-5 2.4-3.3 0-6-1.9-6.2-5.4h1.2c.1 2.6 2.3 4.3 4.9 4.3 1.6 0 3.1-.6 4-1.9 1-1.4 1.1-3.1 1.1-4.8v-1.6h-.1c-1.1 1.5-3 2.5-4.9 2.5-3.7 0-6.1-3.1-6.1-6.6 0-3.6 2.6-6.6 6.3-6.6 2.1 0 3.6.9 4.8 2.5h.1v-2.2h1.2zm-11.1-5.8c0 2.9 1.9 5.5 5 5.5 3.2 0 5-2.6 5-5.7 0-2.9-2-5.2-5.1-5.2-2.9 0-4.9 2.6-4.9 5.4z"/><path d="m307.5 254.4c-.1 3.2 2.1 5.3 5.1 5.3 2 0 3.6-1.2 4.4-2.9l1 .6c-1.1 2.2-3.2 3.4-5.7 3.4-3.7 0-6.1-3-6.1-6.6 0-3.5 2.4-6.6 6.1-6.6 3.8 0 6.1 3.1 6.1 6.7zm9.8-1.2c-.3-2.3-2.2-4.4-4.8-4.4s-4.7 2-4.9 4.4z"/><path d="m322.7 249.9c.8-1.4 2.2-2.2 3.8-2.2 3.2 0 4.1 2 4.1 5.3v7.6h-1.2v-7.6c0-2.3-.3-4.1-3-4.1-3.2 0-3.7 2.9-3.7 5.5v6.2h-1.2v-12.6h1.2z"/><path d="m334.9 254.4c-.1 3.2 2.1 5.3 5.1 5.3 2 0 3.6-1.2 4.4-2.9l1 .6c-1.1 2.2-3.2 3.4-5.7 3.4-3.7 0-6.1-3-6.1-6.6 0-3.5 2.4-6.6 6.1-6.6 3.8 0 6.1 3.1 6.1 6.7zm9.7-1.2c-.3-2.3-2.2-4.4-4.8-4.4s-4.7 2-4.9 4.4z"/><path d="m350 249.6c.5-1.1 1.4-1.9 2.8-1.9.5 0 .9.1 1.3.3l-.7 1.1c-.3-.2-.6-.2-.9-.2-2.8 0-2.6 3.4-2.6 5.3v6.4h-1.2v-12.6h1.2z"/><path d="m367.7 260c0 1.9-.1 3.7-1.3 5.4-1.2 1.6-3 2.4-5 2.4-3.3 0-6-1.9-6.2-5.4h1.2c.1 2.6 2.4 4.3 4.9 4.3 1.6 0 3.1-.6 4-1.9 1-1.4 1.1-3.1 1.1-4.8v-1.6h-.1c-1.1 1.5-3 2.5-4.9 2.5-3.7 0-6.1-3.1-6.1-6.6 0-3.6 2.6-6.6 6.3-6.6 2.1 0 3.6.9 4.8 2.5h.1v-2.2h1.2zm-11.1-5.8c0 2.9 1.9 5.5 5 5.5 3.2 0 5-2.6 5-5.7 0-2.9-2-5.2-5.1-5.2-2.9 0-4.9 2.6-4.9 5.4z"/><path d="m369.6 247.9h1.3l5.4 11.4 4.8-11.4h1.3l-8.5 20h-1.3l3-7.2z"/><path d="m399.1 260.6h-1.2v-22.6h1.2z"/><path d="m405.6 243.7c0 .6-.5 1.1-1.1 1.1s-1.1-.5-1.1-1.1.5-1.1 1.1-1.1 1.1.5 1.1 1.1zm-.5 16.9h-1.2v-12.6h1.2z"/><path d="m411.1 260.6h-1.2v-11.5h-1.4v-1.1h1.4v-4.5h1.2v4.5h2.2v1.1h-2.2z"/><path d="m415.5 254.4c-.1 3.2 2.1 5.3 5.1 5.3 2 0 3.6-1.2 4.4-2.9l1 .6c-1.1 2.2-3.2 3.4-5.7 3.4-3.7 0-6.1-3-6.1-6.6 0-3.5 2.4-6.6 6.1-6.6 3.8 0 6.1 3.1 6.1 6.7zm9.7-1.2c-.3-2.3-2.2-4.4-4.8-4.4s-4.7 2-4.9 4.4z"/><path d="m430.6 249.6c.5-1.1 1.4-1.9 2.8-1.9.5 0 .9.1 1.3.3l-.7 1.1c-.3-.2-.5-.2-.9-.2-2.8 0-2.6 3.4-2.6 5.3v6.4h-1.2v-12.6h1.2z"/><path d="m448.1 260.6h-1.2v-2.3c-.9 1.6-3 2.5-4.8 2.5-3.8 0-6.2-3-6.2-6.7s2.4-6.5 6.2-6.5c1.9 0 3.8.9 4.9 2.5v-2.2h1.2zm-11.1-6.4c0 2.9 1.9 5.5 5 5.5 3.2 0 5-2.6 5-5.7 0-2.9-2-5.2-5.1-5.2-2.9 0-4.9 2.6-4.9 5.4z"/><path d="m462 250.9c-1.2-1.3-2.6-2.1-4.5-2.1-3 0-5.2 2.5-5.2 5.4s2.2 5.5 5.2 5.5c1.8 0 3.5-.9 4.6-2.3v1.7c-1.3 1.1-2.9 1.8-4.6 1.8-3.7 0-6.5-2.9-6.5-6.6s2.8-6.6 6.5-6.6c1.6 0 3.1.5 4.4 1.6z"/><path d="m463 247.9h1.3l5.4 11.4 4.8-11.4h1.3l-8.5 20h-1.3l3-7.2z"/><path d="m447.2 114.3c-4.7 0-8.4 3.8-8.4 8.4s3.8 8.4 8.4 8.4 8.4-3.8 8.4-8.4c.1-4.6-3.7-8.4-8.4-8.4z"/><path d="m469.1 116.5c-3.5 0-6.3 2.8-6.3 6.3s2.8 6.3 6.3 6.3 6.3-2.8 6.3-6.3-2.8-6.3-6.3-6.3z"/><path d="m447.2 135.8c-4.7 0-8.4 3.8-8.4 8.4 0 4.7 3.8 8.4 8.4 8.4s8.4-3.8 8.4-8.4c.1-4.6-3.7-8.4-8.4-8.4z"/><path d="m469.1 137.9c-3.5 0-6.3 2.8-6.3 6.3s2.8 6.3 6.3 6.3 6.3-2.8 6.3-6.3-2.8-6.3-6.3-6.3z"/><path d="m425.4 156.3c-4.7 0-8.4 3.8-8.4 8.4s3.8 8.4 8.4 8.4c4.7 0 8.4-3.8 8.4-8.4s-3.8-8.4-8.4-8.4z"/><path d="m447.2 158.4c-3.5 0-6.3 2.8-6.3 6.3s2.8 6.3 6.3 6.3 6.3-2.8 6.3-6.3-2.8-6.3-6.3-6.3z"/><path d="m425.4 179.4c-3.5 0-6.3 2.8-6.3 6.3s2.8 6.3 6.3 6.3 6.3-2.8 6.3-6.3c0-3.4-2.8-6.3-6.3-6.3z"/><path d="m447.2 181.5c-2.3 0-4.2 1.9-4.2 4.2s1.9 4.2 4.2 4.2 4.2-1.9 4.2-4.2c.1-2.3-1.8-4.2-4.2-4.2z"/><path d="m294.2 108.3c3.5 0 6.3-2.8 6.3-6.3s-2.8-6.3-6.3-6.3-6.3 2.8-6.3 6.3 2.9 6.3 6.3 6.3z"/><path d="m316.1 93.6c-4.7 0-8.4 3.8-8.4 8.4 0 4.7 3.8 8.4 8.4 8.4 4.7 0 8.4-3.8 8.4-8.4s-3.7-8.4-8.4-8.4z"/><path d="m447.2 93.6c-4.7 0-8.4 3.8-8.4 8.4 0 4.7 3.8 8.4 8.4 8.4s8.4-3.8 8.4-8.4c.1-4.6-3.7-8.4-8.4-8.4z"/><path d="m469.1 108.3c3.5 0 6.3-2.8 6.3-6.3s-2.8-6.3-6.3-6.3-6.3 2.8-6.3 6.3 2.8 6.3 6.3 6.3z"/><path d="m316.1 88.3c3.5 0 6.3-2.8 6.3-6.3s-2.8-6.3-6.3-6.3-6.3 2.8-6.3 6.3 2.8 6.3 6.3 6.3z"/><path d="m337.9 73.5c-4.6 0-8.4 3.8-8.4 8.4 0 4.7 3.8 8.4 8.4 8.4 4.7 0 8.4-3.8 8.4-8.4.1-4.6-3.7-8.4-8.4-8.4z"/><path d="m425.4 73.5c-4.7 0-8.4 3.8-8.4 8.4 0 4.7 3.8 8.4 8.4 8.4 4.7 0 8.4-3.8 8.4-8.4s-3.8-8.4-8.4-8.4z"/><path d="m447.2 88.3c3.5 0 6.3-2.8 6.3-6.3s-2.8-6.3-6.3-6.3-6.3 2.8-6.3 6.3 2.9 6.3 6.3 6.3z"/><path d="m316.1 64.3c2.3 0 4.2-1.9 4.2-4.2s-1.9-4.2-4.2-4.2-4.2 1.9-4.2 4.2 1.9 4.2 4.2 4.2z"/><path d="m337.9 43c2.3 0 4.2-1.9 4.2-4.2s-1.9-4.2-4.2-4.2-4.2 1.9-4.2 4.2 1.9 4.2 4.2 4.2z"/><path d="m425.4 43c2.3 0 4.2-1.9 4.2-4.2s-1.9-4.2-4.2-4.2-4.2 1.9-4.2 4.2 1.9 4.2 4.2 4.2z"/><path d="m469.1 86.2c2.3 0 4.2-1.9 4.2-4.2s-1.9-4.2-4.2-4.2-4.2 1.9-4.2 4.2 1.9 4.2 4.2 4.2z"/><path d="m469.1 160.5c-2.3 0-4.2 1.9-4.2 4.2s1.9 4.2 4.2 4.2 4.2-1.9 4.2-4.2-1.9-4.2-4.2-4.2z"/><path d="m294.5 86.2c2.3 0 4.2-1.9 4.2-4.2s-1.9-4.2-4.2-4.2-4.2 1.9-4.2 4.2 1.9 4.2 4.2 4.2z"/><path d="m337.9 66.4c3.5 0 6.3-2.8 6.3-6.3s-2.8-6.3-6.3-6.3-6.3 2.8-6.3 6.3c0 3.4 2.9 6.3 6.3 6.3z"/><path d="m359.8 51.6c-4.7 0-8.4 3.8-8.4 8.4s3.8 8.4 8.4 8.4c4.7 0 8.4-3.8 8.4-8.4s-3.7-8.4-8.4-8.4z"/><path d="m381.7 51.6c-4.7 0-8.4 3.8-8.4 8.4s3.8 8.4 8.4 8.4 8.4-3.8 8.4-8.4-3.8-8.4-8.4-8.4z"/><path d="m425.4 66.4c3.5 0 6.3-2.8 6.3-6.3s-2.8-6.3-6.3-6.3-6.3 2.8-6.3 6.3c0 3.4 2.8 6.3 6.3 6.3z"/><path d="m447.2 64.3c2.3 0 4.2-1.9 4.2-4.2s-1.9-4.2-4.2-4.2-4.2 1.9-4.2 4.2 1.9 4.2 4.2 4.2z"/><path d="m359.8 45.1c3.5 0 6.3-2.8 6.3-6.3s-2.8-6.3-6.3-6.3-6.3 2.8-6.3 6.3 2.8 6.3 6.3 6.3z"/><path d="m381.7 45.1c3.5 0 6.3-2.8 6.3-6.3s-2.8-6.3-6.3-6.3-6.3 2.8-6.3 6.3 2.8 6.3 6.3 6.3z"/><path d="m403 51.5c-4.7 0-8.4 3.8-8.4 8.4 0 4.7 3.8 8.4 8.4 8.4s8.4-3.8 8.4-8.4c.1-4.6-3.7-8.4-8.4-8.4z"/><path d="m403 45.1c3.5 0 6.3-2.8 6.3-6.3s-2.8-6.3-6.3-6.3-6.3 2.8-6.3 6.3c0 3.4 2.8 6.3 6.3 6.3z"/><path d="m481 227.2c0-4 3.2-7.2 7.2-7.2s7.2 3.2 7.2 7.2-3.2 7.2-7.2 7.2-7.2-3.2-7.2-7.2zm1.2 0c0 3.4 2.8 6 6 6s6-2.6 6-6-2.8-6-6-6-6 2.6-6 6zm9.3 4.1h-1.3l-2.1-3.7h-1.5v3.7h-1.2v-8.1h3.4c1.5 0 2.8.4 2.8 2.1 0 1.6-1.1 2.2-2.2 2.2zm-4.9-6.9v2h1.2c1.1 0 2.6.2 2.6-.9 0-1-.9-1.1-1.8-1.1z"/></g></svg>