<?xml version="1.0" encoding="utf-8"?>
<!-- Generator: Adobe Illustrator 24.0.0, SVG Export Plug-In . SVG Version: 6.00 Build 0)  -->
<svg version="1.1" id="Layer_1" xmlns="http://www.w3.org/2000/svg" xmlns:xlink="http://www.w3.org/1999/xlink" x="0px" y="0px"
	 viewBox="0 0 668.6 290.5" style="enable-background:new 0 0 668.6 290.5;" xml:space="preserve">
<style type="text/css">
	.st0{fill:#718096;}
</style>
<g>
	<g>
		<path class="st0" d="M246.3,117.7v32.8h-6.1v-5.1h-0.1c-2.7,4.2-6.3,6.2-10.8,6.2c-4.6,0-8.3-1.7-11-5.2
			c-2.7-3.4-4.1-7.6-4.1-12.6c0-4.7,1.4-8.7,4.1-12.1c2.8-3.4,6.4-5.1,10.8-5.1c4.6,0,8.2,2.2,10.9,6.4h0.1v-5.5h6.2V117.7z
			 M230.3,146.1c3.2,0,5.7-1.1,7.5-3.4c1.8-2.3,2.7-5.1,2.7-8.5c0-3.3-0.9-6.1-2.8-8.4s-4.3-3.4-7.5-3.4c-3,0-5.4,1.2-7.3,3.5
			c-1.8,2.3-2.7,5.1-2.7,8.3c0,3.3,0.9,6.1,2.7,8.4C224.8,144.9,227.2,146.1,230.3,146.1z"/>
		<path class="st0" d="M261.1,123.6v26.6h-6.3v-26.6h-3.4v-5.9h3.4v-11.5h6.3v11.6h6.2v5.9C267.3,123.6,261.1,123.6,261.1,123.6z"/>
		<path class="st0" d="M270.3,99.6c0.8-0.9,1.9-1.3,3.1-1.3c1.2,0,2.2,0.4,3.1,1.3c0.8,0.9,1.3,1.9,1.3,3.1s-0.4,2.2-1.3,3
			c-0.8,0.8-1.9,1.2-3.1,1.2c-1.2,0-2.2-0.4-3.1-1.2c-0.8-0.8-1.3-1.8-1.3-3C269.1,101.5,269.5,100.4,270.3,99.6z M276.6,117.7v32.8
			h-6.3v-32.8H276.6z"/>
		<path class="st0" d="M285.2,121.8c3.3-3.4,7.3-5.1,12-5.1c4.7,0,8.7,1.7,12,5.1c3.3,3.4,4.9,7.5,4.9,12.4c0,4.9-1.6,9.1-4.9,12.4
			s-7.3,5.1-12,5.1c-4.7,0-8.7-1.7-12-5.1c-3.3-3.4-4.9-7.5-4.9-12.4C280.2,129.3,281.9,125.2,285.2,121.8z M304.8,126.1
			c-2.1-2.2-4.7-3.4-7.6-3.4c-3,0-5.5,1.1-7.7,3.4c-2.1,2.2-3.2,4.9-3.2,8.1c0,3.1,1.1,5.8,3.2,8c2.1,2.3,4.7,3.4,7.7,3.4
			s5.5-1.1,7.6-3.4c2.1-2.3,3.2-4.9,3.2-8C308,131.1,306.9,128.4,304.8,126.1z"/>
		<path class="st0" d="M323.5,117.7v4.4h0.1c0.9-1.7,2.3-3.1,4.1-4s3.7-1.4,5.8-1.4c4.3,0,7.3,1.3,9.1,3.8c1.7,2.5,2.6,6,2.6,10.4
			v19.6h-6.3v-18.8c0-3.2-0.5-5.6-1.4-7.1s-2.9-2.3-5.9-2.3c-1.3,0-2.5,0.2-3.4,0.5c-1,0.3-1.8,0.9-2.3,1.6c-0.6,0.8-1,1.5-1.4,2.2
			c-0.4,0.7-0.6,1.6-0.7,2.9c-0.1,1.3-0.2,2.2-0.2,2.9c0,0.7,0,1.7,0,3.1v15.1h-6.3v-32.8L323.5,117.7L323.5,117.7z"/>
		<path class="st0" d="M380.1,117.7v32.8H374v-5.1h-0.1c-2.7,4.2-6.3,6.2-10.8,6.2c-4.6,0-8.3-1.7-11.1-5.2
			c-2.7-3.4-4.1-7.6-4.1-12.6c0-4.7,1.4-8.7,4.1-12.1c2.8-3.4,6.4-5.1,10.8-5.1c4.6,0,8.2,2.2,10.9,6.4h0.1v-5.5h6.3V117.7z
			 M364.1,146.1c3.2,0,5.7-1.1,7.5-3.4c1.8-2.3,2.7-5.1,2.7-8.5c0-3.3-0.9-6.1-2.8-8.4s-4.4-3.4-7.5-3.4c-3,0-5.4,1.2-7.3,3.5
			c-1.8,2.3-2.7,5.1-2.7,8.3c0,3.3,0.9,6.1,2.7,8.4C358.6,144.9,361,146.1,364.1,146.1z"/>
		<path class="st0" d="M391.7,98.3v52.3h-6.3V98.3H391.7z"/>
		<path class="st0" d="M220.5,159.4v4.4h0.1c0.9-1.7,2.3-3.1,4.1-4s3.7-1.4,5.8-1.4c4.3,0,7.3,1.3,9,3.8c1.7,2.5,2.6,6,2.6,10.5
			v19.6h-6.3v-18.8c0-3.2-0.5-5.6-1.4-7.1s-2.9-2.3-5.9-2.3c-1.3,0-2.5,0.2-3.4,0.5c-1,0.3-1.8,0.9-2.3,1.6c-0.5,0.8-1,1.4-1.4,2.1
			c-0.3,0.7-0.6,1.6-0.7,2.9c-0.1,1.2-0.2,2.2-0.2,2.9s0,1.7,0,3.1v15.1h-6.3v-32.8L220.5,159.4L220.5,159.4z"/>
		<path class="st0" d="M278.8,176.9h-25c0,2.9,1,5.5,2.8,7.6c1.8,2.1,4.2,3.2,7.1,3.2c2.3,0,4.2-0.5,5.7-1.6s2.9-2.7,4.2-4.8l5.3,3
			c-1.5,2.8-3.7,5-6.3,6.6c-2.7,1.6-5.7,2.4-8.9,2.4c-4.9,0-8.8-1.6-11.8-4.9c-2.9-3.3-4.4-7.4-4.4-12.4c0-5.2,1.4-9.5,4.1-12.8
			s6.7-4.9,11.9-4.9c5,0,8.8,1.6,11.4,4.9c2.6,3.3,3.9,7.5,3.9,12.6C278.8,175.9,278.8,176.9,278.8,176.9z M254.1,172.1h18.4
			c-0.4-2.5-1.4-4.5-2.9-6c-1.6-1.5-3.6-2.2-6.1-2.2c-2.4,0-4.5,0.8-6.2,2.3C255.6,167.7,254.5,169.7,254.1,172.1z"/>
		<path class="st0" d="M291,159.4v5.3h0.2c0.8-2,2-3.5,3.6-4.6c1.6-1.1,3.4-1.7,5.4-1.7c1.8,0,3.5,0.5,5.2,1.6l-2.9,5.8
			c-1-0.9-2.3-1.3-3.9-1.3s-3,0.3-4.1,1c-1.1,0.7-1.9,1.6-2.3,2.9c-0.5,1.2-0.8,2.4-1,3.6c-0.2,1.2-0.2,2.6-0.2,4.1v16.1h-6.3v-32.9
			L291,159.4L291,159.4z"/>
		<path class="st0" d="M333.3,193.4v-6.2h-0.1c-1.3,1.9-2.9,3.4-4.9,4.6s-4,1.7-6.3,1.7c-4.9,0-8.7-1.7-11.5-5.2
			c-2.8-3.4-4.2-7.6-4.2-12.6c0-4.7,1.4-8.7,4.3-12.1c2.9-3.4,6.6-5.1,11.1-5.1c4.8,0,8.6,2.2,11.4,6.6h0.1v-5.6h6.3v32.2
			c0,6.2-1.2,11-3.5,14.4 M323,187.8c3.3,0,5.9-1.1,7.8-3.4c1.9-2.3,2.8-5.1,2.8-8.5c0-3.3-1-6.1-2.9-8.4c-1.9-2.3-4.5-3.4-7.8-3.4
			c-3.1,0-5.6,1.2-7.5,3.5c-1.9,2.3-2.8,5.1-2.8,8.3c0,3.3,0.9,6.1,2.8,8.4C317.3,186.6,319.8,187.8,323,187.8z"/>
		<path class="st0" d="M352.3,192.2l4.6-8.1l-13-24.8h7l9.8,19.5l10.5-19.5h6.7l-18.8,32.9L352.3,192.2"/>
		<path class="st0" d="M213.8,205.4c3.3-3.4,7.3-5.1,12-5.1s8.7,1.7,12,5.1c3.3,3.4,4.9,7.5,4.9,12.4s-1.6,9.1-4.9,12.4
			c-3.3,3.4-7.3,5.1-12,5.1s-8.7-1.7-12-5.1c-3.3-3.4-4.9-7.5-4.9-12.4S210.5,208.7,213.8,205.4z M233.4,209.7
			c-2.1-2.2-4.7-3.4-7.7-3.4s-5.5,1.1-7.7,3.4c-2.1,2.2-3.2,4.9-3.2,8.1c0,3.1,1.1,5.8,3.2,8c2.1,2.3,4.7,3.4,7.7,3.4
			s5.5-1.1,7.7-3.4c2.1-2.3,3.2-4.9,3.2-8C236.6,214.6,235.6,212,233.4,209.7z"/>
		<path class="st0" d="M245.8,201.3h6.3v18.2c0,3,0.6,5.4,1.6,7.2c1.1,1.8,3.1,2.7,5.9,2.7s4.8-0.9,5.9-2.7c1.1-1.8,1.7-4.2,1.7-7.2
			v-18.2h6.3v18.9c0,4.7-1.1,8.4-3.4,11.1c-2.3,2.7-5.8,4-10.5,4c-4.7,0-8.2-1.4-10.5-4c-2.3-2.7-3.4-6.4-3.4-11.1L245.8,201.3
			L245.8,201.3z"/>
		<path class="st0" d="M282.7,201.3v4.4h0.2c0.9-1.7,2.3-3.1,4.1-4s3.7-1.4,5.8-1.4c4.3,0,7.3,1.3,9.1,3.8c1.7,2.5,2.6,6,2.6,10.5
			v19.6h-6.3v-18.8c0-3.2-0.4-5.6-1.4-7.1c-0.9-1.5-2.9-2.3-5.9-2.3c-1.3,0-2.5,0.2-3.4,0.5c-1,0.3-1.8,0.9-2.3,1.6
			c-0.6,0.8-1,1.5-1.4,2.1c-0.3,0.7-0.6,1.6-0.7,2.9c-0.1,1.2-0.2,2.2-0.2,2.9s0,1.7,0,3.1v15.1h-6.3v-32.9L282.7,201.3L282.7,201.3
			z"/>
		<path class="st0" d="M339.6,183v51.1h-6.3V229h-0.1c-1.3,1.9-2.9,3.4-4.9,4.6c-1.9,1.1-4,1.7-6.3,1.7c-4.9,0-8.7-1.7-11.5-5.2
			c-2.8-3.4-4.2-7.6-4.2-12.6c0-4.7,1.4-8.7,4.3-12.1c2.9-3.4,6.6-5.1,11.2-5.1c4.8,0,8.6,2.1,11.4,6.5h0.1v-24.3 M323,229.6
			c3.3,0,5.9-1.1,7.8-3.4c1.9-2.3,2.8-5.1,2.8-8.5c0-3.3-1-6.1-2.9-8.4c-1.9-2.3-4.5-3.4-7.8-3.4c-3.1,0-5.6,1.2-7.5,3.5
			c-1.9,2.3-2.8,5.1-2.8,8.3c0,3.3,0.9,6.1,2.8,8.4C317.3,228.5,319.8,229.6,323,229.6z"/>
		<path class="st0" d="M375,201.3v32.8h-6.1V229h-0.1c-2.7,4.2-6.3,6.2-10.7,6.2c-4.6,0-8.3-1.7-11.1-5.2c-2.7-3.4-4.1-7.6-4.1-12.6
			c0-4.7,1.4-8.7,4.1-12.1c2.8-3.4,6.4-5.1,10.8-5.1c4.6,0,8.2,2.1,10.9,6.5h0.1v-5.5L375,201.3L375,201.3z M359,229.6
			c3.2,0,5.7-1.1,7.5-3.4c1.8-2.3,2.7-5.1,2.7-8.5c0-3.3-0.9-6.1-2.8-8.4c-1.9-2.3-4.4-3.4-7.5-3.4c-3,0-5.4,1.2-7.3,3.5
			c-1.8,2.3-2.7,5.1-2.7,8.3c0,3.3,0.9,6.1,2.7,8.4C353.5,228.5,355.9,229.6,359,229.6z"/>
		<path class="st0" d="M389.2,207.2v26.6h-6.3v-26.6h-3.4v-5.9h3.4v-11.4h6.3v11.4h6.2v5.9H389.2L389.2,207.2z"/>
		<path class="st0" d="M400.2,183.1c0.8-0.9,1.9-1.3,3.1-1.3s2.2,0.4,3.1,1.3c0.9,0.9,1.3,1.9,1.3,3.1c0,1.2-0.4,2.2-1.3,3
			c-0.8,0.8-1.9,1.2-3.1,1.2c-1.2,0-2.2-0.4-3.1-1.2c-0.8-0.8-1.3-1.9-1.3-3C399,185.1,399.4,184,400.2,183.1z M406.5,201.3v32.8
			h-6.3v-32.9L406.5,201.3L406.5,201.3z"/>
		<path class="st0" d="M414.9,205.4c3.3-3.4,7.3-5.1,12-5.1c4.7,0,8.7,1.7,12,5.1c3.3,3.4,4.9,7.5,4.9,12.4s-1.6,9.1-4.9,12.4
			c-3.3,3.4-7.3,5.1-12,5.1c-4.7,0-8.8-1.7-12-5.1c-3.3-3.4-4.9-7.5-4.9-12.4S411.6,208.7,414.9,205.4z M434.5,209.7
			c-2.1-2.2-4.7-3.4-7.6-3.4c-3,0-5.5,1.1-7.7,3.4c-2.1,2.2-3.2,4.9-3.2,8.1c0,3.1,1.1,5.8,3.2,8c2.1,2.3,4.7,3.4,7.7,3.4
			s5.5-1.1,7.6-3.4c2.1-2.3,3.2-4.9,3.2-8C437.7,214.6,436.7,212,434.5,209.7z"/>
		<path class="st0" d="M453.4,201.3v4.4h0.1c0.9-1.7,2.3-3.1,4.1-4c1.8-0.9,3.7-1.4,5.8-1.4c4.3,0,7.3,1.3,9,3.8s2.6,6,2.6,10.5
			v19.6h-6.3v-18.8c0-3.2-0.5-5.6-1.4-7.1s-2.9-2.3-5.9-2.3c-1.3,0-2.5,0.2-3.4,0.5c-1,0.3-1.8,0.9-2.3,1.6c-0.6,0.8-1,1.5-1.4,2.1
			c-0.4,0.7-0.6,1.6-0.7,2.9c-0.1,1.2-0.2,2.2-0.3,2.9c0,0.7,0,1.7,0,3.1v15.1H447v-32.9L453.4,201.3L453.4,201.3z"/>
	</g>
	<polygon class="st0" points="203.2,117.4 203.2,139 179.3,114 179.3,150.8 185.5,150.8 185.5,129.2 209.4,154.2 209.4,117.4 	"/>
	<polygon class="st0" points="207.5,164.8 207.5,158.9 179.3,158.9 179.3,192.3 207.5,192.3 207.5,186.4 185.5,186.4 185.5,177.1 
		207.2,177.1 207.2,171.2 185.5,171.2 185.5,164.8 	"/>
	<polygon class="st0" points="207,206 207,200 179.3,200 179.3,233.9 185.5,233.9 185.5,218.7 203,218.7 203,212.8 185.5,212.8 
		185.5,206 	"/>
</g>
<g>
	<path class="st0" d="M192.1,250.9c-1.2-1.3-2.6-2.1-4.4-2.1c-3,0-5.2,2.5-5.2,5.4s2.2,5.5,5.2,5.5c1.8,0,3.5-0.9,4.6-2.3v1.7
		c-1.3,1.1-2.9,1.8-4.6,1.8c-3.7,0-6.5-2.9-6.5-6.6c0-3.7,2.8-6.6,6.5-6.6c1.6,0,3.1,0.5,4.4,1.6
		C192.1,249.2,192.1,250.9,192.1,250.9z"/>
	<path class="st0" d="M204.4,247.9v7.6c0,1.3,0,2.6-0.8,3.6c-0.9,1.1-2.3,1.7-3.8,1.7s-2.9-0.6-3.8-1.7c-0.8-1.1-0.8-2.4-0.8-3.6
		v-7.6h1.2v7.1c0,2.4,0.3,4.6,3.3,4.6s3.3-2.2,3.3-4.6v-7.1H204.4z"/>
	<path class="st0" d="M209.6,260.6h-1.2V238h1.2V260.6z"/>
	<path class="st0" d="M215.2,260.6H214v-11.5h-1.4V248h1.4v-4.5h1.2v4.5h2.2v1.1h-2.2V260.6z"/>
	<path class="st0" d="M221.8,243.7c0,0.6-0.5,1.1-1.1,1.1c-0.6,0-1.1-0.5-1.1-1.1s0.5-1.1,1.1-1.1
		C221.3,242.6,221.8,243.1,221.8,243.7z M221.2,260.6H220V248h1.2V260.6z"/>
	<path class="st0" d="M229.8,258.4l4.5-10.4h1.3l-5.8,13.3l-5.8-13.4h1.3L229.8,258.4z"/>
	<path class="st0" d="M248.9,260.6h-1.2v-2.3h-0.1c-0.9,1.6-2.9,2.5-4.8,2.5c-3.8,0-6.2-3-6.2-6.7c0-3.7,2.4-6.5,6.2-6.5
		c1.9,0,3.8,0.9,4.9,2.5h0.1v-2.2h1.2v12.7H248.9z M237.8,254.2c0,2.9,1.9,5.5,5,5.5c3.2,0,5-2.6,5-5.7c0-2.9-2-5.2-5.1-5.2
		C239.8,248.8,237.8,251.4,237.8,254.2z"/>
	<path class="st0" d="M254.4,260.6h-1.2v-11.5h-1.4V248h1.4v-4.5h1.2v4.5h2.2v1.1h-2.2V260.6z"/>
	<path class="st0" d="M261,243.7c0,0.6-0.5,1.1-1.1,1.1s-1.1-0.5-1.1-1.1s0.5-1.1,1.1-1.1C260.5,242.6,261,243.1,261,243.7z
		 M260.5,260.6h-1.2V248h1.2V260.6z"/>
	<path class="st0" d="M266.4,249.9L266.4,249.9c0.8-1.4,2.2-2.2,3.8-2.2c3.2,0,4.2,2,4.2,5.3v7.6h-1.2V253c0-2.3-0.3-4.1-3-4.1
		c-3.2,0-3.7,2.9-3.7,5.5v6.2h-1.2V248h1.2L266.4,249.9L266.4,249.9z"/>
	<path class="st0" d="M289.9,260c0,1.9-0.1,3.7-1.3,5.4c-1.2,1.6-3,2.4-5,2.4c-3.3,0-6-1.9-6.2-5.4h1.2c0.1,2.6,2.3,4.3,4.9,4.3
		c1.6,0,3.1-0.6,4-1.9c1-1.4,1.1-3.1,1.1-4.8v-1.6h-0.1c-1.1,1.5-3,2.5-4.9,2.5c-3.7,0-6.1-3.1-6.1-6.6c0-3.6,2.6-6.6,6.3-6.6
		c2.1,0,3.6,0.9,4.8,2.5h0.1V248h1.2V260L289.9,260z M278.8,254.2c0,2.9,1.9,5.5,5,5.5c3.2,0,5-2.6,5-5.7c0-2.9-2-5.2-5.1-5.2
		C280.8,248.8,278.8,251.4,278.8,254.2z"/>
	<path class="st0" d="M307.5,254.4c-0.1,3.2,2.1,5.3,5.1,5.3c2,0,3.6-1.2,4.4-2.9l1,0.6c-1.1,2.2-3.2,3.4-5.7,3.4
		c-3.7,0-6.1-3-6.1-6.6c0-3.5,2.4-6.6,6.1-6.6c3.8,0,6.1,3.1,6.1,6.7L307.5,254.4L307.5,254.4z M317.3,253.2
		c-0.3-2.3-2.2-4.4-4.8-4.4s-4.7,2-4.9,4.4H317.3z"/>
	<path class="st0" d="M322.7,249.9L322.7,249.9c0.8-1.4,2.2-2.2,3.8-2.2c3.2,0,4.1,2,4.1,5.3v7.6h-1.2V253c0-2.3-0.3-4.1-3-4.1
		c-3.2,0-3.7,2.9-3.7,5.5v6.2h-1.2V248h1.2V249.9L322.7,249.9z"/>
	<path class="st0" d="M334.9,254.4c-0.1,3.2,2.1,5.3,5.1,5.3c2,0,3.6-1.2,4.4-2.9l1,0.6c-1.1,2.2-3.2,3.4-5.7,3.4
		c-3.7,0-6.1-3-6.1-6.6c0-3.5,2.4-6.6,6.1-6.6c3.8,0,6.1,3.1,6.1,6.7L334.9,254.4L334.9,254.4z M344.6,253.2
		c-0.3-2.3-2.2-4.4-4.8-4.4c-2.6,0-4.7,2-4.9,4.4H344.6z"/>
	<path class="st0" d="M350,249.6L350,249.6c0.5-1.1,1.4-1.9,2.8-1.9c0.5,0,0.9,0.1,1.3,0.3l-0.7,1.1c-0.3-0.2-0.6-0.2-0.9-0.2
		c-2.8,0-2.6,3.4-2.6,5.3v6.4h-1.2V248h1.2L350,249.6L350,249.6z"/>
	<path class="st0" d="M367.7,260c0,1.9-0.1,3.7-1.3,5.4c-1.2,1.6-3,2.4-5,2.4c-3.3,0-6-1.9-6.2-5.4h1.2c0.1,2.6,2.4,4.3,4.9,4.3
		c1.6,0,3.1-0.6,4-1.9c1-1.4,1.1-3.1,1.1-4.8v-1.6h-0.1c-1.1,1.5-3,2.5-4.9,2.5c-3.7,0-6.1-3.1-6.1-6.6c0-3.6,2.6-6.6,6.3-6.6
		c2.1,0,3.6,0.9,4.8,2.5h0.1V248h1.2V260L367.7,260z M356.6,254.2c0,2.9,1.9,5.5,5,5.5c3.2,0,5-2.6,5-5.7c0-2.9-2-5.2-5.1-5.2
		C358.6,248.8,356.6,251.4,356.6,254.2z"/>
	<path class="st0" d="M369.6,247.9h1.3l5.4,11.4l4.8-11.4h1.3l-8.5,20h-1.3l3-7.2L369.6,247.9z"/>
	<path class="st0" d="M399.1,260.6h-1.2V238h1.2V260.6z"/>
	<path class="st0" d="M405.6,243.7c0,0.6-0.5,1.1-1.1,1.1s-1.1-0.5-1.1-1.1s0.5-1.1,1.1-1.1C405.1,242.6,405.6,243.1,405.6,243.7z
		 M405.1,260.6h-1.2V248h1.2V260.6z"/>
	<path class="st0" d="M411.1,260.6h-1.2v-11.5h-1.4V248h1.4v-4.5h1.2v4.5h2.2v1.1h-2.2V260.6z"/>
	<path class="st0" d="M415.5,254.4c-0.1,3.2,2.1,5.3,5.1,5.3c2,0,3.6-1.2,4.4-2.9l1,0.6c-1.1,2.2-3.2,3.4-5.7,3.4
		c-3.7,0-6.1-3-6.1-6.6c0-3.5,2.4-6.6,6.1-6.6c3.8,0,6.1,3.1,6.1,6.7L415.5,254.4L415.5,254.4z M425.2,253.2
		c-0.3-2.3-2.2-4.4-4.8-4.4c-2.6,0-4.7,2-4.9,4.4H425.2z"/>
	<path class="st0" d="M430.6,249.6L430.6,249.6c0.5-1.1,1.4-1.9,2.8-1.9c0.5,0,0.9,0.1,1.3,0.3l-0.7,1.1c-0.3-0.2-0.5-0.2-0.9-0.2
		c-2.8,0-2.6,3.4-2.6,5.3v6.4h-1.2V248h1.2L430.6,249.6L430.6,249.6z"/>
	<path class="st0" d="M448.1,260.6h-1.2v-2.3l0,0c-0.9,1.6-3,2.5-4.8,2.5c-3.8,0-6.2-3-6.2-6.7c0-3.7,2.4-6.5,6.2-6.5
		c1.9,0,3.8,0.9,4.9,2.5l0,0v-2.2h1.2L448.1,260.6L448.1,260.6z M437,254.2c0,2.9,1.9,5.5,5,5.5c3.2,0,5-2.6,5-5.7
		c0-2.9-2-5.2-5.1-5.2C439,248.8,437,251.4,437,254.2z"/>
	<path class="st0" d="M462,250.9c-1.2-1.3-2.6-2.1-4.5-2.1c-3,0-5.2,2.5-5.2,5.4s2.2,5.5,5.2,5.5c1.8,0,3.5-0.9,4.6-2.3v1.7
		c-1.3,1.1-2.9,1.8-4.6,1.8c-3.7,0-6.5-2.9-6.5-6.6c0-3.7,2.8-6.6,6.5-6.6c1.6,0,3.1,0.5,4.4,1.6L462,250.9L462,250.9z"/>
	<path class="st0" d="M463,247.9h1.3l5.4,11.4l4.8-11.4h1.3l-8.5,20H466l3-7.2L463,247.9z"/>
</g>
<g>
	<path class="st0" d="M447.2,114.3c-4.7,0-8.4,3.8-8.4,8.4s3.8,8.4,8.4,8.4s8.4-3.8,8.4-8.4C455.7,118.1,451.9,114.3,447.2,114.3z"
		/>
	<path class="st0" d="M469.1,116.5c-3.5,0-6.3,2.8-6.3,6.3s2.8,6.3,6.3,6.3s6.3-2.8,6.3-6.3S472.6,116.5,469.1,116.5z"/>
	<path class="st0" d="M447.2,135.8c-4.7,0-8.4,3.8-8.4,8.4c0,4.7,3.8,8.4,8.4,8.4s8.4-3.8,8.4-8.4
		C455.7,139.6,451.9,135.8,447.2,135.8z"/>
	<path class="st0" d="M469.1,137.9c-3.5,0-6.3,2.8-6.3,6.3s2.8,6.3,6.3,6.3s6.3-2.8,6.3-6.3S472.6,137.9,469.1,137.9z"/>
	<path class="st0" d="M425.4,156.3c-4.7,0-8.4,3.8-8.4,8.4s3.8,8.4,8.4,8.4c4.7,0,8.4-3.8,8.4-8.4S430,156.3,425.4,156.3z"/>
	<path class="st0" d="M447.2,158.4c-3.5,0-6.3,2.8-6.3,6.3s2.8,6.3,6.3,6.3s6.3-2.8,6.3-6.3S450.7,158.4,447.2,158.4z"/>
	<path class="st0" d="M425.4,179.4c-3.5,0-6.3,2.8-6.3,6.3s2.8,6.3,6.3,6.3s6.3-2.8,6.3-6.3C431.7,182.3,428.9,179.4,425.4,179.4z"
		/>
	<path class="st0" d="M447.2,181.5c-2.3,0-4.2,1.9-4.2,4.2s1.9,4.2,4.2,4.2s4.2-1.9,4.2-4.2C451.5,183.4,449.6,181.5,447.2,181.5z"
		/>
	<path class="st0" d="M294.2,108.3c3.5,0,6.3-2.8,6.3-6.3s-2.8-6.3-6.3-6.3s-6.3,2.8-6.3,6.3S290.8,108.3,294.2,108.3z"/>
	<path class="st0" d="M316.1,93.6c-4.7,0-8.4,3.8-8.4,8.4c0,4.7,3.8,8.4,8.4,8.4c4.7,0,8.4-3.8,8.4-8.4S320.8,93.6,316.1,93.6z"/>
	<path class="st0" d="M447.2,93.6c-4.7,0-8.4,3.8-8.4,8.4c0,4.7,3.8,8.4,8.4,8.4s8.4-3.8,8.4-8.4C455.7,97.4,451.9,93.6,447.2,93.6z
		"/>
	<path class="st0" d="M469.1,108.3c3.5,0,6.3-2.8,6.3-6.3s-2.8-6.3-6.3-6.3s-6.3,2.8-6.3,6.3C462.8,105.5,465.6,108.3,469.1,108.3z"
		/>
	<path class="st0" d="M316.1,88.3c3.5,0,6.3-2.8,6.3-6.3s-2.8-6.3-6.3-6.3s-6.3,2.8-6.3,6.3S312.6,88.3,316.1,88.3z"/>
	<path class="st0" d="M337.9,73.5c-4.6,0-8.4,3.8-8.4,8.4c0,4.7,3.8,8.4,8.4,8.4c4.7,0,8.4-3.8,8.4-8.4
		C346.4,77.3,342.6,73.5,337.9,73.5z"/>
	<path class="st0" d="M425.4,73.5c-4.7,0-8.4,3.8-8.4,8.4c0,4.7,3.8,8.4,8.4,8.4c4.7,0,8.4-3.8,8.4-8.4S430,73.5,425.4,73.5z"/>
	<path class="st0" d="M447.2,88.3c3.5,0,6.3-2.8,6.3-6.3s-2.8-6.3-6.3-6.3s-6.3,2.8-6.3,6.3S443.8,88.3,447.2,88.3z"/>
	<path class="st0" d="M316.1,64.3c2.3,0,4.2-1.9,4.2-4.2s-1.9-4.2-4.2-4.2s-4.2,1.9-4.2,4.2C311.9,62.4,313.8,64.3,316.1,64.3z"/>
	<path class="st0" d="M337.9,43c2.3,0,4.2-1.9,4.2-4.2s-1.9-4.2-4.2-4.2s-4.2,1.9-4.2,4.2S335.6,43,337.9,43z"/>
	<path class="st0" d="M425.4,43c2.3,0,4.2-1.9,4.2-4.2s-1.9-4.2-4.2-4.2s-4.2,1.9-4.2,4.2S423.1,43,425.4,43z"/>
	<path class="st0" d="M469.1,86.2c2.3,0,4.2-1.9,4.2-4.2c0-2.3-1.9-4.2-4.2-4.2s-4.2,1.9-4.2,4.2S466.8,86.2,469.1,86.2z"/>
	<path class="st0" d="M469.1,160.5c-2.3,0-4.2,1.9-4.2,4.2s1.9,4.2,4.2,4.2s4.2-1.9,4.2-4.2C473.3,162.4,471.4,160.5,469.1,160.5z"
		/>
	<path class="st0" d="M294.5,86.2c2.3,0,4.2-1.9,4.2-4.2s-1.9-4.2-4.2-4.2s-4.2,1.9-4.2,4.2S292.2,86.2,294.5,86.2z"/>
	<path class="st0" d="M337.9,66.4c3.5,0,6.3-2.8,6.3-6.3s-2.8-6.3-6.3-6.3s-6.3,2.8-6.3,6.3C331.6,63.5,334.5,66.4,337.9,66.4z"/>
	<path class="st0" d="M359.8,51.6c-4.7,0-8.4,3.8-8.4,8.4s3.8,8.4,8.4,8.4c4.7,0,8.4-3.8,8.4-8.4C368.2,55.4,364.5,51.6,359.8,51.6z
		"/>
	<path class="st0" d="M381.7,51.6c-4.7,0-8.4,3.8-8.4,8.4s3.8,8.4,8.4,8.4c4.6,0,8.4-3.8,8.4-8.4C390.1,55.4,386.3,51.6,381.7,51.6z
		"/>
	<path class="st0" d="M425.4,66.4c3.5,0,6.3-2.8,6.3-6.3s-2.8-6.3-6.3-6.3s-6.3,2.8-6.3,6.3C419.1,63.5,421.9,66.4,425.4,66.4z"/>
	<path class="st0" d="M447.2,64.3c2.3,0,4.2-1.9,4.2-4.2s-1.9-4.2-4.2-4.2c-2.3,0-4.2,1.9-4.2,4.2S444.9,64.3,447.2,64.3z"/>
	<path class="st0" d="M359.8,45.1c3.5,0,6.3-2.8,6.3-6.3s-2.8-6.3-6.3-6.3s-6.3,2.8-6.3,6.3S356.3,45.1,359.8,45.1z"/>
	<path class="st0" d="M381.7,45.1c3.5,0,6.3-2.8,6.3-6.3s-2.8-6.3-6.3-6.3s-6.3,2.8-6.3,6.3S378.2,45.1,381.7,45.1z"/>
	<path class="st0" d="M403,51.5c-4.7,0-8.4,3.8-8.4,8.4c0,4.7,3.8,8.4,8.4,8.4c4.6,0,8.4-3.8,8.4-8.4
		C411.5,55.3,407.7,51.5,403,51.5z"/>
	<path class="st0" d="M403,45.1c3.5,0,6.3-2.8,6.3-6.3c0-3.5-2.8-6.3-6.3-6.3s-6.3,2.8-6.3,6.3C396.7,42.2,399.5,45.1,403,45.1z"/>
</g>
<g>
	<path class="st0" d="M481,227.2c0-4,3.2-7.2,7.2-7.2s7.2,3.2,7.2,7.2s-3.2,7.2-7.2,7.2S481,231.2,481,227.2z M482.2,227.2
		c0,3.4,2.8,6,6,6s6-2.6,6-6s-2.8-6-6-6S482.2,223.8,482.2,227.2z M491.5,231.3h-1.3l-2.1-3.7h-1.5v3.7h-1.2v-8.1h3.4
		c1.5,0,2.8,0.4,2.8,2.1c0,1.6-1.1,2.2-2.2,2.2L491.5,231.3z M486.6,224.4v2h1.2c1.1,0,2.6,0.2,2.6-0.9c0-1-0.9-1.1-1.8-1.1H486.6z"
		/>
</g>
</svg>
