<?xml version="1.0" encoding="utf-8"?>
<!-- Generator: Adobe Illustrator 24.0.0, SVG Export Plug-In . SVG Version: 6.00 Build 0)  -->
<svg version="1.1" id="Layer_1" xmlns="http://www.w3.org/2000/svg" xmlns:xlink="http://www.w3.org/1999/xlink" x="0px" y="0px"
	 viewBox="0 0 330.6 258.5" style="enable-background:new 0 0 330.6 258.5;" xml:space="preserve">
<style type="text/css">
	.st0{fill:#772057;}
	.st1{fill:#009CA7;}
</style>
<g>
	<g>
		<path class="st0" d="M77.3,101.7v32.8h-6.1v-5.1h-0.1c-2.7,4.2-6.3,6.2-10.8,6.2c-4.6,0-8.3-1.7-11-5.2c-2.7-3.4-4.1-7.6-4.1-12.6
			c0-4.7,1.4-8.7,4.1-12.1c2.8-3.4,6.4-5.1,10.8-5.1c4.6,0,8.2,2.2,10.9,6.4h0.1v-5.5H77.3z M61.3,130.1c3.2,0,5.7-1.1,7.5-3.4
			c1.8-2.3,2.7-5.1,2.7-8.5c0-3.3-0.9-6.1-2.8-8.4s-4.3-3.4-7.5-3.4c-3,0-5.4,1.2-7.3,3.5c-1.8,2.3-2.7,5.1-2.7,8.3
			c0,3.3,0.9,6.1,2.7,8.4C55.8,128.9,58.2,130.1,61.3,130.1z"/>
		<path class="st0" d="M92.1,107.6v26.6h-6.3v-26.6h-3.4v-5.9h3.4V90.2h6.3v11.6h6.2v5.9C98.3,107.6,92.1,107.6,92.1,107.6z"/>
		<path class="st0" d="M101.3,83.6c0.8-0.9,1.9-1.3,3.1-1.3c1.2,0,2.2,0.4,3.1,1.3c0.8,0.9,1.3,1.9,1.3,3.1c0,1.2-0.4,2.2-1.3,3
			c-0.8,0.8-1.9,1.2-3.1,1.2c-1.2,0-2.2-0.4-3.1-1.2c-0.8-0.8-1.3-1.8-1.3-3C100.1,85.5,100.5,84.4,101.3,83.6z M107.6,101.7v32.8
			h-6.3v-32.8H107.6z"/>
		<path class="st0" d="M116.2,105.8c3.3-3.4,7.3-5.1,12-5.1c4.7,0,8.7,1.7,12,5.1c3.3,3.4,4.9,7.5,4.9,12.4c0,4.9-1.6,9.1-4.9,12.4
			s-7.3,5.1-12,5.1c-4.7,0-8.7-1.7-12-5.1c-3.3-3.4-4.9-7.5-4.9-12.4C111.2,113.3,112.9,109.2,116.2,105.8z M135.8,110.1
			c-2.1-2.2-4.7-3.4-7.6-3.4c-3,0-5.5,1.1-7.7,3.4c-2.1,2.2-3.2,4.9-3.2,8.1c0,3.1,1.1,5.8,3.2,8c2.1,2.3,4.7,3.4,7.7,3.4
			c3,0,5.5-1.1,7.6-3.4c2.1-2.3,3.2-4.9,3.2-8C139,115.1,137.9,112.4,135.8,110.1z"/>
		<path class="st0" d="M154.5,101.7v4.4h0.1c0.9-1.7,2.3-3.1,4.1-4c1.8-0.9,3.7-1.4,5.8-1.4c4.3,0,7.3,1.3,9.1,3.8
			c1.7,2.5,2.6,6,2.6,10.4v19.6h-6.3v-18.8c0-3.2-0.5-5.6-1.4-7.1c-0.9-1.5-2.9-2.3-5.9-2.3c-1.3,0-2.5,0.2-3.4,0.5
			c-1,0.3-1.8,0.9-2.3,1.6c-0.6,0.8-1,1.5-1.4,2.2c-0.4,0.7-0.6,1.6-0.7,2.9s-0.2,2.2-0.2,2.9c0,0.7,0,1.7,0,3.1v15.1h-6.3v-32.8
			H154.5z"/>
		<path class="st0" d="M211.1,101.7v32.8H205v-5.1h-0.1c-2.7,4.2-6.3,6.2-10.8,6.2c-4.6,0-8.3-1.7-11.1-5.2
			c-2.7-3.4-4.1-7.6-4.1-12.6c0-4.7,1.4-8.7,4.1-12.1c2.8-3.4,6.4-5.1,10.8-5.1c4.6,0,8.2,2.2,10.9,6.4h0.1v-5.5H211.1z
			 M195.1,130.1c3.2,0,5.7-1.1,7.5-3.4c1.8-2.3,2.7-5.1,2.7-8.5c0-3.3-0.9-6.1-2.8-8.4s-4.4-3.4-7.5-3.4c-3,0-5.4,1.2-7.3,3.5
			c-1.8,2.3-2.7,5.1-2.7,8.3c0,3.3,0.9,6.1,2.7,8.4C189.6,128.9,192,130.1,195.1,130.1z"/>
		<path class="st0" d="M222.7,82.3v52.3h-6.3V82.3H222.7z"/>
		<path class="st0" d="M51.5,143.4v4.4h0.1c0.9-1.7,2.3-3.1,4.1-4c1.8-0.9,3.7-1.4,5.8-1.4c4.3,0,7.3,1.3,9,3.8
			c1.7,2.5,2.6,6,2.6,10.5v19.6h-6.3v-18.8c0-3.2-0.5-5.6-1.4-7.1c-0.9-1.5-2.9-2.3-5.9-2.3c-1.3,0-2.5,0.2-3.4,0.5
			c-1,0.3-1.8,0.9-2.3,1.6c-0.5,0.8-1,1.4-1.4,2.1c-0.3,0.7-0.6,1.6-0.7,2.9c-0.1,1.2-0.2,2.2-0.2,2.9c0,0.7,0,1.7,0,3.1v15.1h-6.3
			v-32.8L51.5,143.4L51.5,143.4z"/>
		<path class="st0" d="M109.8,160.9H84.8c0,2.9,1,5.5,2.8,7.6c1.8,2.1,4.2,3.2,7.1,3.2c2.3,0,4.2-0.5,5.7-1.6
			c1.5-1.1,2.9-2.7,4.2-4.8l5.3,3c-1.5,2.8-3.7,5-6.3,6.6c-2.7,1.6-5.7,2.4-8.9,2.4c-4.9,0-8.8-1.6-11.8-4.9
			c-2.9-3.3-4.4-7.4-4.4-12.4c0-5.2,1.4-9.5,4.1-12.8s6.7-4.9,11.9-4.9c5,0,8.8,1.6,11.4,4.9c2.6,3.3,3.9,7.5,3.9,12.6
			C109.8,159.9,109.8,160.9,109.8,160.9z M85.1,156.1h18.4c-0.4-2.5-1.4-4.5-2.9-6c-1.6-1.5-3.6-2.2-6.1-2.2c-2.4,0-4.5,0.8-6.2,2.3
			C86.6,151.7,85.5,153.7,85.1,156.1z"/>
		<path class="st0" d="M122,143.4v5.3h0.2c0.8-2,2-3.5,3.6-4.6c1.6-1.1,3.4-1.7,5.4-1.7c1.8,0,3.5,0.5,5.2,1.6l-2.9,5.8
			c-1-0.9-2.3-1.3-3.9-1.3c-1.6,0-3,0.3-4.1,1c-1.1,0.7-1.9,1.6-2.3,2.9c-0.5,1.2-0.8,2.4-1,3.6c-0.2,1.2-0.2,2.6-0.2,4.1v16.1h-6.3
			v-32.9L122,143.4L122,143.4z"/>
		<path class="st0" d="M164.3,177.4v-6.2h-0.1c-1.3,1.9-2.9,3.4-4.9,4.6s-4,1.7-6.3,1.7c-4.9,0-8.7-1.7-11.5-5.2
			c-2.8-3.4-4.2-7.6-4.2-12.6c0-4.7,1.4-8.7,4.3-12.1c2.9-3.4,6.6-5.1,11.1-5.1c4.8,0,8.6,2.2,11.4,6.6h0.1v-5.6h6.3v32.2
			c0,6.2-1.2,11-3.5,14.4 M154,171.8c3.3,0,5.9-1.1,7.8-3.4c1.9-2.3,2.8-5.1,2.8-8.5c0-3.3-1-6.1-2.9-8.4c-1.9-2.3-4.5-3.4-7.8-3.4
			c-3.1,0-5.6,1.2-7.5,3.5c-1.9,2.3-2.8,5.1-2.8,8.3c0,3.3,0.9,6.1,2.8,8.4C148.3,170.6,150.8,171.8,154,171.8z"/>
		<path class="st0" d="M183.3,176.2l4.6-8.1l-13-24.8h7l9.8,19.5l10.5-19.5h6.7l-18.8,32.9L183.3,176.2"/>
		<path class="st0" d="M44.8,189.4c3.3-3.4,7.3-5.1,12-5.1s8.7,1.7,12,5.1c3.3,3.4,4.9,7.5,4.9,12.4s-1.6,9.1-4.9,12.4
			c-3.3,3.4-7.3,5.1-12,5.1s-8.7-1.7-12-5.1c-3.3-3.4-4.9-7.5-4.9-12.4C39.9,196.9,41.5,192.7,44.8,189.4z M64.4,193.7
			c-2.1-2.2-4.7-3.4-7.7-3.4c-3,0-5.5,1.1-7.7,3.4c-2.1,2.2-3.2,4.9-3.2,8.1c0,3.1,1.1,5.8,3.2,8c2.1,2.3,4.7,3.4,7.7,3.4
			c3,0,5.5-1.1,7.7-3.4c2.1-2.3,3.2-4.9,3.2-8C67.6,198.6,66.6,196,64.4,193.7z"/>
		<path class="st0" d="M76.8,185.3h6.3v18.2c0,3,0.6,5.4,1.6,7.2c1.1,1.8,3.1,2.7,5.9,2.7s4.8-0.9,5.9-2.7c1.1-1.8,1.7-4.2,1.7-7.2
			v-18.2h6.3v18.9c0,4.7-1.1,8.4-3.4,11.1c-2.3,2.7-5.8,4-10.5,4c-4.7,0-8.2-1.4-10.5-4c-2.3-2.7-3.4-6.4-3.4-11.1L76.8,185.3
			L76.8,185.3z"/>
		<path class="st0" d="M113.7,185.3v4.4h0.2c0.9-1.7,2.3-3.1,4.1-4c1.8-0.9,3.7-1.4,5.8-1.4c4.3,0,7.3,1.3,9.1,3.8
			c1.7,2.5,2.6,6,2.6,10.5v19.6h-6.3v-18.8c0-3.2-0.4-5.6-1.4-7.1c-0.9-1.5-2.9-2.3-5.9-2.3c-1.3,0-2.5,0.2-3.4,0.5
			c-1,0.3-1.8,0.9-2.3,1.6c-0.6,0.8-1,1.5-1.4,2.1c-0.3,0.7-0.6,1.6-0.7,2.9c-0.1,1.2-0.2,2.2-0.2,2.9c0,0.7,0,1.7,0,3.1v15.1h-6.3
			v-32.9L113.7,185.3L113.7,185.3z"/>
		<path class="st0" d="M170.6,167l0,51.1h-6.3V213h-0.1c-1.3,1.9-2.9,3.4-4.9,4.6c-1.9,1.1-4,1.7-6.3,1.7c-4.9,0-8.7-1.7-11.5-5.2
			c-2.8-3.4-4.2-7.6-4.2-12.6c0-4.7,1.4-8.7,4.3-12.1c2.9-3.4,6.6-5.1,11.2-5.1c4.8,0,8.6,2.1,11.4,6.5h0.1v-24.3 M154,213.6
			c3.3,0,5.9-1.1,7.8-3.4c1.9-2.3,2.8-5.1,2.8-8.5c0-3.3-1-6.1-2.9-8.4c-1.9-2.3-4.5-3.4-7.8-3.4c-3.1,0-5.6,1.2-7.5,3.5
			c-1.9,2.3-2.8,5.1-2.8,8.3c0,3.3,0.9,6.1,2.8,8.4C148.3,212.5,150.8,213.6,154,213.6z"/>
		<path class="st0" d="M206,185.3v32.8h-6.1V213h-0.1c-2.7,4.2-6.3,6.2-10.7,6.2c-4.6,0-8.3-1.7-11.1-5.2c-2.7-3.4-4.1-7.6-4.1-12.6
			c0-4.7,1.4-8.7,4.1-12.1c2.8-3.4,6.4-5.1,10.8-5.1c4.6,0,8.2,2.1,10.9,6.5h0.1v-5.5L206,185.3L206,185.3z M190,213.6
			c3.2,0,5.7-1.1,7.5-3.4c1.8-2.3,2.7-5.1,2.7-8.5c0-3.3-0.9-6.1-2.8-8.4c-1.9-2.3-4.4-3.4-7.5-3.4c-3,0-5.4,1.2-7.3,3.5
			c-1.8,2.3-2.7,5.1-2.7,8.3c0,3.3,0.9,6.1,2.7,8.4C184.5,212.5,186.9,213.6,190,213.6z"/>
		<path class="st0" d="M220.2,191.2v26.6h-6.3v-26.6h-3.4v-5.9h3.4v-11.4h6.3v11.4h6.2v5.9L220.2,191.2L220.2,191.2z"/>
		<path class="st0" d="M231.2,167.1c0.8-0.9,1.9-1.3,3.1-1.3s2.2,0.4,3.1,1.3c0.9,0.9,1.3,1.9,1.3,3.1c0,1.2-0.4,2.2-1.3,3
			c-0.8,0.8-1.9,1.2-3.1,1.2c-1.2,0-2.2-0.4-3.1-1.2c-0.8-0.8-1.3-1.9-1.3-3C230,169.1,230.4,168,231.2,167.1z M237.5,185.3v32.8
			h-6.3v-32.9L237.5,185.3L237.5,185.3z"/>
		<path class="st0" d="M245.9,189.4c3.3-3.4,7.3-5.1,12-5.1c4.7,0,8.7,1.7,12,5.1c3.3,3.4,4.9,7.5,4.9,12.4s-1.6,9.1-4.9,12.4
			c-3.3,3.4-7.3,5.1-12,5.1c-4.7,0-8.8-1.7-12-5.1c-3.3-3.4-4.9-7.5-4.9-12.4C241,196.9,242.6,192.7,245.9,189.4z M265.5,193.7
			c-2.1-2.2-4.7-3.4-7.6-3.4c-3,0-5.5,1.1-7.7,3.4c-2.1,2.2-3.2,4.9-3.2,8.1c0,3.1,1.1,5.8,3.2,8c2.1,2.3,4.7,3.4,7.7,3.4
			c3,0,5.5-1.1,7.6-3.4c2.1-2.3,3.2-4.9,3.2-8C268.7,198.6,267.7,196,265.5,193.7z"/>
		<path class="st0" d="M284.4,185.3v4.4h0.1c0.9-1.7,2.3-3.1,4.1-4c1.8-0.9,3.7-1.4,5.8-1.4c4.3,0,7.3,1.3,9,3.8
			c1.7,2.5,2.6,6,2.6,10.5v19.6h-6.3v-18.8c0-3.2-0.5-5.6-1.4-7.1c-0.9-1.5-2.9-2.3-5.9-2.3c-1.3,0-2.5,0.2-3.4,0.5
			c-1,0.3-1.8,0.9-2.3,1.6c-0.6,0.8-1,1.5-1.4,2.1c-0.4,0.7-0.6,1.6-0.7,2.9c-0.1,1.2-0.2,2.2-0.3,2.9c0,0.7,0,1.7,0,3.1v15.1h-6.3
			v-32.9L284.4,185.3L284.4,185.3z"/>
	</g>
	<polygon class="st0" points="34.2,101.4 34.2,123 10.3,98 10.3,134.8 16.5,134.8 16.5,113.2 40.4,138.2 40.4,101.4 	"/>
	<polygon class="st0" points="38.5,148.8 38.5,142.9 10.3,142.9 10.3,176.3 38.5,176.3 38.5,170.4 16.5,170.4 16.5,161.1 
		38.2,161.1 38.2,155.2 16.5,155.2 16.5,148.8 	"/>
	<polygon class="st0" points="38,190 38,184 10.3,184 10.3,217.9 16.5,217.9 16.5,202.7 34,202.7 34,196.8 16.5,196.8 16.5,190 	"/>
</g>
<g>
	<path class="st1" d="M23.1,234.9c-1.2-1.3-2.6-2.1-4.4-2.1c-3,0-5.2,2.5-5.2,5.4c0,2.9,2.2,5.5,5.2,5.5c1.8,0,3.5-0.9,4.6-2.3v1.7
		c-1.3,1.1-2.9,1.8-4.6,1.8c-3.7,0-6.5-2.9-6.5-6.6c0-3.7,2.8-6.6,6.5-6.6c1.6,0,3.1,0.5,4.4,1.6C23.1,233.2,23.1,234.9,23.1,234.9z
		"/>
	<path class="st1" d="M35.4,231.9v7.6c0,1.3,0,2.6-0.8,3.6c-0.9,1.1-2.3,1.7-3.8,1.7s-2.9-0.6-3.8-1.7c-0.8-1.1-0.8-2.4-0.8-3.6
		v-7.6h1.2v7.1c0,2.4,0.3,4.6,3.3,4.6c3,0,3.3-2.2,3.3-4.6v-7.1H35.4z"/>
	<path class="st1" d="M40.6,244.6h-1.2V222h1.2V244.6z"/>
	<path class="st1" d="M46.2,244.6H45v-11.5h-1.4V232H45v-4.5h1.2v4.5h2.2v1.1h-2.2V244.6z"/>
	<path class="st1" d="M52.8,227.7c0,0.6-0.5,1.1-1.1,1.1c-0.6,0-1.1-0.5-1.1-1.1c0-0.6,0.5-1.1,1.1-1.1
		C52.3,226.6,52.8,227.1,52.8,227.7z M52.2,244.6H51v-12.6h1.2V244.6z"/>
	<path class="st1" d="M60.8,242.4l4.5-10.4h1.3l-5.8,13.3L55,231.9h1.3L60.8,242.4z"/>
	<path class="st1" d="M79.9,244.6h-1.2v-2.3h-0.1c-0.9,1.6-2.9,2.5-4.8,2.5c-3.8,0-6.2-3-6.2-6.7s2.4-6.5,6.2-6.5
		c1.9,0,3.8,0.9,4.9,2.5h0.1v-2.2h1.2V244.6z M68.8,238.2c0,2.9,1.9,5.5,5,5.5c3.2,0,5-2.6,5-5.7c0-2.9-2-5.2-5.1-5.2
		C70.8,232.8,68.8,235.4,68.8,238.2z"/>
	<path class="st1" d="M85.4,244.6h-1.2v-11.5h-1.4V232h1.4v-4.5h1.2v4.5h2.2v1.1h-2.2V244.6z"/>
	<path class="st1" d="M92,227.7c0,0.6-0.5,1.1-1.1,1.1c-0.6,0-1.1-0.5-1.1-1.1c0-0.6,0.5-1.1,1.1-1.1C91.5,226.6,92,227.1,92,227.7z
		 M91.5,244.6h-1.2v-12.6h1.2V244.6z"/>
	<path class="st1" d="M97.4,233.9L97.4,233.9c0.8-1.4,2.2-2.2,3.8-2.2c3.2,0,4.2,2,4.2,5.3v7.6h-1.2v-7.6c0-2.3-0.3-4.1-3-4.1
		c-3.2,0-3.7,2.9-3.7,5.5v6.2h-1.2v-12.6h1.2L97.4,233.9L97.4,233.9z"/>
	<path class="st1" d="M120.9,244c0,1.9-0.1,3.7-1.3,5.4c-1.2,1.6-3,2.4-5,2.4c-3.3,0-6-1.9-6.2-5.4h1.2c0.1,2.6,2.3,4.3,4.9,4.3
		c1.6,0,3.1-0.6,4-1.9c1-1.4,1.1-3.1,1.1-4.8v-1.6h-0.1c-1.1,1.5-3,2.5-4.9,2.5c-3.7,0-6.1-3.1-6.1-6.6c0-3.6,2.6-6.6,6.3-6.6
		c2.1,0,3.6,0.9,4.8,2.5h0.1v-2.2h1.2L120.9,244L120.9,244z M109.8,238.2c0,2.9,1.9,5.5,5,5.5c3.2,0,5-2.6,5-5.7
		c0-2.9-2-5.2-5.1-5.2C111.8,232.8,109.8,235.4,109.8,238.2z"/>
	<path class="st1" d="M138.5,238.4c-0.1,3.2,2.1,5.3,5.1,5.3c2,0,3.6-1.2,4.4-2.9l1,0.6c-1.1,2.2-3.2,3.4-5.7,3.4
		c-3.7,0-6.1-3-6.1-6.6c0-3.5,2.4-6.6,6.1-6.6c3.8,0,6.1,3.1,6.1,6.7L138.5,238.4L138.5,238.4z M148.3,237.2
		c-0.3-2.3-2.2-4.4-4.8-4.4c-2.6,0-4.7,2-4.9,4.4H148.3z"/>
	<path class="st1" d="M153.7,233.9L153.7,233.9c0.8-1.4,2.2-2.2,3.8-2.2c3.2,0,4.1,2,4.1,5.3v7.6h-1.2v-7.6c0-2.3-0.3-4.1-3-4.1
		c-3.2,0-3.7,2.9-3.7,5.5v6.2h-1.2v-12.6h1.2L153.7,233.9L153.7,233.9z"/>
	<path class="st1" d="M165.9,238.4c-0.1,3.2,2.1,5.3,5.1,5.3c2,0,3.6-1.2,4.4-2.9l1,0.6c-1.1,2.2-3.2,3.4-5.7,3.4
		c-3.7,0-6.1-3-6.1-6.6c0-3.5,2.4-6.6,6.1-6.6c3.8,0,6.1,3.1,6.1,6.7L165.9,238.4L165.9,238.4z M175.6,237.2
		c-0.3-2.3-2.2-4.4-4.8-4.4c-2.6,0-4.7,2-4.9,4.4H175.6z"/>
	<path class="st1" d="M181,233.6L181,233.6c0.5-1.1,1.4-1.9,2.8-1.9c0.5,0,0.9,0.1,1.3,0.3l-0.7,1.1c-0.3-0.2-0.6-0.2-0.9-0.2
		c-2.8,0-2.6,3.4-2.6,5.3v6.4h-1.2v-12.6h1.2L181,233.6L181,233.6z"/>
	<path class="st1" d="M198.7,244c0,1.9-0.1,3.7-1.3,5.4c-1.2,1.6-3,2.4-5,2.4c-3.3,0-6-1.9-6.2-5.4h1.2c0.1,2.6,2.4,4.3,4.9,4.3
		c1.6,0,3.1-0.6,4-1.9c1-1.4,1.1-3.1,1.1-4.8v-1.6h-0.1c-1.1,1.5-3,2.5-4.9,2.5c-3.7,0-6.1-3.1-6.1-6.6c0-3.6,2.6-6.6,6.3-6.6
		c2.1,0,3.6,0.9,4.8,2.5h0.1v-2.2h1.2L198.7,244L198.7,244z M187.6,238.2c0,2.9,1.9,5.5,5,5.5c3.2,0,5-2.6,5-5.7
		c0-2.9-2-5.2-5.1-5.2C189.6,232.8,187.6,235.4,187.6,238.2z"/>
	<path class="st1" d="M200.6,231.9h1.3l5.4,11.4l4.8-11.4h1.3l-8.5,20h-1.3l3-7.2L200.6,231.9z"/>
	<path class="st1" d="M230.1,244.6h-1.2V222h1.2V244.6z"/>
	<path class="st1" d="M236.6,227.7c0,0.6-0.5,1.1-1.1,1.1c-0.6,0-1.1-0.5-1.1-1.1c0-0.6,0.5-1.1,1.1-1.1
		C236.1,226.6,236.6,227.1,236.6,227.7z M236.1,244.6h-1.2v-12.6h1.2V244.6z"/>
	<path class="st1" d="M242.1,244.6h-1.2v-11.5h-1.4V232h1.4v-4.5h1.2v4.5h2.2v1.1h-2.2V244.6z"/>
	<path class="st1" d="M246.5,238.4c-0.1,3.2,2.1,5.3,5.1,5.3c2,0,3.6-1.2,4.4-2.9l1,0.6c-1.1,2.2-3.2,3.4-5.7,3.4
		c-3.7,0-6.1-3-6.1-6.6c0-3.5,2.4-6.6,6.1-6.6c3.8,0,6.1,3.1,6.1,6.7L246.5,238.4L246.5,238.4z M256.2,237.2
		c-0.3-2.3-2.2-4.4-4.8-4.4c-2.6,0-4.7,2-4.9,4.4H256.2z"/>
	<path class="st1" d="M261.6,233.6L261.6,233.6c0.5-1.1,1.4-1.9,2.8-1.9c0.5,0,0.9,0.1,1.3,0.3l-0.7,1.1c-0.3-0.2-0.5-0.2-0.9-0.2
		c-2.8,0-2.6,3.4-2.6,5.3v6.4h-1.2v-12.6h1.2L261.6,233.6L261.6,233.6z"/>
	<path class="st1" d="M279.1,244.6h-1.2v-2.3h0c-0.9,1.6-3,2.5-4.8,2.5c-3.8,0-6.2-3-6.2-6.7s2.4-6.5,6.2-6.5c1.9,0,3.8,0.9,4.9,2.5
		h0v-2.2h1.2L279.1,244.6L279.1,244.6z M268,238.2c0,2.9,1.9,5.5,5,5.5c3.2,0,5-2.6,5-5.7c0-2.9-2-5.2-5.1-5.2
		C270,232.8,268,235.4,268,238.2z"/>
	<path class="st1" d="M293,234.9c-1.2-1.3-2.6-2.1-4.5-2.1c-3,0-5.2,2.5-5.2,5.4c0,2.9,2.2,5.5,5.2,5.5c1.8,0,3.5-0.9,4.6-2.3v1.7
		c-1.3,1.1-2.9,1.8-4.6,1.8c-3.7,0-6.5-2.9-6.5-6.6c0-3.7,2.8-6.6,6.5-6.6c1.6,0,3.1,0.5,4.4,1.6L293,234.9L293,234.9z"/>
	<path class="st1" d="M294,231.9h1.3l5.4,11.4l4.8-11.4h1.3l-8.5,20h-1.3l3-7.2L294,231.9z"/>
</g>
<g>
	<path class="st1" d="M278.2,98.3c-4.7,0-8.4,3.8-8.4,8.4s3.8,8.4,8.4,8.4c4.6,0,8.4-3.8,8.4-8.4C286.7,102.1,282.9,98.3,278.2,98.3
		z"/>
	<path class="st1" d="M300.1,100.5c-3.5,0-6.3,2.8-6.3,6.3c0,3.5,2.8,6.3,6.3,6.3c3.5,0,6.3-2.8,6.3-6.3
		C306.4,103.3,303.6,100.5,300.1,100.5z"/>
	<path class="st1" d="M278.2,119.8c-4.7,0-8.4,3.8-8.4,8.4c0,4.7,3.8,8.4,8.4,8.4c4.6,0,8.4-3.8,8.4-8.4
		C286.7,123.6,282.9,119.8,278.2,119.8z"/>
	<path class="st1" d="M300.1,121.9c-3.5,0-6.3,2.8-6.3,6.3s2.8,6.3,6.3,6.3c3.5,0,6.3-2.8,6.3-6.3S303.6,121.9,300.1,121.9z"/>
	<path class="st1" d="M256.4,140.3c-4.7,0-8.4,3.8-8.4,8.4s3.8,8.4,8.4,8.4c4.7,0,8.4-3.8,8.4-8.4
		C264.8,144.1,261,140.3,256.4,140.3z"/>
	<path class="st1" d="M278.2,142.4c-3.5,0-6.3,2.8-6.3,6.3s2.8,6.3,6.3,6.3c3.5,0,6.3-2.8,6.3-6.3S281.7,142.4,278.2,142.4z"/>
	<path class="st1" d="M256.4,163.4c-3.5,0-6.3,2.8-6.3,6.3c0,3.5,2.8,6.3,6.3,6.3c3.5,0,6.3-2.8,6.3-6.3
		C262.7,166.3,259.9,163.4,256.4,163.4z"/>
	<path class="st1" d="M278.2,165.5c-2.3,0-4.2,1.9-4.2,4.2s1.9,4.2,4.2,4.2s4.2-1.9,4.2-4.2C282.5,167.4,280.6,165.5,278.2,165.5z"
		/>
	<path class="st1" d="M125.2,92.3c3.5,0,6.3-2.8,6.3-6.3s-2.8-6.3-6.3-6.3c-3.5,0-6.3,2.8-6.3,6.3C118.9,89.5,121.8,92.3,125.2,92.3
		z"/>
	<path class="st1" d="M147.1,77.6c-4.7,0-8.4,3.8-8.4,8.4c0,4.7,3.8,8.4,8.4,8.4c4.7,0,8.4-3.8,8.4-8.4
		C155.5,81.4,151.8,77.6,147.1,77.6z"/>
	<path class="st1" d="M278.2,77.6c-4.7,0-8.4,3.8-8.4,8.4c0,4.7,3.8,8.4,8.4,8.4c4.6,0,8.4-3.8,8.4-8.4
		C286.7,81.4,282.9,77.6,278.2,77.6z"/>
	<path class="st1" d="M300.1,92.3c3.5,0,6.3-2.8,6.3-6.3s-2.8-6.3-6.3-6.3c-3.5,0-6.3,2.8-6.3,6.3C293.8,89.5,296.6,92.3,300.1,92.3
		z"/>
	<path class="st1" d="M147.1,72.3c3.5,0,6.3-2.8,6.3-6.3c0-3.5-2.8-6.3-6.3-6.3s-6.3,2.8-6.3,6.3S143.6,72.3,147.1,72.3z"/>
	<path class="st1" d="M168.9,57.5c-4.6,0-8.4,3.8-8.4,8.4c0,4.7,3.8,8.4,8.4,8.4c4.7,0,8.4-3.8,8.4-8.4
		C177.4,61.3,173.6,57.5,168.9,57.5z"/>
	<path class="st1" d="M256.4,57.5c-4.7,0-8.4,3.8-8.4,8.4c0,4.7,3.8,8.4,8.4,8.4c4.7,0,8.4-3.8,8.4-8.4
		C264.8,61.3,261,57.5,256.4,57.5z"/>
	<path class="st1" d="M278.2,72.3c3.5,0,6.3-2.8,6.3-6.3c0-3.5-2.8-6.3-6.3-6.3c-3.5,0-6.3,2.8-6.3,6.3S274.8,72.3,278.2,72.3z"/>
	<path class="st1" d="M147.1,48.3c2.3,0,4.2-1.9,4.2-4.2c0-2.3-1.9-4.2-4.2-4.2s-4.2,1.9-4.2,4.2C142.9,46.4,144.8,48.3,147.1,48.3z
		"/>
	<path class="st1" d="M168.9,27c2.3,0,4.2-1.9,4.2-4.2s-1.9-4.2-4.2-4.2s-4.2,1.9-4.2,4.2C164.7,25.1,166.6,27,168.9,27z"/>
	<path class="st1" d="M256.4,27c2.3,0,4.2-1.9,4.2-4.2s-1.9-4.2-4.2-4.2c-2.3,0-4.2,1.9-4.2,4.2C252.2,25.1,254.1,27,256.4,27z"/>
	<path class="st1" d="M300.1,70.2c2.3,0,4.2-1.9,4.2-4.2c0-2.3-1.9-4.2-4.2-4.2s-4.2,1.9-4.2,4.2C295.9,68.3,297.8,70.2,300.1,70.2z
		"/>
	<path class="st1" d="M300.1,144.5c-2.3,0-4.2,1.9-4.2,4.2s1.9,4.2,4.2,4.2s4.2-1.9,4.2-4.2C304.3,146.4,302.4,144.5,300.1,144.5z"
		/>
	<path class="st1" d="M125.5,70.2c2.3,0,4.2-1.9,4.2-4.2s-1.9-4.2-4.2-4.2c-2.3,0-4.2,1.9-4.2,4.2C121.3,68.3,123.2,70.2,125.5,70.2
		z"/>
	<path class="st1" d="M168.9,50.4c3.5,0,6.3-2.8,6.3-6.3c0-3.5-2.8-6.3-6.3-6.3s-6.3,2.8-6.3,6.3C162.6,47.5,165.5,50.4,168.9,50.4z
		"/>
	<path class="st1" d="M190.8,35.6c-4.7,0-8.4,3.8-8.4,8.4s3.8,8.4,8.4,8.4c4.7,0,8.4-3.8,8.4-8.4C199.2,39.4,195.5,35.6,190.8,35.6z
		"/>
	<path class="st1" d="M212.7,35.6c-4.7,0-8.4,3.8-8.4,8.4s3.8,8.4,8.4,8.4s8.4-3.8,8.4-8.4C221.1,39.4,217.3,35.6,212.7,35.6z"/>
	<path class="st1" d="M256.4,50.4c3.5,0,6.3-2.8,6.3-6.3c0-3.5-2.8-6.3-6.3-6.3c-3.5,0-6.3,2.8-6.3,6.3
		C250.1,47.5,252.9,50.4,256.4,50.4z"/>
	<path class="st1" d="M278.2,48.3c2.3,0,4.2-1.9,4.2-4.2c0-2.3-1.9-4.2-4.2-4.2c-2.3,0-4.2,1.9-4.2,4.2S275.9,48.3,278.2,48.3z"/>
	<path class="st1" d="M190.8,29.1c3.5,0,6.3-2.8,6.3-6.3s-2.8-6.3-6.3-6.3s-6.3,2.8-6.3,6.3C184.5,26.3,187.3,29.1,190.8,29.1z"/>
	<path class="st1" d="M212.7,29.1c3.5,0,6.3-2.8,6.3-6.3s-2.8-6.3-6.3-6.3s-6.3,2.8-6.3,6.3C206.4,26.3,209.2,29.1,212.7,29.1z"/>
	<path class="st1" d="M234,35.5c-4.7,0-8.4,3.8-8.4,8.4c0,4.7,3.8,8.4,8.4,8.4c4.6,0,8.4-3.8,8.4-8.4
		C242.5,39.3,238.7,35.5,234,35.5z"/>
	<path class="st1" d="M234,29.1c3.5,0,6.3-2.8,6.3-6.3c0-3.5-2.8-6.3-6.3-6.3s-6.3,2.8-6.3,6.3C227.7,26.2,230.5,29.1,234,29.1z"/>
</g>
<g>
	<path class="st0" d="M312,211.2c0-4,3.2-7.2,7.2-7.2s7.2,3.2,7.2,7.2s-3.2,7.2-7.2,7.2S312,215.2,312,211.2z M313.2,211.2
		c0,3.4,2.8,6,6,6s6-2.6,6-6c0-3.4-2.8-6-6-6S313.2,207.8,313.2,211.2z M322.5,215.3h-1.3l-2.1-3.7h-1.5v3.7h-1.2v-8.1h3.4
		c1.5,0,2.8,0.4,2.8,2.1c0,1.6-1.1,2.2-2.2,2.2L322.5,215.3z M317.6,208.4v2h1.2c1.1,0,2.6,0.2,2.6-0.9c0-1-0.9-1.1-1.8-1.1H317.6z"
		/>
</g>
</svg>
