<svg xmlns="http://www.w3.org/2000/svg" viewBox="0 0 668.6 290.5"><g fill="#718096"><path d="M246.3 117.7v32.8h-6.1v-5.1h-.1c-2.7 4.2-6.3 6.2-10.8 6.2-4.6 0-8.3-1.7-11-5.2-2.7-3.4-4.1-7.6-4.1-12.6 0-4.7 1.4-8.7 4.1-12.1q4.2-5.1 10.8-5.1c4.6 0 8.2 2.2 10.9 6.4h.1v-5.5h6.2zm-16 28.4c3.2 0 5.7-1.1 7.5-3.4s2.7-5.1 2.7-8.5c0-3.3-.9-6.1-2.8-8.4s-4.3-3.4-7.5-3.4c-3 0-5.4 1.2-7.3 3.5-1.8 2.3-2.7 5.1-2.7 8.3q0 4.95 2.7 8.4c1.9 2.3 4.3 3.5 7.4 3.5m30.8-22.5v26.6h-6.3v-26.6h-3.4v-5.9h3.4v-11.5h6.3v11.6h6.2v5.9c0-.1-6.2-.1-6.2-.1m9.2-24c.8-.9 1.9-1.3 3.1-1.3s2.2.4 3.1 1.3c.8.9 1.3 1.9 1.3 3.1s-.4 2.2-1.3 3c-.8.8-1.9 1.2-3.1 1.2s-2.2-.4-3.1-1.2c-.8-.8-1.3-1.8-1.3-3 .1-1.2.5-2.3 1.3-3.1m6.3 18.1v32.8h-6.3v-32.8zm8.6 4.1q4.95-5.1 12-5.1c7.05 0 8.7 1.7 12 5.1s4.9 7.5 4.9 12.4-1.6 9.1-4.9 12.4-7.3 5.1-12 5.1-8.7-1.7-12-5.1-4.9-7.5-4.9-12.4c-.1-4.9 1.6-9 4.9-12.4m19.6 4.3c-2.1-2.2-4.7-3.4-7.6-3.4-3 0-5.5 1.1-7.7 3.4-2.1 2.2-3.2 4.9-3.2 8.1 0 3.1 1.1 5.8 3.2 8 2.1 2.3 4.7 3.4 7.7 3.4s5.5-1.1 7.6-3.4 3.2-4.9 3.2-8-1.1-5.8-3.2-8.1m18.7-8.4v4.4h.1c.9-1.7 2.3-3.1 4.1-4s3.7-1.4 5.8-1.4c4.3 0 7.3 1.3 9.1 3.8 1.7 2.5 2.6 6 2.6 10.4v19.6h-6.3v-18.8c0-3.2-.5-5.6-1.4-7.1s-2.9-2.3-5.9-2.3c-1.3 0-2.5.2-3.4.5-1 .3-1.8.9-2.3 1.6-.6.8-1 1.5-1.4 2.2s-.6 1.6-.7 2.9-.2 2.2-.2 2.9v18.2h-6.3v-32.8zm56.6 0v32.8H374v-5.1h-.1c-2.7 4.2-6.3 6.2-10.8 6.2-4.6 0-8.3-1.7-11.1-5.2-2.7-3.4-4.1-7.6-4.1-12.6 0-4.7 1.4-8.7 4.1-12.1q4.2-5.1 10.8-5.1c4.6 0 8.2 2.2 10.9 6.4h.1v-5.5h6.3zm-16 28.4c3.2 0 5.7-1.1 7.5-3.4s2.7-5.1 2.7-8.5c0-3.3-.9-6.1-2.8-8.4s-4.4-3.4-7.5-3.4c-3 0-5.4 1.2-7.3 3.5-1.8 2.3-2.7 5.1-2.7 8.3q0 4.95 2.7 8.4c1.9 2.3 4.3 3.5 7.4 3.5m27.6-47.8v52.3h-6.3V98.3zm-171.2 61.1v4.4h.1c.9-1.7 2.3-3.1 4.1-4s3.7-1.4 5.8-1.4c4.3 0 7.3 1.3 9 3.8s2.6 6 2.6 10.5v19.6h-6.3v-18.8c0-3.2-.5-5.6-1.4-7.1s-2.9-2.3-5.9-2.3c-1.3 0-2.5.2-3.4.5-1 .3-1.8.9-2.3 1.6-.5.8-1 1.4-1.4 2.1-.3.7-.6 1.6-.7 2.9-.1 1.2-.2 2.2-.2 2.9v18.2h-6.3v-32.8zm58.3 17.5h-25c0 2.9 1 5.5 2.8 7.6s4.2 3.2 7.1 3.2c2.3 0 4.2-.5 5.7-1.6s2.9-2.7 4.2-4.8l5.3 3c-1.5 2.8-3.7 5-6.3 6.6-2.7 1.6-5.7 2.4-8.9 2.4-4.9 0-8.8-1.6-11.8-4.9-2.9-3.3-4.4-7.4-4.4-12.4 0-5.2 1.4-9.5 4.1-12.8s6.7-4.9 11.9-4.9c5 0 8.8 1.6 11.4 4.9s3.9 7.5 3.9 12.6zm-24.7-4.8h18.4c-.4-2.5-1.4-4.5-2.9-6-1.6-1.5-3.6-2.2-6.1-2.2-2.4 0-4.5.8-6.2 2.3s-2.8 3.5-3.2 5.9m36.9-12.7v5.3h.2c.8-2 2-3.5 3.6-4.6s3.4-1.7 5.4-1.7c1.8 0 3.5.5 5.2 1.6l-2.9 5.8c-1-.9-2.3-1.3-3.9-1.3s-3 .3-4.1 1-1.9 1.6-2.3 2.9c-.5 1.2-.8 2.4-1 3.6s-.2 2.6-.2 4.1v16.1h-6.3v-32.9zm42.3 34v-6.2h-.1c-1.3 1.9-2.9 3.4-4.9 4.6s-4 1.7-6.3 1.7c-4.9 0-8.7-1.7-11.5-5.2q-4.2-5.1-4.2-12.6c0-4.7 1.4-8.7 4.3-12.1s6.6-5.1 11.1-5.1q7.2 0 11.4 6.6h.1v-5.6h6.3v32.2c0 6.2-1.2 11-3.5 14.4m-13-18.3c3.3 0 5.9-1.1 7.8-3.4s2.8-5.1 2.8-8.5c0-3.3-1-6.1-2.9-8.4s-4.5-3.4-7.8-3.4c-3.1 0-5.6 1.2-7.5 3.5s-2.8 5.1-2.8 8.3c0 3.3.9 6.1 2.8 8.4s4.4 3.5 7.6 3.5m29.3 4.4 4.6-8.1-13-24.8h7l9.8 19.5 10.5-19.5h6.7l-18.8 32.9zm-138.5 13.2q4.95-5.1 12-5.1c7.05 0 8.7 1.7 12 5.1s4.9 7.5 4.9 12.4-1.6 9.1-4.9 12.4q-4.95 5.1-12 5.1c-7.05 0-8.7-1.7-12-5.1s-4.9-7.5-4.9-12.4 1.6-9.1 4.9-12.4m19.6 4.3c-2.1-2.2-4.7-3.4-7.7-3.4s-5.5 1.1-7.7 3.4c-2.1 2.2-3.2 4.9-3.2 8.1 0 3.1 1.1 5.8 3.2 8 2.1 2.3 4.7 3.4 7.7 3.4s5.5-1.1 7.7-3.4c2.1-2.3 3.2-4.9 3.2-8 0-3.2-1-5.8-3.2-8.1m12.4-8.4h6.3v18.2c0 3 .6 5.4 1.6 7.2 1.1 1.8 3.1 2.7 5.9 2.7s4.8-.9 5.9-2.7 1.7-4.2 1.7-7.2v-18.2h6.3v18.9c0 4.7-1.1 8.4-3.4 11.1s-5.8 4-10.5 4-8.2-1.4-10.5-4c-2.3-2.7-3.4-6.4-3.4-11.1zm36.9 0v4.4h.2c.9-1.7 2.3-3.1 4.1-4s3.7-1.4 5.8-1.4c4.3 0 7.3 1.3 9.1 3.8 1.7 2.5 2.6 6 2.6 10.5v19.6h-6.3v-18.8c0-3.2-.4-5.6-1.4-7.1-.9-1.5-2.9-2.3-5.9-2.3-1.3 0-2.5.2-3.4.5-1 .3-1.8.9-2.3 1.6-.6.8-1 1.5-1.4 2.1-.3.7-.6 1.6-.7 2.9-.1 1.2-.2 2.2-.2 2.9v18.2h-6.3v-32.9z"/><path d="M339.6 183v51.1h-6.3V229h-.1c-1.3 1.9-2.9 3.4-4.9 4.6-1.9 1.1-4 1.7-6.3 1.7-4.9 0-8.7-1.7-11.5-5.2q-4.2-5.1-4.2-12.6c0-4.7 1.4-8.7 4.3-12.1s6.6-5.1 11.2-5.1c4.8 0 8.6 2.1 11.4 6.5h.1v-24.3M323 229.6c3.3 0 5.9-1.1 7.8-3.4s2.8-5.1 2.8-8.5c0-3.3-1-6.1-2.9-8.4s-4.5-3.4-7.8-3.4c-3.1 0-5.6 1.2-7.5 3.5s-2.8 5.1-2.8 8.3c0 3.3.9 6.1 2.8 8.4 1.9 2.4 4.4 3.5 7.6 3.5m52-28.3v32.8h-6.1V229h-.1c-2.7 4.2-6.3 6.2-10.7 6.2-4.6 0-8.3-1.7-11.1-5.2-2.7-3.4-4.1-7.6-4.1-12.6 0-4.7 1.4-8.7 4.1-12.1q4.2-5.1 10.8-5.1c4.6 0 8.2 2.1 10.9 6.5h.1v-5.5zm-16 28.3c3.2 0 5.7-1.1 7.5-3.4s2.7-5.1 2.7-8.5c0-3.3-.9-6.1-2.8-8.4s-4.4-3.4-7.5-3.4c-3 0-5.4 1.2-7.3 3.5-1.8 2.3-2.7 5.1-2.7 8.3q0 4.95 2.7 8.4c1.9 2.4 4.3 3.5 7.4 3.5m30.2-22.4v26.6h-6.3v-26.6h-3.4v-5.9h3.4v-11.4h6.3v11.4h6.2v5.9zm11-24.1c.8-.9 1.9-1.3 3.1-1.3s2.2.4 3.1 1.3 1.3 1.9 1.3 3.1-.4 2.2-1.3 3c-.8.8-1.9 1.2-3.1 1.2s-2.2-.4-3.1-1.2c-.8-.8-1.3-1.9-1.3-3 .1-1.1.5-2.2 1.3-3.1m6.3 18.2v32.8h-6.3v-32.9zm8.4 4.1q4.95-5.1 12-5.1c7.05 0 8.7 1.7 12 5.1s4.9 7.5 4.9 12.4-1.6 9.1-4.9 12.4q-4.95 5.1-12 5.1c-7.05 0-8.8-1.7-12-5.1-3.3-3.4-4.9-7.5-4.9-12.4s1.6-9.1 4.9-12.4m19.6 4.3c-2.1-2.2-4.7-3.4-7.6-3.4-3 0-5.5 1.1-7.7 3.4-2.1 2.2-3.2 4.9-3.2 8.1 0 3.1 1.1 5.8 3.2 8 2.1 2.3 4.7 3.4 7.7 3.4s5.5-1.1 7.6-3.4 3.2-4.9 3.2-8c0-3.2-1-5.8-3.2-8.1m18.9-8.4v4.4h.1c.9-1.7 2.3-3.1 4.1-4s3.7-1.4 5.8-1.4c4.3 0 7.3 1.3 9 3.8s2.6 6 2.6 10.5v19.6h-6.3v-18.8c0-3.2-.5-5.6-1.4-7.1s-2.9-2.3-5.9-2.3c-1.3 0-2.5.2-3.4.5-1 .3-1.8.9-2.3 1.6-.6.8-1 1.5-1.4 2.1-.4.7-.6 1.6-.7 2.9-.1 1.2-.2 2.2-.3 2.9v18.2H447v-32.9zm-250.2-83.9V139l-23.9-25v36.8h6.2v-21.6l23.9 25v-36.8zm4.3 47.4v-5.9h-28.2v33.4h28.2v-5.9h-22v-9.3h21.7v-5.9h-21.7v-6.4zM207 206v-6h-27.7v33.9h6.2v-15.2H203v-5.9h-17.5V206zm-14.9 44.9c-1.2-1.3-2.6-2.1-4.4-2.1-3 0-5.2 2.5-5.2 5.4s2.2 5.5 5.2 5.5c1.8 0 3.5-.9 4.6-2.3v1.7c-1.3 1.1-2.9 1.8-4.6 1.8-3.7 0-6.5-2.9-6.5-6.6s2.8-6.6 6.5-6.6c1.6 0 3.1.5 4.4 1.6zm12.3-3v7.6c0 1.3 0 2.6-.8 3.6-.9 1.1-2.3 1.7-3.8 1.7s-2.9-.6-3.8-1.7c-.8-1.1-.8-2.4-.8-3.6v-7.6h1.2v7.1c0 2.4.3 4.6 3.3 4.6s3.3-2.2 3.3-4.6v-7.1zm5.2 12.7h-1.2V238h1.2zm5.6 0H214v-11.5h-1.4V248h1.4v-4.5h1.2v4.5h2.2v1.1h-2.2zm6.6-16.9c0 .6-.5 1.1-1.1 1.1s-1.1-.5-1.1-1.1.5-1.1 1.1-1.1 1.1.5 1.1 1.1m-.6 16.9H220V248h1.2zm8.6-2.2 4.5-10.4h1.3l-5.8 13.3-5.8-13.4h1.3zm19.1 2.2h-1.2v-2.3h-.1c-.9 1.6-2.9 2.5-4.8 2.5-3.8 0-6.2-3-6.2-6.7s2.4-6.5 6.2-6.5c1.9 0 3.8.9 4.9 2.5h.1v-2.2h1.2v12.7zm-11.1-6.4c0 2.9 1.9 5.5 5 5.5 3.2 0 5-2.6 5-5.7 0-2.9-2-5.2-5.1-5.2-2.9 0-4.9 2.6-4.9 5.4m16.6 6.4h-1.2v-11.5h-1.4V248h1.4v-4.5h1.2v4.5h2.2v1.1h-2.2zm6.6-16.9c0 .6-.5 1.1-1.1 1.1s-1.1-.5-1.1-1.1.5-1.1 1.1-1.1 1.1.5 1.1 1.1m-.5 16.9h-1.2V248h1.2zm5.9-10.7c.8-1.4 2.2-2.2 3.8-2.2 3.2 0 4.2 2 4.2 5.3v7.6h-1.2V253c0-2.3-.3-4.1-3-4.1-3.2 0-3.7 2.9-3.7 5.5v6.2h-1.2V248h1.2zm23.5 10.1c0 1.9-.1 3.7-1.3 5.4-1.2 1.6-3 2.4-5 2.4-3.3 0-6-1.9-6.2-5.4h1.2c.1 2.6 2.3 4.3 4.9 4.3 1.6 0 3.1-.6 4-1.9 1-1.4 1.1-3.1 1.1-4.8v-1.6h-.1c-1.1 1.5-3 2.5-4.9 2.5-3.7 0-6.1-3.1-6.1-6.6 0-3.6 2.6-6.6 6.3-6.6 2.1 0 3.6.9 4.8 2.5h.1V248h1.2zm-11.1-5.8c0 2.9 1.9 5.5 5 5.5 3.2 0 5-2.6 5-5.7 0-2.9-2-5.2-5.1-5.2-2.9 0-4.9 2.6-4.9 5.4m28.7.2c-.1 3.2 2.1 5.3 5.1 5.3 2 0 3.6-1.2 4.4-2.9l1 .6c-1.1 2.2-3.2 3.4-5.7 3.4-3.7 0-6.1-3-6.1-6.6 0-3.5 2.4-6.6 6.1-6.6 3.8 0 6.1 3.1 6.1 6.7zm9.8-1.2c-.3-2.3-2.2-4.4-4.8-4.4s-4.7 2-4.9 4.4zm5.4-3.3c.8-1.4 2.2-2.2 3.8-2.2 3.2 0 4.1 2 4.1 5.3v7.6h-1.2V253c0-2.3-.3-4.1-3-4.1-3.2 0-3.7 2.9-3.7 5.5v6.2h-1.2V248h1.2zm12.2 4.5c-.1 3.2 2.1 5.3 5.1 5.3 2 0 3.6-1.2 4.4-2.9l1 .6c-1.1 2.2-3.2 3.4-5.7 3.4-3.7 0-6.1-3-6.1-6.6 0-3.5 2.4-6.6 6.1-6.6 3.8 0 6.1 3.1 6.1 6.7zm9.7-1.2c-.3-2.3-2.2-4.4-4.8-4.4s-4.7 2-4.9 4.4zm5.4-3.6c.5-1.1 1.4-1.9 2.8-1.9.5 0 .9.1 1.3.3l-.7 1.1c-.3-.2-.6-.2-.9-.2-2.8 0-2.6 3.4-2.6 5.3v6.4h-1.2V248h1.2zm17.7 10.4c0 1.9-.1 3.7-1.3 5.4-1.2 1.6-3 2.4-5 2.4-3.3 0-6-1.9-6.2-5.4h1.2c.1 2.6 2.4 4.3 4.9 4.3 1.6 0 3.1-.6 4-1.9 1-1.4 1.1-3.1 1.1-4.8v-1.6h-.1c-1.1 1.5-3 2.5-4.9 2.5-3.7 0-6.1-3.1-6.1-6.6 0-3.6 2.6-6.6 6.3-6.6 2.1 0 3.6.9 4.8 2.5h.1V248h1.2zm-11.1-5.8c0 2.9 1.9 5.5 5 5.5 3.2 0 5-2.6 5-5.7 0-2.9-2-5.2-5.1-5.2-2.9 0-4.9 2.6-4.9 5.4m13-6.3h1.3l5.4 11.4 4.8-11.4h1.3l-8.5 20h-1.3l3-7.2zm29.5 12.7h-1.2V238h1.2zm6.5-16.9c0 .6-.5 1.1-1.1 1.1s-1.1-.5-1.1-1.1.5-1.1 1.1-1.1 1.1.5 1.1 1.1m-.5 16.9h-1.2V248h1.2zm6 0h-1.2v-11.5h-1.4V248h1.4v-4.5h1.2v4.5h2.2v1.1h-2.2zm4.4-6.2c-.1 3.2 2.1 5.3 5.1 5.3 2 0 3.6-1.2 4.4-2.9l1 .6c-1.1 2.2-3.2 3.4-5.7 3.4-3.7 0-6.1-3-6.1-6.6 0-3.5 2.4-6.6 6.1-6.6 3.8 0 6.1 3.1 6.1 6.7zm9.7-1.2c-.3-2.3-2.2-4.4-4.8-4.4s-4.7 2-4.9 4.4zm5.4-3.6c.5-1.1 1.4-1.9 2.8-1.9.5 0 .9.1 1.3.3l-.7 1.1c-.3-.2-.5-.2-.9-.2-2.8 0-2.6 3.4-2.6 5.3v6.4h-1.2V248h1.2zm17.5 11h-1.2v-2.3c-.9 1.6-3 2.5-4.8 2.5-3.8 0-6.2-3-6.2-6.7s2.4-6.5 6.2-6.5c1.9 0 3.8.9 4.9 2.5v-2.2h1.2zm-11.1-6.4c0 2.9 1.9 5.5 5 5.5 3.2 0 5-2.6 5-5.7 0-2.9-2-5.2-5.1-5.2-2.9 0-4.9 2.6-4.9 5.4m25-3.3c-1.2-1.3-2.6-2.1-4.5-2.1-3 0-5.2 2.5-5.2 5.4s2.2 5.5 5.2 5.5c1.8 0 3.5-.9 4.6-2.3v1.7c-1.3 1.1-2.9 1.8-4.6 1.8-3.7 0-6.5-2.9-6.5-6.6s2.8-6.6 6.5-6.6c1.6 0 3.1.5 4.4 1.6zm1-3h1.3l5.4 11.4 4.8-11.4h1.3l-8.5 20H466l3-7.2zm-15.8-133.6c-4.7 0-8.4 3.8-8.4 8.4s3.8 8.4 8.4 8.4 8.4-3.8 8.4-8.4c.1-4.6-3.7-8.4-8.4-8.4m21.9 2.2c-3.5 0-6.3 2.8-6.3 6.3s2.8 6.3 6.3 6.3 6.3-2.8 6.3-6.3-2.8-6.3-6.3-6.3m-21.9 19.3c-4.7 0-8.4 3.8-8.4 8.4 0 4.7 3.8 8.4 8.4 8.4s8.4-3.8 8.4-8.4c.1-4.6-3.7-8.4-8.4-8.4m21.9 2.1c-3.5 0-6.3 2.8-6.3 6.3s2.8 6.3 6.3 6.3 6.3-2.8 6.3-6.3-2.8-6.3-6.3-6.3m-43.7 18.4c-4.7 0-8.4 3.8-8.4 8.4s3.8 8.4 8.4 8.4c4.7 0 8.4-3.8 8.4-8.4s-3.8-8.4-8.4-8.4m21.8 2.1c-3.5 0-6.3 2.8-6.3 6.3s2.8 6.3 6.3 6.3 6.3-2.8 6.3-6.3-2.8-6.3-6.3-6.3m-21.8 21c-3.5 0-6.3 2.8-6.3 6.3s2.8 6.3 6.3 6.3 6.3-2.8 6.3-6.3c0-3.4-2.8-6.3-6.3-6.3m21.8 2.1c-2.3 0-4.2 1.9-4.2 4.2s1.9 4.2 4.2 4.2 4.2-1.9 4.2-4.2c.1-2.3-1.8-4.2-4.2-4.2m-153-73.2c3.5 0 6.3-2.8 6.3-6.3s-2.8-6.3-6.3-6.3-6.3 2.8-6.3 6.3 2.9 6.3 6.3 6.3m21.9-14.7c-4.7 0-8.4 3.8-8.4 8.4 0 4.7 3.8 8.4 8.4 8.4 4.7 0 8.4-3.8 8.4-8.4s-3.7-8.4-8.4-8.4m131.1 0c-4.7 0-8.4 3.8-8.4 8.4 0 4.7 3.8 8.4 8.4 8.4s8.4-3.8 8.4-8.4c.1-4.6-3.7-8.4-8.4-8.4m21.9 14.7c3.5 0 6.3-2.8 6.3-6.3s-2.8-6.3-6.3-6.3-6.3 2.8-6.3 6.3 2.8 6.3 6.3 6.3m-153-20c3.5 0 6.3-2.8 6.3-6.3s-2.8-6.3-6.3-6.3-6.3 2.8-6.3 6.3 2.8 6.3 6.3 6.3m21.8-14.8c-4.6 0-8.4 3.8-8.4 8.4 0 4.7 3.8 8.4 8.4 8.4 4.7 0 8.4-3.8 8.4-8.4.1-4.6-3.7-8.4-8.4-8.4m87.5 0c-4.7 0-8.4 3.8-8.4 8.4 0 4.7 3.8 8.4 8.4 8.4 4.7 0 8.4-3.8 8.4-8.4s-3.8-8.4-8.4-8.4m21.8 14.8c3.5 0 6.3-2.8 6.3-6.3s-2.8-6.3-6.3-6.3-6.3 2.8-6.3 6.3 2.9 6.3 6.3 6.3m-131.1-24c2.3 0 4.2-1.9 4.2-4.2s-1.9-4.2-4.2-4.2-4.2 1.9-4.2 4.2 1.9 4.2 4.2 4.2M337.9 43c2.3 0 4.2-1.9 4.2-4.2s-1.9-4.2-4.2-4.2-4.2 1.9-4.2 4.2 1.9 4.2 4.2 4.2m87.5 0c2.3 0 4.2-1.9 4.2-4.2s-1.9-4.2-4.2-4.2-4.2 1.9-4.2 4.2 1.9 4.2 4.2 4.2m43.7 43.2c2.3 0 4.2-1.9 4.2-4.2s-1.9-4.2-4.2-4.2-4.2 1.9-4.2 4.2 1.9 4.2 4.2 4.2m0 74.3c-2.3 0-4.2 1.9-4.2 4.2s1.9 4.2 4.2 4.2 4.2-1.9 4.2-4.2-1.9-4.2-4.2-4.2M294.5 86.2c2.3 0 4.2-1.9 4.2-4.2s-1.9-4.2-4.2-4.2-4.2 1.9-4.2 4.2 1.9 4.2 4.2 4.2m43.4-19.8c3.5 0 6.3-2.8 6.3-6.3s-2.8-6.3-6.3-6.3-6.3 2.8-6.3 6.3c0 3.4 2.9 6.3 6.3 6.3m21.9-14.8c-4.7 0-8.4 3.8-8.4 8.4s3.8 8.4 8.4 8.4c4.7 0 8.4-3.8 8.4-8.4s-3.7-8.4-8.4-8.4m21.9 0c-4.7 0-8.4 3.8-8.4 8.4s3.8 8.4 8.4 8.4 8.4-3.8 8.4-8.4-3.8-8.4-8.4-8.4m43.7 14.8c3.5 0 6.3-2.8 6.3-6.3s-2.8-6.3-6.3-6.3-6.3 2.8-6.3 6.3c0 3.4 2.8 6.3 6.3 6.3m21.8-2.1c2.3 0 4.2-1.9 4.2-4.2s-1.9-4.2-4.2-4.2-4.2 1.9-4.2 4.2 1.9 4.2 4.2 4.2m-87.4-19.2c3.5 0 6.3-2.8 6.3-6.3s-2.8-6.3-6.3-6.3-6.3 2.8-6.3 6.3 2.8 6.3 6.3 6.3m21.9 0c3.5 0 6.3-2.8 6.3-6.3s-2.8-6.3-6.3-6.3-6.3 2.8-6.3 6.3 2.8 6.3 6.3 6.3m21.3 6.4c-4.7 0-8.4 3.8-8.4 8.4 0 4.7 3.8 8.4 8.4 8.4s8.4-3.8 8.4-8.4c.1-4.6-3.7-8.4-8.4-8.4m0-6.4c3.5 0 6.3-2.8 6.3-6.3s-2.8-6.3-6.3-6.3-6.3 2.8-6.3 6.3c0 3.4 2.8 6.3 6.3 6.3m78 182.1c0-4 3.2-7.2 7.2-7.2s7.2 3.2 7.2 7.2-3.2 7.2-7.2 7.2-7.2-3.2-7.2-7.2m1.2 0c0 3.4 2.8 6 6 6s6-2.6 6-6-2.8-6-6-6-6 2.6-6 6m9.3 4.1h-1.3l-2.1-3.7h-1.5v3.7h-1.2v-8.1h3.4c1.5 0 2.8.4 2.8 2.1 0 1.6-1.1 2.2-2.2 2.2zm-4.9-6.9v2h1.2c1.1 0 2.6.2 2.6-.9 0-1-.9-1.1-1.8-1.1z"/></g></svg>