<?xml version="1.0" encoding="utf-8"?>
<!-- Generator: Adobe Illustrator 23.1.1, SVG Export Plug-In . SVG Version: 6.00 Build 0)  -->
<svg version="1.1" id="Layer_1" xmlns="http://www.w3.org/2000/svg" xmlns:xlink="http://www.w3.org/1999/xlink" x="0px" y="0px"
	 viewBox="0 0 368.4 125.2" style="enable-background:new 0 0 368.4 125.2;" xml:space="preserve">
<style type="text/css">
	.st0{fill:#D31920;}
	.st1{fill:#FFFFFF;}
	.st2{fill:#231F20;}
</style>
<g>
	<g>
		<path class="st0" d="M127.5,98.6c0,1.3-1.1,2.4-2.4,2.4H27.8c-1.3,0-2.4-1.1-2.4-2.4V25.3c0-1.3,1.1-2.4,2.4-2.4h97.3
			c1.3,0,2.4,1.1,2.4,2.4V98.6z"/>
	</g>
	<path class="st1" d="M118.2,56c0-0.4,0-0.5,0-0.5c0,0,0,0,0,0c-0.2-5.1-1.4-9.3-3.3-12.6c-1.9-3.2-4.7-5.5-8.3-6.9
		c-5-1.9-13.3-2.6-28.9-2.6h-2.5c-15.6,0-23.9,0.8-28.9,2.7c-3.6,1.4-6.4,3.7-8.3,6.9c-2,3.2-3.1,7.5-3.3,12.6c0,0,0,0.5,0,0.5
		c0,0-0.2,5.1-0.2,5.1c0,0,0.2,5.1,0.2,5.1c0,0.4,0,0.5,0,0.5c0,0,0,0,0,0C34.9,71.8,36,76,38,79.3c1.9,3.2,4.7,5.5,8.3,6.9
		c5,1.9,13.3,2.6,28.9,2.6l2.5,0c15.6,0,23.9-0.8,28.9-2.7c3.6-1.4,6.4-3.7,8.3-6.9c1.9-3.2,3.1-7.5,3.3-12.6c0,0,0-0.5,0-0.5
		c0,0,0.2-5.1,0.2-5.1C118.4,61,118.2,56,118.2,56z M74.5,71.3l0,11.1h-0.1l0,0c-2.5,0-4.7,0-6.8-0.1c-10-0.2-15.7-0.9-18.9-2.1
		c-5.9-2.3-7.2-8.5-7.5-13.8c0-1-0.2-3.1-0.2-5.3c0-2.2,0.1-4.3,0.2-5.3c0.3-5.3,1.5-11.5,7.5-13.8c3.8-1.5,11.3-2.2,25.6-2.2l0,0
		h0.1V51l-16.6,0l0,20.3L74.5,71.3z M111.7,66.4c-0.3,5.3-1.5,11.5-7.5,13.8c-3.8,1.5-11.3,2.2-25.6,2.2l0,0h-0.1l0-11.1l16.6,0
		l0-20.3l0,0l-16.6,0l0-11.1h0.1l0,0c2.5,0,4.7,0,6.8,0.1c10,0.2,15.7,0.9,18.9,2.1c5.9,2.3,7.2,8.5,7.5,13.8c0,1,0.2,3.1,0.2,5.3
		C111.9,63.3,111.8,65.4,111.7,66.4z"/>
	<path class="st2" d="M155.3,70.9h29V55.1h-29V70.9z M340.8,59l0-0.4l0,0c-0.4-8.2-3.6-13.4-9.4-15.6c-3.9-1.5-10.5-2.1-22.7-2.1
		h-1.8c-12.2,0-18.8,0.6-22.7,2.1c-1.7,0.6-3.1,1.5-4.3,2.6c-0.4-2.7-2.7-4.7-5.5-4.7h-12.7c-1.1,0-2.1,0.3-3,0.9
		c-0.9-0.5-1.9-0.9-2.9-0.9h-17.9c-1.9,0-3.9-0.1-6.1-0.1h-1.8c-12.2,0-18.8,0.6-22.7,2.1c-2.9,1.1-5.1,2.9-6.7,5.5
		c-1-1.9-2.5-3.3-4.5-4.4c-0.7-0.4-1.4-0.8-2.2-1.1c-3.5-1.3-9.2-2-19.2-2.1l0,0c-1.2,0-2.4,0-3.6,0h-1.8c-12.2,0-18.8,0.6-22.7,2.1
		c-5.8,2.2-9,7.5-9.4,15.6l0,0.4l-0.1,4l0.1,4l0,0.4c0.3,7,2.8,11.9,7.2,14.6c0.8,0.5,1.6,0.9,2.5,1.2c3.9,1.5,10.5,2.1,22.7,2.1
		h1.8c12.2,0,18.8-0.6,22.7-2.1c1.2-0.5,2.2-1.1,3.1-1.9c1.3-1,2.5-2.2,3.4-3.7c0.1,0.2,0.3,0.4,0.4,0.6c1.5,2.3,3.6,4,6.3,5
		c3.9,1.5,10.5,2.1,22.7,2.1h1.8c3.3,0,6.2,0,8.7-0.1h15.3c1.1,0,2.1-0.3,2.9-0.9c0.9,0.5,1.9,0.9,3,0.9h12.7c2.8,0,5.1-2.1,5.5-4.7
		c1.2,1.1,2.7,2,4.3,2.6c3.9,1.5,10.5,2.1,22.7,2.1h1.8c12.2,0,18.8-0.6,22.7-2.1c5.8-2.2,9-7.5,9.4-15.6c0,0,0-0.4,0-0.4l0.1-4
		L340.8,59z M197.5,63c0,1.7-0.1,3.4-0.1,4.1c-0.2,4.1-1.2,9-5.9,10.7c-3.1,1.2-9.1,1.7-20.8,1.7h-1.8c-11.7,0-17.7-0.6-20.8-1.7
		c-0.5-0.2-1-0.4-1.4-0.7c-3.2-2.2-4-6.3-4.2-9.9V59c0.2-4.1,1.2-9,5.8-10.7c3.1-1.2,9.1-1.7,20.8-1.7h1.8c11.7,0,17.7,0.6,20.8,1.7
		c0.8,0.3,1.5,0.7,2.1,1.2c2.7,2.3,3.4,6.1,3.6,9.4c0,0.5,0.1,1.5,0.1,2.6C197.5,61.9,197.5,62.4,197.5,63z M255.5,55.1h-39.5v15.8
		h26.7l0,0V66h-12.3v-5.4h25.1v19h-25.9c-11.7,0-17.7-0.6-20.8-1.7c-4.6-1.8-5.6-6.6-5.8-10.7c0-0.8-0.1-2.4-0.1-4.1
		c0-1.7,0.1-3.4,0.1-4.1c0.2-4.1,1.2-9,5.8-10.7c3.1-1.2,9.1-1.7,20.8-1.7h25.9V55.1z M274.2,79.6h-12.7V46.4h12.7V79.6z
		 M335.2,67.1c-0.2,4.1-1.2,9-5.8,10.7c-3.1,1.2-9.1,1.7-20.8,1.7h-1.8C295,79.6,289,79,286,77.8c-4.6-1.8-5.6-6.6-5.8-10.7
		c0-0.8-0.1-2.4-0.1-4.1c0-1.7,0.1-3.4,0.1-4.1c0.2-4.1,1.2-9,5.8-10.7c3.1-1.2,9.1-1.7,20.8-1.7h1.8c11.7,0,17.7,0.6,20.8,1.7
		c4.6,1.8,5.6,6.6,5.8,10.7c0,0.8,0.1,2.4,0.1,4.1C335.3,64.7,335.2,66.4,335.2,67.1z M293.2,70.9h29V55.1h-29V70.9z"/>
	<g>
		<path class="st2" d="M339.8,39.3c1.6,0,2.8,1.3,2.8,2.9c0,1.6-1.3,2.9-2.8,2.9c-1.6,0-2.9-1.3-2.9-2.9
			C337,40.6,338.2,39.3,339.8,39.3L339.8,39.3z M339.8,39.8c-1.3,0-2.3,1.1-2.3,2.4c0,1.4,1,2.4,2.3,2.4c1.3,0,2.3-1.1,2.3-2.4
			C342.1,40.9,341.1,39.8,339.8,39.8L339.8,39.8z M339.3,43.9h-0.5v-3.2c0.3,0,0.5-0.1,0.9-0.1c0.5,0,0.8,0.1,1,0.2
			c0.2,0.1,0.3,0.4,0.3,0.7c0,0.4-0.3,0.7-0.6,0.8v0c0.3,0.1,0.5,0.3,0.5,0.8c0.1,0.5,0.2,0.7,0.2,0.8h-0.5
			c-0.1-0.1-0.2-0.4-0.2-0.8c-0.1-0.4-0.3-0.6-0.7-0.6h-0.4V43.9z M339.3,42.1h0.4c0.4,0,0.8-0.2,0.8-0.6c0-0.3-0.2-0.6-0.8-0.6
			c-0.2,0-0.3,0-0.4,0V42.1z"/>
	</g>
</g>
</svg>
