<svg enable-background="new 0 0 420.2 142.8" viewBox="0 0 420.2 142.8" xmlns="http://www.w3.org/2000/svg"><g fill="#718096"><path d="m151 31.7h-97.3c-1.3 0-2.4 1.1-2.4 2.4v73.3c0 1.3 1.1 2.4 2.4 2.4h97.3c1.3 0 2.4-1.1 2.4-2.4v-73.3c0-1.3-1.1-2.4-2.4-2.4zm-6.9 43.2v.5c-.2 5.1-1.4 9.4-3.3 12.6s-4.7 5.5-8.3 6.9c-5 1.9-13.3 2.7-28.9 2.7h-2.5c-15.6 0-23.9-.7-28.9-2.6-3.6-1.4-6.4-3.7-8.3-6.9-1-1.6-1.8-3.5-2.3-5.6-.6-2.1-.9-4.4-1-6.9 0 0 0-.1 0-.5l-.2-5.1.2-5.1v-.5c.2-5.1 1.3-9.4 3.3-12.6 1.9-3.2 4.7-5.5 8.3-6.9 5-1.9 13.3-2.7 28.9-2.7h2.5c15.6 0 23.9.7 28.9 2.6 3.6 1.4 6.4 3.7 8.3 6.9.9 1.6 1.7 3.5 2.3 5.6s.9 4.4 1 7v.5l.2 5z"/><path d="m137.9 70c-.1 2.1-.2 4.2-.3 5.2-.3 5.3-1.5 11.5-7.5 13.8-3.8 1.5-11.3 2.2-25.6 2.2h-.1v-11.1h16.6v-20.3h-16.6v-11.1h.1c2.5 0 4.7 0 6.8.1 10 .2 15.7.9 18.9 2.1 5.9 2.3 7.2 8.5 7.5 13.8 0 1 .2 3.1.2 5.3z"/><path d="m100.4 80.1v11.1h-.1c-2.5 0-4.7 0-6.8-.1-10-.2-15.7-.9-18.9-2.1-5.9-2.3-7.2-8.5-7.5-13.8 0-1-.2-3.1-.2-5.3s.1-4.3.2-5.3c.3-5.3 1.5-11.5 7.5-13.8 3.8-1.5 11.3-2.2 25.6-2.2h.1v11.2h-16.6v20.3z"/><path d="m181.2 79.7h29v-15.8h-29zm185.5-11.9v-.4c-.4-8.2-3.6-13.4-9.4-15.6-3.9-1.5-10.5-2.1-22.7-2.1h-1.8c-12.2 0-18.8.6-22.7 2.1-1.7.6-3.1 1.5-4.3 2.6-.4-2.7-2.7-4.7-5.5-4.7h-12.7c-1.1 0-2.1.3-3 .9-.9-.5-1.9-.9-2.9-.9h-17.9c-1.9 0-3.9-.1-6.1-.1h-1.8c-12.2 0-18.8.6-22.7 2.1-2.9 1.1-5.1 2.9-6.7 5.5-1-1.9-2.5-3.3-4.5-4.4-.7-.4-1.4-.8-2.2-1.1-3.5-1.3-9.2-2-19.2-2.1-1.2 0-2.4 0-3.6 0h-1.8c-12.2 0-18.8.6-22.7 2.1-5.8 2.2-9 7.5-9.4 15.6v.4l-.1 4 .1 4v.4c.3 7 2.8 11.9 7.2 14.6.8.5 1.6.9 2.5 1.2 3.9 1.5 10.5 2.1 22.7 2.1h1.8c12.2 0 18.8-.6 22.7-2.1 1.2-.5 2.2-1.1 3.1-1.9 1.3-1 2.5-2.2 3.4-3.7.1.2.3.4.4.6 1.5 2.3 3.6 4 6.3 5 3.9 1.5 10.5 2.1 22.7 2.1h1.8c3.3 0 6.2 0 8.7-.1h15.3c1.1 0 2.1-.3 2.9-.9.9.5 1.9.9 3 .9h12.7c2.8 0 5.1-2.1 5.5-4.7 1.2 1.1 2.7 2 4.3 2.6 3.9 1.5 10.5 2.1 22.7 2.1h1.8c12.2 0 18.8-.6 22.7-2.1 5.8-2.2 9-7.5 9.4-15.6v-.4l.1-4zm-143.3 4c0 1.7-.1 3.4-.1 4.1-.2 4.1-1.2 9-5.9 10.7-3.1 1.2-9.1 1.7-20.8 1.7h-1.8c-11.7 0-17.7-.6-20.8-1.7-.5-.2-1-.4-1.4-.7-3.2-2.2-4-6.3-4.2-9.9v-8.2c.2-4.1 1.2-9 5.8-10.7 3.1-1.2 9.1-1.7 20.8-1.7h1.8c11.7 0 17.7.6 20.8 1.7.8.3 1.5.7 2.1 1.2 2.7 2.3 3.4 6.1 3.6 9.4 0 .5.1 1.5.1 2.6zm58-7.9h-39.5v15.8h26.7v-4.9h-12.3v-5.4h25.1v19h-25.9c-11.7 0-17.7-.6-20.8-1.7-4.6-1.8-5.6-6.6-5.8-10.7 0-.8-.1-2.4-.1-4.1s.1-3.4.1-4.1c.2-4.1 1.2-9 5.8-10.7 3.1-1.2 9.1-1.7 20.8-1.7h25.9zm18.7 24.5h-12.7v-33.2h12.7zm61-12.5c-.2 4.1-1.2 9-5.8 10.7-3.1 1.2-9.1 1.7-20.8 1.7h-1.8c-11.8.1-17.8-.5-20.8-1.7-4.6-1.8-5.6-6.6-5.8-10.7 0-.8-.1-2.4-.1-4.1s.1-3.4.1-4.1c.2-4.1 1.2-9 5.8-10.7 3.1-1.2 9.1-1.7 20.8-1.7h1.8c11.7 0 17.7.6 20.8 1.7 4.6 1.8 5.6 6.6 5.8 10.7 0 .8.1 2.4.1 4.1s-.1 3.4-.1 4.1zm-42 3.8h29v-15.8h-29z"/><path d="m365.7 48.1c1.6 0 2.8 1.3 2.8 2.9s-1.3 2.9-2.8 2.9c-1.6 0-2.9-1.3-2.9-2.9.1-1.6 1.3-2.9 2.9-2.9zm0 .5c-1.3 0-2.3 1.1-2.3 2.4 0 1.4 1 2.4 2.3 2.4s2.3-1.1 2.3-2.4-1-2.4-2.3-2.4zm-.5 4.1h-.5v-3.2c.3 0 .5-.1.9-.1.5 0 .8.1 1 .2s.3.4.3.7c0 .4-.3.7-.6.8.3.1.5.3.5.8.1.5.2.7.2.8h-.5c-.1-.1-.2-.4-.2-.8-.1-.4-.3-.6-.7-.6h-.4zm0-1.8h.4c.4 0 .8-.2.8-.6 0-.3-.2-.6-.8-.6-.2 0-.3 0-.4 0z"/></g></svg>