<?xml version="1.0" encoding="utf-8"?>
<!-- Generator: Adobe Illustrator 24.0.0, SVG Export Plug-In . SVG Version: 6.00 Build 0)  -->
<svg version="1.1" id="Layer_1" xmlns="http://www.w3.org/2000/svg" xmlns:xlink="http://www.w3.org/1999/xlink" x="0px" y="0px"
	 viewBox="0 0 420.2 142.8" style="enable-background:new 0 0 420.2 142.8;" xml:space="preserve">
<style type="text/css">
	.st0{fill:#718096;}
</style>
<g>
	<g>
		<path class="st0" d="M151,31.7H53.7c-1.3,0-2.4,1.1-2.4,2.4v73.3c0,1.3,1.1,2.4,2.4,2.4H151c1.3,0,2.4-1.1,2.4-2.4V34.1
			C153.4,32.8,152.3,31.7,151,31.7z M144.1,74.9v0.5c-0.2,5.1-1.4,9.4-3.3,12.6c-1.9,3.2-4.7,5.5-8.3,6.9c-5,1.9-13.3,2.7-28.9,2.7
			h-2.5c-15.6,0-23.9-0.7-28.9-2.6c-3.6-1.4-6.4-3.7-8.3-6.9c-1-1.6-1.8-3.5-2.3-5.6c-0.6-2.1-0.9-4.4-1-6.9c0,0,0-0.1,0-0.5
			L60.4,70l0.2-5.1v-0.5c0.2-5.1,1.3-9.4,3.3-12.6c1.9-3.2,4.7-5.5,8.3-6.9c5-1.9,13.3-2.7,28.9-2.7h2.5c15.6,0,23.9,0.7,28.9,2.6
			c3.6,1.4,6.4,3.7,8.3,6.9c0.9,1.6,1.7,3.5,2.3,5.6c0.6,2.1,0.9,4.4,1,7c0,0,0,0.1,0,0.5l0.2,5L144.1,74.9z"/>
	</g>
	<path class="st0" d="M137.9,70c-0.1,2.1-0.2,4.2-0.3,5.2c-0.3,5.3-1.5,11.5-7.5,13.8c-3.8,1.5-11.3,2.2-25.6,2.2h-0.1V80.1H121
		V59.8h-16.6V48.7h0.1c2.5,0,4.7,0,6.8,0.1c10,0.2,15.7,0.9,18.9,2.1c5.9,2.3,7.2,8.5,7.5,13.8C137.7,65.7,137.9,67.8,137.9,70z"/>
	<path class="st0" d="M100.4,80.1v11.1h-0.1c-2.5,0-4.7,0-6.8-0.1c-10-0.2-15.7-0.9-18.9-2.1c-5.9-2.3-7.2-8.5-7.5-13.8
		c0-1-0.2-3.1-0.2-5.3c0-2.2,0.1-4.3,0.2-5.3c0.3-5.3,1.5-11.5,7.5-13.8c3.8-1.5,11.3-2.2,25.6-2.2h0.1v11.2H83.7v20.3H100.4z"/>
	<path class="st0" d="M181.2,79.7h29V63.9h-29V79.7z M366.7,67.8v-0.4l0,0c-0.4-8.2-3.6-13.4-9.4-15.6c-3.9-1.5-10.5-2.1-22.7-2.1
		h-1.8c-12.2,0-18.8,0.6-22.7,2.1c-1.7,0.6-3.1,1.5-4.3,2.6c-0.4-2.7-2.7-4.7-5.5-4.7h-12.7c-1.1,0-2.1,0.3-3,0.9
		c-0.9-0.5-1.9-0.9-2.9-0.9h-17.9c-1.9,0-3.9-0.1-6.1-0.1h-1.8c-12.2,0-18.8,0.6-22.7,2.1c-2.9,1.1-5.1,2.9-6.7,5.5
		c-1-1.9-2.5-3.3-4.5-4.4c-0.7-0.4-1.4-0.8-2.2-1.1c-3.5-1.3-9.2-2-19.2-2.1l0,0c-1.2,0-2.4,0-3.6,0h-1.8c-12.2,0-18.8,0.6-22.7,2.1
		c-5.8,2.2-9,7.5-9.4,15.6v0.4l-0.1,4l0.1,4v0.4c0.3,7,2.8,11.9,7.2,14.6c0.8,0.5,1.6,0.9,2.5,1.2c3.9,1.5,10.5,2.1,22.7,2.1h1.8
		c12.2,0,18.8-0.6,22.7-2.1c1.2-0.5,2.2-1.1,3.1-1.9c1.3-1,2.5-2.2,3.4-3.7c0.1,0.2,0.3,0.4,0.4,0.6c1.5,2.3,3.6,4,6.3,5
		c3.9,1.5,10.5,2.1,22.7,2.1h1.8c3.3,0,6.2,0,8.7-0.1h15.3c1.1,0,2.1-0.3,2.9-0.9c0.9,0.5,1.9,0.9,3,0.9h12.7c2.8,0,5.1-2.1,5.5-4.7
		c1.2,1.1,2.7,2,4.3,2.6c3.9,1.5,10.5,2.1,22.7,2.1h1.8c12.2,0,18.8-0.6,22.7-2.1c5.8-2.2,9-7.5,9.4-15.6v-0.4l0.1-4L366.7,67.8z
		 M223.4,71.8c0,1.7-0.1,3.4-0.1,4.1c-0.2,4.1-1.2,9-5.9,10.7c-3.1,1.2-9.1,1.7-20.8,1.7h-1.8c-11.7,0-17.7-0.6-20.8-1.7
		c-0.5-0.2-1-0.4-1.4-0.7c-3.2-2.2-4-6.3-4.2-9.9v-8.2c0.2-4.1,1.2-9,5.8-10.7c3.1-1.2,9.1-1.7,20.8-1.7h1.8
		c11.7,0,17.7,0.6,20.8,1.7c0.8,0.3,1.5,0.7,2.1,1.2c2.7,2.3,3.4,6.1,3.6,9.4c0,0.5,0.1,1.5,0.1,2.6
		C223.4,70.7,223.4,71.2,223.4,71.8z M281.4,63.9h-39.5v15.8h26.7l0,0v-4.9h-12.3v-5.4h25.1v19h-25.9c-11.7,0-17.7-0.6-20.8-1.7
		c-4.6-1.8-5.6-6.6-5.8-10.7c0-0.8-0.1-2.4-0.1-4.1s0.1-3.4,0.1-4.1c0.2-4.1,1.2-9,5.8-10.7c3.1-1.2,9.1-1.7,20.8-1.7h25.9V63.9z
		 M300.1,88.4h-12.7V55.2h12.7V88.4z M361.1,75.9c-0.2,4.1-1.2,9-5.8,10.7c-3.1,1.2-9.1,1.7-20.8,1.7h-1.8
		c-11.8,0.1-17.8-0.5-20.8-1.7c-4.6-1.8-5.6-6.6-5.8-10.7c0-0.8-0.1-2.4-0.1-4.1c0-1.7,0.1-3.4,0.1-4.1c0.2-4.1,1.2-9,5.8-10.7
		c3.1-1.2,9.1-1.7,20.8-1.7h1.8c11.7,0,17.7,0.6,20.8,1.7c4.6,1.8,5.6,6.6,5.8,10.7c0,0.8,0.1,2.4,0.1,4.1
		C361.2,73.5,361.1,75.2,361.1,75.9z M319.1,79.7h29V63.9h-29V79.7z"/>
	<g>
		<path class="st0" d="M365.7,48.1c1.6,0,2.8,1.3,2.8,2.9c0,1.6-1.3,2.9-2.8,2.9c-1.6,0-2.9-1.3-2.9-2.9
			C362.9,49.4,364.1,48.1,365.7,48.1L365.7,48.1z M365.7,48.6c-1.3,0-2.3,1.1-2.3,2.4c0,1.4,1,2.4,2.3,2.4s2.3-1.1,2.3-2.4
			C368,49.7,367,48.6,365.7,48.6L365.7,48.6z M365.2,52.7h-0.5v-3.2c0.3,0,0.5-0.1,0.9-0.1c0.5,0,0.8,0.1,1,0.2
			c0.2,0.1,0.3,0.4,0.3,0.7c0,0.4-0.3,0.7-0.6,0.8l0,0c0.3,0.1,0.5,0.3,0.5,0.8c0.1,0.5,0.2,0.7,0.2,0.8h-0.5
			c-0.1-0.1-0.2-0.4-0.2-0.8c-0.1-0.4-0.3-0.6-0.7-0.6h-0.4L365.2,52.7L365.2,52.7z M365.2,50.9h0.4c0.4,0,0.8-0.2,0.8-0.6
			c0-0.3-0.2-0.6-0.8-0.6c-0.2,0-0.3,0-0.4,0V50.9z"/>
	</g>
</g>
</svg>
