<?xml version="1.0" encoding="utf-8"?>
<!-- Generator: Adobe Illustrator 28.0.0, SVG Export Plug-In . SVG Version: 6.00 Build 0)  -->
<svg version="1.1" id="Layer_1" xmlns="http://www.w3.org/2000/svg" xmlns:xlink="http://www.w3.org/1999/xlink" x="0px" y="0px"
	 viewBox="0 0 165 43" style="enable-background:new 0 0 165 43;" xml:space="preserve">
<style type="text/css">
	.st0{fill:#718096;}
</style>
<g>
	<circle class="st0" cx="15.9" cy="10.3" r="3.4"/>
	<circle class="st0" cx="27.1" cy="10.3" r="3.3"/>
	<circle class="st0" cx="15.9" cy="21.5" r="3.3"/>
	<circle class="st0" cx="27.1" cy="21.5" r="3.3"/>
	<circle class="st0" cx="15.9" cy="32.7" r="3.3"/>
</g>
<g>
	<path class="st0" d="M39.9,6.9h16C62.4,6.9,66,10,66,15.8c0,5.6-3.6,9-10.1,9H45.4V36h-5.5V6.9z M45.4,11.8v8.1h10.3
		c3.2,0,4.8-1.6,4.8-4.1c0-2.7-1.6-4.1-4.8-4.1C55.7,11.8,45.4,11.8,45.4,11.8z"/>
	<path class="st0" d="M84.9,30.1H70.2l-2.7,6h-5.5L75.1,6.8h5.2l13.1,29.3h-5.9L84.9,30.1z M82.9,25.3l-5.2-11.8l-5.2,11.8H82.9z"/>
	<path class="st0" d="M92.4,21.5c0-8.6,6.2-15.1,14.6-15.1c8.9,0,12.8,6.1,13.5,9.4H115c-0.8-1.5-3.2-4.4-7.9-4.4
		c-5.4,0-8.9,4.6-8.9,10s3.5,10,8.9,10c5.1,0,7.3-2.9,8-4.4h5.6c-0.6,3-4.2,9.5-13.5,9.5C98.6,36.5,92.4,30,92.4,21.5z"/>
	<path class="st0" d="M129.7,14.5c0,1.9,1.7,3.1,4.8,3.5c1.8,0.2,3.1,0.4,5.2,0.6c5.8,0.6,10.3,2.9,10.3,8.9c0,5.2-4.1,9.1-12.3,9.1
		c-11,0-14-6.6-14.3-9.5h5.9c0.4,2.1,2.9,4.8,8.5,4.9c4.4,0,6.7-1.7,6.7-4.1c0-2.8-2-3.7-5.1-4.1l-5.2-0.6c-5.8-0.6-9.9-3.3-9.9-8.6
		s4.7-8.4,11.6-8.4c9.1,0,12.5,4.3,13.4,8.1h-5.6c-0.9-1.5-2.9-3.4-7.7-3.4C131.8,11,129.7,12.3,129.7,14.5z"/>
	<path class="st0" d="M152.5,34.4c0,0.3-0.1,0.5-0.1,0.6c-0.1,0.2-0.2,0.4-0.4,0.6c-0.2,0.2-0.4,0.3-0.6,0.4
		c-0.2,0.1-0.4,0.1-0.6,0.1s-0.5,0-0.6-0.1c-0.2-0.1-0.4-0.2-0.6-0.4c-0.1-0.2-0.3-0.3-0.4-0.6c-0.1-0.2-0.1-0.5-0.1-0.6
		c0-0.3,0.1-0.5,0.1-0.6c0.1-0.2,0.2-0.4,0.4-0.6c0.2-0.2,0.4-0.3,0.6-0.4c0.2-0.1,0.4-0.1,0.6-0.1s0.4,0,0.6,0.1
		c0.2,0.1,0.4,0.2,0.6,0.4c0.2,0.2,0.3,0.3,0.4,0.6C152.4,33.9,152.5,34.1,152.5,34.4L152.5,34.4z M152.1,34.4c0-0.2,0-0.4-0.1-0.6
		c-0.1-0.2-0.2-0.3-0.3-0.5c-0.1-0.1-0.3-0.2-0.4-0.3c-0.2-0.1-0.3-0.1-0.5-0.1c-0.2,0-0.4,0-0.5,0.1c-0.1,0.1-0.3,0.2-0.4,0.3
		c-0.1,0.1-0.2,0.3-0.3,0.5c-0.1,0.2-0.1,0.4-0.1,0.6c0,0.2,0,0.4,0.1,0.6c0.1,0.2,0.2,0.3,0.3,0.5c0.1,0.1,0.3,0.2,0.4,0.3
		c0.1,0.1,0.4,0.1,0.6,0.1c0.2,0,0.4,0,0.5-0.1c0.2-0.1,0.3-0.2,0.4-0.3c0.1-0.1,0.2-0.3,0.3-0.5C152,34.8,152.1,34.6,152.1,34.4z
		 M150.6,35.3h-0.3v-1.8h0.7c0.2,0,0.4,0,0.5,0.1c0.1,0.1,0.2,0.2,0.2,0.4s-0.1,0.3-0.1,0.4c-0.1,0.1-0.2,0.1-0.4,0.2l0.6,0.8h-0.4
		l-0.5-0.7h-0.3L150.6,35.3L150.6,35.3z M150.8,34.3c0.1,0,0.1,0,0.2,0c0.1,0,0.1,0,0.1,0s0.1,0,0.1-0.1c0-0.1,0-0.1,0-0.2
		s0-0.1,0-0.1l-0.1-0.1H151c-0.1,0-0.1,0-0.1,0h-0.4v0.6L150.8,34.3z"/>
	<path class="st0" d="M152.5,34.4c0,0.3-0.1,0.5-0.1,0.6c-0.1,0.2-0.2,0.4-0.4,0.6c-0.2,0.2-0.4,0.3-0.6,0.4
		c-0.2,0.1-0.4,0.1-0.6,0.1s-0.5,0-0.6-0.1c-0.2-0.1-0.4-0.2-0.6-0.4c-0.1-0.2-0.3-0.3-0.4-0.6c-0.1-0.2-0.1-0.5-0.1-0.6
		c0-0.3,0.1-0.5,0.1-0.6c0.1-0.2,0.2-0.4,0.4-0.6c0.2-0.2,0.4-0.3,0.6-0.4c0.2-0.1,0.4-0.1,0.6-0.1s0.4,0,0.6,0.1
		c0.2,0.1,0.4,0.2,0.6,0.4c0.2,0.2,0.3,0.3,0.4,0.6C152.4,33.9,152.5,34.1,152.5,34.4L152.5,34.4z M152.1,34.4c0-0.2,0-0.4-0.1-0.6
		c-0.1-0.2-0.2-0.3-0.3-0.5c-0.1-0.1-0.3-0.2-0.4-0.3c-0.2-0.1-0.3-0.1-0.5-0.1c-0.2,0-0.4,0-0.5,0.1c-0.1,0.1-0.3,0.2-0.4,0.3
		c-0.1,0.1-0.2,0.3-0.3,0.5c-0.1,0.2-0.1,0.4-0.1,0.6c0,0.2,0,0.4,0.1,0.6c0.1,0.2,0.2,0.3,0.3,0.5c0.1,0.1,0.3,0.2,0.4,0.3
		c0.1,0.1,0.4,0.1,0.6,0.1c0.2,0,0.4,0,0.5-0.1c0.2-0.1,0.3-0.2,0.4-0.3c0.1-0.1,0.2-0.3,0.3-0.5C152,34.8,152.1,34.6,152.1,34.4z
		 M150.6,35.3h-0.3v-1.8h0.7c0.2,0,0.4,0,0.5,0.1c0.1,0.1,0.2,0.2,0.2,0.4s-0.1,0.3-0.1,0.4c-0.1,0.1-0.2,0.1-0.4,0.2l0.6,0.8h-0.4
		l-0.5-0.7h-0.3L150.6,35.3L150.6,35.3z M150.8,34.3c0.1,0,0.1,0,0.2,0c0.1,0,0.1,0,0.1,0s0.1,0,0.1-0.1c0-0.1,0-0.1,0-0.2
		s0-0.1,0-0.1l-0.1-0.1H151c-0.1,0-0.1,0-0.1,0h-0.4v0.6L150.8,34.3z"/>
</g>
</svg>
