<svg xmlns="http://www.w3.org/2000/svg" xml:space="preserve" id="Layer_1" x="0" y="0" viewBox="0 0 151.9 34"><style>.st0{fill:#de90de}.st1{fill:#1b1464}</style><circle cx="3.7" cy="4.8" r="3.7" class="st0"/><circle cx="15.8" cy="4.8" r="3.6" class="st0"/><circle cx="3.7" cy="17" r="3.6" class="st0"/><circle cx="15.8" cy="17" r="3.6" class="st0"/><circle cx="3.7" cy="29.2" r="3.6" class="st0"/><path d="M29.7 1.1h17.4c7.1 0 11 3.4 11 9.7 0 6.1-3.9 9.8-11 9.8H35.6v12.1h-6V1.1zm5.9 5.4v8.8h11.2c3.5 0 5.2-1.7 5.2-4.4 0-2.9-1.7-4.4-5.2-4.4zm43 19.8H62.7l-2.9 6.5h-6L68 1h5.7l14.2 31.8h-6.4zm-2.3-5.2L70.6 8.3l-5.7 12.8zM86.8 17C86.8 7.7 93.5.6 102.7.6c9.7 0 13.9 6.6 14.7 10.2h-6.1c-.9-1.6-3.5-4.8-8.6-4.8-5.9 0-9.7 5-9.7 10.9s3.8 10.9 9.7 10.9c5.5 0 7.9-3.2 8.7-4.8h6.1c-.7 3.3-4.6 10.3-14.7 10.3-9.4 0-16-7.1-16-16.3m40.4-7.6c0 2.1 1.8 3.4 5.2 3.8 2 .2 3.4.4 5.6.6 6.3.6 11.2 3.1 11.2 9.7 0 5.7-4.5 9.9-13.4 9.9-11.9 0-15.2-7.2-15.5-10.3h6.4c.4 2.3 3.2 5.2 9.2 5.3 4.8 0 7.3-1.8 7.3-4.4 0-3-2.2-4-5.5-4.4l-5.6-.6c-6.3-.6-10.8-3.6-10.8-9.3S126.4.6 133.9.6c9.9 0 13.6 4.7 14.5 8.8h-6.1c-1-1.6-3.2-3.7-8.4-3.7-4.4-.1-6.7 1.3-6.7 3.7M151.9 31c0 .3-.1.5-.1.7s-.2.4-.4.6-.4.3-.6.4-.4.1-.7.1-.5 0-.7-.1-.4-.2-.6-.4c-.1-.2-.3-.4-.4-.6s-.1-.5-.1-.7c0-.3.1-.5.1-.7s.2-.4.4-.6.4-.3.6-.4.4-.1.7-.1.4 0 .7.1.4.2.6.4.3.3.4.6.1.4.1.7m-.4 0c0-.2 0-.4-.1-.6s-.2-.3-.3-.5-.3-.2-.4-.3c-.2-.1-.3-.1-.5-.1s-.4 0-.5.1-.3.2-.4.3-.2.3-.3.5-.1.4-.1.6 0 .4.1.6.2.3.3.5c.1.1.3.2.4.3s.4.1.6.1.4 0 .5-.1c.2-.1.3-.2.4-.3s.2-.3.3-.5zm-1.7 1h-.3v-2h.8c.2 0 .4 0 .5.1s.2.2.2.4-.1.3-.1.4-.2.1-.4.1l.5 1h-.4l-.5-.8h-.3zm.4-1.1h.3s.1 0 .1-.1v-.3l-.1-.1h-.6v.6z" class="st1"/><path d="M151.9 31c0 .3-.1.5-.1.7s-.2.4-.4.6-.4.3-.6.4-.4.1-.7.1-.5 0-.7-.1-.4-.2-.6-.4c-.1-.2-.3-.4-.4-.6s-.1-.5-.1-.7c0-.3.1-.5.1-.7s.2-.4.4-.6.4-.3.6-.4.4-.1.7-.1.4 0 .7.1.4.2.6.4.3.3.4.6.1.4.1.7m-.4 0c0-.2 0-.4-.1-.6s-.2-.3-.3-.5-.3-.2-.4-.3c-.2-.1-.3-.1-.5-.1s-.4 0-.5.1-.3.2-.4.3-.2.3-.3.5-.1.4-.1.6 0 .4.1.6.2.3.3.5c.1.1.3.2.4.3s.4.1.6.1.4 0 .5-.1c.2-.1.3-.2.4-.3s.2-.3.3-.5zm-1.7 1h-.3v-2h.8c.2 0 .4 0 .5.1s.2.2.2.4-.1.3-.1.4-.2.1-.4.1l.5 1h-.4l-.5-.8h-.3zm.4-1.1h.3s.1 0 .1-.1v-.3l-.1-.1h-.6v.6z" class="st1"/></svg>