<svg version="1.1" id="Layer_1" xmlns="http://www.w3.org/2000/svg" xmlns:xlink="http://www.w3.org/1999/xlink" x="0" y="0" viewBox="0 0 151.9 34" xml:space="preserve" enable-background="new 0 0 151.9 34"><style type="text/css">.st0{fill:#de90de}.st1{fill:#1b1464}</style><g><circle class="st0" cx="3.7" cy="4.8" r="3.7"/><circle class="st0" cx="15.8" cy="4.8" r="3.6"/><circle class="st0" cx="3.7" cy="17" r="3.6"/><circle class="st0" cx="15.8" cy="17" r="3.6"/><circle class="st0" cx="3.7" cy="29.2" r="3.6"/></g><g><path class="st1" d="M29.7,1.1h17.4c7.1,0,11,3.4,11,9.7c0,6.1-3.9,9.8-11,9.8H35.6v12.1h-6V1.1z M35.6,6.5v8.8h11.2 c3.5,0,5.2-1.7,5.2-4.4c0-2.9-1.7-4.4-5.2-4.4L35.6,6.5z"/><path class="st1" d="M78.6,26.3H62.7l-2.9,6.5h-6L68,1h5.7l14.2,31.8h-6.4L78.6,26.3z M76.3,21.1L70.6,8.3l-5.7,12.8H76.3z"/><path class="st1" d="M86.8,17c0-9.3,6.7-16.4,15.9-16.4c9.7,0,13.9,6.6,14.7,10.2h-6.1c-0.9-1.6-3.5-4.8-8.6-4.8 c-5.9,0-9.7,5-9.7,10.9c0,5.9,3.8,10.9,9.7,10.9c5.5,0,7.9-3.2,8.7-4.8h6.1c-0.7,3.3-4.6,10.3-14.7,10.3 C93.4,33.3,86.8,26.2,86.8,17z"/><path class="st1" d="M127.2,9.4c0,2.1,1.8,3.4,5.2,3.8c2,0.2,3.4,0.4,5.6,0.6c6.3,0.6,11.2,3.1,11.2,9.7c0,5.7-4.5,9.9-13.4,9.9 c-11.9,0-15.2-7.2-15.5-10.3h6.4c0.4,2.3,3.2,5.2,9.2,5.3c4.8,0,7.3-1.8,7.3-4.4c0-3-2.2-4-5.5-4.4l-5.6-0.6 c-6.3-0.6-10.8-3.6-10.8-9.3s5.1-9.1,12.6-9.1c9.9,0,13.6,4.7,14.5,8.8h-6.1c-1-1.6-3.2-3.7-8.4-3.7C129.5,5.6,127.2,7,127.2,9.4z"/><path class="st1" d="M151.9,31c0,0.3-0.1,0.5-0.1,0.7s-0.2,0.4-0.4,0.6c-0.2,0.2-0.4,0.3-0.6,0.4c-0.2,0.1-0.4,0.1-0.7,0.1 c-0.3,0-0.5,0-0.7-0.1c-0.2-0.1-0.4-0.2-0.6-0.4c-0.1-0.2-0.3-0.4-0.4-0.6c-0.1-0.2-0.1-0.5-0.1-0.7c0-0.3,0.1-0.5,0.1-0.7 s0.2-0.4,0.4-0.6c0.2-0.2,0.4-0.3,0.6-0.4c0.2-0.1,0.4-0.1,0.7-0.1s0.4,0,0.7,0.1s0.4,0.2,0.6,0.4c0.2,0.2,0.3,0.3,0.4,0.6 S151.9,30.7,151.9,31L151.9,31z M151.5,31c0-0.2,0-0.4-0.1-0.6c-0.1-0.2-0.2-0.3-0.3-0.5s-0.3-0.2-0.4-0.3 c-0.2-0.1-0.3-0.1-0.5-0.1s-0.4,0-0.5,0.1s-0.3,0.2-0.4,0.3c-0.1,0.1-0.2,0.3-0.3,0.5s-0.1,0.4-0.1,0.6c0,0.2,0,0.4,0.1,0.6 s0.2,0.3,0.3,0.5c0.1,0.1,0.3,0.2,0.4,0.3s0.4,0.1,0.6,0.1c0.2,0,0.4,0,0.5-0.1c0.2-0.1,0.3-0.2,0.4-0.3s0.2-0.3,0.3-0.5 C151.5,31.4,151.5,31.2,151.5,31z M149.8,32h-0.3v-2h0.8c0.2,0,0.4,0,0.5,0.1s0.2,0.2,0.2,0.4c0,0.2-0.1,0.3-0.1,0.4 s-0.2,0.1-0.4,0.1L151,32h-0.4l-0.5-0.8h-0.3L149.8,32L149.8,32z M150.2,30.9c0.1,0,0.1,0,0.2,0c0.1,0,0.1,0,0.1,0 c0,0,0.1,0,0.1-0.1s0-0.1,0-0.2c0-0.1,0-0.1,0-0.1s-0.1-0.1-0.1-0.1s-0.1,0-0.1,0s-0.1,0-0.1,0h-0.4v0.6L150.2,30.9z"/><path class="st1" d="M151.9,31c0,0.3-0.1,0.5-0.1,0.7s-0.2,0.4-0.4,0.6c-0.2,0.2-0.4,0.3-0.6,0.4c-0.2,0.1-0.4,0.1-0.7,0.1 c-0.3,0-0.5,0-0.7-0.1c-0.2-0.1-0.4-0.2-0.6-0.4c-0.1-0.2-0.3-0.4-0.4-0.6c-0.1-0.2-0.1-0.5-0.1-0.7c0-0.3,0.1-0.5,0.1-0.7 s0.2-0.4,0.4-0.6c0.2-0.2,0.4-0.3,0.6-0.4c0.2-0.1,0.4-0.1,0.7-0.1s0.4,0,0.7,0.1s0.4,0.2,0.6,0.4c0.2,0.2,0.3,0.3,0.4,0.6 S151.9,30.7,151.9,31L151.9,31z M151.5,31c0-0.2,0-0.4-0.1-0.6c-0.1-0.2-0.2-0.3-0.3-0.5s-0.3-0.2-0.4-0.3 c-0.2-0.1-0.3-0.1-0.5-0.1s-0.4,0-0.5,0.1s-0.3,0.2-0.4,0.3c-0.1,0.1-0.2,0.3-0.3,0.5s-0.1,0.4-0.1,0.6c0,0.2,0,0.4,0.1,0.6 s0.2,0.3,0.3,0.5c0.1,0.1,0.3,0.2,0.4,0.3s0.4,0.1,0.6,0.1c0.2,0,0.4,0,0.5-0.1c0.2-0.1,0.3-0.2,0.4-0.3s0.2-0.3,0.3-0.5 C151.5,31.4,151.5,31.2,151.5,31z M149.8,32h-0.3v-2h0.8c0.2,0,0.4,0,0.5,0.1s0.2,0.2,0.2,0.4c0,0.2-0.1,0.3-0.1,0.4 s-0.2,0.1-0.4,0.1L151,32h-0.4l-0.5-0.8h-0.3L149.8,32L149.8,32z M150.2,30.9c0.1,0,0.1,0,0.2,0c0.1,0,0.1,0,0.1,0 c0,0,0.1,0,0.1-0.1s0-0.1,0-0.2c0-0.1,0-0.1,0-0.1s-0.1-0.1-0.1-0.1s-0.1,0-0.1,0s-0.1,0-0.1,0h-0.4v0.6L150.2,30.9z"/></g></svg>