<?xml version="1.0" encoding="utf-8"?>
<!-- Generator: Adobe Illustrator 28.0.0, SVG Export Plug-In . SVG Version: 6.00 Build 0)  -->
<svg version="1.1" id="Layer_1" xmlns="http://www.w3.org/2000/svg" xmlns:xlink="http://www.w3.org/1999/xlink" x="0px" y="0px"
	 viewBox="0 0 165.6 43.2" style="enable-background:new 0 0 165.6 43.2;" xml:space="preserve">
<style type="text/css">
	.st0{fill:#718096;}
</style>
<g>
	<circle class="st0" cx="10.5" cy="9.4" r="3.7"/>
	<circle class="st0" cx="22.7" cy="9.4" r="3.6"/>
	<circle class="st0" cx="10.5" cy="21.6" r="3.6"/>
	<circle class="st0" cx="22.7" cy="21.6" r="3.6"/>
	<circle class="st0" cx="10.5" cy="33.8" r="3.6"/>
</g>
<g>
	<path class="st0" d="M36.5,5.7h17.4c7.1,0,11,3.4,11,9.7c0,6.1-3.9,9.8-11,9.8H42.5v12.1h-6V5.7z M42.5,11.1v8.8h11.2
		c3.5,0,5.2-1.7,5.2-4.4c0-2.9-1.7-4.4-5.2-4.4H42.5z"/>
	<path class="st0" d="M85.4,30.9H69.5l-2.9,6.5h-6L74.8,5.6h5.7l14.2,31.8h-6.4L85.4,30.9z M83.2,25.7l-5.7-12.8l-5.7,12.8H83.2z"/>
	<path class="st0" d="M93.6,21.6c0-9.3,6.7-16.4,15.9-16.4c9.7,0,13.9,6.6,14.7,10.2h-6.1c-0.9-1.6-3.5-4.8-8.6-4.8
		c-5.9,0-9.7,5-9.7,10.9c0,5.9,3.8,10.9,9.7,10.9c5.5,0,7.9-3.2,8.7-4.8h6.1c-0.7,3.3-4.6,10.3-14.7,10.3
		C100.3,37.9,93.6,30.8,93.6,21.6z"/>
	<path class="st0" d="M134,14c0,2.1,1.8,3.4,5.2,3.8c2,0.2,3.4,0.4,5.6,0.6c6.3,0.6,11.2,3.1,11.2,9.7c0,5.7-4.5,9.9-13.4,9.9
		c-11.9,0-15.2-7.2-15.5-10.3h6.4c0.4,2.3,3.2,5.2,9.2,5.3c4.8,0,7.3-1.8,7.3-4.4c0-3-2.2-4-5.5-4.4l-5.6-0.6
		c-6.3-0.6-10.8-3.6-10.8-9.3s5.1-9.1,12.6-9.1c9.9,0,13.6,4.7,14.5,8.8h-6.1c-1-1.6-3.2-3.7-8.4-3.7C136.3,10.2,134,11.6,134,14z"
		/>
	<path class="st0" d="M158.8,35.6c0,0.3-0.1,0.5-0.1,0.7c-0.1,0.2-0.2,0.4-0.4,0.6c-0.2,0.2-0.4,0.3-0.6,0.4
		c-0.2,0.1-0.4,0.1-0.7,0.1c-0.3,0-0.5,0-0.7-0.1c-0.2-0.1-0.4-0.2-0.6-0.4c-0.1-0.2-0.3-0.3-0.4-0.6c-0.1-0.2-0.1-0.5-0.1-0.7
		c0-0.3,0.1-0.5,0.1-0.7c0.1-0.2,0.2-0.4,0.4-0.6c0.2-0.2,0.4-0.3,0.6-0.4c0.2-0.1,0.4-0.1,0.7-0.1s0.4,0,0.7,0.1
		c0.2,0.1,0.4,0.2,0.6,0.4c0.2,0.2,0.3,0.3,0.4,0.6C158.7,35.1,158.8,35.3,158.8,35.6L158.8,35.6z M158.4,35.6c0-0.2,0-0.4-0.1-0.6
		c-0.1-0.2-0.2-0.3-0.3-0.5c-0.1-0.1-0.3-0.2-0.4-0.3c-0.2-0.1-0.3-0.1-0.5-0.1s-0.4,0-0.5,0.1s-0.3,0.2-0.4,0.3
		c-0.1,0.1-0.2,0.3-0.3,0.5c-0.1,0.2-0.1,0.4-0.1,0.6c0,0.2,0,0.4,0.1,0.6s0.2,0.3,0.3,0.5c0.1,0.1,0.3,0.2,0.4,0.3s0.4,0.1,0.6,0.1
		c0.2,0,0.4,0,0.5-0.1c0.2-0.1,0.3-0.2,0.4-0.3s0.2-0.3,0.3-0.5C158.3,36,158.4,35.8,158.4,35.6z M156.7,36.6h-0.3v-2h0.8
		c0.2,0,0.4,0,0.5,0.1c0.1,0.1,0.2,0.2,0.2,0.4c0,0.2-0.1,0.3-0.1,0.4c-0.1,0.1-0.2,0.1-0.4,0.2l0.6,0.9h-0.4l-0.5-0.8h-0.3
		L156.7,36.6L156.7,36.6z M157,35.5c0.1,0,0.1,0,0.2,0c0.1,0,0.1,0,0.1,0c0,0,0.1,0,0.1-0.1s0-0.1,0-0.2c0-0.1,0-0.1,0-0.1
		s-0.1-0.1-0.1-0.1s-0.1,0-0.1,0c-0.1,0-0.1,0-0.1,0h-0.4v0.6L157,35.5z"/>
	<path class="st0" d="M158.8,35.6c0,0.3-0.1,0.5-0.1,0.7c-0.1,0.2-0.2,0.4-0.4,0.6c-0.2,0.2-0.4,0.3-0.6,0.4
		c-0.2,0.1-0.4,0.1-0.7,0.1c-0.3,0-0.5,0-0.7-0.1c-0.2-0.1-0.4-0.2-0.6-0.4c-0.1-0.2-0.3-0.3-0.4-0.6c-0.1-0.2-0.1-0.5-0.1-0.7
		c0-0.3,0.1-0.5,0.1-0.7c0.1-0.2,0.2-0.4,0.4-0.6c0.2-0.2,0.4-0.3,0.6-0.4c0.2-0.1,0.4-0.1,0.7-0.1s0.4,0,0.7,0.1
		c0.2,0.1,0.4,0.2,0.6,0.4c0.2,0.2,0.3,0.3,0.4,0.6C158.7,35.1,158.8,35.3,158.8,35.6L158.8,35.6z M158.4,35.6c0-0.2,0-0.4-0.1-0.6
		c-0.1-0.2-0.2-0.3-0.3-0.5c-0.1-0.1-0.3-0.2-0.4-0.3c-0.2-0.1-0.3-0.1-0.5-0.1s-0.4,0-0.5,0.1s-0.3,0.2-0.4,0.3
		c-0.1,0.1-0.2,0.3-0.3,0.5c-0.1,0.2-0.1,0.4-0.1,0.6c0,0.2,0,0.4,0.1,0.6s0.2,0.3,0.3,0.5c0.1,0.1,0.3,0.2,0.4,0.3s0.4,0.1,0.6,0.1
		c0.2,0,0.4,0,0.5-0.1c0.2-0.1,0.3-0.2,0.4-0.3s0.2-0.3,0.3-0.5C158.3,36,158.4,35.8,158.4,35.6z M156.7,36.6h-0.3v-2h0.8
		c0.2,0,0.4,0,0.5,0.1c0.1,0.1,0.2,0.2,0.2,0.4c0,0.2-0.1,0.3-0.1,0.4c-0.1,0.1-0.2,0.1-0.4,0.2l0.6,0.9h-0.4l-0.5-0.8h-0.3
		L156.7,36.6L156.7,36.6z M157,35.5c0.1,0,0.1,0,0.2,0c0.1,0,0.1,0,0.1,0c0,0,0.1,0,0.1-0.1s0-0.1,0-0.2c0-0.1,0-0.1,0-0.1
		s-0.1-0.1-0.1-0.1s-0.1,0-0.1,0c-0.1,0-0.1,0-0.1,0h-0.4v0.6L157,35.5z"/>
</g>
</svg>
