<svg xmlns="http://www.w3.org/2000/svg" xml:space="preserve" id="Layer_1" x="0" y="0" viewBox="0 0 165 43"><style>.st0{fill:#718096}</style><circle cx="15.9" cy="10.3" r="3.4" class="st0"/><circle cx="27.1" cy="10.3" r="3.3" class="st0"/><circle cx="15.9" cy="21.5" r="3.3" class="st0"/><circle cx="27.1" cy="21.5" r="3.3" class="st0"/><circle cx="15.9" cy="32.7" r="3.3" class="st0"/><path d="M39.9 6.9h16C62.4 6.9 66 10 66 15.8c0 5.6-3.6 9-10.1 9H45.4V36h-5.5zm5.5 4.9v8.1h10.3c3.2 0 4.8-1.6 4.8-4.1 0-2.7-1.6-4.1-4.8-4.1 0 .1-10.3.1-10.3.1m39.5 18.3H70.2l-2.7 6H62L75.1 6.8h5.2l13.1 29.3h-5.9zm-2-4.8-5.2-11.8-5.2 11.8zm9.5-3.8c0-8.6 6.2-15.1 14.6-15.1 8.9 0 12.8 6.1 13.5 9.4H115c-.8-1.5-3.2-4.4-7.9-4.4-5.4 0-8.9 4.6-8.9 10s3.5 10 8.9 10c5.1 0 7.3-2.9 8-4.4h5.6c-.6 3-4.2 9.5-13.5 9.5-8.6 0-14.8-6.5-14.8-15m37.3-7c0 1.9 1.7 3.1 4.8 3.5 1.8.2 3.1.4 5.2.6 5.8.6 10.3 2.9 10.3 8.9 0 5.2-4.1 9.1-12.3 9.1-11 0-14-6.6-14.3-9.5h5.9c.4 2.1 2.9 4.8 8.5 4.9 4.4 0 6.7-1.7 6.7-4.1 0-2.8-2-3.7-5.1-4.1l-5.2-.6c-5.8-.6-9.9-3.3-9.9-8.6s4.7-8.4 11.6-8.4c9.1 0 12.5 4.3 13.4 8.1h-5.6c-.9-1.5-2.9-3.4-7.7-3.4-4.2.1-6.3 1.4-6.3 3.6m22.8 19.9c0 .3-.1.5-.1.6-.1.2-.2.4-.4.6s-.4.3-.6.4-.4.1-.6.1-.5 0-.6-.1c-.2-.1-.4-.2-.6-.4-.1-.2-.3-.3-.4-.6-.1-.2-.1-.5-.1-.6 0-.3.1-.5.1-.6.1-.2.2-.4.4-.6s.4-.3.6-.4.4-.1.6-.1.4 0 .6.1.4.2.6.4.3.3.4.6c0 .1.1.3.1.6m-.4 0c0-.2 0-.4-.1-.6s-.2-.3-.3-.5c-.1-.1-.3-.2-.4-.3-.2-.1-.3-.1-.5-.1s-.4 0-.5.1-.3.2-.4.3-.2.3-.3.5-.1.4-.1.6 0 .4.1.6.2.3.3.5c.1.1.3.2.4.3s.4.1.6.1.4 0 .5-.1c.2-.1.3-.2.4-.3s.2-.3.3-.5c-.1-.2 0-.4 0-.6m-1.5.9h-.3v-1.8h.7c.2 0 .4 0 .5.1s.2.2.2.4-.1.3-.1.4c-.1.1-.2.1-.4.2l.6.8h-.4l-.5-.7h-.3zm.2-1h.3s.1 0 .1-.1v-.3l-.1-.1h-.6v.6z" class="st0"/><path d="M152.5 34.4c0 .3-.1.5-.1.6-.1.2-.2.4-.4.6s-.4.3-.6.4-.4.1-.6.1-.5 0-.6-.1c-.2-.1-.4-.2-.6-.4-.1-.2-.3-.3-.4-.6-.1-.2-.1-.5-.1-.6 0-.3.1-.5.1-.6.1-.2.2-.4.4-.6s.4-.3.6-.4.4-.1.6-.1.4 0 .6.1.4.2.6.4.3.3.4.6c0 .1.1.3.1.6m-.4 0c0-.2 0-.4-.1-.6s-.2-.3-.3-.5c-.1-.1-.3-.2-.4-.3-.2-.1-.3-.1-.5-.1s-.4 0-.5.1-.3.2-.4.3-.2.3-.3.5-.1.4-.1.6 0 .4.1.6.2.3.3.5c.1.1.3.2.4.3s.4.1.6.1.4 0 .5-.1c.2-.1.3-.2.4-.3s.2-.3.3-.5c-.1-.2 0-.4 0-.6m-1.5.9h-.3v-1.8h.7c.2 0 .4 0 .5.1s.2.2.2.4-.1.3-.1.4c-.1.1-.2.1-.4.2l.6.8h-.4l-.5-.7h-.3zm.2-1h.3s.1 0 .1-.1v-.3l-.1-.1h-.6v.6z" class="st0"/></svg>