<svg xmlns="http://www.w3.org/2000/svg" viewBox="0 0 2313 1165.8"><g fill="#718096"><path d="M1124.4 184.9h12c.6.3 1.1.9 1.7.9h37.6c.6 0 1.1-.6 1.7-.9h12c.7 1.4 2 1 3.1 1 21.5.3 42.9 1.5 64.4 2.9 50.4 3.2 100.5 9.1 150.3 17.5 78.4 13.3 155.3 32.6 230.5 58.6 24.5 8.5 49 17.1 72.8 27.5 29 12.6 50.5 34.3 67.5 60.5 16.4 25.3 24.8 52.8 24.7 83.4-.4 155.3-.2 310.6-.2 466 0 2.1.4 4.3-.5 6.5H511.8V658.3c1.2-.1 2-.2 2.9-.2 42.3-.3 84.6-.7 127-1 37.7-.3 75.3-.7 113-1 45-.4 90-.7 135-1 42.2-.3 84.3-.7 126.5-1 48.7-.4 97.3-.6 146-1 38.3-.3 76.6-.7 115-1 44.5-.4 89-.7 133.5-1 42.7-.3 85.3-.7 128-1 45.7-.3 91.3-.7 137-1 38.5-.3 77-.4 115.5-.7 1.5 0 3 .3 4.4-.6v-48.9c-12.5 13.4-24.5 26.3-36.4 39.1-24.1-14.2-47.3-28.5-70.2-43.3-14.5-9.4-24.7-21.6-32.2-37-17.7-36.6-33.3-74-48.8-111.5-.6-1.4-.5-3.3-2.7-3.9-16.2 35.2-32.3 70.4-48.7 106.1-15.4-17.3-30.3-34.1-40.8-54.3-3.4-6.5-7.7-12-13.4-16.6-6.5-5.2-13.7-9.4-21.1-13.3-11.3-6.1-23.9-9.3-35.2-15.2-28.2-14.6-56.2-29.8-85.4-42.3-5.2-2.2-10.4-4.4-16-5.5-2.3-.5-4.2-.7-5.4 2.6-6.9 18.8-17.8 35.3-30.2 50.9-4.4 5.5-9.2 10.6-14.9 14.7-14.6 10.4-35.8 8.1-47.7-5.2-4.1-4.6-8.2-9.2-12.2-13.8-9.3-10.4-18.5-20.9-28-31.5-8.8 6.6-17.2 13-26 19.6-37.3-62.4-74.5-124.5-111.9-187.1-31.7 47.3-62.9 93.9-94.3 140.7-10.4-4.1-20.5-8.5-30.9-12-10.3-3.4-18.4-9.7-26.1-17-6.6-6.3-13.8-11.9-20.4-17.5-32.5 65.9-66 134.1-99.9 202.8-8.4-11.2-16.7-21.4-26.3-30.4-5.5-5.2-11.1-10.4-18.4-12.6-6-1.9-11.3-4.9-16.2-8.7-7.6-5.9-14.7-12.6-21.3-19.7-6.4-7-12.7-14-19.3-21.2-1 1.1-1.9 2.1-2.7 3.1-11.3 14.4-22.9 28.6-35 42.4-15.6 17.8-31.1 35.7-50.2 50-29.3 21.8-61.4 39.3-93.5 56.6-.5.3-1.2.2-2.2.4v-6.2c0-53.7.4-107.3-.2-161-.4-32.4 8.5-61.8 25.5-88.9 16-25.5 36.2-46.7 64.4-58.6 30-12.7 60.7-23.8 91.7-34 69.5-22.9 140.3-40.4 212.5-52.7 68.2-11.6 136.9-18.3 206.1-20.6 4-.5 8.5.8 12.7-1.4m-606 519c.1 1.1.1 1.7.3 2.1 20.2 54.1 40.4 108.1 60.5 162.2 1 2.8 2.6 3.3 5.2 3.3 10.2-.1 20.3-.2 30.5 0 3.2.1 4.6-1 5.6-4.1 8.2-23.4 16.6-46.7 25-70 .6-1.5.4-3.6 2.5-4.5 9.2 24.7 18.3 49.3 27.3 74 1.2 3.3 2.7 4.6 6.4 4.5 9.8-.3 19.7-.2 29.5 0 3.6.1 5.1-1.1 6.4-4.5 18.2-50.2 36.5-100.3 54.8-150.4 1.5-4 3.4-7.9 4.1-12.7h-49.2c-2.2 0-2.7 1.1-3.3 2.9-8.2 24.9-18.6 49.2-24.3 74.9-1.3 5.7-2.5 11.5-3.8 17.4-2-1.3-1.9-3.1-2.4-4.6-9.4-28.8-18.8-57.5-28.1-86.3-1-3.2-2.3-4.5-5.8-4.3-7.8.3-15.7.3-23.5 0-4-.2-5.7 1-6.9 5-8.8 28.4-17.8 56.8-26.8 85.2-.5 1.6-.6 3.4-2.3 4.9-.4-.8-.6-1.3-.7-1.7-4.6-31.6-18.2-60.4-28.4-90.2-.6-1.9-1.4-3-3.8-3-16.1-.1-32.2-.1-48.8-.1M1777 871.7V704.3h-47.2v63h-60.1v-63h-47.2v167.2h47.6v-62.8h59.9v62.9c15.9.1 31.3.1 47 .1m-820 0c.7-1.8 0-2.6-.4-3.5-24-53.7-48.1-107.5-72-161.2-1.2-2.7-2.7-3.2-5.3-3.2q-20.25.15-40.5 0c-3 0-4.4 1-5.5 3.6-23.8 53.3-47.7 106.5-71.6 159.8-.6 1.3-1.8 2.5-.8 4.5h47.2c2.2 0 2.7-1.4 3.3-3 2.8-7.1 5.8-14.2 8.5-21.3.9-2.3 1.9-3.5 4.6-3.4 22.7.1 45.3.1 68 0 2.6 0 3.9.9 4.7 3.3 2.7 7.2 5.6 14.2 8.4 21.3.7 1.8 1.4 3.2 3.8 3.2 16-.1 31.8-.1 47.6-.1m347.3 0c.5-1.8-.1-2.8-.6-3.8-24-53.6-47.9-107.1-71.8-160.8-1.1-2.6-2.5-3.4-5.2-3.3-13.5.1-27 .2-40.5 0-3.3-.1-4.6 1.3-5.8 4-23.7 53.1-47.6 106.2-71.4 159.3-.6 1.3-1.7 2.5-1 4.6h47.2c2.5 0 3-1.6 3.7-3.3 2.8-7 5.7-13.9 8.3-20.8.9-2.4 2-3.6 5-3.6q33.75.15 67.5 0c2.9 0 4.1 1 5 3.5 2.5 6.7 5.5 13.2 7.8 20 1.2 3.5 3.1 4.5 6.6 4.3 6.3-.3 12.7-.1 19-.1zm-207.2-151.3c-3.4-2.3-6.2-4.4-9.1-6.3-16.8-10.5-35.5-13.9-54.9-13.6-16.5.2-32.5 3-46.9 11.8-16.6 10.1-23.5 25.1-22.2 44.3 1.3 19 10.1 32.7 27.7 40.5 13 5.7 26.8 7.5 40.8 8.9 7.3.7 14.6 1.7 21.1 5.5 8.5 5 8.6 14.4.3 19.7-1.9 1.2-4.1 2.2-6.3 2.8-9.5 2.8-19.1 2.2-28.7.5-13.1-2.3-24.3-8.4-34.1-17.6-8.9 10.2-17.5 20.1-26.3 30.1 8.2 8.6 16.8 16.4 27.5 20.8 30.9 12.7 62 12.3 92.6-1 9.1-4 16.5-10.5 21.8-19.2 15.2-25 5.7-56.7-21.1-70.5-13.1-6.8-27.2-9.6-41.7-11.1-6-.6-12-1.2-17.6-3.3-5.7-2.1-8.6-6-8.4-11.1.2-5.5 3.8-8.3 8.4-10.1 4-1.6 8.3-2.3 12.7-2.4 14.6-.3 28.4 2.5 40.6 11.3.7-.7 1.2-1 1.6-1.5 7.2-9.4 14.5-18.7 22.2-28.5m478.1 98c-7.7 7.5-16.1 12.3-25.8 15-21.7 6.2-42.7-1.4-52.4-19.2-3.8-7-5.6-14.5-5.9-22.5-.5-18.9 4.8-35.4 22.2-44.9 17.6-9.6 35.3-7.4 51.8 3.9 2.1 1.5 4.1 3.1 6.7 5.1 9.4-10 18.6-19.9 28-29.9.3.5.2.2 0 0l-3.3-3c-27.4-23.7-58.9-28.2-92.7-18.3-29.3 8.6-47.8 28.6-56.3 57.7-5.9 20.2-4.9 40.5 1.9 60.4 7.4 21.5 21.7 36.7 42.8 45.4 9.8 4.1 20 6.2 30.5 7.1 21.3 1.8 41.9-.3 61-10.9 7.1-3.9 13.7-8.6 19.4-14.9-9.4-10.3-18.5-20.5-27.9-31M1338.4 743v128.4h47.5V743.1h48.7v-38.8h-144.8V743z"/><path d="M671.5 954.8c5.7 5.6 10.3 12.2 14.9 18.6 3.1 4.3 6.5 5.7 11.5 4.1v-39.3h-8.5c-1.3 8 .2 15.9-.2 24.9-5.9-7.6-11.3-14-16.1-20.9-2.9-4.1-6.2-5.1-10.8-3.7v39.4c3.1-.1 5.9.4 8.5-.4v-22.3c.2 0 .5-.2.7-.4m406.2-660.1c-.3-.2-.6-.5-.9-.7 0 .1-.1.3 0 .4.3.5.7.4 1 .1-.2.8-.6 1.6-.6 2.3.9 12.3-3.3 22.2-13.4 29.4-2.3 1.7-4.2 4-5.1 6.7-5.3 16-5.9 31.6 4.4 46.1 4.6 6.5 9.8 12.6 14.7 19 12.1 15.8 25.4 30.7 33.6 49.3 3.6 8.2 9.8 15.1 17.5 20.1 2 1.3 3.5 1.9 5.7 0 6.6-5.8 13.4-11.5 20.2-17.1 1.9-1.5 2.1-3 1.3-5.2-5.7-14.4-12-28.6-21.4-41.1-4.9-6.5-10.5-11.9-18.8-14.1-5.8-1.5-8.9-6.1-10.5-11.7-2-7.1-1.3-14.2.1-21.3.4-2.1.3-3.8-.6-5.7-9.1-18.8-18.1-37.7-27.2-56.5m286.2 132.6c.6 2.7.8 4.1 1.2 5.5 3.4 12.7 6.9 25.3 10.1 38.1.8 3.2 2.3 5.7 4.6 8 14.5 14 29 28 43.3 42.2 2.2 2.2 4.1 2.3 6.7 1.5 18.6-5.2 37-10.8 55.9-14.8 2.1-.4 3.1-1.4 2.3-3.4-3.1-7.1-5.5-14.7-13-18.9-14-7.9-28.8-14.3-44.9-15.7-14.3-1.2-25.7-7.4-36.2-16.2-3.7-3.1-7.2-6.5-10.8-9.7-6-5.3-11.1-11.8-19.2-16.6M705 490.1c-1.7 2.2-1.1 4.1-1.1 5.9-.1 18 .5 36-.2 53.9-.5 10.6 1.8 19.4 9.2 27.1 3.9 4.1 7 9.1 10.4 13.6 4.2-2.1 7.1-4.5 10-7 11.2-9.3 17.9-21.8 23.9-34.6 5.9-12.8 6.6-9.6-3.1-19.8-14.7-15.2-35.1-23-49.1-39.1M956.6 399c-10.7-4-21.7-5.2-30.5-11.3-8.9-6.2-14.9-15.6-22.4-24.1-6.3 17.5-12.5 34.5-18.7 51.4-.7 1.8.5 2.8 1.2 4 4.6 6.9 9.2 13.9 13.8 20.8.6.9 1.1 2.1 2.8 2 6.2-7.1 15-9.8 23.6-12.8 1.9-.7 3.8-1.1 5.2-2.7 8.2-9 16.4-18 25-27.3m679 156.5c-9.5-26.4-18.9-52.4-28.2-78.3-.2.1-.4.2-.6.2v89.2c9.7-3.8 18.9-7.3 28.8-11.1m-568.7 400.8c2.7 6.9 5.1 12.6 7.1 18.6 1 2.9 2.8 3.1 5.3 3.2s3.9-.6 4.8-3.2c2.5-7.2 5.2-14.4 7.7-21.6 1.8-4.9 3.5-9.9 5.3-14.9-9.8-1.1-9.9-1.1-12.8 7.5-1.9 5.5-3.5 11.1-5.5 17.6-2.7-7.7-5.2-14.5-7.6-21.4-.8-2.2-1.2-4.2-4.5-4.2s-3.7 2.1-4.4 4.3c-2.3 6.8-4.7 13.7-7.3 21.3-2.1-6.5-3.8-12.1-5.7-17.6-2.9-8.2-2.9-8.2-11.8-7.8-.2 0-.5.3-1 .7 4.6 12.2 9.2 24.4 13.7 36.7 1.1 3 3.2 2.3 5.2 2.5 2.3.2 3.6-.5 4.4-2.8 2.2-5.9 4.5-11.8 7.1-18.9m-527.2.1c2.4 6.2 4.5 11.4 6.5 16.6 1 2.8 1.6 5.3 5.9 5.2 4-.1 4.5-2.4 5.5-5.1 3.5-9.8 7.2-19.6 10.7-29.5.6-1.6 1.9-3.2 1.1-5.2-9.1-1.2-9.1-1.2-11.9 7.2-1.8 5.6-3.5 11.2-5.6 17.9-2.7-7.8-5.1-14.6-7.6-21.5-.8-2.2-1.4-4.2-4.6-4.1-3.3 0-3.6 2.2-4.4 4.4-2.3 6.7-4.6 13.5-7.2 21.1-2.6-7.7-4.9-14.3-6.9-20.9-1-3.4-2.8-5-6.4-4.4-1.6.2-3.3 0-5.6 0 4.6 12.5 9.1 24.5 13.5 36.4.9 2.5 2 3.8 5 3.7 2.9-.1 4.5-.8 5.5-3.7 1.7-5.8 4-11.5 6.5-18.1m356.4-17.8c4.6 12.3 9.1 24.1 13.3 35.9 1 2.9 2.6 3.6 5.4 3.7 2.9 0 4.1-1.1 4.9-3.7 1.9-5.7 4.2-11.3 6.8-18.1 2.7 7.2 5.1 12.8 7.1 18.6 1 2.9 2.8 3.1 5.3 3.1s3.8-.6 4.7-3.2c3.9-11.1 8-22.2 12-33.3.4-1 1.2-2.1.3-3.2-9.1-1-9.2-1-11.9 7.3-1.8 5.5-3.5 11.1-5.6 17.9-2.8-8-5.2-14.6-7.6-21.3-.8-2.2-1.2-4.2-4.5-4.2-3.4 0-3.7 2.2-4.4 4.3-2.3 6.7-4.5 13.4-7.2 21.2-2.3-6.9-4.2-12.7-6.2-18.5-2.6-7.3-2.6-7.3-10.4-6.9-.4-.1-.9.1-2 .4m322.6-490.3v59.2c11.4-6 22.3-11.7 33.5-17.6-11.2-13.9-21.9-27.3-33.5-41.6m-73.1 497.9h20.7c.1-3 .5-5.5-.2-7.8h-29.2v39.3h30.1c.3-2.7.5-5.1-.3-8h-20.8c-.7-2.8-.6-5-.1-7.9h19.1c.4-2.9.6-5.2-.3-8h-19.1c.1-2.6.1-4.6.1-7.6m487.9 15.6h18.8c.4-2.8.5-5.2-.1-8h-18.5c-.4-2.7-.9-4.9.5-7.5h19.3c.4-3 1-5.5-.3-7.9h-28.5v39.3h29.7c.1-2.8.5-5.3-.5-8.1h-20.5c.1-2.7.1-4.8.1-7.8m-90-23.2c.1.6 0 1.3.2 1.9 4.9 11.8 9.8 23.6 14.7 35.5.7 1.8 1.9 2.3 3.8 2.5 4.4.4 7.6-.2 9-5.3 1-4 3-7.7 4.6-11.6 3.2-7.6 6.3-15.3 9.5-23-9.8-1.3-9.7-1.3-12.8 6.8-2.6 6.9-5.3 13.8-8.3 21.6-3.1-8-5.8-15-8.5-22-3.1-7.8-3-7.8-12.2-6.4M1217.4 970v-31.9c-3.3 0-5.9-.6-8.4.5v39h28.4c.3-2.7.5-5-.2-7.6zm60.6-31.5v39.1h28.5c.1-2.7.5-5-.4-7.8h-19.5v-31.3c-3.2-.6-5.8-.7-8.6 0m-668.3-.3v39.6c3 .2 5.7.5 8.3-.1v-39.5zm1171.8 41.7c-3.9-2.9-9.5-3.2-12.1-8.9 1.4-1.5 3-3.3 4.9-5.4 4 3.3 8.2 5.9 13.5 5.4 3.1-.3 6.4-.7 6.6-4.6.2-3.7-3-4.3-5.8-4.8-3.3-.6-6.6-.9-9.8-1.8-4.3-1.2-7.2-3.9-7.9-8.6s.9-8.4 4.6-11.4c5.5-4.5 21.8-4.7 25.8 3.4-1.6 1.4-3.3 2.9-5.3 4.6-3.5-2.7-7.4-3.6-11.7-3-2.3.4-4.3 1.5-4.5 4-.1 2.7 2 3.6 4.3 4 2.9.5 6 .7 8.9 1.4 6.9 1.6 10.5 5.8 10.5 12 .1 6.2-3.5 10.5-10.1 12.5-1 .3-2.4-.3-3 1.2zm-373 0c-.4-1.3-1.6-1-2.5-1.2-9.6-2.8-14.1-8.3-15-18.2-.8-9.3 3.5-17.5 11.1-21.1 8.5-4 17.6-2.6 24.7 4-1.1 2.2-3.1 3.6-4.7 5.3-10.3-4-16-3.3-19.8 2.2-3.3 4.7-2.9 12.2.8 16.3 4.2 4.7 11.1 4.8 18.8.2 2.4 1.3 3.9 3.5 5.6 5.7-3.1 4.9-8.7 4.7-13 6.9-2-.1-4-.1-6-.1m-231.1-795c-.6.3-1.1.9-1.7.9h-37.6c-.6 0-1.1-.6-1.7-.9z"/><path d="M1077.7 294.6c9.1 18.9 18.1 37.8 27.3 56.7.9 1.9 1.1 3.6.6 5.7-1.4 7.1-2.1 14.2-.1 21.3 1.6 5.6 4.7 10.2 10.5 11.7 8.3 2.2 13.9 7.6 18.8 14.1 9.4 12.5 15.6 26.6 21.4 41.1.9 2.2.6 3.6-1.3 5.2-6.8 5.6-13.6 11.3-20.2 17.1-2.2 1.9-3.7 1.3-5.7 0-7.7-5.1-13.9-11.9-17.5-20.1-8.2-18.6-21.6-33.5-33.6-49.3-4.8-6.4-10-12.5-14.7-19-10.3-14.4-9.7-30.1-4.4-46.1.9-2.7 2.8-5 5.1-6.7 10.2-7.2 14.4-17.1 13.4-29.4-.1-.8.4-1.6.6-2.3-.1-.1-.2 0-.2 0m286.2 132.7c8.1 4.8 13.2 11.3 19.2 16.7 3.6 3.2 7.1 6.6 10.8 9.7 10.5 8.8 22 15 36.2 16.2 16.1 1.4 30.8 7.8 44.9 15.7 7.5 4.2 9.9 11.8 13 18.9.9 2-.2 3-2.3 3.4-18.9 4-37.4 9.5-55.9 14.8-2.6.7-4.5.6-6.7-1.5-14.3-14.2-28.8-28.2-43.3-42.2-2.4-2.3-3.8-4.8-4.6-8-3.2-12.7-6.7-25.4-10.1-38.1-.4-1.5-.7-3-1.2-5.6M705 490.1c14 16.1 34.4 24 49.1 39.1 9.8 10.1 9 7 3.1 19.8-5.9 12.9-12.7 25.3-23.9 34.6-2.9 2.5-5.9 4.9-10 7-3.4-4.5-6.5-9.4-10.4-13.6-7.3-7.7-9.6-16.5-9.2-27.1.8-17.9.2-35.9.2-53.9 0-1.8-.6-3.7 1.1-5.9M956.6 399c-8.6 9.4-16.8 18.3-24.9 27.3-1.4 1.6-3.4 2-5.2 2.7-8.6 3.1-17.4 5.8-23.6 12.8-1.7.2-2.2-1-2.8-2-4.6-6.9-9.3-13.8-13.8-20.8-.8-1.2-1.9-2.2-1.2-4 6.2-17 12.4-33.9 18.7-51.4 7.5 8.5 13.5 17.9 22.4 24.1 8.7 6.1 19.7 7.3 30.4 11.3m679 156.5c-9.8 3.8-19.1 7.4-28.8 11.1v-89.2c.2-.1.4-.2.6-.2 9.3 25.9 18.6 51.9 28.2 78.3m-568.7 400.8c-2.6 7.1-5 12.9-7 18.9-.8 2.4-2.2 3-4.4 2.8-2.1-.2-4.2.5-5.2-2.5-4.4-12.3-9.1-24.6-13.7-36.7.5-.4.7-.7 1-.7 8.9-.5 9-.5 11.8 7.8 1.9 5.5 3.6 11 5.7 17.6 2.6-7.6 5-14.5 7.3-21.3.7-2.2 1.1-4.3 4.4-4.3s3.7 2 4.5 4.2c2.4 6.8 4.8 13.7 7.6 21.4 2-6.5 3.6-12.1 5.5-17.6 2.9-8.6 3-8.6 12.8-7.5-1.8 5.1-3.6 10-5.3 14.9-2.6 7.2-5.3 14.3-7.7 21.6-.9 2.5-2.3 3.2-4.8 3.2-2.5-.1-4.3-.2-5.3-3.2-2-5.9-4.5-11.7-7.2-18.6m-527.2.1c-2.5 6.6-4.8 12.3-6.7 18.1-1 2.9-2.6 3.6-5.5 3.7s-4.1-1.2-5-3.7c-4.3-12-8.8-23.9-13.5-36.4 2.3 0 4 .2 5.6 0 3.6-.5 5.4 1 6.4 4.4 2 6.7 4.3 13.2 6.9 20.9 2.6-7.6 4.9-14.3 7.2-21.1.7-2.2 1-4.3 4.4-4.4 3.3 0 3.8 1.9 4.6 4.1 2.4 6.8 4.8 13.7 7.6 21.5 2.1-6.7 3.8-12.3 5.6-17.9 2.8-8.4 2.8-8.4 11.9-7.2.8 2-.5 3.6-1.1 5.2-3.5 9.9-7.2 19.6-10.7 29.5-1 2.7-1.5 5-5.5 5.1-4.2.1-4.8-2.4-5.9-5.2-1.8-5.2-3.9-10.4-6.3-16.6m356.4-17.8c1.1-.3 1.6-.4 2.1-.5 7.8-.4 7.9-.4 10.4 6.9 2 5.7 3.9 11.5 6.2 18.5 2.6-7.8 4.9-14.5 7.2-21.2.7-2.1 1.1-4.3 4.4-4.3s3.7 2 4.5 4.2c2.3 6.7 4.7 13.4 7.6 21.3 2.1-6.8 3.8-12.3 5.6-17.9 2.7-8.2 2.8-8.2 11.9-7.3.8 1.2 0 2.2-.3 3.2-4 11.1-8.1 22.1-12 33.3-.9 2.6-2.2 3.2-4.7 3.2s-4.4-.2-5.3-3.1c-2-5.8-4.3-11.5-7.1-18.6-2.6 6.9-4.9 12.4-6.8 18.1-.9 2.6-2 3.7-4.9 3.7s-4.4-.8-5.4-3.7c-4.4-11.8-8.9-23.5-13.4-35.8m-225.3 16.8v22.3c-2.6.8-5.4.2-8.5.4v-39.4c4.6-1.4 7.9-.4 10.8 3.7 4.8 6.9 10.2 13.4 16.1 20.9.4-9-1.1-16.9.2-24.9h8.5v39.3c-5 1.6-8.4.2-11.5-4.1-4.6-6.4-9.2-13-14.9-18.6l-.6-.6c0 .2 0 .6-.1 1m547.9-507.1c11.6 14.4 22.3 27.7 33.5 41.6-11.2 5.9-22.1 11.6-33.5 17.6zM838.5 937.1c-13.1 0-21.6 8.3-21.5 21 0 12.9 8.2 20.9 21.4 21 13.3.1 21.8-7.9 21.9-20.6.1-12.9-8.6-21.5-21.8-21.4m.3 33.8c-7.5.1-12.9-5.3-12.8-12.9 0-7.3 5.4-12.6 12.6-12.6 7.3 0 12.6 5.3 12.7 12.6 0 7.2-5.3 12.7-12.5 12.9m647.2-33.8c-13.4 0-21.8 8.2-21.7 21.3.1 12.8 8.4 20.7 21.7 20.7s21.5-8 21.4-21c.1-12.9-8.3-21-21.4-21m0 33.8c-7.2.1-12.6-5.3-12.7-12.5 0-7.6 5.3-13 12.8-12.9 7.3.1 12.4 5.3 12.4 12.8 0 7.3-5.2 12.5-12.5 12.6m-719.8-31.5c-8.1-2.6-16.3-1-24.6-1.3v39.8c7.2 0 14 .5 20.8-.1 8.8-.8 14.6-7.8 15.5-17.4.9-10-3.6-18.3-11.7-21m1.1 25.2c-3.6 6.7-10 5-16.5 5v-23.1c5.5.2 11.5-1.7 15.6 3.5 3.5 4.5 3.4 9.8.9 14.6m954.1-.1c7.3-4.5 9.7-8.6 8.7-14.5-.9-5.8-4.1-9.9-9.9-11.2-7.8-1.7-15.7-.5-23.7-.7v39.7h9v-12.2c7.3-2.4 9.5 3.4 11.8 7.2 3.6 5.9 8.3 5.8 14.7 4.8-3.7-4.6-7-8.7-10.6-13.1m-6-7.2c-3.1.1-6.2 0-9.6 0v-11.4c3.4 0 6.5-.1 9.6 0 3.5.2 5.6 2.4 5.7 5.8.1 3.5-2.3 5.4-5.7 5.6m-569.8-11.1v7.5h19.1c.9 2.9.6 5.1.3 8h-19.1c-.5 2.9-.6 5.1.1 7.9h20.8c.8 2.9.6 5.3.3 8H1137v-39.3h29.2c.7 2.3.4 4.8.2 7.8-6.9.1-13.7.1-20.8.1m487.9 15.6v7.7h20.5c1 2.9.6 5.3.5 8.1h-29.7v-39.3h28.5c1.3 2.3.7 4.9.3 7.9h-19.3c-1.4 2.6-.9 4.8-.5 7.5h18.5c.6 2.8.5 5.2.1 8-6.3.1-12.4.1-18.9.1m-90-23.2c9.1-1.4 9.1-1.4 12.1 6.5 2.7 7 5.4 13.9 8.5 22 3-7.8 5.7-14.7 8.3-21.6 3.1-8.1 3.1-8.1 12.8-6.8-3.2 7.8-6.4 15.4-9.5 23-1.6 3.8-3.6 7.6-4.6 11.6-1.3 5.1-4.6 5.7-9 5.3-1.9-.2-3-.7-3.8-2.5-4.8-11.8-9.8-23.7-14.7-35.5-.1-.7 0-1.4-.1-2M1217.4 970h19.8c.7 2.7.5 5 .2 7.6H1209v-39c2.5-1.1 5.1-.5 8.4-.5zm60.6-31.5c2.8-.7 5.4-.6 8.5-.1v31.3h19.5c.9 2.8.5 5.1.4 7.8h-28.5c.1-12.7.1-25.6.1-39m-668.3-.3h8.3v39.5c-2.6.6-5.3.4-8.3.1z"/><path d="M1077.8 294.5c-.4.3-.8.5-1-.1-.1-.1 0-.3 0-.4.3.2.6.5.9.7 0-.1.1-.2.1-.2m-240 509.1c7-17.3 13.8-34.3 21-52.2 7.1 17.8 13.9 34.7 20.9 52.2zm368.2-52.3c7.2 18 13.9 34.9 20.9 52.3h-42c7-17.2 13.8-34.2 21.1-52.3M670.8 955.4c0-.4.1-.8.1-1.2l.6.6c-.2.2-.5.4-.7.6"/></g></svg>