<?xml version="1.0" encoding="utf-8"?>
<!-- Generator: Adobe Illustrator 23.1.1, SVG Export Plug-In . SVG Version: 6.00 Build 0)  -->
<svg version="1.1" id="Layer_1" xmlns="http://www.w3.org/2000/svg" xmlns:xlink="http://www.w3.org/1999/xlink" x="0px" y="0px"
	 viewBox="0 0 1708.1 1165.8" style="enable-background:new 0 0 1708.1 1165.8;" xml:space="preserve">
<style type="text/css">
	.st0{fill:#5AB847;}
	.st1{fill:#FDFEFD;}
	.st2{fill:#ABDBA2;}
</style>
<g>
	<path class="st0" d="M822,184.9c4,0,8,0,12,0c0.6,0.3,1.1,0.9,1.7,0.9c12.5,0,25.1,0,37.6,0c0.6,0,1.1-0.6,1.7-0.9c4,0,8,0,12,0
		c0.7,1.4,2,1,3.1,1c21.5,0.3,42.9,1.5,64.4,2.9c50.4,3.2,100.5,9.1,150.3,17.5c78.4,13.3,155.3,32.6,230.5,58.6
		c24.5,8.5,49,17.1,72.8,27.5c29,12.6,50.5,34.3,67.5,60.5c16.4,25.3,24.8,52.8,24.7,83.4c-0.4,155.3-0.2,310.6-0.2,466
		c0,2.1,0.4,4.3-0.5,6.5c-430.1,0-860.1,0-1290.2,0c0-83.7,0-167,0-250.5c1.2-0.1,2-0.2,2.9-0.2c42.3-0.3,84.6-0.7,127-1
		c37.7-0.3,75.3-0.7,113-1c45-0.4,90-0.7,135-1c42.2-0.3,84.3-0.7,126.5-1c48.7-0.4,97.3-0.6,146-1c38.3-0.3,76.6-0.7,115-1
		c44.5-0.4,89-0.7,133.5-1c42.7-0.3,85.3-0.7,128-1c45.7-0.3,91.3-0.7,137-1c38.5-0.3,77-0.4,115.5-0.7c1.5,0,3,0.3,4.4-0.6
		c0-16,0-32,0-48.9c-12.5,13.4-24.5,26.3-36.4,39.1c-24.1-14.2-47.3-28.5-70.2-43.3c-14.5-9.4-24.7-21.6-32.2-37
		c-17.7-36.6-33.3-74-48.8-111.5c-0.6-1.4-0.5-3.3-2.7-3.9c-16.2,35.2-32.3,70.4-48.7,106.1c-15.4-17.3-30.3-34.1-40.8-54.3
		c-3.4-6.5-7.7-12-13.4-16.6c-6.5-5.2-13.7-9.4-21.1-13.3c-11.3-6.1-23.9-9.3-35.2-15.2c-28.2-14.6-56.2-29.8-85.4-42.3
		c-5.2-2.2-10.4-4.4-16-5.5c-2.3-0.5-4.2-0.7-5.4,2.6c-6.9,18.8-17.8,35.3-30.2,50.9c-4.4,5.5-9.2,10.6-14.9,14.7
		c-14.6,10.4-35.8,8.1-47.7-5.2c-4.1-4.6-8.2-9.2-12.2-13.8c-9.3-10.4-18.5-20.9-28-31.5c-8.8,6.6-17.2,13-26,19.6
		c-37.3-62.4-74.5-124.5-111.9-187.1c-31.7,47.3-62.9,93.9-94.3,140.7c-10.4-4.1-20.5-8.5-30.9-12c-10.3-3.4-18.4-9.7-26.1-17
		c-6.6-6.3-13.8-11.9-20.4-17.5c-32.5,65.9-66,134.1-99.9,202.8c-8.4-11.2-16.7-21.4-26.3-30.4c-5.5-5.2-11.1-10.4-18.4-12.6
		c-6-1.9-11.3-4.9-16.2-8.7c-7.6-5.9-14.7-12.6-21.3-19.7c-6.4-7-12.7-14-19.3-21.2c-1,1.1-1.9,2.1-2.7,3.1
		c-11.3,14.4-22.9,28.6-35,42.4c-15.6,17.8-31.1,35.7-50.2,50c-29.3,21.8-61.4,39.3-93.5,56.6c-0.5,0.3-1.2,0.2-2.2,0.4
		c0-2.3,0-4.3,0-6.2c0-53.7,0.4-107.3-0.2-161c-0.4-32.4,8.5-61.8,25.5-88.9c16-25.5,36.2-46.7,64.4-58.6c30-12.7,60.7-23.8,91.7-34
		c69.5-22.9,140.3-40.4,212.5-52.7C671,195,739.7,188.3,808.9,186C813.2,185.8,817.8,187.1,822,184.9z M216,703.9
		c0.1,1.1,0.1,1.7,0.3,2.1c20.2,54.1,40.4,108.1,60.5,162.2c1,2.8,2.6,3.3,5.2,3.3c10.2-0.1,20.3-0.2,30.5,0c3.2,0.1,4.6-1,5.6-4.1
		c8.2-23.4,16.6-46.7,25-70c0.6-1.5,0.4-3.6,2.5-4.5c9.2,24.7,18.3,49.3,27.3,74c1.2,3.3,2.7,4.6,6.4,4.5c9.8-0.3,19.7-0.2,29.5,0
		c3.6,0.1,5.1-1.1,6.4-4.5c18.2-50.2,36.5-100.3,54.8-150.4c1.5-4,3.4-7.9,4.1-12.7c-16.6,0-32.9,0-49.2,0c-2.2,0-2.7,1.1-3.3,2.9
		c-8.2,24.9-18.6,49.2-24.3,74.9c-1.3,5.7-2.5,11.5-3.8,17.4c-2-1.3-1.9-3.1-2.4-4.6c-9.4-28.8-18.8-57.5-28.1-86.3
		c-1-3.2-2.3-4.5-5.8-4.3c-7.8,0.3-15.7,0.3-23.5,0c-4-0.2-5.7,1-6.9,5c-8.8,28.4-17.8,56.8-26.8,85.2c-0.5,1.6-0.6,3.4-2.3,4.9
		c-0.4-0.8-0.6-1.3-0.7-1.7c-4.6-31.6-18.2-60.4-28.4-90.2c-0.6-1.9-1.4-3-3.8-3C248.7,703.9,232.5,703.9,216,703.9z M1474.5,871.7
		c0-56,0-111.6,0-167.4c-15.7,0-31.1,0-47.2,0c0,21.2,0,42.1,0,63c-20.3,0-39.8,0-60.1,0c0-21.3,0-42.1,0-63c-16.1,0-31.6,0-47.2,0
		c0,55.9,0,111.5,0,167.2c15.8,0,31.4,0,47.6,0c0-21.1,0-42,0-62.8c20.3,0,39.8,0,59.9,0c0,21.2,0,42,0,62.9
		C1443.5,871.7,1458.8,871.7,1474.5,871.7z M654.5,871.7c0.7-1.8,0-2.6-0.4-3.5c-24-53.7-48.1-107.5-72-161.2
		c-1.2-2.7-2.7-3.2-5.3-3.2c-13.5,0.1-27,0.1-40.5,0c-3,0-4.4,1-5.5,3.6C507,760.7,483.1,814,459.3,867.2c-0.6,1.3-1.8,2.5-0.8,4.5
		c15.6,0,31.4,0,47.2,0c2.2,0,2.7-1.4,3.3-3c2.8-7.1,5.8-14.2,8.5-21.3c0.9-2.3,1.9-3.5,4.6-3.4c22.7,0.1,45.3,0.1,68,0
		c2.6,0,3.9,0.9,4.7,3.3c2.7,7.2,5.6,14.2,8.4,21.3c0.7,1.8,1.4,3.2,3.8,3.2C622.9,871.7,638.7,871.7,654.5,871.7z M1001.8,871.7
		c0.5-1.8-0.1-2.8-0.6-3.8c-24-53.6-47.9-107.1-71.8-160.8c-1.1-2.6-2.5-3.4-5.2-3.3c-13.5,0.1-27,0.2-40.5,0
		c-3.3-0.1-4.6,1.3-5.8,4c-23.7,53.1-47.6,106.2-71.4,159.3c-0.6,1.3-1.7,2.5-1,4.6c15.7,0,31.5,0,47.2,0c2.5,0,3-1.6,3.7-3.3
		c2.8-7,5.7-13.9,8.3-20.8c0.9-2.4,2-3.6,5-3.6c22.5,0.1,45,0.1,67.5,0c2.9,0,4.1,1,5,3.5c2.5,6.7,5.5,13.2,7.8,20
		c1.2,3.5,3.1,4.5,6.6,4.3c6.3-0.3,12.7-0.1,19-0.1C984.3,871.7,993.1,871.7,1001.8,871.7z M794.7,720.4c-3.4-2.3-6.2-4.4-9.1-6.3
		c-16.8-10.5-35.5-13.9-54.9-13.6c-16.5,0.2-32.5,3-46.9,11.8c-16.6,10.1-23.5,25.1-22.2,44.3c1.3,19,10.1,32.7,27.7,40.5
		c13,5.7,26.8,7.5,40.8,8.9c7.3,0.7,14.6,1.7,21.1,5.5c8.5,5,8.6,14.4,0.3,19.7c-1.9,1.2-4.1,2.2-6.3,2.8
		c-9.5,2.8-19.1,2.2-28.7,0.5c-13.1-2.3-24.3-8.4-34.1-17.6c-8.9,10.2-17.5,20.1-26.3,30.1c8.2,8.6,16.8,16.4,27.5,20.8
		c30.9,12.7,62,12.3,92.6-1c9.1-4,16.5-10.5,21.8-19.2c15.2-25,5.7-56.7-21.1-70.5c-13.1-6.8-27.2-9.6-41.7-11.1
		c-6-0.6-12-1.2-17.6-3.3c-5.7-2.1-8.6-6-8.4-11.1c0.2-5.5,3.8-8.3,8.4-10.1c4-1.6,8.3-2.3,12.7-2.4c14.6-0.3,28.4,2.5,40.6,11.3
		c0.7-0.7,1.2-1,1.6-1.5C779.6,739.5,786.9,730.2,794.7,720.4z M1272.8,818.4c-7.7,7.5-16.1,12.3-25.8,15
		c-21.7,6.2-42.7-1.4-52.4-19.2c-3.8-7-5.6-14.5-5.9-22.5c-0.5-18.9,4.8-35.4,22.2-44.9c17.6-9.6,35.3-7.4,51.8,3.9
		c2.1,1.5,4.1,3.1,6.7,5.1c9.4-10,18.6-19.9,28-29.9c0.3,0.5,0.2,0.2,0,0c-1.1-1-2.2-2-3.3-3c-27.4-23.7-58.9-28.2-92.7-18.3
		c-29.3,8.6-47.8,28.6-56.3,57.7c-5.9,20.2-4.9,40.5,1.9,60.4c7.4,21.5,21.7,36.7,42.8,45.4c9.8,4.1,20,6.2,30.5,7.1
		c21.3,1.8,41.9-0.3,61-10.9c7.1-3.9,13.7-8.6,19.4-14.9C1291.2,839.1,1282.2,828.9,1272.8,818.4z M1036,743c0,43.1,0,85.6,0,128.4
		c16,0,31.4,0,47.5,0c0-42.7,0-85.2,0-128.3c16.6,0,32.5,0,48.7,0c0-13.3,0-26,0-38.8c-48.4,0-96.6,0-144.8,0c0,13,0,25.6,0,38.7
		C1003.6,743,1019.5,743,1036,743z"/>
	<path class="st1" d="M369,954.8c5.7,5.6,10.3,12.2,14.9,18.6c3.1,4.3,6.5,5.7,11.5,4.1c0-13,0-26.1,0-39.3c-3,0-5.6,0-8.5,0
		c-1.3,8,0.2,15.9-0.2,24.9c-5.9-7.6-11.3-14-16.1-20.9c-2.9-4.1-6.2-5.1-10.8-3.7c0,13.1,0,26.1,0,39.4c3.1-0.1,5.9,0.4,8.5-0.4
		c0-7.7,0-15,0-22.3C368.6,955.2,368.8,955,369,954.8z M775.2,294.7c-0.3-0.2-0.6-0.5-0.9-0.7c0,0.1-0.1,0.3,0,0.4
		c0.3,0.5,0.7,0.4,1,0.1c-0.2,0.8-0.6,1.6-0.6,2.3c0.9,12.3-3.3,22.2-13.4,29.4c-2.3,1.7-4.2,4-5.1,6.7c-5.3,16-5.9,31.6,4.4,46.1
		c4.6,6.5,9.8,12.6,14.7,19c12.1,15.8,25.4,30.7,33.6,49.3c3.6,8.2,9.8,15.1,17.5,20.1c2,1.3,3.5,1.9,5.7,0
		c6.6-5.8,13.4-11.5,20.2-17.1c1.9-1.5,2.1-3,1.3-5.2c-5.7-14.4-12-28.6-21.4-41.1c-4.9-6.5-10.5-11.9-18.8-14.1
		c-5.8-1.5-8.9-6.1-10.5-11.7c-2-7.1-1.3-14.2,0.1-21.3c0.4-2.1,0.3-3.8-0.6-5.7C793.4,332.4,784.3,313.5,775.2,294.7z
		 M1061.4,427.3c0.6,2.7,0.8,4.1,1.2,5.5c3.4,12.7,6.9,25.3,10.1,38.1c0.8,3.2,2.3,5.7,4.6,8c14.5,14,29,28,43.3,42.2
		c2.2,2.2,4.1,2.3,6.7,1.5c18.6-5.2,37-10.8,55.9-14.8c2.1-0.4,3.1-1.4,2.3-3.4c-3.1-7.1-5.5-14.7-13-18.9
		c-14-7.9-28.8-14.3-44.9-15.7c-14.3-1.2-25.7-7.4-36.2-16.2c-3.7-3.1-7.2-6.5-10.8-9.7C1074.6,438.6,1069.6,432.1,1061.4,427.3z
		 M402.5,490.1c-1.7,2.2-1.1,4.1-1.1,5.9c-0.1,18,0.5,36-0.2,53.9c-0.5,10.6,1.8,19.4,9.2,27.1c3.9,4.1,7,9.1,10.4,13.6
		c4.2-2.1,7.1-4.5,10-7c11.2-9.3,17.9-21.8,23.9-34.6c5.9-12.8,6.6-9.6-3.1-19.8C437,514,416.6,506.2,402.5,490.1z M654.1,399
		c-10.7-4-21.7-5.2-30.5-11.3c-8.9-6.2-14.9-15.6-22.4-24.1c-6.3,17.5-12.5,34.5-18.7,51.4c-0.7,1.8,0.5,2.8,1.2,4
		c4.6,6.9,9.2,13.9,13.8,20.8c0.6,0.9,1.1,2.1,2.8,2c6.2-7.1,15-9.8,23.6-12.8c1.9-0.7,3.8-1.1,5.2-2.7
		C637.4,417.3,645.6,408.3,654.1,399z M1333.1,555.5c-9.5-26.4-18.9-52.4-28.2-78.3c-0.2,0.1-0.4,0.2-0.6,0.2c0,29.5,0,59,0,89.2
		C1314,562.8,1323.3,559.3,1333.1,555.5z M764.5,956.3c2.7,6.9,5.1,12.6,7.1,18.6c1,2.9,2.8,3.1,5.3,3.2c2.5,0.1,3.9-0.6,4.8-3.2
		c2.5-7.2,5.2-14.4,7.7-21.6c1.8-4.9,3.5-9.9,5.3-14.9c-9.8-1.1-9.9-1.1-12.8,7.5c-1.9,5.5-3.5,11.1-5.5,17.6
		c-2.7-7.7-5.2-14.5-7.6-21.4c-0.8-2.2-1.2-4.2-4.5-4.2c-3.3,0-3.7,2.1-4.4,4.3c-2.3,6.8-4.7,13.7-7.3,21.3
		c-2.1-6.5-3.8-12.1-5.7-17.6c-2.9-8.2-2.9-8.2-11.8-7.8c-0.2,0-0.5,0.3-1,0.7c4.6,12.2,9.2,24.4,13.7,36.7c1.1,3,3.2,2.3,5.2,2.5
		c2.3,0.2,3.6-0.5,4.4-2.8C759.5,969.3,761.8,963.4,764.5,956.3z M237.2,956.4c2.4,6.2,4.5,11.4,6.5,16.6c1,2.8,1.6,5.3,5.9,5.2
		c4-0.1,4.5-2.4,5.5-5.1c3.5-9.8,7.2-19.6,10.7-29.5c0.6-1.6,1.9-3.2,1.1-5.2c-9.1-1.2-9.1-1.2-11.9,7.2c-1.8,5.6-3.5,11.2-5.6,17.9
		c-2.7-7.8-5.1-14.6-7.6-21.5c-0.8-2.2-1.4-4.2-4.6-4.1c-3.3,0-3.6,2.2-4.4,4.4c-2.3,6.7-4.6,13.5-7.2,21.1
		c-2.6-7.7-4.9-14.3-6.9-20.9c-1-3.4-2.8-5-6.4-4.4c-1.6,0.2-3.3,0-5.6,0c4.6,12.5,9.1,24.5,13.5,36.4c0.9,2.5,2,3.8,5,3.7
		c2.9-0.1,4.5-0.8,5.5-3.7C232.4,968.7,234.7,963,237.2,956.4z M593.6,938.6c4.6,12.3,9.1,24.1,13.3,35.9c1,2.9,2.6,3.6,5.4,3.7
		c2.9,0,4.1-1.1,4.9-3.7c1.9-5.7,4.2-11.3,6.8-18.1c2.7,7.2,5.1,12.8,7.1,18.6c1,2.9,2.8,3.1,5.3,3.1c2.5,0,3.8-0.6,4.7-3.2
		c3.9-11.1,8-22.2,12-33.3c0.4-1,1.2-2.1,0.3-3.2c-9.1-1-9.2-1-11.9,7.3c-1.8,5.5-3.5,11.1-5.6,17.9c-2.8-8-5.2-14.6-7.6-21.3
		c-0.8-2.2-1.2-4.2-4.5-4.2c-3.4,0-3.7,2.2-4.4,4.3c-2.3,6.7-4.5,13.4-7.2,21.2c-2.3-6.9-4.2-12.7-6.2-18.5
		c-2.6-7.3-2.6-7.3-10.4-6.9C595.2,938.1,594.7,938.3,593.6,938.6z M916.2,448.3c0,20.4,0,39.4,0,59.2c11.4-6,22.3-11.7,33.5-17.6
		C938.5,476,927.8,462.6,916.2,448.3z M535.9,979.1c13.3,0.1,21.7-7.9,21.9-20.6c0.1-12.8-8.6-21.4-21.8-21.4
		c-13.1,0-21.6,8.3-21.5,21C514.5,971,522.6,979,535.9,979.1z M1183.6,979.1c13.3,0,21.4-8,21.4-20.9c0-12.9-8.3-21-21.5-21
		c-13.4,0-21.8,8.2-21.7,21.3C1161.9,971.2,1170.2,979.1,1183.6,979.1z M439.1,977.9c7.2,0,14,0.5,20.7-0.1
		c8.8-0.8,14.6-7.8,15.5-17.4c1-9.9-3.5-18.2-11.7-20.9c-8.1-2.6-16.3-1-24.6-1.3C439.1,951.7,439.1,964.4,439.1,977.9z M1419,964.5
		c7.3-4.5,9.7-8.6,8.7-14.5c-0.9-5.8-4.1-9.9-9.9-11.2c-7.8-1.7-15.7-0.5-23.6-0.7c0,13.7,0,26.6,0,39.7c3,0,5.7,0,9,0
		c0-4.3,0-8.4,0-12.2c7.3-2.4,9.5,3.4,11.8,7.2c3.6,5.9,8.3,5.8,14.7,4.8C1425.9,973,1422.6,968.9,1419,964.5z M843.1,946.2
		c7.2,0,13.9,0,20.7,0c0.1-3,0.5-5.5-0.2-7.8c-9.9,0-19.5,0-29.2,0c0,13.3,0,26.2,0,39.3c10.2,0,20,0,30.1,0c0.3-2.7,0.5-5.1-0.3-8
		c-7,0-13.9,0-20.8,0c-0.7-2.8-0.6-5-0.1-7.9c6.4,0,12.8,0,19.1,0c0.4-2.9,0.6-5.2-0.3-8c-6.3,0-12.7,0-19.1,0
		C843.1,951.2,843.1,949.2,843.1,946.2z M1331,961.8c6.5,0,12.6,0,18.8,0c0.4-2.8,0.5-5.2-0.1-8c-6.3,0-12.4,0-18.5,0
		c-0.4-2.7-0.9-4.9,0.5-7.5c6.3,0,12.7,0,19.3,0c0.4-3,1-5.5-0.3-7.9c-9.7,0-19.1,0-28.5,0c0,13.4,0,26.4,0,39.3
		c10.2,0,19.9,0,29.7,0c0.1-2.8,0.5-5.3-0.5-8.1c-6.8,0-13.6,0-20.5,0C1331,966.9,1331,964.8,1331,961.8z M1241,938.6
		c0.1,0.6,0,1.3,0.2,1.9c4.9,11.8,9.8,23.6,14.7,35.5c0.7,1.8,1.9,2.3,3.8,2.5c4.4,0.4,7.6-0.2,9-5.3c1-4,3-7.7,4.6-11.6
		c3.2-7.6,6.3-15.3,9.5-23c-9.8-1.3-9.7-1.3-12.8,6.8c-2.6,6.9-5.3,13.8-8.3,21.6c-3.1-8-5.8-15-8.5-22
		C1250.2,937.2,1250.2,937.2,1241,938.6z M914.9,970c0-11.1,0-21.5,0-31.9c-3.3,0-5.9-0.6-8.4,0.5c0,13.1,0,26,0,39
		c9.7,0,19.1,0,28.4,0c0.3-2.7,0.5-5-0.2-7.6C928.5,970,922.2,970,914.9,970z M975.5,938.5c0,13.3,0,26.2,0,39.1
		c9.7,0,19.1,0,28.5,0c0.1-2.7,0.5-5-0.4-7.8c-6.3,0-12.7,0-19.5,0c0-10.8,0-21,0-31.3C980.9,937.9,978.3,937.8,975.5,938.5z
		 M307.2,938.2c0,13.4,0,26.5,0,39.6c3,0.2,5.7,0.5,8.3-0.1c0-13.4,0-26.4,0-39.5C312.7,938.2,310.2,938.2,307.2,938.2z"/>
	<path class="st0" d="M1479,979.9c-3.9-2.9-9.5-3.2-12.1-8.9c1.4-1.5,3-3.3,4.9-5.4c4,3.3,8.2,5.9,13.5,5.4c3.1-0.3,6.4-0.7,6.6-4.6
		c0.2-3.7-3-4.3-5.8-4.8c-3.3-0.6-6.6-0.9-9.8-1.8c-4.3-1.2-7.2-3.9-7.9-8.6c-0.7-4.7,0.9-8.4,4.6-11.4c5.5-4.5,21.8-4.7,25.8,3.4
		c-1.6,1.4-3.3,2.9-5.3,4.6c-3.5-2.7-7.4-3.6-11.7-3c-2.3,0.4-4.3,1.5-4.5,4c-0.1,2.7,2,3.6,4.3,4c2.9,0.5,6,0.7,8.9,1.4
		c6.9,1.6,10.5,5.8,10.5,12c0.1,6.2-3.5,10.5-10.1,12.5c-1,0.3-2.4-0.3-3,1.2C1485,979.9,1482,979.9,1479,979.9z"/>
	<path class="st0" d="M1106,979.9c-0.4-1.3-1.6-1-2.5-1.2c-9.6-2.8-14.1-8.3-15-18.2c-0.8-9.3,3.5-17.5,11.1-21.1
		c8.5-4,17.6-2.6,24.7,4c-1.1,2.2-3.1,3.6-4.7,5.3c-10.3-4-16-3.3-19.8,2.2c-3.3,4.7-2.9,12.2,0.8,16.3c4.2,4.7,11.1,4.8,18.8,0.2
		c2.4,1.3,3.9,3.5,5.6,5.7c-3.1,4.9-8.7,4.7-13,6.9C1110,979.9,1108,979.9,1106,979.9z"/>
	<path class="st2" d="M875,184.9c-0.6,0.3-1.1,0.9-1.7,0.9c-12.5,0-25.1,0-37.6,0c-0.6,0-1.1-0.6-1.7-0.9
		C847.6,184.9,861.3,184.9,875,184.9z"/>
	<path class="st0" d="M775.2,294.6c9.1,18.9,18.1,37.8,27.3,56.7c0.9,1.9,1.1,3.6,0.6,5.7c-1.4,7.1-2.1,14.2-0.1,21.3
		c1.6,5.6,4.7,10.2,10.5,11.7c8.3,2.2,13.9,7.6,18.8,14.1c9.4,12.5,15.6,26.6,21.4,41.1c0.9,2.2,0.6,3.6-1.3,5.2
		c-6.8,5.6-13.6,11.3-20.2,17.1c-2.2,1.9-3.7,1.3-5.7,0c-7.7-5.1-13.9-11.9-17.5-20.1c-8.2-18.6-21.6-33.5-33.6-49.3
		c-4.8-6.4-10-12.5-14.7-19c-10.3-14.4-9.7-30.1-4.4-46.1c0.9-2.7,2.8-5,5.1-6.7c10.2-7.2,14.4-17.1,13.4-29.4
		c-0.1-0.8,0.4-1.6,0.6-2.3C775.4,294.5,775.2,294.6,775.2,294.6z"/>
	<path class="st0" d="M1061.4,427.3c8.1,4.8,13.2,11.3,19.2,16.7c3.6,3.2,7.1,6.6,10.8,9.7c10.5,8.8,22,15,36.2,16.2
		c16.1,1.4,30.8,7.8,44.9,15.7c7.5,4.2,9.9,11.8,13,18.9c0.9,2-0.2,3-2.3,3.4c-18.9,4-37.4,9.5-55.9,14.8c-2.6,0.7-4.5,0.6-6.7-1.5
		c-14.3-14.2-28.8-28.2-43.3-42.2c-2.4-2.3-3.8-4.8-4.6-8c-3.2-12.7-6.7-25.4-10.1-38.1C1062.2,431.4,1062,429.9,1061.4,427.3z"/>
	<path class="st0" d="M402.5,490.1c14,16.1,34.4,24,49.1,39.1c9.8,10.1,9,7,3.1,19.8c-5.9,12.9-12.7,25.3-23.9,34.6
		c-2.9,2.5-5.9,4.9-10,7c-3.4-4.5-6.5-9.4-10.4-13.6c-7.3-7.7-9.6-16.5-9.2-27.1c0.8-17.9,0.2-35.9,0.2-53.9
		C401.5,494.2,400.9,492.3,402.5,490.1z"/>
	<path class="st0" d="M654.1,399c-8.6,9.4-16.8,18.3-24.9,27.3c-1.4,1.6-3.4,2-5.2,2.7c-8.6,3.1-17.4,5.8-23.6,12.8
		c-1.7,0.2-2.2-1-2.8-2c-4.6-6.9-9.3-13.8-13.8-20.8c-0.8-1.2-1.9-2.2-1.2-4c6.2-17,12.4-33.9,18.7-51.4
		c7.5,8.5,13.5,17.9,22.4,24.1C632.4,393.8,643.4,395,654.1,399z"/>
	<path class="st0" d="M1333.1,555.5c-9.8,3.8-19.1,7.4-28.8,11.1c0-30.2,0-59.7,0-89.2c0.2-0.1,0.4-0.2,0.6-0.2
		C1314.2,503.1,1323.6,529.1,1333.1,555.5z"/>
	<path class="st0" d="M764.5,956.3c-2.6,7.1-5,12.9-7,18.9c-0.8,2.4-2.2,3-4.4,2.8c-2.1-0.2-4.2,0.5-5.2-2.5
		c-4.4-12.3-9.1-24.6-13.7-36.7c0.5-0.4,0.7-0.7,1-0.7c8.9-0.5,9-0.5,11.8,7.8c1.9,5.5,3.6,11,5.7,17.6c2.6-7.6,5-14.5,7.3-21.3
		c0.7-2.2,1.1-4.3,4.4-4.3c3.3,0,3.7,2,4.5,4.2c2.4,6.8,4.8,13.7,7.6,21.4c2-6.5,3.6-12.1,5.5-17.6c2.9-8.6,3-8.6,12.8-7.5
		c-1.8,5.1-3.6,10-5.3,14.9c-2.6,7.2-5.3,14.3-7.7,21.6c-0.9,2.5-2.3,3.2-4.8,3.2c-2.5-0.1-4.3-0.2-5.3-3.2
		C769.6,969,767.1,963.2,764.5,956.3z"/>
	<path class="st0" d="M237.2,956.4c-2.5,6.6-4.8,12.3-6.7,18.1c-1,2.9-2.6,3.6-5.5,3.7c-2.9,0.1-4.1-1.2-5-3.7
		c-4.3-12-8.8-23.9-13.5-36.4c2.3,0,4,0.2,5.6,0c3.6-0.5,5.4,1,6.4,4.4c2,6.7,4.3,13.2,6.9,20.9c2.6-7.6,4.9-14.3,7.2-21.1
		c0.7-2.2,1-4.3,4.4-4.4c3.3,0,3.8,1.9,4.6,4.1c2.4,6.8,4.8,13.7,7.6,21.5c2.1-6.7,3.8-12.3,5.6-17.9c2.8-8.4,2.8-8.4,11.9-7.2
		c0.8,2-0.5,3.6-1.1,5.2c-3.5,9.9-7.2,19.6-10.7,29.5c-1,2.7-1.5,5-5.5,5.1c-4.2,0.1-4.8-2.4-5.9-5.2
		C241.7,967.8,239.6,962.6,237.2,956.4z"/>
	<path class="st0" d="M593.6,938.6c1.1-0.3,1.6-0.4,2.1-0.5c7.8-0.4,7.9-0.4,10.4,6.9c2,5.7,3.9,11.5,6.2,18.5
		c2.6-7.8,4.9-14.5,7.2-21.2c0.7-2.1,1.1-4.3,4.4-4.3c3.3,0,3.7,2,4.5,4.2c2.3,6.7,4.7,13.4,7.6,21.3c2.1-6.8,3.8-12.3,5.6-17.9
		c2.7-8.2,2.8-8.2,11.9-7.3c0.8,1.2,0,2.2-0.3,3.2c-4,11.1-8.1,22.1-12,33.3c-0.9,2.6-2.2,3.2-4.7,3.2c-2.5,0-4.4-0.2-5.3-3.1
		c-2-5.8-4.3-11.5-7.1-18.6c-2.6,6.9-4.9,12.4-6.8,18.1c-0.9,2.6-2,3.7-4.9,3.7c-2.9,0-4.4-0.8-5.4-3.7
		C602.7,962.6,598.2,950.9,593.6,938.6z"/>
	<path class="st0" d="M368.3,955.4c0,7.3,0,14.6,0,22.3c-2.6,0.8-5.4,0.2-8.5,0.4c0-13.4,0-26.4,0-39.4c4.6-1.4,7.9-0.4,10.8,3.7
		c4.8,6.9,10.2,13.4,16.1,20.9c0.4-9-1.1-16.9,0.2-24.9c2.9,0,5.5,0,8.5,0c0,13.2,0,26.2,0,39.3c-5,1.6-8.4,0.2-11.5-4.1
		c-4.6-6.4-9.2-13-14.9-18.6c-0.2-0.2-0.4-0.4-0.6-0.6C368.4,954.6,368.4,955,368.3,955.4z"/>
	<path class="st0" d="M916.2,448.3c11.6,14.4,22.3,27.7,33.5,41.6c-11.2,5.9-22.1,11.6-33.5,17.6
		C916.2,487.7,916.2,468.6,916.2,448.3z"/>
	<path class="st0" d="M535.9,979.1c-13.3-0.1-21.4-8-21.4-21c0-12.7,8.4-21,21.5-21c13.2,0,21.9,8.5,21.8,21.4
		C557.6,971.1,549.2,979.1,535.9,979.1z M548.8,958c-0.1-7.3-5.4-12.6-12.7-12.6c-7.3,0-12.6,5.3-12.6,12.6
		c-0.1,7.6,5.4,13,12.9,12.9C543.5,970.7,548.9,965.2,548.8,958z"/>
	<path class="st0" d="M1183.6,979.1c-13.3,0-21.6-7.9-21.7-20.7c-0.1-13.1,8.3-21.3,21.7-21.3c13.1,0,21.4,8.2,21.5,21
		C1205,971.1,1196.9,979,1183.6,979.1z M1196,958.2c0-7.5-5.1-12.7-12.4-12.8c-7.5-0.1-12.8,5.3-12.8,12.9c0,7.2,5.5,12.6,12.7,12.5
		C1190.8,970.8,1196,965.6,1196,958.2z"/>
	<path class="st0" d="M439.1,977.9c0-13.4,0-26.2,0-39.8c8.3,0.4,16.6-1.3,24.6,1.3c8.2,2.7,12.6,11,11.7,20.9
		c-1,9.7-6.8,16.6-15.5,17.4C453.1,978.3,446.3,977.9,439.1,977.9z M448.3,969.6c6.4,0,12.9,1.7,16.5-5c2.6-4.8,2.7-10.1-0.8-14.6
		c-4.2-5.3-10.1-3.4-15.6-3.5C448.3,954.5,448.3,961.7,448.3,969.6z"/>
	<path class="st0" d="M1419,964.5c3.6,4.4,6.9,8.5,10.6,13.1c-6.3,1.1-11.1,1.1-14.7-4.8c-2.3-3.8-4.5-9.6-11.8-7.2
		c0,3.8,0,7.9,0,12.2c-3.3,0-6,0-9,0c0-13.1,0-26,0-39.7c7.9,0.2,15.8-0.9,23.6,0.7c5.8,1.2,9,5.4,9.9,11.2
		C1428.7,955.9,1426.3,960,1419,964.5z M1403.3,945.9c0,4.1,0,7.6,0,11.4c3.4,0,6.5,0.1,9.6,0c3.5-0.2,5.8-2.1,5.7-5.6
		c-0.1-3.3-2.2-5.5-5.7-5.7C1409.8,945.8,1406.7,945.9,1403.3,945.9z"/>
	<path class="st0" d="M843.1,946.2c0,3,0,4.9,0,7.5c6.4,0,12.8,0,19.1,0c0.9,2.9,0.6,5.1,0.3,8c-6.4,0-12.8,0-19.1,0
		c-0.5,2.9-0.6,5.1,0.1,7.9c6.9,0,13.8,0,20.8,0c0.8,2.9,0.6,5.3,0.3,8c-10.1,0-20,0-30.1,0c0-13.1,0-26,0-39.3c9.7,0,19.3,0,29.2,0
		c0.7,2.3,0.4,4.8,0.2,7.8C857,946.2,850.3,946.2,843.1,946.2z"/>
	<path class="st0" d="M1331,961.8c0,2.9,0,5.1,0,7.7c6.9,0,13.7,0,20.5,0c1,2.9,0.6,5.3,0.5,8.1c-9.8,0-19.6,0-29.7,0
		c0-12.9,0-25.9,0-39.3c9.4,0,18.8,0,28.5,0c1.3,2.3,0.7,4.9,0.3,7.9c-6.6,0-13,0-19.3,0c-1.4,2.6-0.9,4.8-0.5,7.5
		c6.1,0,12.2,0,18.5,0c0.6,2.8,0.5,5.2,0.1,8C1343.6,961.8,1337.5,961.8,1331,961.8z"/>
	<path class="st0" d="M1241,938.6c9.1-1.4,9.1-1.4,12.1,6.5c2.7,7,5.4,13.9,8.5,22c3-7.8,5.7-14.7,8.3-21.6
		c3.1-8.1,3.1-8.1,12.8-6.8c-3.2,7.8-6.4,15.4-9.5,23c-1.6,3.8-3.6,7.6-4.6,11.6c-1.3,5.1-4.6,5.7-9,5.3c-1.9-0.2-3-0.7-3.8-2.5
		c-4.8-11.8-9.8-23.7-14.7-35.5C1241,939.9,1241.1,939.2,1241,938.6z"/>
	<path class="st0" d="M914.9,970c7.3,0,13.6,0,19.8,0c0.7,2.7,0.5,5,0.2,7.6c-9.4,0-18.8,0-28.4,0c0-13,0-25.9,0-39
		c2.5-1.1,5.1-0.5,8.4-0.5C914.9,948.6,914.9,958.9,914.9,970z"/>
	<path class="st0" d="M975.5,938.5c2.8-0.7,5.4-0.6,8.5-0.1c0,10.3,0,20.5,0,31.3c6.9,0,13.3,0,19.5,0c0.9,2.8,0.5,5.1,0.4,7.8
		c-9.4,0-18.8,0-28.5,0C975.5,964.8,975.5,951.9,975.5,938.5z"/>
	<path class="st0" d="M307.2,938.2c3,0,5.5,0,8.3,0c0,13.1,0,26.1,0,39.5c-2.6,0.6-5.3,0.4-8.3,0.1
		C307.2,964.6,307.2,951.6,307.2,938.2z"/>
	<path class="st0" d="M775.4,294.5c-0.4,0.3-0.8,0.5-1-0.1c-0.1-0.1,0-0.3,0-0.4c0.3,0.2,0.6,0.5,0.9,0.7
		C775.2,294.6,775.4,294.5,775.4,294.5z"/>
	<path class="st0" d="M535.3,803.6c7-17.3,13.8-34.3,21-52.2c7.1,17.8,13.9,34.7,20.9,52.2C563.2,803.6,549.6,803.6,535.3,803.6z"/>
	<path class="st0" d="M903.5,751.3c7.2,18,13.9,34.9,20.9,52.3c-14.1,0-27.6,0-42,0C889.4,786.4,896.2,769.4,903.5,751.3z"/>
	<path class="st1" d="M368.3,955.4c0-0.4,0.1-0.8,0.1-1.2c0.2,0.2,0.4,0.4,0.6,0.6C368.8,955,368.6,955.2,368.3,955.4z"/>
</g>
</svg>
